<?xml version="1.0" encoding="UTF-8" standalone="no"?>
<!-- Created with Inkscape (http://www.inkscape.org/) -->

<svg
   width="66.016647mm"
   height="66.375488mm"
   viewBox="0 0 66.016647 66.375488"
   version="1.1"
   id="svg185766"
   inkscape:version="1.1.1 (3bf5ae0d25, 2021-09-20)"
   sodipodi:docname="prix-bieres.svg"
   xmlns:inkscape="http://www.inkscape.org/namespaces/inkscape"
   xmlns:sodipodi="http://sodipodi.sourceforge.net/DTD/sodipodi-0.dtd"
   xmlns="http://www.w3.org/2000/svg"
   xmlns:svg="http://www.w3.org/2000/svg">
  <sodipodi:namedview
     id="namedview185768"
     pagecolor="#505050"
     bordercolor="#eeeeee"
     borderopacity="1"
     inkscape:pageshadow="0"
     inkscape:pageopacity="0"
     inkscape:pagecheckerboard="0"
     inkscape:document-units="mm"
     showgrid="false"
     fit-margin-top="0"
     fit-margin-left="0"
     fit-margin-right="0"
     fit-margin-bottom="0"
     inkscape:zoom="0.54929737"
     inkscape:cx="605.31875"
     inkscape:cy="108.3202"
     inkscape:window-width="1920"
     inkscape:window-height="1057"
     inkscape:window-x="1912"
     inkscape:window-y="-8"
     inkscape:window-maximized="1"
     inkscape:current-layer="layer2" />
  <defs
     id="defs185763">
    <clipPath
       clipPathUnits="userSpaceOnUse"
       id="clipath_lpe_path-effect31884">
      <path
         id="lpe_path-effect31884"
         style="opacity:0.63782;fill:#000000;stroke:#ff0000;stroke-width:0;stroke-miterlimit:4;stroke-dasharray:none;stroke-opacity:1"
         class="powerclip"
         d="m 170.53277,79.799791 h 66.69279 v 66.692789 h -66.69279 z m -19.26223,26.168919 v 13.90839 h 103.39129 v -13.90839 z" />
    </clipPath>
    <clipPath
       clipPathUnits="userSpaceOnUse"
       id="clipath_lpe_path-effect31884-9">
      <path
         id="lpe_path-effect31884-5"
         style="opacity:0.63782;fill:#000000;stroke:#ff0000;stroke-width:0;stroke-miterlimit:4;stroke-dasharray:none;stroke-opacity:1"
         class="powerclip"
         d="m 170.53277,79.799791 h 66.69279 v 66.692789 h -66.69279 z m -19.26223,26.168919 v 13.90839 h 103.39129 v -13.90839 z" />
    </clipPath>
    <clipPath
       clipPathUnits="userSpaceOnUse"
       id="clipath_lpe_path-effect31884-7">
      <path
         id="lpe_path-effect31884-0"
         style="opacity:0.63782;fill:#000000;stroke:#ff0000;stroke-width:0;stroke-miterlimit:4;stroke-dasharray:none;stroke-opacity:1"
         class="powerclip"
         d="m 170.53277,79.799791 h 66.69279 v 66.692789 h -66.69279 z m -19.26223,26.168919 v 13.90839 h 103.39129 v -13.90839 z" />
    </clipPath>
    <clipPath
       clipPathUnits="userSpaceOnUse"
       id="clipath_lpe_path-effect31884-8">
      <path
         id="lpe_path-effect31884-9"
         style="opacity:0.63782;fill:#000000;stroke:#ff0000;stroke-width:0;stroke-miterlimit:4;stroke-dasharray:none;stroke-opacity:1"
         class="powerclip"
         d="m 170.53277,79.799791 h 66.69279 v 66.692789 h -66.69279 z m -19.26223,26.168919 v 13.90839 h 103.39129 v -13.90839 z" />
    </clipPath>
    <clipPath
       clipPathUnits="userSpaceOnUse"
       id="clipath_lpe_path-effect31884-9-1">
      <path
         id="lpe_path-effect31884-5-7"
         style="opacity:0.63782;fill:#000000;stroke:#ff0000;stroke-width:0;stroke-miterlimit:4;stroke-dasharray:none;stroke-opacity:1"
         class="powerclip"
         d="m 170.53277,79.799791 h 66.69279 v 66.692789 h -66.69279 z m -19.26223,26.168919 v 13.90839 h 103.39129 v -13.90839 z" />
    </clipPath>
    <clipPath
       clipPathUnits="userSpaceOnUse"
       id="clipath_lpe_path-effect31884-9-7">
      <path
         id="lpe_path-effect31884-5-2"
         style="opacity:0.63782;fill:#000000;stroke:#ff0000;stroke-width:0;stroke-miterlimit:4;stroke-dasharray:none;stroke-opacity:1"
         class="powerclip"
         d="m 170.53277,79.799791 h 66.69279 v 66.692789 h -66.69279 z m -19.26223,26.168919 v 13.90839 h 103.39129 v -13.90839 z" />
    </clipPath>
    <clipPath
       clipPathUnits="userSpaceOnUse"
       id="clipath_lpe_path-effect31884-6">
      <path
         id="lpe_path-effect31884-55"
         style="opacity:0.63782;fill:#000000;stroke:#ff0000;stroke-width:0;stroke-miterlimit:4;stroke-dasharray:none;stroke-opacity:1"
         class="powerclip"
         d="m 170.53277,79.799791 h 66.69279 v 66.692789 h -66.69279 z m -19.26223,26.168919 v 13.90839 h 103.39129 v -13.90839 z" />
    </clipPath>
    <clipPath
       clipPathUnits="userSpaceOnUse"
       id="clipath_lpe_path-effect31884-9-4">
      <path
         id="lpe_path-effect31884-5-0"
         style="opacity:0.63782;fill:#000000;stroke:#ff0000;stroke-width:0;stroke-miterlimit:4;stroke-dasharray:none;stroke-opacity:1"
         class="powerclip"
         d="m 170.53277,79.799791 h 66.69279 v 66.692789 h -66.69279 z m -19.26223,26.168919 v 13.90839 h 103.39129 v -13.90839 z" />
    </clipPath>
    <clipPath
       clipPathUnits="userSpaceOnUse"
       id="clipath_lpe_path-effect31884-9-1-6">
      <path
         id="lpe_path-effect31884-5-7-6"
         style="opacity:0.63782;fill:#000000;stroke:#ff0000;stroke-width:0;stroke-miterlimit:4;stroke-dasharray:none;stroke-opacity:1"
         class="powerclip"
         d="m 170.53277,79.799791 h 66.69279 v 66.692789 h -66.69279 z m -19.26223,26.168919 v 13.90839 h 103.39129 v -13.90839 z" />
    </clipPath>
    <clipPath
       clipPathUnits="userSpaceOnUse"
       id="clipath_lpe_path-effect31884-9-7-8">
      <path
         id="lpe_path-effect31884-5-2-6"
         style="opacity:0.63782;fill:#000000;stroke:#ff0000;stroke-width:0;stroke-miterlimit:4;stroke-dasharray:none;stroke-opacity:1"
         class="powerclip"
         d="m 170.53277,79.799791 h 66.69279 v 66.692789 h -66.69279 z m -19.26223,26.168919 v 13.90839 h 103.39129 v -13.90839 z" />
    </clipPath>
  </defs>
  <g
     inkscape:groupmode="layer"
     id="layer2"
     inkscape:label="Calque 2"
     transform="translate(-22.043589,-12.31832)" />
  <g
     inkscape:label="Calque 1"
     inkscape:groupmode="layer"
     id="layer1"
     style="display:inline"
     transform="translate(-22.043589,-12.31832)">
    <path
       id="path16460-2-8"
       transform="matrix(0.51187005,0,0,0.51187005,-67.806376,-31.088153)"
       clip-path="url(#clipath_lpe_path-effect31884)"
       d="m 230.33838,113.14619 a 26.459211,26.459211 0 0 1 -26.45921,26.45921 26.459211,26.459211 0 0 1 -26.45922,-26.45921 26.459211,26.459211 0 0 1 26.45922,-26.459215 26.459211,26.459211 0 0 1 26.45921,26.459215 z"
       style="fill:none;stroke:#000000;stroke-width:3.77437;stroke-miterlimit:4;stroke-dasharray:none;stroke-opacity:1" />
    <g
       aria-label="4€"
       id="text188141"
       style="font-size:11.5635px;line-height:1.25;font-family:'Barlow Condensed';-inkscape-font-specification:'Barlow Condensed, ';stroke-width:0.289085">
      <path
         d="m 36.94037,24.804009 q 0.05782,0 0.09251,0.04625 0.04625,0.03469 0.04625,0.09251 v 0.936644 q 0,0.05782 -0.04625,0.104071 -0.03469,0.03469 -0.09251,0.03469 h -0.346905 q -0.05782,0 -0.05782,0.05782 v 1.907978 q 0,0.05782 -0.04625,0.104072 -0.03469,0.03469 -0.09251,0.03469 h -1.063842 q -0.05782,0 -0.104071,-0.03469 -0.03469,-0.04625 -0.03469,-0.104072 v -1.907978 q 0,-0.05782 -0.05782,-0.05782 h -2.844621 q -0.05782,0 -0.104072,-0.03469 -0.03469,-0.04625 -0.03469,-0.104071 v -0.751628 q 0,-0.104071 0.02313,-0.173452 l 1.607326,-4.810416 q 0.03469,-0.115635 0.150326,-0.115635 h 1.15635 q 0.06938,0 0.104071,0.04625 0.03469,0.03469 0.01156,0.115635 l -1.480128,4.544455 q -0.01156,0.06938 0.04625,0.06938 h 1.364493 q 0.05782,0 0.05782,-0.05782 v -1.38762 q 0,-0.05782 0.03469,-0.09251 0.04625,-0.04625 0.104071,-0.04625 h 1.063842 q 0.05782,0 0.09251,0.04625 0.04625,0.03469 0.04625,0.09251 v 1.38762 q 0,0.05782 0.05782,0.05782 z"
         style="font-weight:600;font-stretch:condensed;-inkscape-font-specification:'Barlow Condensed,  Semi-Bold Condensed'"
         id="path296789" />
      <path
         d="m 40.059555,27.213978 q 0.237067,0 0.385234,-0.158044 0.158044,-0.167922 0.187677,-0.454378 0.01976,-0.118533 0.128412,-0.108656 l 0.898878,0.118534 q 0.05927,0.0099 0.07902,0.04939 0.02963,0.02963 0.01975,0.0889 -0.108655,0.681566 -0.563033,1.0668 -0.454378,0.385233 -1.135945,0.385233 -0.780344,0 -1.254478,-0.503766 -0.464256,-0.513645 -0.464256,-1.353256 v -0.750712 q 0,-0.04939 -0.04939,-0.04939 h -0.493889 q -0.04939,0 -0.0889,-0.02963 -0.02963,-0.03951 -0.02963,-0.0889 v -0.385233 q 0,-0.04939 0.02963,-0.07902 0.03951,-0.03951 0.0889,-0.03951 h 0.493889 q 0.04939,0 0.04939,-0.04939 v -0.395111 q 0,-0.04939 -0.04939,-0.04939 h -0.493889 q -0.04939,0 -0.0889,-0.02963 -0.02963,-0.03951 -0.02963,-0.0889 v -0.375356 q 0,-0.04939 0.02963,-0.07902 0.03951,-0.03951 0.0889,-0.03951 h 0.493889 q 0.04939,0 0.04939,-0.04939 v -0.790222 q 0,-0.849489 0.464256,-1.343378 0.474134,-0.503767 1.254478,-0.503767 0.701323,0 1.1557,0.404989 0.464256,0.395111 0.563034,1.086556 v 0.01975 q 0,0.0889 -0.108656,0.108656 l -0.908755,0.108655 h -0.01976 q -0.0889,0 -0.108656,-0.108655 -0.01976,-0.286456 -0.1778,-0.454378 -0.148166,-0.1778 -0.395111,-0.1778 -0.256822,0 -0.414867,0.217311 -0.158044,0.217311 -0.158044,0.563033 v 0.869245 q 0,0.04939 0.04939,0.04939 H 41.0177 q 0.05927,0 0.0889,0.03951 0.02963,0.02963 0.0099,0.09878 l -0.128411,0.375356 q -0.02963,0.09878 -0.128412,0.09878 h -1.323622 q -0.04939,0 -0.04939,0.04939 v 0.395111 q 0,0.04939 0.04939,0.04939 h 1.175456 q 0.05927,0 0.07902,0.03951 0.02963,0.02963 0.0099,0.09878 l -0.128411,0.385234 q -0.02963,0.09878 -0.128412,0.09878 h -1.007533 q -0.04939,0 -0.04939,0.04939 v 0.839612 q 0,0.345722 0.158044,0.563033 0.158045,0.217311 0.414867,0.217311 z"
         style="font-size:9.87778px"
         id="path296791" />
    </g>
    <g
       aria-label="25cl"
       id="text188141-3"
       style="font-size:6.39091px;line-height:1.25;font-family:'Barlow Condensed';-inkscape-font-specification:'Barlow Condensed, ';stroke-width:0.159773">
      <path
         d="m 33.390467,34.70458 q -0.0064,0.01278 0,0.02556 0.0064,0.0064 0.01917,0.0064 h 1.501864 q 0.06391,0 0.06391,0.06391 v 0.268418 q 0,0.06391 -0.06391,0.06391 h -2.006746 q -0.06391,0 -0.06391,-0.06391 V 34.78127 q 0,-0.05113 0.02556,-0.08308 0.198118,-0.313155 0.223682,-0.357891 0.5624,-0.888337 0.888336,-1.444346 0.409018,-0.703 0.409018,-1.163146 0,-0.332327 -0.153381,-0.530445 -0.153382,-0.198118 -0.402628,-0.198118 -0.242854,0 -0.396236,0.198118 -0.146991,0.191727 -0.1406,0.511273 v 0.242854 q 0,0.06391 -0.06391,0.06391 h -0.332328 q -0.06391,0 -0.06391,-0.06391 v -0.255636 q 0.01278,-0.4921 0.287591,-0.792473 0.2812,-0.300373 0.728564,-0.300373 0.447364,0 0.722173,0.313155 0.274809,0.306763 0.274809,0.811645 0,0.600746 -0.453755,1.354873 -0.230072,0.389846 -0.645482,1.04811 z"
         id="path296794" />
      <path
         d="m 37.467859,33.157979 q 0.06391,0.236464 0.06391,0.613528 0,0.287591 -0.03835,0.530445 -0.06391,0.428191 -0.319545,0.658264 -0.249246,0.223682 -0.664655,0.223682 -0.415409,0 -0.671046,-0.223682 -0.249245,-0.223682 -0.319545,-0.671046 l -0.01917,-0.191727 v -0.01278 q 0,-0.05113 0.05752,-0.05113 h 0.325937 q 0.06391,0 0.0703,0.06391 l 0.01917,0.153382 q 0.102254,0.536836 0.536836,0.536836 0.204509,0 0.338718,-0.127818 0.134209,-0.134209 0.185337,-0.383454 0.04474,-0.20451 0.04474,-0.511273 0,-0.319546 -0.05752,-0.549619 -0.115037,-0.447363 -0.511273,-0.447363 -0.440973,0 -0.549618,0.440973 -0.01917,0.05752 -0.0703,0.05752 h -0.332328 q -0.06391,0 -0.06391,-0.06391 v -2.479673 q 0,-0.06391 0.06391,-0.06391 h 1.808628 q 0.06391,0 0.06391,0.06391 v 0.268418 q 0,0.06391 -0.06391,0.06391 h -1.393218 q -0.02556,0 -0.02556,0.02556 l -0.0064,1.584945 q 0,0.01278 0.0064,0.01917 0.01278,0.0064 0.02556,-0.0064 0.102254,-0.153382 0.268418,-0.230073 0.172554,-0.08308 0.383454,-0.08308 0.338719,0 0.55601,0.20451 0.217291,0.204509 0.287591,0.587963 z"
         id="path296796" />
      <path
         d="m 39.084749,35.183898 q -0.453754,0 -0.728563,-0.268418 -0.268419,-0.268419 -0.268419,-0.709391 v -1.380437 q 0,-0.434582 0.274809,-0.703 0.27481,-0.274809 0.722173,-0.274809 0.300373,0 0.530446,0.121427 0.230073,0.121427 0.3515,0.325936 0.127818,0.198119 0.127818,0.440973 v 0.06391 q 0,0.06391 -0.06391,0.06391 l -0.325936,0.01278 q -0.06391,0 -0.06391,-0.06391 v -0.04474 q 0,-0.2109 -0.159773,-0.364282 -0.153382,-0.159773 -0.396237,-0.159773 -0.242854,0 -0.396236,0.172555 -0.146991,0.166163 -0.146991,0.440973 v 1.316527 q 0,0.274809 0.146991,0.447364 0.153382,0.166163 0.396236,0.166163 0.242855,0 0.396237,-0.153381 0.159773,-0.159773 0.159773,-0.370673 v -0.04474 q 0,-0.06391 0.06391,-0.06391 l 0.325936,0.0064 q 0.06391,0 0.06391,0.06391 v 0.0703 q 0,0.383455 -0.2812,0.639091 -0.274809,0.249246 -0.728564,0.249246 z"
         id="path296798" />
      <path
         d="m 40.752767,35.132771 q -0.06391,0 -0.06391,-0.06391 v -4.345818 q 0,-0.06391 0.06391,-0.06391 h 0.325937 q 0.06391,0 0.06391,0.06391 v 4.345818 q 0,0.06391 -0.06391,0.06391 z"
         id="path296800" />
    </g>
    <path
       id="path16460-2-8-1"
       transform="matrix(0.51187005,0,0,0.51187005,-30.809074,-30.942291)"
       clip-path="url(#clipath_lpe_path-effect31884-9)"
       d="m 230.33838,113.14619 a 26.459211,26.459211 0 0 1 -26.45921,26.45921 26.459211,26.459211 0 0 1 -26.45922,-26.45921 26.459211,26.459211 0 0 1 26.45922,-26.459215 26.459211,26.459211 0 0 1 26.45921,26.459215 z"
       style="display:inline;fill:none;stroke:#000000;stroke-width:3.77437;stroke-miterlimit:4;stroke-dasharray:none;stroke-opacity:1" />
    <g
       aria-label="8€"
       id="text188141-9"
       style="font-size:13.5214px;line-height:1.25;font-family:'Barlow Condensed';-inkscape-font-specification:'Barlow Condensed, ';display:inline;stroke-width:0.338032">
      <path
         d="m 72.644099,23.970054 q -0.0693,0.0462 0,0.08085 0.381159,0.219455 0.577515,0.669917 0.242556,0.542864 0.242556,1.224332 0,0.612166 -0.184805,1.074178 -0.231006,0.623716 -0.727669,0.981775 -0.485112,0.346509 -1.16658,0.346509 -0.669917,0 -1.16658,-0.346509 -0.485113,-0.346509 -0.716119,-0.970225 -0.173254,-0.485113 -0.173254,-1.085728 0,-0.681468 0.207905,-1.166581 0.173254,-0.462011 0.612166,-0.716118 0.0462,-0.03465 0,-0.0693 -0.38116,-0.242556 -0.589065,-0.669917 -0.231006,-0.496663 -0.231006,-1.108829 0,-0.669917 0.231006,-1.120379 0.231006,-0.508213 0.704568,-0.78542 0.485112,-0.277208 1.120379,-0.277208 0.623716,0 1.097278,0.277208 0.485113,0.265656 0.727669,0.77387 0.254107,0.485112 0.254107,1.131929 0,0.600616 -0.231006,1.085728 -0.207906,0.427361 -0.589065,0.669918 z m -1.91735,-2.171457 q -0.08085,0.207906 -0.08085,0.531314 0,0.346509 0.115503,0.658367 0.08085,0.242556 0.242556,0.38116 0.161704,0.138604 0.38116,0.138604 0.242556,0 0.40426,-0.138604 0.173255,-0.150154 0.254107,-0.415811 0.0924,-0.277207 0.0924,-0.623716 0,-0.39271 -0.115503,-0.635267 -0.08085,-0.242556 -0.242556,-0.369609 -0.161704,-0.138604 -0.39271,-0.138604 -0.207906,0 -0.36961,0.127054 -0.150154,0.115503 -0.231006,0.323408 z m 1.351385,4.689422 q 0.05775,-0.311858 0.05775,-0.612166 0,-0.438911 -0.103952,-0.75077 -0.0693,-0.277207 -0.242557,-0.427361 -0.161704,-0.161704 -0.40426,-0.161704 -0.242556,0 -0.415811,0.161704 -0.161704,0.161705 -0.231006,0.462012 -0.0924,0.300308 -0.0924,0.693018 0,0.35806 0.0693,0.658367 0.05775,0.323409 0.231005,0.508214 0.184805,0.173254 0.438912,0.173254 0.265657,0 0.450462,-0.184805 0.184804,-0.184804 0.242556,-0.519763 z"
         style="font-weight:600;font-stretch:condensed;font-size:11.5503px;-inkscape-font-specification:'Barlow Condensed,  Semi-Bold Condensed'"
         id="path296803" />
      <path
         d="m 76.698471,27.346459 q 0.237067,0 0.385234,-0.158045 0.158044,-0.167922 0.187677,-0.454377 0.01976,-0.118534 0.128412,-0.108656 l 0.898878,0.118533 q 0.05927,0.0099 0.07902,0.04939 0.02963,0.02963 0.01975,0.0889 -0.108655,0.681567 -0.563033,1.066801 -0.454378,0.385233 -1.135945,0.385233 -0.780344,0 -1.254478,-0.503767 -0.464256,-0.513644 -0.464256,-1.353256 v -0.750711 q 0,-0.04939 -0.04939,-0.04939 H 74.43646 q -0.04939,0 -0.0889,-0.02963 -0.02963,-0.03951 -0.02963,-0.0889 v -0.385234 q 0,-0.04939 0.02963,-0.07902 0.03951,-0.03951 0.0889,-0.03951 h 0.493889 q 0.04939,0 0.04939,-0.04939 v -0.395111 q 0,-0.04939 -0.04939,-0.04939 H 74.43646 q -0.04939,0 -0.0889,-0.02963 -0.02963,-0.03951 -0.02963,-0.0889 v -0.375356 q 0,-0.04939 0.02963,-0.07902 0.03951,-0.03951 0.0889,-0.03951 h 0.493889 q 0.04939,0 0.04939,-0.04939 v -0.790223 q 0,-0.849489 0.464256,-1.343378 0.474134,-0.503767 1.254478,-0.503767 0.701323,0 1.1557,0.404989 0.464256,0.395112 0.563034,1.086556 v 0.01976 q 0,0.0889 -0.108656,0.108655 l -0.908755,0.108656 h -0.01976 q -0.0889,0 -0.108656,-0.108656 -0.01976,-0.286455 -0.1778,-0.454377 -0.148166,-0.177801 -0.395111,-0.177801 -0.256822,0 -0.414867,0.217312 -0.158044,0.217311 -0.158044,0.563033 v 0.869245 q 0,0.04939 0.04939,0.04939 h 1.481667 q 0.05927,0 0.0889,0.03951 0.02963,0.02963 0.0099,0.09878 l -0.128411,0.375355 q -0.02963,0.09878 -0.128412,0.09878 h -1.323622 q -0.04939,0 -0.04939,0.04939 v 0.395111 q 0,0.04939 0.04939,0.04939 h 1.175456 q 0.05927,0 0.07902,0.03951 0.02963,0.02963 0.0099,0.09878 l -0.128411,0.385233 q -0.02963,0.09878 -0.128412,0.09878 h -1.007533 q -0.04939,0 -0.04939,0.04939 v 0.839611 q 0,0.345723 0.158044,0.563034 0.158045,0.217311 0.414867,0.217311 z"
         style="font-size:9.87778px"
         id="path296805" />
    </g>
    <g
       aria-label="50cl"
       id="text188141-3-8"
       style="font-size:6.39091px;line-height:1.25;font-family:'Barlow Condensed';-inkscape-font-specification:'Barlow Condensed, ';display:inline;stroke-width:0.159773">
      <path
         d="m 71.640582,33.048394 q 0.06391,0.236464 0.06391,0.613528 0,0.287591 -0.03835,0.530445 -0.06391,0.428191 -0.319545,0.658264 -0.249246,0.223682 -0.664655,0.223682 -0.415409,0 -0.671045,-0.223682 -0.249246,-0.223682 -0.319546,-0.671045 l -0.01917,-0.191728 v -0.01278 q 0,-0.05113 0.05752,-0.05113 h 0.325937 q 0.06391,0 0.0703,0.06391 l 0.01917,0.153382 q 0.102254,0.536837 0.536836,0.536837 0.204509,0 0.338718,-0.127819 0.134209,-0.134209 0.185337,-0.383454 0.04474,-0.204509 0.04474,-0.511273 0,-0.319546 -0.05752,-0.549618 -0.115036,-0.447364 -0.511273,-0.447364 -0.440973,0 -0.549618,0.440973 -0.01917,0.05752 -0.0703,0.05752 h -0.332328 q -0.06391,0 -0.06391,-0.06391 v -2.479673 q 0,-0.06391 0.06391,-0.06391 h 1.808628 q 0.06391,0 0.06391,0.06391 v 0.268418 q 0,0.06391 -0.06391,0.06391 h -1.393218 q -0.02556,0 -0.02556,0.02556 l -0.0064,1.584945 q 0,0.01278 0.0064,0.01917 0.01278,0.0064 0.02556,-0.0064 0.102254,-0.153382 0.268418,-0.230073 0.172554,-0.08308 0.383454,-0.08308 0.338719,0 0.55601,0.204509 0.217291,0.204509 0.287591,0.587963 z"
         id="path296808" />
      <path
         d="m 73.353336,35.087095 q -0.485709,0 -0.786082,-0.313155 -0.293982,-0.319545 -0.293982,-0.830818 v -2.31351 q 0,-0.511272 0.293982,-0.824427 0.300373,-0.319545 0.786082,-0.319545 0.4921,0 0.792473,0.319545 0.300372,0.313155 0.300372,0.824427 v 2.31351 q 0,0.511273 -0.300372,0.830818 -0.300373,0.313155 -0.792473,0.313155 z m 0,-0.396237 q 0.293982,0 0.466536,-0.198118 0.172555,-0.198118 0.172555,-0.524054 v -2.364637 q 0,-0.325937 -0.172555,-0.524055 -0.172554,-0.198118 -0.466536,-0.198118 -0.2812,0 -0.453755,0.198118 -0.172554,0.198118 -0.172554,0.524055 v 2.364637 q 0,0.325936 0.172554,0.524054 0.172555,0.198118 0.453755,0.198118 z"
         id="path296810" />
      <path
         d="m 76.095026,35.074313 q -0.453755,0 -0.728564,-0.268418 -0.268418,-0.268418 -0.268418,-0.709391 v -1.380437 q 0,-0.434582 0.274809,-0.703 0.274809,-0.274809 0.722173,-0.274809 0.300372,0 0.530445,0.121427 0.230073,0.121427 0.3515,0.325937 0.127818,0.198118 0.127818,0.440972 v 0.06391 q 0,0.06391 -0.06391,0.06391 l -0.325936,0.01278 q -0.06391,0 -0.06391,-0.06391 v -0.04474 q 0,-0.2109 -0.159773,-0.364282 -0.153382,-0.159773 -0.396236,-0.159773 -0.242855,0 -0.396237,0.172555 -0.146991,0.166164 -0.146991,0.440973 v 1.316527 q 0,0.274809 0.146991,0.447364 0.153382,0.166164 0.396237,0.166164 0.242854,0 0.396236,-0.153382 0.159773,-0.159773 0.159773,-0.370673 v -0.04474 q 0,-0.06391 0.06391,-0.06391 l 0.325936,0.0064 q 0.06391,0 0.06391,0.06391 v 0.0703 q 0,0.383454 -0.2812,0.639091 -0.274809,0.249245 -0.728563,0.249245 z"
         id="path296812" />
      <path
         d="m 77.763043,35.023186 q -0.06391,0 -0.06391,-0.06391 v -4.345819 q 0,-0.06391 0.06391,-0.06391 h 0.325937 q 0.06391,0 0.06391,0.06391 v 4.345819 q 0,0.06391 -0.06391,0.06391 z"
         id="path296814" />
    </g>
    <path
       id="path16460-2-8-1-6"
       transform="matrix(0.51187005,0,0,0.51187005,-67.708988,6.2679913)"
       clip-path="url(#clipath_lpe_path-effect31884-9-1)"
       d="m 230.33838,113.14619 a 26.459211,26.459211 0 0 1 -26.45921,26.45921 26.459211,26.459211 0 0 1 -26.45922,-26.45921 26.459211,26.459211 0 0 1 26.45922,-26.459215 26.459211,26.459211 0 0 1 26.45921,26.459215 z"
       style="display:inline;fill:none;stroke:#000000;stroke-width:3.77437;stroke-miterlimit:4;stroke-dasharray:none;stroke-opacity:1" />
    <g
       aria-label="22€"
       id="text188141-9-0"
       style="font-size:16.4855px;line-height:1.25;font-family:'Barlow Condensed';-inkscape-font-specification:'Barlow Condensed, ';display:inline;stroke-width:0.412134">
      <path
         d="m 31.469017,64.189867 q -0.02409,0.02409 -0.01204,0.04817 0.01204,0.02409 0.04817,0.02409 h 2.637461 q 0.06022,0 0.09635,0.04817 0.04817,0.03613 0.04817,0.09634 v 0.915284 q 0,0.06022 -0.04817,0.108388 -0.03613,0.03613 -0.09635,0.03613 H 29.93953 q -0.06022,0 -0.108388,-0.03613 -0.03613,-0.04817 -0.03613,-0.108388 v -0.963456 q 0,-0.108389 0.06022,-0.180648 l 0.469685,-0.63829 q 0.469685,-0.626246 0.915283,-1.276579 0.457642,-0.650333 0.770765,-1.168191 0.698505,-1.156147 0.698505,-1.914868 0,-0.481728 -0.216777,-0.758722 -0.204735,-0.276993 -0.553987,-0.276993 -0.349253,0 -0.553988,0.276993 -0.204734,0.264951 -0.192691,0.710549 v 0.469685 q 0,0.06022 -0.04817,0.108389 -0.03613,0.03613 -0.09634,0.03613 h -1.132061 q -0.06022,0 -0.108389,-0.03613 -0.03613,-0.04817 -0.03613,-0.108389 V 59.08355 q 0.04817,-0.963456 0.650332,-1.553573 0.614204,-0.590116 1.57766,-0.590116 0.951412,0 1.529486,0.626246 0.590117,0.614203 0.590117,1.625832 0,0.60216 -0.204735,1.192277 -0.204734,0.590116 -0.650333,1.264536 -0.30108,0.481728 -0.722591,1.059801 -0.409469,0.578074 -0.541944,0.758722 -0.361296,0.481728 -0.529901,0.722592 z"
         style="font-weight:600;font-stretch:condensed;font-size:12.0432px;-inkscape-font-specification:'Barlow Condensed,  Semi-Bold Condensed'"
         id="path296817" />
      <path
         d="m 36.587367,64.189867 q -0.02409,0.02409 -0.01204,0.04817 0.01204,0.02409 0.04817,0.02409 h 2.637461 q 0.06022,0 0.09634,0.04817 0.04817,0.03613 0.04817,0.09634 v 0.915284 q 0,0.06022 -0.04817,0.108388 -0.03613,0.03613 -0.09634,0.03613 h -4.203077 q -0.06022,0 -0.108389,-0.03613 -0.03613,-0.04817 -0.03613,-0.108388 v -0.963456 q 0,-0.108389 0.06022,-0.180648 l 0.469684,-0.63829 q 0.469685,-0.626246 0.915283,-1.276579 0.457642,-0.650333 0.770765,-1.168191 0.698506,-1.156147 0.698506,-1.914868 0,-0.481728 -0.216778,-0.758722 -0.204734,-0.276993 -0.553987,-0.276993 -0.349253,0 -0.553987,0.276993 -0.204735,0.264951 -0.192691,0.710549 v 0.469685 q 0,0.06022 -0.04817,0.108389 -0.03613,0.03613 -0.09635,0.03613 h -1.13206 q -0.06022,0 -0.108389,-0.03613 -0.03613,-0.04817 -0.03613,-0.108389 V 59.08355 q 0.04817,-0.963456 0.650333,-1.553573 0.614203,-0.590116 1.577659,-0.590116 0.951413,0 1.529486,0.626246 0.590117,0.614203 0.590117,1.625832 0,0.60216 -0.204734,1.192277 -0.204735,0.590116 -0.650333,1.264536 -0.30108,0.481728 -0.722592,1.059801 -0.409469,0.578074 -0.541944,0.758722 -0.361296,0.481728 -0.529901,0.722592 z"
         style="font-weight:600;font-stretch:condensed;font-size:12.0432px;-inkscape-font-specification:'Barlow Condensed,  Semi-Bold Condensed'"
         id="path296819" />
      <path
         d="m 42.453786,64.55769 q 0.237066,0 0.385233,-0.158044 0.158044,-0.167923 0.187678,-0.454378 0.01976,-0.118534 0.128411,-0.108656 l 0.898878,0.118534 q 0.05927,0.0099 0.07902,0.04939 0.02963,0.02963 0.01976,0.0889 -0.108656,0.681566 -0.563034,1.0668 -0.454378,0.385233 -1.135944,0.385233 -0.780345,0 -1.254478,-0.503767 -0.464256,-0.513644 -0.464256,-1.353255 v -0.750712 q 0,-0.04939 -0.04939,-0.04939 h -0.493889 q -0.04939,0 -0.0889,-0.02963 -0.02963,-0.03951 -0.02963,-0.0889 v -0.385233 q 0,-0.04939 0.02963,-0.07902 0.03951,-0.03951 0.0889,-0.03951 h 0.493889 q 0.04939,0 0.04939,-0.04939 v -0.395111 q 0,-0.04939 -0.04939,-0.04939 h -0.493889 q -0.04939,0 -0.0889,-0.02963 -0.02963,-0.03951 -0.02963,-0.0889 v -0.375356 q 0,-0.04939 0.02963,-0.07902 0.03951,-0.03951 0.0889,-0.03951 h 0.493889 q 0.04939,0 0.04939,-0.04939 v -0.790222 q 0,-0.84949 0.464256,-1.343379 0.474133,-0.503766 1.254478,-0.503766 0.701322,0 1.1557,0.404989 0.464255,0.395111 0.563033,1.086555 v 0.01976 q 0,0.0889 -0.108655,0.108656 l -0.908756,0.108655 h -0.01976 q -0.0889,0 -0.108655,-0.108655 -0.01976,-0.286456 -0.1778,-0.454378 -0.148167,-0.1778 -0.395111,-0.1778 -0.256823,0 -0.414867,0.217311 -0.158045,0.217311 -0.158045,0.563033 v 0.869245 q 0,0.04939 0.04939,0.04939 h 1.481667 q 0.05927,0 0.0889,0.03951 0.02963,0.02963 0.0099,0.09878 l -0.128411,0.375355 q -0.02963,0.09878 -0.128411,0.09878 h -1.323623 q -0.04939,0 -0.04939,0.04939 v 0.395111 q 0,0.04939 0.04939,0.04939 h 1.175456 q 0.05927,0 0.07902,0.03951 0.02963,0.02963 0.0099,0.09878 l -0.128411,0.385234 q -0.02963,0.09878 -0.128411,0.09878 h -1.007534 q -0.04939,0 -0.04939,0.04939 v 0.839612 q 0,0.345722 0.158045,0.563033 0.158044,0.217311 0.414867,0.217311 z"
         style="font-size:9.87778px"
         id="path296821" />
    </g>
    <g
       aria-label="1,5L"
       id="text188141-3-8-7"
       style="font-size:6.60952px;line-height:1.25;font-family:'Barlow Condensed';-inkscape-font-specification:'Barlow Condensed, ';display:inline;stroke-width:0.165239">
      <path
         d="m 33.692465,67.96823 q 0.03966,-0.01983 0.08592,-0.01983 h 0.356914 q 0.06609,0 0.06609,0.0661 v 4.494473 q 0,0.0661 -0.06609,0.0661 h -0.337086 q -0.0661,0 -0.0661,-0.0661 v -4.005369 q 0,-0.01322 -0.01322,-0.01983 -0.0066,-0.0066 -0.01983,0 l -0.621294,0.204895 -0.01983,0.0066 q -0.04627,0 -0.05949,-0.05949 l -0.03305,-0.244553 v -0.01322 q 0,-0.03305 0.04627,-0.0661 z"
         id="path296824" />
      <path
         d="m 34.908607,73.097218 q -0.02644,0 -0.04627,-0.01983 -0.01983,-0.01983 -0.01322,-0.05288 l 0.204895,-1.414437 q 0.0066,-0.05949 0.06609,-0.05949 h 0.297428 q 0.0727,0 0.05949,0.0727 l -0.297428,1.414437 q -0.0066,0.05949 -0.0727,0.05949 z"
         id="path296826" />
      <path
         d="m 38.15387,70.532724 q 0.0661,0.244552 0.0661,0.634514 0,0.297428 -0.03966,0.54859 -0.0661,0.442838 -0.330476,0.680781 -0.257772,0.231333 -0.68739,0.231333 -0.429619,0 -0.694,-0.231333 -0.257771,-0.231334 -0.330476,-0.694 l -0.01983,-0.198286 v -0.01322 q 0,-0.05288 0.05949,-0.05288 h 0.337086 q 0.06609,0 0.0727,0.0661 l 0.01983,0.158629 q 0.105752,0.5552 0.5552,0.5552 0.211504,0 0.350304,-0.132191 0.1388,-0.1388 0.191676,-0.396571 0.04627,-0.211505 0.04627,-0.528762 0,-0.330476 -0.05949,-0.568418 -0.118971,-0.462667 -0.528761,-0.462667 -0.456057,0 -0.568419,0.456057 -0.01983,0.05949 -0.0727,0.05949 h -0.343695 q -0.06609,0 -0.06609,-0.0661 v -2.564494 q 0,-0.0661 0.06609,-0.0661 h 1.870494 q 0.0661,0 0.0661,0.0661 v 0.2776 q 0,0.0661 -0.0661,0.0661 h -1.440875 q -0.02644,0 -0.02644,0.02644 l -0.0066,1.639161 q 0,0.01322 0.0066,0.01983 0.01322,0.0066 0.02644,-0.0066 0.105752,-0.158629 0.2776,-0.237943 0.178457,-0.08592 0.396571,-0.08592 0.350304,0 0.575028,0.211505 0.224724,0.211505 0.297429,0.608076 z"
         id="path296828" />
      <path
         d="m 39.006488,72.575066 q -0.06609,0 -0.06609,-0.0661 v -4.494473 q 0,-0.0661 0.06609,-0.0661 h 0.337085 q 0.0661,0 0.0661,0.0661 v 4.12434 q 0,0.02644 0.02644,0.02644 h 1.51358 q 0.0661,0 0.0661,0.0661 v 0.277599 q 0,0.0661 -0.0661,0.0661 z"
         id="path296830" />
    </g>
    <path
       id="path16460-2-8-1-0"
       transform="matrix(0.51187005,0,0,0.51187005,-31.131427,6.0976933)"
       clip-path="url(#clipath_lpe_path-effect31884-9-7)"
       d="m 230.33838,113.14619 a 26.459211,26.459211 0 0 1 -26.45921,26.45921 26.459211,26.459211 0 0 1 -26.45922,-26.45921 26.459211,26.459211 0 0 1 26.45922,-26.459215 26.459211,26.459211 0 0 1 26.45921,26.459215 z"
       style="display:inline;fill:none;stroke:#000000;stroke-width:3.77437;stroke-miterlimit:4;stroke-dasharray:none;stroke-opacity:1" />
    <g
       aria-label="42€"
       id="text188141-9-3"
       style="font-size:16.4472px;line-height:1.25;font-family:'Barlow Condensed';-inkscape-font-specification:'Barlow Condensed, ';display:inline;stroke-width:0.411175">
      <path
         d="m 71.241489,62.057884 q 0.06007,0 0.09612,0.04806 0.04806,0.03605 0.04806,0.09612 v 0.973223 q 0,0.06007 -0.04806,0.108136 -0.03605,0.03605 -0.09612,0.03605 h -0.360453 q -0.06008,0 -0.06008,0.06007 v 1.982492 q 0,0.06007 -0.04806,0.108136 -0.03605,0.03605 -0.09612,0.03605 H 69.57139 q -0.06008,0 -0.108136,-0.03605 -0.03605,-0.04806 -0.03605,-0.108136 v -1.982492 q 0,-0.06007 -0.06008,-0.06007 h -2.955714 q -0.06008,0 -0.108136,-0.03605 -0.03605,-0.04806 -0.03605,-0.108136 v -0.780982 q 0,-0.108136 0.02403,-0.180226 l 1.670098,-4.998282 q 0.03605,-0.120151 0.156197,-0.120151 h 1.20151 q 0.07209,0 0.108136,0.04806 0.03605,0.03605 0.01201,0.120151 l -1.537933,4.721934 q -0.01202,0.07209 0.04806,0.07209 h 1.417782 q 0.06008,0 0.06008,-0.06008 v -1.441812 q 0,-0.06008 0.03605,-0.09612 0.04806,-0.04806 0.108136,-0.04806 h 1.105389 q 0.06007,0 0.09612,0.04806 0.04806,0.03605 0.04806,0.09612 v 1.441812 q 0,0.06008 0.06008,0.06008 z"
         style="font-weight:600;font-stretch:condensed;font-size:12.0151px;-inkscape-font-specification:'Barlow Condensed,  Semi-Bold Condensed'"
         id="path296833" />
      <path
         d="m 73.620474,64.232617 q -0.02403,0.02403 -0.01202,0.04806 0.01202,0.02403 0.04806,0.02403 h 2.631307 q 0.06008,0 0.09612,0.04806 0.04806,0.03605 0.04806,0.09612 v 0.913148 q 0,0.06007 -0.04806,0.108136 -0.03605,0.03605 -0.09612,0.03605 h -4.19327 q -0.06007,0 -0.108136,-0.03605 -0.03605,-0.04806 -0.03605,-0.108136 v -0.961208 q 0,-0.108136 0.06008,-0.180227 l 0.468589,-0.6368 q 0.468588,-0.624785 0.913147,-1.273601 0.456574,-0.648815 0.768966,-1.165464 0.696876,-1.15345 0.696876,-1.910401 0,-0.480604 -0.216272,-0.756951 -0.204256,-0.276348 -0.552694,-0.276348 -0.348438,0 -0.552695,0.276348 -0.204256,0.264332 -0.192241,0.708891 v 0.468588 q 0,0.06008 -0.04806,0.108136 -0.03605,0.03605 -0.09612,0.03605 h -1.12942 q -0.06007,0 -0.108136,-0.03605 -0.03605,-0.04806 -0.03605,-0.108136 v -0.516649 q 0.04806,-0.961208 0.648815,-1.549948 0.61277,-0.58874 1.573978,-0.58874 0.949193,0 1.525918,0.624786 0.58874,0.61277 0.58874,1.622038 0,0.600755 -0.204257,1.189495 -0.204256,0.58874 -0.648815,1.261585 -0.300378,0.480604 -0.720906,1.057329 -0.408514,0.576725 -0.54068,0.756951 -0.360453,0.480604 -0.528664,0.720906 z"
         style="font-weight:600;font-stretch:condensed;font-size:12.0151px;-inkscape-font-specification:'Barlow Condensed,  Semi-Bold Condensed'"
         id="path296835" />
      <path
         d="m 79.479726,64.597462 q 0.237067,0 0.385234,-0.158044 0.158044,-0.167923 0.187678,-0.454378 0.01976,-0.118534 0.128411,-0.108656 l 0.898878,0.118534 q 0.05927,0.0099 0.07902,0.04939 0.02963,0.02963 0.01976,0.0889 -0.108656,0.681566 -0.563034,1.0668 -0.454378,0.385233 -1.135945,0.385233 -0.780344,0 -1.254478,-0.503767 -0.464255,-0.513644 -0.464255,-1.353255 v -0.750712 q 0,-0.04939 -0.04939,-0.04939 h -0.493889 q -0.04939,0 -0.0889,-0.02963 -0.02963,-0.03951 -0.02963,-0.0889 v -0.385233 q 0,-0.04939 0.02963,-0.07902 0.03951,-0.03951 0.0889,-0.03951 h 0.493889 q 0.04939,0 0.04939,-0.04939 v -0.395111 q 0,-0.04939 -0.04939,-0.04939 h -0.493889 q -0.04939,0 -0.0889,-0.02963 -0.02963,-0.03951 -0.02963,-0.0889 v -0.375356 q 0,-0.04939 0.02963,-0.07902 0.03951,-0.03951 0.0889,-0.03951 h 0.493889 q 0.04939,0 0.04939,-0.04939 v -0.790222 q 0,-0.849489 0.464255,-1.343378 0.474134,-0.503767 1.254478,-0.503767 0.701323,0 1.155701,0.404989 0.464255,0.395111 0.563033,1.086556 v 0.01976 q 0,0.0889 -0.108655,0.108656 l -0.908756,0.108655 h -0.01976 q -0.0889,0 -0.108655,-0.108655 -0.01976,-0.286456 -0.1778,-0.454378 -0.148167,-0.1778 -0.395112,-0.1778 -0.256822,0 -0.414866,0.217311 -0.158045,0.217311 -0.158045,0.563033 v 0.869245 q 0,0.04939 0.04939,0.04939 h 1.481667 q 0.05927,0 0.0889,0.03951 0.02963,0.02963 0.0099,0.09878 l -0.128411,0.375355 q -0.02963,0.09878 -0.128411,0.09878 h -1.323623 q -0.04939,0 -0.04939,0.04939 v 0.395111 q 0,0.04939 0.04939,0.04939 h 1.175456 q 0.05927,0 0.07902,0.03951 0.02963,0.02963 0.0099,0.09878 l -0.128411,0.385234 q -0.02963,0.09878 -0.128411,0.09878 h -1.007534 q -0.04939,0 -0.04939,0.04939 v 0.839612 q 0,0.345722 0.158045,0.563033 0.158044,0.217311 0.414866,0.217311 z"
         style="font-size:9.87778px"
         id="path296837" />
    </g>
    <g
       aria-label="3L"
       id="text188141-3-8-4"
       style="font-size:6.39091px;line-height:1.25;font-family:'Barlow Condensed';-inkscape-font-specification:'Barlow Condensed, ';display:inline;stroke-width:0.159773">
      <path
         d="m 73.306363,70.168303 q 0.102254,0.325936 0.102254,0.728564 0,0.338718 -0.0703,0.619918 -0.178945,0.786082 -0.945854,0.786082 -0.402628,0 -0.664655,-0.223682 -0.255636,-0.223682 -0.319545,-0.619918 -0.03835,-0.223682 -0.03835,-0.4921 0,-0.06391 0.06391,-0.06391 h 0.325937 q 0.06391,0 0.06391,0.06391 0,0.230072 0.03834,0.415409 0.108646,0.524054 0.530446,0.524054 0.198118,0 0.332327,-0.121427 0.134209,-0.121427 0.191727,-0.3515 0.05113,-0.268418 0.05113,-0.575182 0,-0.402627 -0.07669,-0.671045 -0.06391,-0.20451 -0.191728,-0.306764 -0.127818,-0.108646 -0.306763,-0.108646 -0.05752,0 -0.146991,0.03835 -0.05752,0.03195 -0.08947,-0.0064 l -0.166164,-0.172555 q -0.03195,-0.04474 -0.0064,-0.08947 l 0.849991,-1.335701 q 0.0064,-0.0064 0,-0.01917 -0.0064,-0.01278 -0.01917,-0.01278 h -1.348482 q -0.06391,0 -0.06391,-0.06391 v -0.268419 q 0,-0.06391 0.06391,-0.06391 h 1.866145 q 0.06391,0 0.06391,0.06391 v 0.287591 q 0,0.03195 -0.02556,0.08308 l -0.792473,1.239837 q -0.0064,0.01278 -0.0064,0.02556 0.0064,0.0064 0.01917,0.0064 0.255636,0.02556 0.440973,0.2109 0.191727,0.178946 0.274809,0.472928 z"
         id="path296840" />
      <path
         d="m 74.264993,72.25174 q -0.06391,0 -0.06391,-0.06391 v -4.345819 q 0,-0.06391 0.06391,-0.06391 h 0.325937 q 0.06391,0 0.06391,0.06391 v 3.987928 q 0,0.02556 0.02556,0.02556 h 1.463519 q 0.06391,0 0.06391,0.06391 v 0.268418 q 0,0.06391 -0.06391,0.06391 z"
         id="path296842" />
    </g>
    <path
       id="path16460-2-8-7"
       transform="matrix(0.51187005,0,0,0.51187005,-121.8365,-134.155)"
       clip-path="url(#clipath_lpe_path-effect31884-6)"
       d="m 230.33838,113.14619 a 26.459211,26.459211 0 0 1 -26.45921,26.45921 26.459211,26.459211 0 0 1 -26.45922,-26.45921 26.459211,26.459211 0 0 1 26.45922,-26.459215 26.459211,26.459211 0 0 1 26.45921,26.459215 z"
       style="display:inline;fill:none;stroke:#000000;stroke-width:3.77437;stroke-miterlimit:4;stroke-dasharray:none;stroke-opacity:1" />
    <g
       aria-label="4€"
       id="text188141-8"
       style="font-size:7.32291px;line-height:1.25;font-family:'Barlow Condensed';-inkscape-font-specification:'Barlow Condensed, ';display:inline;stroke-width:0.183071">
      <path
         d="m -17.743928,-84.121245 q 0.03661,0 0.05858,0.02929 0.02929,0.02197 0.02929,0.05858 v 0.593156 q 0,0.03661 -0.02929,0.06591 -0.02197,0.02197 -0.05858,0.02197 h -0.219688 q -0.03661,0 -0.03661,0.03661 v 1.20828 q 0,0.03661 -0.02929,0.06591 -0.02197,0.02197 -0.05858,0.02197 h -0.673708 q -0.03661,0 -0.06591,-0.02197 -0.02197,-0.02929 -0.02197,-0.06591 v -1.20828 q 0,-0.03661 -0.03661,-0.03661 h -1.801436 q -0.03662,0 -0.06591,-0.02197 -0.02197,-0.02929 -0.02197,-0.06591 v -0.475989 q 0,-0.06591 0.01465,-0.109844 l 1.017884,-3.04633 q 0.02197,-0.07323 0.0952,-0.07323 h 0.732291 q 0.04394,0 0.06591,0.02929 0.02197,0.02197 0.0073,0.07323 l -0.937332,2.877904 q -0.0073,0.04394 0.02929,0.04394 h 0.864104 q 0.03661,0 0.03661,-0.03661 v -0.878749 q 0,-0.03661 0.02197,-0.05858 0.02929,-0.02929 0.06591,-0.02929 h 0.673708 q 0.03661,0 0.05858,0.02929 0.02929,0.02197 0.02929,0.05858 v 0.878749 q 0,0.03661 0.03661,0.03661 z"
         style="font-weight:600;font-stretch:condensed;-inkscape-font-specification:'Barlow Condensed,  Semi-Bold Condensed'"
         id="path296679" />
      <path
         d="m -15.768617,-82.595064 q 0.150129,0 0.24396,-0.100086 0.100086,-0.106342 0.118852,-0.287748 0.01251,-0.07506 0.08132,-0.06881 l 0.56924,0.07506 q 0.03753,0.0063 0.05004,0.03128 0.01877,0.01877 0.01251,0.0563 -0.06881,0.431621 -0.356556,0.675581 -0.287748,0.24396 -0.719369,0.24396 -0.494175,0 -0.794433,-0.319025 -0.294003,-0.32528 -0.294003,-0.856987 v -0.475409 q 0,-0.03128 -0.03128,-0.03128 h -0.312769 q -0.03128,0 -0.0563,-0.01877 -0.01877,-0.02502 -0.01877,-0.0563 v -0.24396 q 0,-0.03128 0.01877,-0.05004 0.02502,-0.02502 0.0563,-0.02502 h 0.312769 q 0.03128,0 0.03128,-0.03128 v -0.250216 q 0,-0.03128 -0.03128,-0.03128 h -0.312769 q -0.03128,0 -0.0563,-0.01877 -0.01877,-0.02502 -0.01877,-0.0563 v -0.237705 q 0,-0.03128 0.01877,-0.05004 0.02502,-0.02502 0.0563,-0.02502 h 0.312769 q 0.03128,0 0.03128,-0.03128 v -0.50043 q 0,-0.537963 0.294003,-0.850732 0.300258,-0.319025 0.794433,-0.319025 0.444132,0 0.731879,0.256471 0.294003,0.250215 0.356557,0.688092 v 0.01251 q 0,0.0563 -0.06881,0.06881 l -0.575495,0.06881 h -0.01251 q -0.0563,0 -0.06881,-0.06881 -0.01251,-0.181406 -0.112597,-0.287748 -0.09383,-0.112597 -0.250215,-0.112597 -0.16264,0 -0.262726,0.137619 -0.100086,0.137618 -0.100086,0.356557 v 0.550473 q 0,0.03128 0.03128,0.03128 h 0.938307 q 0.03753,0 0.0563,0.02502 0.01877,0.01877 0.0063,0.06255 l -0.08132,0.237705 q -0.01877,0.06255 -0.08132,0.06255 h -0.838221 q -0.03128,0 -0.03128,0.03128 v 0.250216 q 0,0.03128 0.03128,0.03128 h 0.74439 q 0.03753,0 0.05004,0.02502 0.01877,0.01877 0.0063,0.06255 l -0.08132,0.24396 q -0.01877,0.06255 -0.08132,0.06255 h -0.638049 q -0.03128,0 -0.03128,0.03128 v 0.531708 q 0,0.218938 0.100086,0.356556 0.100086,0.137619 0.262726,0.137619 z"
         style="font-size:6.25538px"
         id="path296681" />
    </g>
    <g
       aria-label="25cl"
       id="text188141-3-5"
       style="font-size:7.06635px;line-height:1.25;font-family:'Barlow Condensed';-inkscape-font-specification:'Barlow Condensed, ';display:inline;stroke-width:0.176659">
      <path
         d="m -21.706234,-66.124965 q -0.0071,0.01413 0,0.02827 0.0071,0.0071 0.0212,0.0071 h 1.660593 q 0.07066,0 0.07066,0.07066 v 0.296787 q 0,0.07066 -0.07066,0.07066 h -2.218834 q -0.07066,0 -0.07066,-0.07066 v -0.317986 q 0,-0.05653 0.02827,-0.09186 0.219056,-0.346251 0.247322,-0.395715 0.621839,-0.982223 0.982222,-1.596995 0.452247,-0.777299 0.452247,-1.286076 0,-0.36745 -0.169593,-0.586507 -0.169592,-0.219057 -0.44518,-0.219057 -0.268521,0 -0.438113,0.219057 -0.162526,0.21199 -0.15546,0.565308 v 0.268521 q 0,0.07066 -0.07066,0.07066 h -0.36745 q -0.07066,0 -0.07066,-0.07066 v -0.282654 q 0.01413,-0.544109 0.317986,-0.876227 0.310919,-0.332119 0.805563,-0.332119 0.494645,0 0.798498,0.346252 0.303853,0.339184 0.303853,0.897426 0,0.664237 -0.501711,1.498066 -0.254388,0.431048 -0.713701,1.158882 z"
         id="path296684" />
      <path
         d="m -17.197913,-67.835022 q 0.07066,0.261455 0.07066,0.67837 0,0.317985 -0.0424,0.586507 -0.07066,0.473445 -0.353317,0.727834 -0.275588,0.247322 -0.7349,0.247322 -0.459313,0 -0.741967,-0.247322 -0.275588,-0.247322 -0.353318,-0.741967 l -0.0212,-0.21199 v -0.01413 q 0,-0.05653 0.0636,-0.05653 h 0.360384 q 0.07066,0 0.07773,0.07066 l 0.0212,0.169592 q 0.113062,0.593573 0.593574,0.593573 0.226123,0 0.374516,-0.141327 0.148393,-0.148393 0.204924,-0.423981 0.04947,-0.226123 0.04947,-0.565308 0,-0.353317 -0.0636,-0.607706 -0.127195,-0.494644 -0.565308,-0.494644 -0.487579,0 -0.607707,0.487578 -0.0212,0.0636 -0.07773,0.0636 h -0.367451 q -0.07066,0 -0.07066,-0.07066 v -2.741744 q 0,-0.07066 0.07066,-0.07066 h 1.999777 q 0.07066,0 0.07066,0.07066 v 0.296786 q 0,0.07066 -0.07066,0.07066 h -1.540464 q -0.02827,0 -0.02827,0.02827 l -0.0071,1.752455 q 0,0.01413 0.0071,0.0212 0.01413,0.0071 0.02827,-0.0071 0.113062,-0.169593 0.296787,-0.254389 0.190791,-0.09186 0.423981,-0.09186 0.374516,0 0.614772,0.226123 0.240256,0.226123 0.317986,0.650104 z"
         id="path296686" />
      <path
         d="m -15.410137,-65.594989 q -0.501711,0 -0.805564,-0.296787 -0.296787,-0.296786 -0.296787,-0.784365 v -1.526331 q 0,-0.480512 0.303853,-0.777299 0.303853,-0.303853 0.798498,-0.303853 0.332118,0 0.586507,0.134261 0.254389,0.134261 0.388649,0.360384 0.141327,0.219057 0.141327,0.487578 v 0.07066 q 0,0.07066 -0.07066,0.07066 l -0.360384,0.01413 q -0.07066,0 -0.07066,-0.07066 v -0.04946 q 0,-0.23319 -0.176658,-0.402782 -0.169593,-0.176659 -0.438114,-0.176659 -0.268521,0 -0.438114,0.190791 -0.162526,0.183726 -0.162526,0.487579 v 1.455668 q 0,0.303853 0.162526,0.494644 0.169593,0.183725 0.438114,0.183725 0.268521,0 0.438114,-0.169592 0.176658,-0.176659 0.176658,-0.409848 v -0.04946 q 0,-0.07066 0.07066,-0.07066 l 0.360384,0.0071 q 0.07066,0 0.07066,0.07066 v 0.07773 q 0,0.423981 -0.310919,0.706635 -0.303853,0.275588 -0.805564,0.275588 z"
         id="path296688" />
      <path
         d="m -13.56583,-65.65152 q -0.07066,0 -0.07066,-0.07066 v -4.805118 q 0,-0.07066 0.07066,-0.07066 h 0.360384 q 0.07066,0 0.07066,0.07066 v 4.805118 q 0,0.07066 -0.07066,0.07066 z"
         id="path296690" />
    </g>
    <path
       id="path16460-2-8-1-3"
       transform="matrix(0.51187005,0,0,0.51187005,-84.839198,-134.00913)"
       clip-path="url(#clipath_lpe_path-effect31884-9-4)"
       d="m 230.33838,113.14619 a 26.459211,26.459211 0 0 1 -26.45921,26.45921 26.459211,26.459211 0 0 1 -26.45922,-26.45921 26.459211,26.459211 0 0 1 26.45922,-26.459215 26.459211,26.459211 0 0 1 26.45921,26.459215 z"
       style="display:inline;fill:none;stroke:#000000;stroke-width:3.77437;stroke-miterlimit:4;stroke-dasharray:none;stroke-opacity:1" />
    <g
       aria-label="50cl"
       id="text188141-3-8-2"
       style="font-size:6.39091px;line-height:1.25;font-family:'Barlow Condensed';-inkscape-font-specification:'Barlow Condensed, ';display:inline;stroke-width:0.159773">
      <path
         d="m 17.251683,-68.145171 q 0.06391,0.236464 0.06391,0.613527 0,0.287591 -0.03835,0.530446 -0.06391,0.428191 -0.319545,0.658264 -0.249246,0.223682 -0.664655,0.223682 -0.415409,0 -0.671045,-0.223682 -0.249246,-0.223682 -0.319546,-0.671046 l -0.01917,-0.191727 v -0.01278 q 0,-0.05113 0.05752,-0.05113 h 0.325936 q 0.06391,0 0.0703,0.06391 l 0.01917,0.153382 q 0.102254,0.536836 0.536836,0.536836 0.204509,0 0.338718,-0.127818 0.13421,-0.134209 0.185337,-0.383455 0.04474,-0.204509 0.04474,-0.511272 0,-0.319546 -0.05752,-0.549619 -0.115036,-0.447363 -0.511273,-0.447363 -0.440973,0 -0.549618,0.440972 -0.01917,0.05752 -0.0703,0.05752 h -0.332327 q -0.06391,0 -0.06391,-0.06391 v -2.479673 q 0,-0.06391 0.06391,-0.06391 h 1.808627 q 0.06391,0 0.06391,0.06391 v 0.268419 q 0,0.06391 -0.06391,0.06391 H 15.75621 q -0.02556,0 -0.02556,0.02556 l -0.0064,1.584946 q 0,0.01278 0.0064,0.01917 0.01278,0.0064 0.02556,-0.0064 0.102254,-0.153382 0.268418,-0.230073 0.172555,-0.08308 0.383455,-0.08308 0.338718,0 0.556009,0.204509 0.217291,0.20451 0.287591,0.587964 z"
         id="path296693" />
      <path
         d="m 18.964437,-66.106471 q -0.485709,0 -0.786082,-0.313154 -0.293982,-0.319546 -0.293982,-0.830818 v -2.31351 q 0,-0.511273 0.293982,-0.824427 0.300373,-0.319546 0.786082,-0.319546 0.4921,0 0.792473,0.319546 0.300373,0.313154 0.300373,0.824427 v 2.31351 q 0,0.511272 -0.300373,0.830818 -0.300373,0.313154 -0.792473,0.313154 z m 0,-0.396236 q 0.293982,0 0.466536,-0.198118 0.172555,-0.198118 0.172555,-0.524055 v -2.364637 q 0,-0.325936 -0.172555,-0.524054 -0.172554,-0.198118 -0.466536,-0.198118 -0.2812,0 -0.453755,0.198118 -0.172554,0.198118 -0.172554,0.524054 v 2.364637 q 0,0.325937 0.172554,0.524055 0.172555,0.198118 0.453755,0.198118 z"
         id="path296695" />
      <path
         d="m 21.706127,-66.119252 q -0.453755,0 -0.728564,-0.268419 -0.268418,-0.268418 -0.268418,-0.709391 v -1.380436 q 0,-0.434582 0.274809,-0.703 0.274809,-0.274809 0.722173,-0.274809 0.300373,0 0.530445,0.121427 0.230073,0.121427 0.3515,0.325936 0.127819,0.198118 0.127819,0.440973 v 0.06391 q 0,0.06391 -0.06391,0.06391 l -0.325937,0.01278 q -0.06391,0 -0.06391,-0.06391 v -0.04474 q 0,-0.2109 -0.159773,-0.364282 -0.153382,-0.159773 -0.396236,-0.159773 -0.242855,0 -0.396237,0.172555 -0.146991,0.166163 -0.146991,0.440972 v 1.316528 q 0,0.274809 0.146991,0.447364 0.153382,0.166163 0.396237,0.166163 0.242854,0 0.396236,-0.153382 0.159773,-0.159772 0.159773,-0.370672 v -0.04474 q 0,-0.06391 0.06391,-0.06391 l 0.325937,0.0064 q 0.06391,0 0.06391,0.06391 v 0.0703 q 0,0.383455 -0.2812,0.639091 -0.27481,0.249246 -0.728564,0.249245 z"
         id="path296697" />
      <path
         d="m 23.374145,-66.17038 q -0.06391,0 -0.06391,-0.06391 v -4.345819 q 0,-0.06391 0.06391,-0.06391 h 0.325936 q 0.06391,0 0.06391,0.06391 v 4.345819 q 0,0.06391 -0.06391,0.06391 z"
         id="path296699" />
    </g>
    <path
       id="path16460-2-8-1-6-6"
       transform="matrix(0.51187005,0,0,0.51187005,-121.73911,-96.798853)"
       clip-path="url(#clipath_lpe_path-effect31884-9-1-6)"
       d="m 230.33838,113.14619 a 26.459211,26.459211 0 0 1 -26.45921,26.45921 26.459211,26.459211 0 0 1 -26.45922,-26.45921 26.459211,26.459211 0 0 1 26.45922,-26.459215 26.459211,26.459211 0 0 1 26.45921,26.459215 z"
       style="display:inline;fill:none;stroke:#000000;stroke-width:3.77437;stroke-miterlimit:4;stroke-dasharray:none;stroke-opacity:1" />
    <path
       id="path16460-2-8-1-0-5"
       transform="matrix(0.51187005,0,0,0.51187005,-85.161551,-96.969151)"
       clip-path="url(#clipath_lpe_path-effect31884-9-7-8)"
       d="m 230.33838,113.14619 a 26.459211,26.459211 0 0 1 -26.45921,26.45921 26.459211,26.459211 0 0 1 -26.45922,-26.45921 26.459211,26.459211 0 0 1 26.45922,-26.459215 26.459211,26.459211 0 0 1 26.45921,26.459215 z"
       style="display:inline;fill:none;stroke:#000000;stroke-width:3.77437;stroke-miterlimit:4;stroke-dasharray:none;stroke-opacity:1" />
    <path
       id="rect246691"
       style="fill:#e74f0f;stroke:#ff0000;stroke-width:0"
       transform="matrix(0.7207992,-0.69314394,0.68084064,0.73243159,0,0)"
       d="m 39.934734,-73.340202 h 9.008827 v 0.509353 h -9.008827 z" />
    <path
       id="rect246691-1"
       style="display:inline;fill:#e74f0f;stroke:#ff0000;stroke-width:0"
       transform="matrix(0.75288777,0.65814892,-0.67080182,0.74163665,0,0)"
       d="m -74.232719,-52.087711 h 9.008826 v 0.509353 h -9.008826 z" />
    <g
       aria-label="2,5€"
       id="text188141-9-4-4"
       style="font-size:14.9504px;line-height:1.25;font-family:'Barlow Condensed';-inkscape-font-specification:'Barlow Condensed, ';display:inline;stroke-width:0.374">
      <path
         d="m -24.270012,-74.017167 q -0.02184,0.02184 -0.01092,0.04369 0.01092,0.02184 0.04369,0.02184 h 2.391852 q 0.05461,0 0.08737,0.04369 0.04369,0.03276 0.04369,0.08737 v 0.830049 q 0,0.05461 -0.04369,0.09829 -0.03277,0.03277 -0.08737,0.03277 h -3.811673 q -0.05461,0 -0.0983,-0.03277 -0.03277,-0.04369 -0.03277,-0.09829 v -0.873736 q 0,-0.0983 0.05461,-0.163825 l 0.425946,-0.57885 q 0.425946,-0.567929 0.830049,-1.157701 0.415025,-0.589771 0.698989,-1.059404 0.633459,-1.048484 0.633459,-1.736551 0,-0.436868 -0.196591,-0.688067 -0.185669,-0.251199 -0.502398,-0.251199 -0.316729,0 -0.502398,0.251199 -0.185669,0.240278 -0.174748,0.64438 v 0.425947 q 0,0.05461 -0.04369,0.0983 -0.03277,0.03276 -0.08737,0.03276 h -1.02664 q -0.05461,0 -0.0983,-0.03276 -0.03276,-0.04369 -0.03276,-0.0983 v -0.469633 q 0.04369,-0.873736 0.589772,-1.4089 0.557006,-0.535163 1.430742,-0.535163 0.862815,0 1.387056,0.567929 0.535163,0.557006 0.535163,1.474429 0,0.546085 -0.185668,1.081248 -0.185669,0.535164 -0.589772,1.146779 -0.273043,0.436868 -0.655302,0.961109 -0.371338,0.524242 -0.491477,0.688067 -0.327651,0.436868 -0.480554,0.655302 z"
         style="font-weight:600;font-stretch:condensed;font-size:10.9217px;-inkscape-font-specification:'Barlow Condensed,  Semi-Bold Condensed';fill:#e74f0f"
         id="path296704" />
      <path
         d="m -20.993511,-71.865592 q -0.06553,0 -0.109217,-0.04369 -0.03277,-0.03276 -0.02184,-0.0983 l 0.283964,-2.446461 q 0.01092,-0.120138 0.13106,-0.120138 h 0.873736 q 0.141982,0 0.109217,0.141982 l -0.535163,2.44646 q -0.02184,0.120139 -0.141982,0.120139 z"
         style="font-weight:600;font-stretch:condensed;font-size:10.9217px;-inkscape-font-specification:'Barlow Condensed,  Semi-Bold Condensed';fill:#e74f0f"
         id="path296706" />
      <path
         d="m -15.008426,-76.026759 q 0.06553,0.338572 0.06553,0.808205 0,0.44779 -0.04369,0.764519 -0.05461,0.808206 -0.567928,1.245074 -0.51332,0.436868 -1.365213,0.436868 -0.808205,0 -1.310604,-0.415025 -0.502398,-0.415024 -0.611615,-1.245073 l -0.03276,-0.305808 q 0,-0.13106 0.13106,-0.13106 h 1.004797 q 0.13106,0 0.141982,0.13106 0,0.06553 0.02184,0.196591 0.131061,0.677145 0.655302,0.677145 0.273043,0 0.436868,-0.174747 0.174747,-0.174747 0.229356,-0.491477 0.04369,-0.273042 0.04369,-0.698988 0,-0.404103 -0.06553,-0.698989 -0.05461,-0.283964 -0.229356,-0.436868 -0.163826,-0.163826 -0.415025,-0.163826 -0.524241,0 -0.677145,0.502399 -0.03276,0.120138 -0.141982,0.120138 h -1.015718 q -0.05461,0 -0.0983,-0.03276 -0.03276,-0.04369 -0.03276,-0.0983 v -4.335915 q 0,-0.05461 0.03276,-0.08737 0.04369,-0.04369 0.0983,-0.04369 h 3.560474 q 0.05461,0 0.08737,0.04369 0.04369,0.03277 0.04369,0.08737 v 0.830049 q 0,0.05461 -0.04369,0.0983 -0.03277,0.03276 -0.08737,0.03276 h -2.370009 q -0.05461,0 -0.05461,0.05461 v 2.129732 q 0,0.03276 0.02184,0.04369 0.02184,0 0.04369,-0.02184 0.185669,-0.196591 0.447789,-0.305808 0.273043,-0.120138 0.567929,-0.120138 0.655302,0 1.048483,0.425946 0.404103,0.415025 0.480555,1.179544 z"
         style="font-weight:600;font-stretch:condensed;font-size:10.9217px;-inkscape-font-specification:'Barlow Condensed,  Semi-Bold Condensed';fill:#e74f0f"
         id="path296708" />
      <path
         d="m -11.546253,-73.864263 q 0.262121,0 0.425947,-0.174747 0.174747,-0.185669 0.207512,-0.502398 0.02184,-0.131061 0.141982,-0.120139 l 0.9938747,0.13106 q 0.06553,0.01092 0.087374,0.05461 0.032765,0.03276 0.021843,0.09829 -0.1201387,0.753597 -0.6225367,1.179544 -0.502398,0.425946 -1.255996,0.425946 -0.862814,0 -1.387055,-0.557007 -0.51332,-0.567928 -0.51332,-1.496272 v -0.83005 q 0,-0.05461 -0.05461,-0.05461 h -0.546085 q -0.05461,0 -0.0983,-0.03276 -0.03276,-0.04369 -0.03276,-0.0983 v -0.425946 q 0,-0.05461 0.03276,-0.08737 0.04369,-0.04369 0.0983,-0.04369 h 0.546085 q 0.05461,0 0.05461,-0.05461 v -0.436868 q 0,-0.05461 -0.05461,-0.05461 h -0.546085 q -0.05461,0 -0.0983,-0.03276 -0.03276,-0.04369 -0.03276,-0.0983 v -0.415024 q 0,-0.05461 0.03276,-0.08737 0.04369,-0.04369 0.0983,-0.04369 h 0.546085 q 0.05461,0 0.05461,-0.05461 v -0.873736 q 0,-0.939266 0.51332,-1.485351 0.524241,-0.557007 1.387055,-0.557007 0.775441,0 1.277839,0.44779 0.5133201,0.436868 0.6225371,1.201387 v 0.02184 q 0,0.0983 -0.1201387,0.120139 l -1.0047964,0.120139 h -0.02184 q -0.0983,0 -0.120139,-0.120139 -0.02184,-0.316729 -0.196591,-0.502398 -0.163825,-0.196591 -0.436868,-0.196591 -0.283964,0 -0.458711,0.240278 -0.174747,0.240277 -0.174747,0.622536 v 0.96111 q 0,0.05461 0.05461,0.05461 h 1.638255 q 0.06553,0 0.0983,0.04369 0.03277,0.03276 0.01092,0.109217 l -0.141982,0.415025 q -0.03276,0.109217 -0.141982,0.109217 h -1.463508 q -0.05461,0 -0.05461,0.05461 v 0.436868 q 0,0.05461 0.05461,0.05461 h 1.299683 q 0.06553,0 0.08737,0.04369 0.03276,0.03276 0.01092,0.109217 l -0.141982,0.425946 q -0.03276,0.109217 -0.141982,0.109217 H -12.1251 q -0.05461,0 -0.05461,0.05461 v 0.928345 q 0,0.382259 0.174747,0.622537 0.174747,0.240277 0.458711,0.240277 z"
         style="font-weight:600;font-stretch:condensed;font-size:10.9217px;-inkscape-font-specification:'Barlow Condensed,  Semi-Bold Condensed';fill:#e74f0f"
         id="path296710" />
    </g>
    <g
       aria-label="8€"
       id="text188141-8-8"
       style="font-size:7.32291px;line-height:1.25;font-family:'Barlow Condensed';-inkscape-font-specification:'Barlow Condensed, ';display:inline;stroke-width:0.183071">
      <path
         d="m 18.647821,-84.374625 q -0.03753,0.02502 0,0.04379 0.206427,0.118852 0.312769,0.362812 0.131363,0.294003 0.131363,0.66307 0,0.331535 -0.100086,0.581751 -0.125108,0.33779 -0.394089,0.531707 -0.262726,0.187661 -0.631793,0.187661 -0.362813,0 -0.631794,-0.187661 -0.262726,-0.187662 -0.387833,-0.525452 -0.09383,-0.262726 -0.09383,-0.588006 0,-0.369067 0.112597,-0.631793 0.09383,-0.250215 0.331535,-0.387834 0.02502,-0.01877 0,-0.03753 -0.206428,-0.131363 -0.319025,-0.362812 -0.125107,-0.268981 -0.125107,-0.600517 0,-0.362812 0.125107,-0.606771 0.125108,-0.275237 0.381579,-0.425366 0.262726,-0.150129 0.606772,-0.150129 0.33779,0 0.594261,0.150129 0.262726,0.143873 0.394089,0.41911 0.137618,0.262726 0.137618,0.613027 0,0.32528 -0.125108,0.588006 -0.112597,0.231449 -0.319024,0.362812 z m -1.038393,-1.176011 q -0.04379,0.112597 -0.04379,0.287747 0,0.187662 0.06255,0.356557 0.04379,0.131363 0.131363,0.206427 0.08757,0.07506 0.206428,0.07506 0.131362,0 0.218938,-0.07506 0.09383,-0.08132 0.137618,-0.225193 0.05004,-0.150129 0.05004,-0.337791 0,-0.212683 -0.06255,-0.344046 -0.04379,-0.131363 -0.131363,-0.200172 -0.08758,-0.07506 -0.212682,-0.07506 -0.112597,0 -0.200173,0.06881 -0.08132,0.06255 -0.125107,0.17515 z m 0.731879,2.539684 q 0.03128,-0.168895 0.03128,-0.331535 0,-0.237705 -0.0563,-0.4066 -0.03753,-0.150129 -0.131363,-0.231449 -0.08758,-0.08758 -0.218938,-0.08758 -0.131363,0 -0.225194,0.08758 -0.08758,0.08758 -0.125108,0.250215 -0.05004,0.16264 -0.05004,0.375323 0,0.193917 0.03753,0.356557 0.03128,0.17515 0.125108,0.275237 0.100086,0.09383 0.237705,0.09383 0.143873,0 0.243959,-0.100086 0.100086,-0.100086 0.131363,-0.281492 z"
         style="font-size:6.25538px"
         id="path296713" />
      <path
         d="m 21.099918,-82.629374 q 0.150129,0 0.24396,-0.100086 0.100086,-0.106341 0.118852,-0.287747 0.01251,-0.07506 0.08132,-0.06881 l 0.56924,0.07506 q 0.03753,0.0063 0.05004,0.03128 0.01877,0.01877 0.01251,0.0563 -0.06881,0.431622 -0.356557,0.675581 -0.287748,0.24396 -0.719369,0.24396 -0.494175,0 -0.794433,-0.319024 -0.294003,-0.32528 -0.294003,-0.856987 v -0.475409 q 0,-0.03128 -0.03128,-0.03128 h -0.312769 q -0.03128,0 -0.0563,-0.01877 -0.01877,-0.02502 -0.01877,-0.0563 v -0.243959 q 0,-0.03128 0.01877,-0.05004 0.02502,-0.02502 0.0563,-0.02502 h 0.312769 q 0.03128,0 0.03128,-0.03128 v -0.250215 q 0,-0.03128 -0.03128,-0.03128 h -0.312769 q -0.03128,0 -0.0563,-0.01877 -0.01877,-0.02502 -0.01877,-0.0563 v -0.237704 q 0,-0.03128 0.01877,-0.05004 0.02502,-0.02502 0.0563,-0.02502 h 0.312769 q 0.03128,0 0.03128,-0.03128 v -0.500431 q 0,-0.537963 0.294003,-0.850732 0.300258,-0.319024 0.794433,-0.319024 0.444132,0 0.73188,0.256471 0.294003,0.250215 0.356556,0.688091 v 0.01251 q 0,0.0563 -0.06881,0.06881 l -0.575495,0.06881 h -0.01251 q -0.0563,0 -0.06881,-0.06881 -0.01251,-0.181406 -0.112597,-0.287747 -0.09383,-0.112597 -0.250215,-0.112597 -0.16264,0 -0.262726,0.137618 -0.100086,0.137619 -0.100086,0.356557 v 0.550474 q 0,0.03128 0.03128,0.03128 h 0.938307 q 0.03753,0 0.0563,0.02502 0.01877,0.01877 0.0063,0.06255 l -0.08132,0.237704 q -0.01877,0.06255 -0.08132,0.06255 h -0.838221 q -0.03128,0 -0.03128,0.03128 v 0.250215 q 0,0.03128 0.03128,0.03128 h 0.74439 q 0.03753,0 0.05004,0.02502 0.01877,0.01877 0.0063,0.06255 l -0.08132,0.24396 q -0.01877,0.06255 -0.08132,0.06255 h -0.638049 q -0.03128,0 -0.03128,0.03128 v 0.531707 q 0,0.218939 0.100086,0.356557 0.100086,0.137618 0.262726,0.137618 z"
         style="font-size:6.25538px"
         id="path296715" />
    </g>
    <path
       id="rect246691-0"
       style="display:inline;fill:#e74f0f;stroke:#ff0000;stroke-width:0"
       transform="matrix(0.7207992,-0.69314394,0.68084064,0.73243159,0,0)"
       d="m 67.243866,-47.542778 h 9.008826 v 0.509354 h -9.008826 z" />
    <path
       id="rect246691-1-7"
       style="display:inline;fill:#e74f0f;stroke:#ff0000;stroke-width:0"
       transform="matrix(0.75288777,0.65814892,-0.67080182,0.74163665,0,0)"
       d="m -46.627045,-76.632011 h 9.008827 v 0.509353 h -9.008827 z" />
    <g
       aria-label="5€"
       id="text188141-9-4-4-0"
       style="font-size:14.9504px;line-height:1.25;font-family:'Barlow Condensed';-inkscape-font-specification:'Barlow Condensed, ';display:inline;stroke-width:0.374">
      <path
         d="m 18.777768,-76.061069 q 0.06553,0.338573 0.06553,0.808206 0,0.44779 -0.04369,0.764519 -0.05461,0.808206 -0.567928,1.245074 -0.51332,0.436868 -1.365213,0.436868 -0.808206,0 -1.310604,-0.415025 -0.502398,-0.415025 -0.611615,-1.245074 l -0.03276,-0.305807 q 0,-0.131061 0.13106,-0.131061 h 1.004797 q 0.13106,0 0.141982,0.131061 0,0.06553 0.02184,0.19659 0.131061,0.677146 0.655302,0.677146 0.273043,0 0.436868,-0.174747 0.174747,-0.174748 0.229356,-0.491477 0.04369,-0.273042 0.04369,-0.698989 0,-0.404103 -0.06553,-0.698989 -0.05461,-0.283964 -0.229355,-0.436867 -0.163826,-0.163826 -0.415025,-0.163826 -0.524241,0 -0.677145,0.502398 -0.03277,0.120139 -0.141982,0.120139 h -1.015718 q -0.05461,0 -0.0983,-0.03277 -0.03277,-0.04369 -0.03277,-0.0983 v -4.335914 q 0,-0.05461 0.03277,-0.08737 0.04369,-0.04369 0.0983,-0.04369 h 3.560474 q 0.05461,0 0.08737,0.04369 0.04369,0.03276 0.04369,0.08737 v 0.830049 q 0,0.05461 -0.04369,0.09829 -0.03277,0.03276 -0.08737,0.03276 H 16.22209 q -0.05461,0 -0.05461,0.05461 v 2.129731 q 0,0.03276 0.02184,0.04369 0.02184,0 0.04369,-0.02184 0.185668,-0.196591 0.447789,-0.305808 0.273043,-0.120139 0.567929,-0.120139 0.655302,0 1.048483,0.425947 0.404103,0.415024 0.480555,1.179543 z"
         style="font-weight:600;font-stretch:condensed;font-size:10.9217px;-inkscape-font-specification:'Barlow Condensed,  Semi-Bold Condensed';fill:#e74f0f"
         id="path296720" />
      <path
         d="m 22.239941,-73.898572 q 0.262121,0 0.425946,-0.174747 0.174747,-0.185669 0.207512,-0.502399 0.02184,-0.13106 0.141982,-0.120138 l 0.993875,0.13106 q 0.06553,0.01092 0.08737,0.05461 0.03276,0.03276 0.02184,0.0983 -0.120139,0.753597 -0.622537,1.179543 -0.502398,0.425947 -1.255995,0.425947 -0.862814,0 -1.387056,-0.557007 -0.51332,-0.567928 -0.51332,-1.496273 v -0.830049 q 0,-0.05461 -0.05461,-0.05461 h -0.546085 q -0.05461,0 -0.0983,-0.03277 -0.03276,-0.04369 -0.03276,-0.09829 v -0.425946 q 0,-0.05461 0.03276,-0.08737 0.04369,-0.04369 0.0983,-0.04369 h 0.546085 q 0.05461,0 0.05461,-0.05461 v -0.436868 q 0,-0.05461 -0.05461,-0.05461 h -0.546085 q -0.05461,0 -0.0983,-0.03276 -0.03276,-0.04369 -0.03276,-0.09829 v -0.415025 q 0,-0.05461 0.03276,-0.08737 0.04369,-0.04369 0.0983,-0.04369 h 0.546085 q 0.05461,0 0.05461,-0.05461 v -0.873736 q 0,-0.939267 0.51332,-1.485352 0.524242,-0.557006 1.387056,-0.557006 0.77544,0 1.277839,0.447789 0.51332,0.436868 0.622537,1.201387 v 0.02184 q 0,0.0983 -0.120139,0.120139 l -1.004797,0.120138 h -0.02184 q -0.0983,0 -0.120139,-0.120138 -0.02184,-0.31673 -0.19659,-0.502399 -0.163826,-0.19659 -0.436868,-0.19659 -0.283964,0 -0.458712,0.240277 -0.174747,0.240278 -0.174747,0.622537 v 0.96111 q 0,0.05461 0.05461,0.05461 h 1.638255 q 0.06553,0 0.0983,0.04369 0.03277,0.03276 0.01092,0.109217 l -0.141982,0.415024 q -0.03277,0.109217 -0.141983,0.109217 h -1.463507 q -0.05461,0 -0.05461,0.05461 v 0.436868 q 0,0.05461 0.05461,0.05461 h 1.299682 q 0.06553,0 0.08737,0.04369 0.03277,0.03277 0.01092,0.109217 l -0.141982,0.425946 q -0.03277,0.109217 -0.141982,0.109217 h -1.114013 q -0.05461,0 -0.05461,0.05461 v 0.928344 q 0,0.38226 0.174747,0.622537 0.174748,0.240278 0.458712,0.240278 z"
         style="font-weight:600;font-stretch:condensed;font-size:10.9217px;-inkscape-font-specification:'Barlow Condensed,  Semi-Bold Condensed';fill:#e74f0f"
         id="path296722" />
    </g>
    <g
       aria-label="1,5L"
       id="text188141-3-8-2-0"
       style="font-size:6.39091px;line-height:1.25;font-family:'Barlow Condensed';-inkscape-font-specification:'Barlow Condensed, ';display:inline;stroke-width:0.159773">
      <path
         d="m -20.568521,-32.749398 q 0.03835,-0.01917 0.08308,-0.01917 h 0.345109 q 0.06391,0 0.06391,0.06391 v 4.345819 q 0,0.06391 -0.06391,0.06391 h -0.325936 q -0.06391,0 -0.06391,-0.06391 v -3.872892 q 0,-0.01278 -0.01278,-0.01917 -0.0064,-0.0064 -0.01917,0 l -0.600746,0.198119 -0.01917,0.0064 q -0.04474,0 -0.05752,-0.05752 l -0.03195,-0.236463 v -0.01278 q 0,-0.03195 0.04474,-0.06391 z"
         id="path296725" />
      <path
         d="m -19.392602,-27.790051 q -0.02556,0 -0.04474,-0.01917 -0.01917,-0.01917 -0.01278,-0.05113 l 0.198118,-1.367655 q 0.0064,-0.05752 0.06391,-0.05752 h 0.287591 q 0.0703,0 0.05752,0.0703 l -0.287591,1.367654 q -0.0064,0.05752 -0.0703,0.05752 z"
         id="path296727" />
      <path
         d="m -16.254677,-30.269725 q 0.06391,0.236464 0.06391,0.613528 0,0.287591 -0.03835,0.530445 -0.06391,0.428191 -0.319545,0.658264 -0.249246,0.223682 -0.664655,0.223682 -0.415409,0 -0.671045,-0.223682 -0.249246,-0.223682 -0.319546,-0.671045 l -0.01917,-0.191728 v -0.01278 q 0,-0.05113 0.05752,-0.05113 h 0.325936 q 0.06391,0 0.0703,0.06391 l 0.01917,0.153382 q 0.102254,0.536837 0.536836,0.536837 0.204509,0 0.338718,-0.127819 0.13421,-0.134209 0.185337,-0.383454 0.04474,-0.204509 0.04474,-0.511273 0,-0.319546 -0.05752,-0.549618 -0.115036,-0.447364 -0.511273,-0.447364 -0.440973,0 -0.549618,0.440973 -0.01917,0.05752 -0.0703,0.05752 h -0.332327 q -0.06391,0 -0.06391,-0.06391 v -2.479673 q 0,-0.06391 0.06391,-0.06391 h 1.808627 q 0.06391,0 0.06391,0.06391 v 0.268418 q 0,0.06391 -0.06391,0.06391 h -1.393218 q -0.02556,0 -0.02556,0.02556 l -0.0064,1.584945 q 0,0.01278 0.0064,0.01917 0.01278,0.0064 0.02556,-0.0064 0.102254,-0.153382 0.268418,-0.230073 0.172555,-0.08308 0.383455,-0.08308 0.338718,0 0.556009,0.204509 0.217291,0.204509 0.287591,0.587963 z"
         id="path296729" />
      <path
         d="m -15.43026,-28.294933 q -0.06391,0 -0.06391,-0.06391 v -4.345819 q 0,-0.06391 0.06391,-0.06391 h 0.325937 q 0.06391,0 0.06391,0.06391 v 3.987928 q 0,0.02556 0.02556,0.02556 h 1.463518 q 0.06391,0 0.06391,0.06391 v 0.268419 q 0,0.06391 -0.06391,0.06391 z"
         id="path296731" />
    </g>
    <g
       aria-label="22€"
       id="text188141-8-8-4"
       style="font-size:7.32291px;line-height:1.25;font-family:'Barlow Condensed';-inkscape-font-specification:'Barlow Condensed, ';display:inline;stroke-width:0.183071">
      <path
         d="m -20.494647,-44.841503 q -0.01251,0.01251 -0.0063,0.02502 0.0063,0.01251 0.02502,0.01251 h 1.369928 q 0.03128,0 0.05004,0.02502 0.02502,0.01877 0.02502,0.05004 v 0.475409 q 0,0.03128 -0.02502,0.0563 -0.01877,0.01877 -0.05004,0.01877 h -2.183127 q -0.03128,0 -0.0563,-0.01877 -0.01877,-0.02502 -0.01877,-0.0563 v -0.50043 q 0,-0.0563 0.03128,-0.09383 l 0.24396,-0.331535 q 0.24396,-0.32528 0.475409,-0.663071 0.237704,-0.33779 0.400344,-0.606771 0.362812,-0.600517 0.362812,-0.994606 0,-0.250215 -0.112597,-0.394089 -0.106341,-0.143874 -0.287747,-0.143874 -0.181406,0 -0.287748,0.143874 -0.106341,0.137619 -0.100086,0.369068 v 0.243959 q 0,0.03128 -0.02502,0.0563 -0.01877,0.01877 -0.05004,0.01877 h -0.588006 q -0.03128,0 -0.0563,-0.01877 -0.01877,-0.02502 -0.01877,-0.0563 v -0.268981 q 0.02502,-0.50043 0.337791,-0.806944 0.319024,-0.306514 0.819455,-0.306514 0.494175,0 0.794433,0.32528 0.306514,0.319025 0.306514,0.844476 0,0.312769 -0.106342,0.619283 -0.106341,0.306514 -0.33779,0.656815 -0.156385,0.250215 -0.375323,0.550473 -0.212683,0.300259 -0.281492,0.394089 -0.187662,0.250216 -0.275237,0.375323 z"
         style="font-size:6.25538px"
         id="path296734" />
      <path
         d="m -17.836115,-44.841503 q -0.01251,0.01251 -0.0063,0.02502 0.0063,0.01251 0.02502,0.01251 h 1.369928 q 0.03128,0 0.05004,0.02502 0.02502,0.01877 0.02502,0.05004 v 0.475409 q 0,0.03128 -0.02502,0.0563 -0.01877,0.01877 -0.05004,0.01877 h -2.183127 q -0.03128,0 -0.0563,-0.01877 -0.01877,-0.02502 -0.01877,-0.0563 v -0.50043 q 0,-0.0563 0.03128,-0.09383 l 0.24396,-0.331535 q 0.24396,-0.32528 0.475409,-0.663071 0.237704,-0.33779 0.400344,-0.606771 0.362812,-0.600517 0.362812,-0.994606 0,-0.250215 -0.112597,-0.394089 -0.106341,-0.143874 -0.287747,-0.143874 -0.181406,0 -0.287748,0.143874 -0.106341,0.137619 -0.100086,0.369068 v 0.243959 q 0,0.03128 -0.02502,0.0563 -0.01877,0.01877 -0.05004,0.01877 h -0.588006 q -0.03128,0 -0.0563,-0.01877 -0.01877,-0.02502 -0.01877,-0.0563 v -0.268981 q 0.02502,-0.50043 0.337791,-0.806944 0.319024,-0.306514 0.819455,-0.306514 0.494175,0 0.794433,0.32528 0.306514,0.319025 0.306514,0.844476 0,0.312769 -0.106342,0.619283 -0.106341,0.306514 -0.33779,0.656815 -0.156385,0.250215 -0.375323,0.550473 -0.212683,0.300259 -0.281492,0.394089 -0.187662,0.250216 -0.275237,0.375323 z"
         style="font-size:6.25538px"
         id="path296736" />
      <path
         d="m -14.470725,-44.753927 q 0.150129,0 0.24396,-0.100087 0.100086,-0.106341 0.118852,-0.287747 0.01251,-0.07506 0.08132,-0.06881 l 0.569239,0.07506 q 0.03753,0.0063 0.05004,0.03128 0.01877,0.01877 0.01251,0.0563 -0.06881,0.431621 -0.356556,0.675581 -0.287748,0.24396 -0.719369,0.24396 -0.494175,0 -0.794433,-0.319025 -0.294003,-0.32528 -0.294003,-0.856987 v -0.475409 q 0,-0.03128 -0.03128,-0.03128 h -0.312769 q -0.03128,0 -0.0563,-0.01877 -0.01877,-0.02502 -0.01877,-0.0563 v -0.24396 q 0,-0.03128 0.01877,-0.05004 0.02502,-0.02502 0.0563,-0.02502 h 0.312769 q 0.03128,0 0.03128,-0.03128 v -0.250215 q 0,-0.03128 -0.03128,-0.03128 h -0.312769 q -0.03128,0 -0.0563,-0.01877 -0.01877,-0.02502 -0.01877,-0.0563 v -0.237705 q 0,-0.03128 0.01877,-0.05004 0.02502,-0.02502 0.0563,-0.02502 h 0.312769 q 0.03128,0 0.03128,-0.03128 v -0.500431 q 0,-0.537962 0.294003,-0.850731 0.300258,-0.319025 0.794433,-0.319025 0.444132,0 0.731879,0.256471 0.294003,0.250215 0.356557,0.688092 v 0.01251 q 0,0.0563 -0.06881,0.06881 l -0.575495,0.06881 h -0.01251 q -0.0563,0 -0.06881,-0.06881 -0.01251,-0.181406 -0.112597,-0.287748 -0.09383,-0.112597 -0.250215,-0.112597 -0.16264,0 -0.262726,0.137619 -0.100086,0.137618 -0.100086,0.356556 v 0.550474 q 0,0.03128 0.03128,0.03128 h 0.938307 q 0.03753,0 0.0563,0.02502 0.01877,0.01877 0.0063,0.06255 l -0.08132,0.237705 q -0.01877,0.06255 -0.08132,0.06255 h -0.838221 q -0.03128,0 -0.03128,0.03128 v 0.250215 q 0,0.03128 0.03128,0.03128 h 0.74439 q 0.03753,0 0.05004,0.02502 0.01877,0.01877 0.0063,0.06255 l -0.08132,0.24396 q -0.01877,0.06255 -0.08132,0.06255 h -0.638048 q -0.03128,0 -0.03128,0.03128 v 0.531708 q 0,0.218938 0.100086,0.356556 0.100086,0.137619 0.262726,0.137619 z"
         style="font-size:6.25538px"
         id="path296738" />
    </g>
    <path
       id="rect246691-0-7"
       style="display:inline;fill:#e74f0f;stroke:#ff0000;stroke-width:0"
       transform="matrix(0.7207992,-0.69314394,0.68084064,0.73243159,0,0)"
       d="m 14.422491,-45.81889 h 9.008826 v 0.509354 h -9.008826 z" />
    <path
       id="rect246691-1-7-4"
       style="display:inline;fill:#e74f0f;stroke:#ff0000;stroke-width:0"
       transform="matrix(0.75288777,0.65814892,-0.67080182,0.74163665,0,0)"
       d="m -48.586735,-23.822844 h 9.008826 v 0.509354 h -9.008826 z" />
    <g
       aria-label="15€"
       id="text188141-9-4-4-0-4"
       style="font-size:14.9504px;line-height:1.25;font-family:'Barlow Condensed';-inkscape-font-specification:'Barlow Condensed, ';display:inline;stroke-width:0.374">
      <path
         d="m -22.594571,-42.630754 q 0.07645,-0.03276 0.163825,-0.03276 h 1.048483 q 0.05461,0 0.08737,0.04369 0.04369,0.03277 0.04369,0.08737 v 7.383069 q 0,0.05461 -0.04369,0.0983 -0.03276,0.03276 -0.08737,0.03276 h -1.004796 q -0.05461,0 -0.0983,-0.03276 -0.03276,-0.04369 -0.03276,-0.0983 v -6.159839 q 0,-0.02184 -0.02184,-0.04369 -0.01092,-0.02184 -0.03277,-0.01092 l -0.895579,0.174747 h -0.03277 q -0.120139,0 -0.120139,-0.120139 l -0.03277,-0.731753 q 0,-0.109217 0.08737,-0.152904 z"
         style="font-weight:600;font-stretch:condensed;font-size:10.9217px;-inkscape-font-specification:'Barlow Condensed,  Semi-Bold Condensed';fill:#e74f0f"
         id="path296743" />
      <path
         d="m -16.467517,-38.185622 q 0.06553,0.338572 0.06553,0.808205 0,0.44779 -0.04369,0.764519 -0.05461,0.808206 -0.567929,1.245074 -0.51332,0.436868 -1.365212,0.436868 -0.808206,0 -1.310604,-0.415025 -0.502398,-0.415024 -0.611615,-1.245073 l -0.03277,-0.305808 q 0,-0.13106 0.13106,-0.13106 h 1.004796 q 0.131061,0 0.141982,0.13106 0,0.06553 0.02184,0.196591 0.13106,0.677145 0.655302,0.677145 0.273042,0 0.436868,-0.174747 0.174747,-0.174747 0.229356,-0.491477 0.04369,-0.273042 0.04369,-0.698988 0,-0.404103 -0.06553,-0.698989 -0.05461,-0.283964 -0.229356,-0.436868 -0.163825,-0.163826 -0.415024,-0.163826 -0.524242,0 -0.677146,0.502399 -0.03277,0.120138 -0.141982,0.120138 h -1.015718 q -0.05461,0 -0.0983,-0.03277 -0.03276,-0.04369 -0.03276,-0.0983 v -4.335915 q 0,-0.05461 0.03276,-0.08737 0.04369,-0.04369 0.0983,-0.04369 h 3.560474 q 0.05461,0 0.08737,0.04369 0.04369,0.03277 0.04369,0.08737 v 0.830049 q 0,0.05461 -0.04369,0.0983 -0.03276,0.03277 -0.08737,0.03277 h -2.370008 q -0.05461,0 -0.05461,0.05461 v 2.129732 q 0,0.03276 0.02184,0.04369 0.02184,0 0.04369,-0.02184 0.185669,-0.196591 0.44779,-0.305808 0.273042,-0.120138 0.567928,-0.120138 0.655302,0 1.048483,0.425946 0.404103,0.415025 0.480555,1.179544 z"
         style="font-weight:600;font-stretch:condensed;font-size:10.9217px;-inkscape-font-specification:'Barlow Condensed,  Semi-Bold Condensed';fill:#e74f0f"
         id="path296745" />
      <path
         d="m -13.005344,-36.023126 q 0.262121,0 0.425947,-0.174747 0.174747,-0.185669 0.207512,-0.502398 0.02184,-0.131061 0.141982,-0.120139 l 0.993875,0.13106 q 0.06553,0.01092 0.08737,0.05461 0.03276,0.03276 0.02184,0.0983 -0.120139,0.753597 -0.622537,1.179544 -0.502398,0.425946 -1.255996,0.425946 -0.862814,0 -1.387056,-0.557007 -0.513319,-0.567928 -0.513319,-1.496273 v -0.830049 q 0,-0.05461 -0.05461,-0.05461 h -0.546085 q -0.05461,0 -0.0983,-0.03276 -0.03276,-0.04369 -0.03276,-0.0983 V -38.4259 q 0,-0.05461 0.03276,-0.08737 0.04369,-0.04369 0.0983,-0.04369 h 0.546085 q 0.05461,0 0.05461,-0.05461 v -0.436868 q 0,-0.05461 -0.05461,-0.05461 h -0.546085 q -0.05461,0 -0.0983,-0.03276 -0.03276,-0.04369 -0.03276,-0.0983 v -0.415024 q 0,-0.05461 0.03276,-0.08737 0.04369,-0.04369 0.0983,-0.04369 h 0.546085 q 0.05461,0 0.05461,-0.05461 v -0.873736 q 0,-0.939266 0.513319,-1.485351 0.524242,-0.557007 1.387056,-0.557007 0.775441,0 1.277839,0.44779 0.51332,0.436868 0.622537,1.201387 v 0.02184 q 0,0.0983 -0.120139,0.120139 l -1.004796,0.120139 h -0.02184 q -0.0983,0 -0.120139,-0.120139 -0.02184,-0.316729 -0.196591,-0.502398 -0.163825,-0.196591 -0.436868,-0.196591 -0.283964,0 -0.458711,0.240277 -0.174747,0.240278 -0.174747,0.622537 v 0.96111 q 0,0.05461 0.05461,0.05461 h 1.638255 q 0.06553,0 0.09829,0.04369 0.03277,0.03276 0.01092,0.109217 l -0.141982,0.415025 q -0.03276,0.109217 -0.141982,0.109217 h -1.463508 q -0.05461,0 -0.05461,0.05461 v 0.436868 q 0,0.05461 0.05461,0.05461 h 1.299682 q 0.06553,0 0.08737,0.04369 0.03277,0.03276 0.01092,0.109217 l -0.141982,0.425946 q -0.03276,0.109217 -0.141982,0.109217 h -1.114014 q -0.05461,0 -0.05461,0.05461 v 0.928345 q 0,0.382259 0.174747,0.622537 0.174747,0.240277 0.458711,0.240277 z"
         style="font-weight:600;font-stretch:condensed;font-size:10.9217px;-inkscape-font-specification:'Barlow Condensed,  Semi-Bold Condensed';fill:#e74f0f"
         id="path296747" />
    </g>
    <g
       aria-label="3L"
       id="text188141-3-8-2-6"
       style="font-size:6.39091px;line-height:1.25;font-family:'Barlow Condensed';-inkscape-font-specification:'Barlow Condensed, ';display:inline;stroke-width:0.159773">
      <path
         d="m 18.715577,-31.462141 q 0.102254,0.325937 0.102254,0.728564 0,0.338718 -0.0703,0.619918 -0.178945,0.786082 -0.945854,0.786082 -0.402628,0 -0.664655,-0.223682 -0.255636,-0.223682 -0.319545,-0.619918 -0.03835,-0.223682 -0.03835,-0.4921 0,-0.06391 0.06391,-0.06391 h 0.325937 q 0.06391,0 0.06391,0.06391 0,0.230073 0.03834,0.415409 0.108646,0.524055 0.530446,0.524055 0.198118,0 0.332327,-0.121428 0.134209,-0.121427 0.191727,-0.3515 0.05113,-0.268418 0.05113,-0.575181 0,-0.402628 -0.07669,-0.671046 -0.06391,-0.204509 -0.191728,-0.306764 -0.127818,-0.108645 -0.306763,-0.108645 -0.05752,0 -0.146991,0.03834 -0.05752,0.03195 -0.08947,-0.0064 l -0.166164,-0.172554 q -0.03195,-0.04474 -0.0064,-0.08947 l 0.849991,-1.3357 q 0.0064,-0.0064 0,-0.01917 -0.0064,-0.01278 -0.01917,-0.01278 h -1.348482 q -0.06391,0 -0.06391,-0.06391 v -0.268418 q 0,-0.06391 0.06391,-0.06391 h 1.866145 q 0.06391,0 0.06391,0.06391 v 0.287591 q 0,0.03195 -0.02556,0.08308 l -0.792473,1.239836 q -0.0064,0.01278 -0.0064,0.02556 0.0064,0.0064 0.01917,0.0064 0.255636,0.02556 0.440973,0.2109 0.191727,0.178945 0.274809,0.472927 z"
         id="path296750" />
      <path
         d="m 19.674207,-29.378704 q -0.06391,0 -0.06391,-0.06391 v -4.345819 q 0,-0.06391 0.06391,-0.06391 h 0.325937 q 0.06391,0 0.06391,0.06391 v 3.987928 q 0,0.02556 0.02556,0.02556 h 1.463519 q 0.06391,0 0.06391,0.06391 v 0.268418 q 0,0.06391 -0.06391,0.06391 z"
         id="path296752" />
    </g>
    <g
       aria-label="42€"
       id="text188141-8-8-6"
       style="font-size:7.32291px;line-height:1.25;font-family:'Barlow Condensed';-inkscape-font-specification:'Barlow Condensed, ';display:inline;stroke-width:0.183071">
      <path
         d="m 17.646756,-47.057497 q 0.03128,0 0.05004,0.02502 0.02502,0.01877 0.02502,0.05004 v 0.506686 q 0,0.03128 -0.02502,0.0563 -0.01877,0.01877 -0.05004,0.01877 h -0.187661 q -0.03128,0 -0.03128,0.03128 v 1.032138 q 0,0.03128 -0.02502,0.0563 -0.01877,0.01877 -0.05004,0.01877 H 16.77726 q -0.03128,0 -0.0563,-0.01877 -0.01877,-0.02502 -0.01877,-0.0563 v -1.032138 q 0,-0.03128 -0.03128,-0.03128 h -1.538824 q -0.03128,0 -0.0563,-0.01877 -0.01877,-0.02502 -0.01877,-0.0563 v -0.4066 q 0,-0.0563 0.01251,-0.09383 l 0.869497,-2.602239 q 0.01877,-0.06255 0.08132,-0.06255 h 0.625538 q 0.03753,0 0.0563,0.02502 0.01877,0.01877 0.0063,0.06255 l -0.800688,2.458364 q -0.0063,0.03753 0.02502,0.03753 h 0.738135 q 0.03128,0 0.03128,-0.03128 v -0.750646 q 0,-0.03128 0.01877,-0.05004 0.02502,-0.02502 0.0563,-0.02502 h 0.575495 q 0.03128,0 0.05004,0.02502 0.02502,0.01877 0.02502,0.05004 v 0.750646 q 0,0.03128 0.03128,0.03128 z"
         style="font-size:6.25538px"
         id="path296755" />
      <path
         d="m 18.885319,-45.925274 q -0.01251,0.01251 -0.0063,0.02502 0.0063,0.01251 0.02502,0.01251 h 1.369929 q 0.03128,0 0.05004,0.02502 0.02502,0.01877 0.02502,0.05004 v 0.475409 q 0,0.03128 -0.02502,0.0563 -0.01877,0.01877 -0.05004,0.01877 H 18.09084 q -0.03128,0 -0.0563,-0.01877 -0.01877,-0.02502 -0.01877,-0.0563 v -0.50043 q 0,-0.0563 0.03128,-0.09383 l 0.24396,-0.331535 q 0.24396,-0.32528 0.475409,-0.66307 0.237705,-0.337791 0.400344,-0.606772 0.362812,-0.600517 0.362812,-0.994606 0,-0.250215 -0.112596,-0.394089 -0.106342,-0.143873 -0.287748,-0.143873 -0.181406,0 -0.287747,0.143873 -0.106342,0.137619 -0.100086,0.369068 v 0.24396 q 0,0.03128 -0.02502,0.0563 -0.01877,0.01877 -0.05004,0.01877 h -0.588006 q -0.03128,0 -0.0563,-0.01877 -0.01877,-0.02502 -0.01877,-0.0563 v -0.268982 q 0.02502,-0.50043 0.33779,-0.806944 0.319025,-0.306513 0.819455,-0.306513 0.494175,0 0.794433,0.325279 0.306514,0.319025 0.306514,0.844477 0,0.312769 -0.106342,0.619282 -0.106341,0.306514 -0.33779,0.656815 -0.156385,0.250215 -0.375323,0.550474 -0.212683,0.300258 -0.281492,0.394089 -0.187661,0.250215 -0.275237,0.375322 z"
         style="font-size:6.25538px"
         id="path296757" />
      <path
         d="m 22.250709,-45.837698 q 0.150129,0 0.24396,-0.100086 0.100086,-0.106342 0.118852,-0.287748 0.01251,-0.07506 0.08132,-0.06881 l 0.569239,0.07507 q 0.03753,0.0063 0.05004,0.03128 0.01877,0.01877 0.01251,0.0563 -0.06881,0.431621 -0.356556,0.675581 -0.287748,0.24396 -0.719369,0.24396 -0.494175,0 -0.794433,-0.319025 -0.294003,-0.325279 -0.294003,-0.856987 v -0.475409 q 0,-0.03128 -0.03128,-0.03128 H 20.81822 q -0.03128,0 -0.0563,-0.01877 -0.01877,-0.02502 -0.01877,-0.0563 v -0.24396 q 0,-0.03128 0.01877,-0.05004 0.02502,-0.02502 0.0563,-0.02502 h 0.312769 q 0.03128,0 0.03128,-0.03128 v -0.250215 q 0,-0.03128 -0.03128,-0.03128 H 20.81822 q -0.03128,0 -0.0563,-0.01877 -0.01877,-0.02502 -0.01877,-0.0563 v -0.237704 q 0,-0.03128 0.01877,-0.05004 0.02502,-0.02502 0.0563,-0.02502 h 0.312769 q 0.03128,0 0.03128,-0.03128 v -0.50043 q 0,-0.537963 0.294003,-0.850732 0.300258,-0.319024 0.794433,-0.319024 0.444132,0 0.731879,0.25647 0.294003,0.250215 0.356557,0.688092 v 0.01251 q 0,0.0563 -0.06881,0.06881 l -0.575495,0.06881 h -0.01251 q -0.0563,0 -0.06881,-0.06881 -0.01251,-0.181406 -0.112597,-0.287748 -0.09383,-0.112596 -0.250215,-0.112596 -0.16264,0 -0.262726,0.137618 -0.100086,0.137618 -0.100086,0.356557 v 0.550473 q 0,0.03128 0.03128,0.03128 h 0.938307 q 0.03753,0 0.0563,0.02502 0.01877,0.01877 0.0063,0.06255 l -0.08132,0.237705 q -0.01877,0.06255 -0.08132,0.06255 h -0.838221 q -0.03128,0 -0.03128,0.03128 v 0.250215 q 0,0.03128 0.03128,0.03128 h 0.74439 q 0.03753,0 0.05004,0.02502 0.01877,0.01877 0.0063,0.06255 l -0.08132,0.24396 q -0.01877,0.06255 -0.08132,0.06255 h -0.638049 q -0.03128,0 -0.03128,0.03128 v 0.531708 q 0,0.218938 0.100086,0.356556 0.100086,0.137619 0.262726,0.137619 z"
         style="font-size:6.25538px"
         id="path296759" />
    </g>
    <path
       id="rect246691-0-8"
       style="display:inline;fill:#e74f0f;stroke:#ff0000;stroke-width:0"
       transform="matrix(0.7207992,-0.69314394,0.68084064,0.73243159,0,0)"
       d="m 41.954872,-21.243036 h 9.008826 v 0.509353 h -9.008826 z" />
    <path
       id="rect246691-1-7-7"
       style="display:inline;fill:#e74f0f;stroke:#ff0000;stroke-width:0"
       transform="matrix(0.75288777,0.65814892,-0.67080182,0.74163665,0,0)"
       d="m -22.182688,-48.715851 h 9.008826 v 0.509354 h -9.008826 z" />
    <g
       aria-label="30€"
       id="text188141-9-4-4-0-5"
       style="font-size:14.9504px;line-height:1.25;font-family:'Barlow Condensed';-inkscape-font-specification:'Barlow Condensed, ';display:inline;stroke-width:0.374">
      <path
         d="m 15.894286,-39.455062 q 0.0983,0.436868 0.0983,0.972031 0,0.535163 -0.07645,0.917423 -0.13106,0.742675 -0.600693,1.146778 -0.458712,0.404103 -1.255996,0.404103 -0.830049,0 -1.35429,-0.436868 -0.524242,-0.447789 -0.589772,-1.212308 -0.02184,-0.240278 -0.04369,-0.698989 0,-0.131061 0.13106,-0.131061 h 1.004797 q 0.13106,0 0.13106,0.131061 0.02184,0.371338 0.04369,0.557007 0.05461,0.338572 0.229356,0.524241 0.174747,0.174747 0.447789,0.174747 0.262121,0 0.436868,-0.163825 0.174748,-0.174747 0.229356,-0.491477 0.05461,-0.327651 0.05461,-0.851892 0,-0.557007 -0.07645,-0.928345 -0.06553,-0.283964 -0.229356,-0.436868 -0.163826,-0.152903 -0.415025,-0.152903 -0.163825,0 -0.294886,0.0983 -0.06553,0.04369 -0.0983,0.04369 -0.02184,0 -0.08737,-0.04369 l -0.51332,-0.524242 q -0.04369,-0.04369 -0.04369,-0.0983 0,-0.04369 0.03276,-0.08737 l 1.365212,-1.856689 q 0.02184,-0.02184 0,-0.04369 -0.01092,-0.02184 -0.04369,-0.02184 h -2.075123 q -0.05461,0 -0.0983,-0.03277 -0.03276,-0.04369 -0.03276,-0.0983 v -0.819128 q 0,-0.05461 0.03276,-0.08737 0.04369,-0.04369 0.0983,-0.04369 h 3.53863 q 0.05461,0 0.08737,0.04369 0.04369,0.03276 0.04369,0.08737 v 0.862815 q 0,0.07645 -0.05461,0.163825 l -1.245073,1.703785 q -0.04369,0.06553 0.02184,0.07645 0.44779,0.05461 0.764519,0.425946 0.327651,0.371338 0.436868,0.928345 z"
         style="font-weight:600;font-stretch:condensed;font-size:10.9217px;-inkscape-font-specification:'Barlow Condensed,  Semi-Bold Condensed';fill:#e74f0f"
         id="path296764" />
      <path
         d="m 18.864974,-35.981962 q -0.917423,0 -1.474429,-0.57885 -0.557007,-0.589772 -0.557007,-1.539959 v -3.647848 q 0,-0.950188 0.557007,-1.529038 0.557006,-0.589772 1.474429,-0.589772 0.928344,0 1.485351,0.589772 0.567929,0.57885 0.567929,1.529038 v 3.647848 q 0,0.950187 -0.567929,1.539959 -0.557007,0.57885 -1.485351,0.57885 z m 0,-1.103091 q 0.360416,0 0.567928,-0.251199 0.218434,-0.262121 0.218434,-0.688067 v -3.800752 q 0,-0.425946 -0.218434,-0.677145 -0.207512,-0.262121 -0.567928,-0.262121 -0.349494,0 -0.557007,0.262121 -0.207512,0.251199 -0.207512,0.677145 v 3.800752 q 0,0.425946 0.207512,0.688067 0.207513,0.251199 0.557007,0.251199 z"
         style="font-weight:600;font-stretch:condensed;font-size:10.9217px;-inkscape-font-specification:'Barlow Condensed,  Semi-Bold Condensed';fill:#e74f0f"
         id="path296766" />
      <path
         d="m 24.424107,-37.106897 q 0.262121,0 0.425947,-0.174747 0.174747,-0.185669 0.207512,-0.502398 0.02184,-0.13106 0.141982,-0.120139 l 0.993875,0.131061 q 0.06553,0.01092 0.08737,0.05461 0.03277,0.03276 0.02184,0.0983 -0.120139,0.753598 -0.622537,1.179544 -0.502399,0.425946 -1.255996,0.425946 -0.862814,0 -1.387056,-0.557006 -0.513319,-0.567929 -0.513319,-1.496273 v -0.830049 q 0,-0.05461 -0.05461,-0.05461 H 21.92303 q -0.05461,0 -0.09829,-0.03277 -0.03277,-0.04369 -0.03277,-0.09829 v -0.425947 q 0,-0.05461 0.03277,-0.08737 0.04369,-0.04369 0.09829,-0.04369 h 0.546085 q 0.05461,0 0.05461,-0.05461 v -0.436867 q 0,-0.05461 -0.05461,-0.05461 H 21.92303 q -0.05461,0 -0.09829,-0.03276 -0.03277,-0.04369 -0.03277,-0.0983 v -0.415025 q 0,-0.05461 0.03277,-0.08737 0.04369,-0.04369 0.09829,-0.04369 h 0.546085 q 0.05461,0 0.05461,-0.05461 v -0.873736 q 0,-0.939266 0.513319,-1.485351 0.524242,-0.557007 1.387056,-0.557007 0.775441,0 1.277839,0.44779 0.51332,0.436868 0.622537,1.201387 v 0.02184 q 0,0.0983 -0.120139,0.120139 l -1.004796,0.120139 h -0.02184 q -0.0983,0 -0.120138,-0.120139 -0.02184,-0.316729 -0.196591,-0.502398 -0.163825,-0.196591 -0.436868,-0.196591 -0.283964,0 -0.458711,0.240278 -0.174747,0.240277 -0.174747,0.622537 v 0.961109 q 0,0.05461 0.05461,0.05461 h 1.638255 q 0.06553,0 0.0983,0.04369 0.03276,0.03277 0.01092,0.109217 l -0.141982,0.415025 q -0.03277,0.109217 -0.141982,0.109217 h -1.463508 q -0.05461,0 -0.05461,0.05461 v 0.436867 q 0,0.05461 0.05461,0.05461 h 1.299682 q 0.06553,0 0.08737,0.04369 0.03276,0.03276 0.01092,0.109217 l -0.141982,0.425946 q -0.03277,0.109217 -0.141982,0.109217 h -1.114014 q -0.05461,0 -0.05461,0.05461 v 0.928344 q 0,0.382259 0.174747,0.622537 0.174747,0.240277 0.458711,0.240277 z"
         style="font-weight:600;font-stretch:condensed;font-size:10.9217px;-inkscape-font-specification:'Barlow Condensed,  Semi-Bold Condensed';fill:#e74f0f"
         id="path296768" />
    </g>
  </g>
</svg>
