<?xml version="1.0" encoding="UTF-8" standalone="no"?>
<!-- Created with Inkscape (http://www.inkscape.org/) -->

<svg
   width="66.016647mm"
   height="66.375488mm"
   viewBox="0 0 66.016647 66.375488"
   version="1.1"
   id="svg185766"
   inkscape:version="1.1.1 (3bf5ae0d25, 2021-09-20)"
   sodipodi:docname="prix-bieres-HH-dark.svg"
   xmlns:inkscape="http://www.inkscape.org/namespaces/inkscape"
   xmlns:sodipodi="http://sodipodi.sourceforge.net/DTD/sodipodi-0.dtd"
   xmlns="http://www.w3.org/2000/svg"
   xmlns:svg="http://www.w3.org/2000/svg">
  <sodipodi:namedview
     id="namedview185768"
     pagecolor="#505050"
     bordercolor="#eeeeee"
     borderopacity="1"
     inkscape:pageshadow="0"
     inkscape:pageopacity="0"
     inkscape:pagecheckerboard="0"
     inkscape:document-units="mm"
     showgrid="false"
     fit-margin-top="0"
     fit-margin-left="0"
     fit-margin-right="0"
     fit-margin-bottom="0"
     inkscape:zoom="0.54929737"
     inkscape:cx="408.70394"
     inkscape:cy="304.93501"
     inkscape:window-width="1920"
     inkscape:window-height="1057"
     inkscape:window-x="-8"
     inkscape:window-y="-8"
     inkscape:window-maximized="1"
     inkscape:current-layer="layer1" />
  <defs
     id="defs185763">
    <clipPath
       clipPathUnits="userSpaceOnUse"
       id="clipath_lpe_path-effect31884">
      <path
         id="lpe_path-effect31884"
         style="opacity:0.63782;fill:#000000;stroke:#ff0000;stroke-width:0;stroke-miterlimit:4;stroke-dasharray:none;stroke-opacity:1"
         class="powerclip"
         d="m 170.53277,79.799791 h 66.69279 v 66.692789 h -66.69279 z m -19.26223,26.168919 v 13.90839 h 103.39129 v -13.90839 z" />
    </clipPath>
    <clipPath
       clipPathUnits="userSpaceOnUse"
       id="clipath_lpe_path-effect31884-9">
      <path
         id="lpe_path-effect31884-5"
         style="opacity:0.63782;fill:#000000;stroke:#ff0000;stroke-width:0;stroke-miterlimit:4;stroke-dasharray:none;stroke-opacity:1"
         class="powerclip"
         d="m 170.53277,79.799791 h 66.69279 v 66.692789 h -66.69279 z m -19.26223,26.168919 v 13.90839 h 103.39129 v -13.90839 z" />
    </clipPath>
    <clipPath
       clipPathUnits="userSpaceOnUse"
       id="clipath_lpe_path-effect31884-7">
      <path
         id="lpe_path-effect31884-0"
         style="opacity:0.63782;fill:#000000;stroke:#ff0000;stroke-width:0;stroke-miterlimit:4;stroke-dasharray:none;stroke-opacity:1"
         class="powerclip"
         d="m 170.53277,79.799791 h 66.69279 v 66.692789 h -66.69279 z m -19.26223,26.168919 v 13.90839 h 103.39129 v -13.90839 z" />
    </clipPath>
    <clipPath
       clipPathUnits="userSpaceOnUse"
       id="clipath_lpe_path-effect31884-8">
      <path
         id="lpe_path-effect31884-9"
         style="opacity:0.63782;fill:#000000;stroke:#ff0000;stroke-width:0;stroke-miterlimit:4;stroke-dasharray:none;stroke-opacity:1"
         class="powerclip"
         d="m 170.53277,79.799791 h 66.69279 v 66.692789 h -66.69279 z m -19.26223,26.168919 v 13.90839 h 103.39129 v -13.90839 z" />
    </clipPath>
    <clipPath
       clipPathUnits="userSpaceOnUse"
       id="clipath_lpe_path-effect31884-9-1">
      <path
         id="lpe_path-effect31884-5-7"
         style="opacity:0.63782;fill:#000000;stroke:#ff0000;stroke-width:0;stroke-miterlimit:4;stroke-dasharray:none;stroke-opacity:1"
         class="powerclip"
         d="m 170.53277,79.799791 h 66.69279 v 66.692789 h -66.69279 z m -19.26223,26.168919 v 13.90839 h 103.39129 v -13.90839 z" />
    </clipPath>
    <clipPath
       clipPathUnits="userSpaceOnUse"
       id="clipath_lpe_path-effect31884-9-7">
      <path
         id="lpe_path-effect31884-5-2"
         style="opacity:0.63782;fill:#000000;stroke:#ff0000;stroke-width:0;stroke-miterlimit:4;stroke-dasharray:none;stroke-opacity:1"
         class="powerclip"
         d="m 170.53277,79.799791 h 66.69279 v 66.692789 h -66.69279 z m -19.26223,26.168919 v 13.90839 h 103.39129 v -13.90839 z" />
    </clipPath>
    <clipPath
       clipPathUnits="userSpaceOnUse"
       id="clipath_lpe_path-effect31884-6">
      <path
         id="lpe_path-effect31884-55"
         style="opacity:0.63782;fill:#000000;stroke:#ff0000;stroke-width:0;stroke-miterlimit:4;stroke-dasharray:none;stroke-opacity:1"
         class="powerclip"
         d="m 170.53277,79.799791 h 66.69279 v 66.692789 h -66.69279 z m -19.26223,26.168919 v 13.90839 h 103.39129 v -13.90839 z" />
    </clipPath>
    <clipPath
       clipPathUnits="userSpaceOnUse"
       id="clipath_lpe_path-effect31884-9-4">
      <path
         id="lpe_path-effect31884-5-0"
         style="opacity:0.63782;fill:#000000;stroke:#ff0000;stroke-width:0;stroke-miterlimit:4;stroke-dasharray:none;stroke-opacity:1"
         class="powerclip"
         d="m 170.53277,79.799791 h 66.69279 v 66.692789 h -66.69279 z m -19.26223,26.168919 v 13.90839 h 103.39129 v -13.90839 z" />
    </clipPath>
    <clipPath
       clipPathUnits="userSpaceOnUse"
       id="clipath_lpe_path-effect31884-9-1-6">
      <path
         id="lpe_path-effect31884-5-7-6"
         style="opacity:0.63782;fill:#000000;stroke:#ff0000;stroke-width:0;stroke-miterlimit:4;stroke-dasharray:none;stroke-opacity:1"
         class="powerclip"
         d="m 170.53277,79.799791 h 66.69279 v 66.692789 h -66.69279 z m -19.26223,26.168919 v 13.90839 h 103.39129 v -13.90839 z" />
    </clipPath>
    <clipPath
       clipPathUnits="userSpaceOnUse"
       id="clipath_lpe_path-effect31884-9-7-8">
      <path
         id="lpe_path-effect31884-5-2-6"
         style="opacity:0.63782;fill:#000000;stroke:#ff0000;stroke-width:0;stroke-miterlimit:4;stroke-dasharray:none;stroke-opacity:1"
         class="powerclip"
         d="m 170.53277,79.799791 h 66.69279 v 66.692789 h -66.69279 z m -19.26223,26.168919 v 13.90839 h 103.39129 v -13.90839 z" />
    </clipPath>
  </defs>
  <g
     inkscape:label="Calque 1"
     inkscape:groupmode="layer"
     id="layer1"
     style="display:inline"
     transform="translate(31.986535,90.748527)">
    <path
       id="path16460-2-8-7"
       transform="matrix(0.51187005,0,0,0.51187005,-121.57186,-134.23317)"
       clip-path="url(#clipath_lpe_path-effect31884-6)"
       d="m 230.33838,113.14619 a 26.459211,26.459211 0 0 1 -26.45921,26.45921 26.459211,26.459211 0 0 1 -26.45922,-26.45921 26.459211,26.459211 0 0 1 26.45922,-26.459215 26.459211,26.459211 0 0 1 26.45921,26.459215 z"
       style="display:inline;fill:none;stroke:#fffff3;stroke-width:3.77437;stroke-miterlimit:4;stroke-dasharray:none;stroke-opacity:1" />
    <g
       aria-label="4€"
       id="text188141-8"
       style="font-size:7.32291px;line-height:1.25;font-family:'Barlow Condensed';-inkscape-font-specification:'Barlow Condensed, ';display:inline;fill:#ffffff;fill-opacity:1;stroke-width:0.183071"
       transform="matrix(1.6006817,0,0,1.6006817,11.566756,56.300618)">
      <path
         d="m -17.743928,-84.121245 q 0.03661,0 0.05858,0.02929 0.02929,0.02197 0.02929,0.05858 v 0.593156 q 0,0.03661 -0.02929,0.06591 -0.02197,0.02197 -0.05858,0.02197 h -0.219688 q -0.03661,0 -0.03661,0.03661 v 1.20828 q 0,0.03661 -0.02929,0.06591 -0.02197,0.02197 -0.05858,0.02197 h -0.673708 q -0.03661,0 -0.06591,-0.02197 -0.02197,-0.02929 -0.02197,-0.06591 v -1.20828 q 0,-0.03661 -0.03661,-0.03661 h -1.801436 q -0.03662,0 -0.06591,-0.02197 -0.02197,-0.02929 -0.02197,-0.06591 v -0.475989 q 0,-0.06591 0.01465,-0.109844 l 1.017884,-3.04633 q 0.02197,-0.07323 0.0952,-0.07323 h 0.732291 q 0.04394,0 0.06591,0.02929 0.02197,0.02197 0.0073,0.07323 l -0.937332,2.877904 q -0.0073,0.04394 0.02929,0.04394 h 0.864104 q 0.03661,0 0.03661,-0.03661 v -0.878749 q 0,-0.03661 0.02197,-0.05858 0.02929,-0.02929 0.06591,-0.02929 h 0.673708 q 0.03661,0 0.05858,0.02929 0.02929,0.02197 0.02929,0.05858 v 0.878749 q 0,0.03661 0.03661,0.03661 z"
         style="font-weight:600;font-stretch:condensed;-inkscape-font-specification:'Barlow Condensed,  Semi-Bold Condensed';fill:#ffffff;fill-opacity:1"
         id="path296679" />
      <path
         d="m -15.768617,-82.595064 q 0.150129,0 0.24396,-0.100086 0.100086,-0.106342 0.118852,-0.287748 0.01251,-0.07506 0.08132,-0.06881 l 0.56924,0.07506 q 0.03753,0.0063 0.05004,0.03128 0.01877,0.01877 0.01251,0.0563 -0.06881,0.431621 -0.356556,0.675581 -0.287748,0.24396 -0.719369,0.24396 -0.494175,0 -0.794433,-0.319025 -0.294003,-0.32528 -0.294003,-0.856987 v -0.475409 q 0,-0.03128 -0.03128,-0.03128 h -0.312769 q -0.03128,0 -0.0563,-0.01877 -0.01877,-0.02502 -0.01877,-0.0563 v -0.24396 q 0,-0.03128 0.01877,-0.05004 0.02502,-0.02502 0.0563,-0.02502 h 0.312769 q 0.03128,0 0.03128,-0.03128 v -0.250216 q 0,-0.03128 -0.03128,-0.03128 h -0.312769 q -0.03128,0 -0.0563,-0.01877 -0.01877,-0.02502 -0.01877,-0.0563 v -0.237705 q 0,-0.03128 0.01877,-0.05004 0.02502,-0.02502 0.0563,-0.02502 h 0.312769 q 0.03128,0 0.03128,-0.03128 v -0.50043 q 0,-0.537963 0.294003,-0.850732 0.300258,-0.319025 0.794433,-0.319025 0.444132,0 0.731879,0.256471 0.294003,0.250215 0.356557,0.688092 v 0.01251 q 0,0.0563 -0.06881,0.06881 l -0.575495,0.06881 h -0.01251 q -0.0563,0 -0.06881,-0.06881 -0.01251,-0.181406 -0.112597,-0.287748 -0.09383,-0.112597 -0.250215,-0.112597 -0.16264,0 -0.262726,0.137619 -0.100086,0.137618 -0.100086,0.356557 v 0.550473 q 0,0.03128 0.03128,0.03128 h 0.938307 q 0.03753,0 0.0563,0.02502 0.01877,0.01877 0.0063,0.06255 l -0.08132,0.237705 q -0.01877,0.06255 -0.08132,0.06255 h -0.838221 q -0.03128,0 -0.03128,0.03128 v 0.250216 q 0,0.03128 0.03128,0.03128 h 0.74439 q 0.03753,0 0.05004,0.02502 0.01877,0.01877 0.0063,0.06255 l -0.08132,0.24396 q -0.01877,0.06255 -0.08132,0.06255 h -0.638049 q -0.03128,0 -0.03128,0.03128 v 0.531708 q 0,0.218938 0.100086,0.356556 0.100086,0.137619 0.262726,0.137619 z"
         style="font-size:6.25538px;fill:#ffffff;fill-opacity:1"
         id="path296681" />
    </g>
    <g
       aria-label="25cl"
       id="text188141-3-5"
       style="font-size:7.06635px;line-height:1.25;font-family:'Barlow Condensed';-inkscape-font-specification:'Barlow Condensed, ';display:inline;fill:#ffffff;fill-opacity:1;stroke-width:0.176659"
       transform="translate(0.900281,-2.152019)">
      <path
         d="m -21.706234,-66.124965 q -0.0071,0.01413 0,0.02827 0.0071,0.0071 0.0212,0.0071 h 1.660593 q 0.07066,0 0.07066,0.07066 v 0.296787 q 0,0.07066 -0.07066,0.07066 h -2.218834 q -0.07066,0 -0.07066,-0.07066 v -0.317986 q 0,-0.05653 0.02827,-0.09186 0.219056,-0.346251 0.247322,-0.395715 0.621839,-0.982223 0.982222,-1.596995 0.452247,-0.777299 0.452247,-1.286076 0,-0.36745 -0.169593,-0.586507 -0.169592,-0.219057 -0.44518,-0.219057 -0.268521,0 -0.438113,0.219057 -0.162526,0.21199 -0.15546,0.565308 v 0.268521 q 0,0.07066 -0.07066,0.07066 h -0.36745 q -0.07066,0 -0.07066,-0.07066 v -0.282654 q 0.01413,-0.544109 0.317986,-0.876227 0.310919,-0.332119 0.805563,-0.332119 0.494645,0 0.798498,0.346252 0.303853,0.339184 0.303853,0.897426 0,0.664237 -0.501711,1.498066 -0.254388,0.431048 -0.713701,1.158882 z"
         id="path296684"
         style="fill:#ffffff;fill-opacity:1" />
      <path
         d="m -17.197913,-67.835022 q 0.07066,0.261455 0.07066,0.67837 0,0.317985 -0.0424,0.586507 -0.07066,0.473445 -0.353317,0.727834 -0.275588,0.247322 -0.7349,0.247322 -0.459313,0 -0.741967,-0.247322 -0.275588,-0.247322 -0.353318,-0.741967 l -0.0212,-0.21199 v -0.01413 q 0,-0.05653 0.0636,-0.05653 h 0.360384 q 0.07066,0 0.07773,0.07066 l 0.0212,0.169592 q 0.113062,0.593573 0.593574,0.593573 0.226123,0 0.374516,-0.141327 0.148393,-0.148393 0.204924,-0.423981 0.04947,-0.226123 0.04947,-0.565308 0,-0.353317 -0.0636,-0.607706 -0.127195,-0.494644 -0.565308,-0.494644 -0.487579,0 -0.607707,0.487578 -0.0212,0.0636 -0.07773,0.0636 h -0.367451 q -0.07066,0 -0.07066,-0.07066 v -2.741744 q 0,-0.07066 0.07066,-0.07066 h 1.999777 q 0.07066,0 0.07066,0.07066 v 0.296786 q 0,0.07066 -0.07066,0.07066 h -1.540464 q -0.02827,0 -0.02827,0.02827 l -0.0071,1.752455 q 0,0.01413 0.0071,0.0212 0.01413,0.0071 0.02827,-0.0071 0.113062,-0.169593 0.296787,-0.254389 0.190791,-0.09186 0.423981,-0.09186 0.374516,0 0.614772,0.226123 0.240256,0.226123 0.317986,0.650104 z"
         id="path296686"
         style="fill:#ffffff;fill-opacity:1" />
      <path
         d="m -15.410137,-65.594989 q -0.501711,0 -0.805564,-0.296787 -0.296787,-0.296786 -0.296787,-0.784365 v -1.526331 q 0,-0.480512 0.303853,-0.777299 0.303853,-0.303853 0.798498,-0.303853 0.332118,0 0.586507,0.134261 0.254389,0.134261 0.388649,0.360384 0.141327,0.219057 0.141327,0.487578 v 0.07066 q 0,0.07066 -0.07066,0.07066 l -0.360384,0.01413 q -0.07066,0 -0.07066,-0.07066 v -0.04946 q 0,-0.23319 -0.176658,-0.402782 -0.169593,-0.176659 -0.438114,-0.176659 -0.268521,0 -0.438114,0.190791 -0.162526,0.183726 -0.162526,0.487579 v 1.455668 q 0,0.303853 0.162526,0.494644 0.169593,0.183725 0.438114,0.183725 0.268521,0 0.438114,-0.169592 0.176658,-0.176659 0.176658,-0.409848 v -0.04946 q 0,-0.07066 0.07066,-0.07066 l 0.360384,0.0071 q 0.07066,0 0.07066,0.07066 v 0.07773 q 0,0.423981 -0.310919,0.706635 -0.303853,0.275588 -0.805564,0.275588 z"
         id="path296688"
         style="fill:#ffffff;fill-opacity:1" />
      <path
         d="m -13.56583,-65.65152 q -0.07066,0 -0.07066,-0.07066 v -4.805118 q 0,-0.07066 0.07066,-0.07066 h 0.360384 q 0.07066,0 0.07066,0.07066 v 4.805118 q 0,0.07066 -0.07066,0.07066 z"
         id="path296690"
         style="fill:#ffffff;fill-opacity:1" />
    </g>
    <path
       id="path16460-2-8-1-3"
       transform="matrix(0.51187005,0,0,0.51187005,-84.839198,-134.00913)"
       clip-path="url(#clipath_lpe_path-effect31884-9-4)"
       d="m 230.33838,113.14619 a 26.459211,26.459211 0 0 1 -26.45921,26.45921 26.459211,26.459211 0 0 1 -26.45922,-26.45921 26.459211,26.459211 0 0 1 26.45922,-26.459215 26.459211,26.459211 0 0 1 26.45921,26.459215 z"
       style="display:inline;fill:none;stroke:#fffff3;stroke-width:3.77437;stroke-miterlimit:4;stroke-dasharray:none;stroke-opacity:1" />
    <g
       aria-label="50cl"
       id="text188141-3-8-2"
       style="font-size:6.39091px;line-height:1.25;font-family:'Barlow Condensed';-inkscape-font-specification:'Barlow Condensed, ';display:inline;fill:#ffffff;fill-opacity:1;stroke-width:0.159773">
      <path
         d="m 17.251683,-68.145171 q 0.06391,0.236464 0.06391,0.613527 0,0.287591 -0.03835,0.530446 -0.06391,0.428191 -0.319545,0.658264 -0.249246,0.223682 -0.664655,0.223682 -0.415409,0 -0.671045,-0.223682 -0.249246,-0.223682 -0.319546,-0.671046 l -0.01917,-0.191727 v -0.01278 q 0,-0.05113 0.05752,-0.05113 h 0.325936 q 0.06391,0 0.0703,0.06391 l 0.01917,0.153382 q 0.102254,0.536836 0.536836,0.536836 0.204509,0 0.338718,-0.127818 0.13421,-0.134209 0.185337,-0.383455 0.04474,-0.204509 0.04474,-0.511272 0,-0.319546 -0.05752,-0.549619 -0.115036,-0.447363 -0.511273,-0.447363 -0.440973,0 -0.549618,0.440972 -0.01917,0.05752 -0.0703,0.05752 h -0.332327 q -0.06391,0 -0.06391,-0.06391 v -2.479673 q 0,-0.06391 0.06391,-0.06391 h 1.808627 q 0.06391,0 0.06391,0.06391 v 0.268419 q 0,0.06391 -0.06391,0.06391 H 15.75621 q -0.02556,0 -0.02556,0.02556 l -0.0064,1.584946 q 0,0.01278 0.0064,0.01917 0.01278,0.0064 0.02556,-0.0064 0.102254,-0.153382 0.268418,-0.230073 0.172555,-0.08308 0.383455,-0.08308 0.338718,0 0.556009,0.204509 0.217291,0.20451 0.287591,0.587964 z"
         id="path296693"
         style="fill:#ffffff;fill-opacity:1" />
      <path
         d="m 18.964437,-66.106471 q -0.485709,0 -0.786082,-0.313154 -0.293982,-0.319546 -0.293982,-0.830818 v -2.31351 q 0,-0.511273 0.293982,-0.824427 0.300373,-0.319546 0.786082,-0.319546 0.4921,0 0.792473,0.319546 0.300373,0.313154 0.300373,0.824427 v 2.31351 q 0,0.511272 -0.300373,0.830818 -0.300373,0.313154 -0.792473,0.313154 z m 0,-0.396236 q 0.293982,0 0.466536,-0.198118 0.172555,-0.198118 0.172555,-0.524055 v -2.364637 q 0,-0.325936 -0.172555,-0.524054 -0.172554,-0.198118 -0.466536,-0.198118 -0.2812,0 -0.453755,0.198118 -0.172554,0.198118 -0.172554,0.524054 v 2.364637 q 0,0.325937 0.172554,0.524055 0.172555,0.198118 0.453755,0.198118 z"
         id="path296695"
         style="fill:#ffffff;fill-opacity:1" />
      <path
         d="m 21.706127,-66.119252 q -0.453755,0 -0.728564,-0.268419 -0.268418,-0.268418 -0.268418,-0.709391 v -1.380436 q 0,-0.434582 0.274809,-0.703 0.274809,-0.274809 0.722173,-0.274809 0.300373,0 0.530445,0.121427 0.230073,0.121427 0.3515,0.325936 0.127819,0.198118 0.127819,0.440973 v 0.06391 q 0,0.06391 -0.06391,0.06391 l -0.325937,0.01278 q -0.06391,0 -0.06391,-0.06391 v -0.04474 q 0,-0.2109 -0.159773,-0.364282 -0.153382,-0.159773 -0.396236,-0.159773 -0.242855,0 -0.396237,0.172555 -0.146991,0.166163 -0.146991,0.440972 v 1.316528 q 0,0.274809 0.146991,0.447364 0.153382,0.166163 0.396237,0.166163 0.242854,0 0.396236,-0.153382 0.159773,-0.159772 0.159773,-0.370672 v -0.04474 q 0,-0.06391 0.06391,-0.06391 l 0.325937,0.0064 q 0.06391,0 0.06391,0.06391 v 0.0703 q 0,0.383455 -0.2812,0.639091 -0.27481,0.249246 -0.728564,0.249245 z"
         id="path296697"
         style="fill:#ffffff;fill-opacity:1" />
      <path
         d="m 23.374145,-66.17038 q -0.06391,0 -0.06391,-0.06391 v -4.345819 q 0,-0.06391 0.06391,-0.06391 h 0.325936 q 0.06391,0 0.06391,0.06391 v 4.345819 q 0,0.06391 -0.06391,0.06391 z"
         id="path296699"
         style="fill:#ffffff;fill-opacity:1" />
    </g>
    <path
       id="path16460-2-8-1-6-6"
       transform="matrix(0.51187005,0,0,0.51187005,-121.73911,-96.798853)"
       clip-path="url(#clipath_lpe_path-effect31884-9-1-6)"
       d="m 230.33838,113.14619 a 26.459211,26.459211 0 0 1 -26.45921,26.45921 26.459211,26.459211 0 0 1 -26.45922,-26.45921 26.459211,26.459211 0 0 1 26.45922,-26.459215 26.459211,26.459211 0 0 1 26.45921,26.459215 z"
       style="display:inline;fill:none;stroke:#fffff3;stroke-width:3.77437;stroke-miterlimit:4;stroke-dasharray:none;stroke-opacity:1" />
    <path
       id="path16460-2-8-1-0-5"
       transform="matrix(0.51187005,0,0,0.51187005,-85.161551,-96.969151)"
       clip-path="url(#clipath_lpe_path-effect31884-9-7-8)"
       d="m 230.33838,113.14619 a 26.459211,26.459211 0 0 1 -26.45921,26.45921 26.459211,26.459211 0 0 1 -26.45922,-26.45921 26.459211,26.459211 0 0 1 26.45922,-26.459215 26.459211,26.459211 0 0 1 26.45921,26.459215 z"
       style="display:inline;fill:none;stroke:#fffff3;stroke-width:3.77437;stroke-miterlimit:4;stroke-dasharray:none;stroke-opacity:1" />
    <g
       aria-label="8€"
       id="text188141-8-8"
       style="font-size:7.32291px;line-height:1.25;font-family:'Barlow Condensed';-inkscape-font-specification:'Barlow Condensed, ';display:inline;fill:#ffffff;fill-opacity:1;stroke-width:0.183071">
      <path
         d="m 18.647821,-84.374625 q -0.03753,0.02502 0,0.04379 0.206427,0.118852 0.312769,0.362812 0.131363,0.294003 0.131363,0.66307 0,0.331535 -0.100086,0.581751 -0.125108,0.33779 -0.394089,0.531707 -0.262726,0.187661 -0.631793,0.187661 -0.362813,0 -0.631794,-0.187661 -0.262726,-0.187662 -0.387833,-0.525452 -0.09383,-0.262726 -0.09383,-0.588006 0,-0.369067 0.112597,-0.631793 0.09383,-0.250215 0.331535,-0.387834 0.02502,-0.01877 0,-0.03753 -0.206428,-0.131363 -0.319025,-0.362812 -0.125107,-0.268981 -0.125107,-0.600517 0,-0.362812 0.125107,-0.606771 0.125108,-0.275237 0.381579,-0.425366 0.262726,-0.150129 0.606772,-0.150129 0.33779,0 0.594261,0.150129 0.262726,0.143873 0.394089,0.41911 0.137618,0.262726 0.137618,0.613027 0,0.32528 -0.125108,0.588006 -0.112597,0.231449 -0.319024,0.362812 z m -1.038393,-1.176011 q -0.04379,0.112597 -0.04379,0.287747 0,0.187662 0.06255,0.356557 0.04379,0.131363 0.131363,0.206427 0.08757,0.07506 0.206428,0.07506 0.131362,0 0.218938,-0.07506 0.09383,-0.08132 0.137618,-0.225193 0.05004,-0.150129 0.05004,-0.337791 0,-0.212683 -0.06255,-0.344046 -0.04379,-0.131363 -0.131363,-0.200172 -0.08758,-0.07506 -0.212682,-0.07506 -0.112597,0 -0.200173,0.06881 -0.08132,0.06255 -0.125107,0.17515 z m 0.731879,2.539684 q 0.03128,-0.168895 0.03128,-0.331535 0,-0.237705 -0.0563,-0.4066 -0.03753,-0.150129 -0.131363,-0.231449 -0.08758,-0.08758 -0.218938,-0.08758 -0.131363,0 -0.225194,0.08758 -0.08758,0.08758 -0.125108,0.250215 -0.05004,0.16264 -0.05004,0.375323 0,0.193917 0.03753,0.356557 0.03128,0.17515 0.125108,0.275237 0.100086,0.09383 0.237705,0.09383 0.143873,0 0.243959,-0.100086 0.100086,-0.100086 0.131363,-0.281492 z"
         style="font-size:6.25538px;fill:#ffffff;fill-opacity:1"
         id="path296713" />
      <path
         d="m 21.099918,-82.629374 q 0.150129,0 0.24396,-0.100086 0.100086,-0.106341 0.118852,-0.287747 0.01251,-0.07506 0.08132,-0.06881 l 0.56924,0.07506 q 0.03753,0.0063 0.05004,0.03128 0.01877,0.01877 0.01251,0.0563 -0.06881,0.431622 -0.356557,0.675581 -0.287748,0.24396 -0.719369,0.24396 -0.494175,0 -0.794433,-0.319024 -0.294003,-0.32528 -0.294003,-0.856987 v -0.475409 q 0,-0.03128 -0.03128,-0.03128 h -0.312769 q -0.03128,0 -0.0563,-0.01877 -0.01877,-0.02502 -0.01877,-0.0563 v -0.243959 q 0,-0.03128 0.01877,-0.05004 0.02502,-0.02502 0.0563,-0.02502 h 0.312769 q 0.03128,0 0.03128,-0.03128 v -0.250215 q 0,-0.03128 -0.03128,-0.03128 h -0.312769 q -0.03128,0 -0.0563,-0.01877 -0.01877,-0.02502 -0.01877,-0.0563 v -0.237704 q 0,-0.03128 0.01877,-0.05004 0.02502,-0.02502 0.0563,-0.02502 h 0.312769 q 0.03128,0 0.03128,-0.03128 v -0.500431 q 0,-0.537963 0.294003,-0.850732 0.300258,-0.319024 0.794433,-0.319024 0.444132,0 0.73188,0.256471 0.294003,0.250215 0.356556,0.688091 v 0.01251 q 0,0.0563 -0.06881,0.06881 l -0.575495,0.06881 h -0.01251 q -0.0563,0 -0.06881,-0.06881 -0.01251,-0.181406 -0.112597,-0.287747 -0.09383,-0.112597 -0.250215,-0.112597 -0.16264,0 -0.262726,0.137618 -0.100086,0.137619 -0.100086,0.356557 v 0.550474 q 0,0.03128 0.03128,0.03128 h 0.938307 q 0.03753,0 0.0563,0.02502 0.01877,0.01877 0.0063,0.06255 l -0.08132,0.237704 q -0.01877,0.06255 -0.08132,0.06255 h -0.838221 q -0.03128,0 -0.03128,0.03128 v 0.250215 q 0,0.03128 0.03128,0.03128 h 0.74439 q 0.03753,0 0.05004,0.02502 0.01877,0.01877 0.0063,0.06255 l -0.08132,0.24396 q -0.01877,0.06255 -0.08132,0.06255 h -0.638049 q -0.03128,0 -0.03128,0.03128 v 0.531707 q 0,0.218939 0.100086,0.356557 0.100086,0.137618 0.262726,0.137618 z"
         style="font-size:6.25538px;fill:#ffffff;fill-opacity:1"
         id="path296715" />
    </g>
    <path
       id="rect246691-0"
       style="display:inline;fill:#e74f0f;stroke:#ff0000;stroke-width:0"
       transform="matrix(0.7207992,-0.69314394,0.68084064,0.73243159,0,0)"
       d="m 67.243866,-47.542778 h 9.008826 v 0.509354 h -9.008826 z" />
    <path
       id="rect246691-1-7"
       style="display:inline;fill:#e74f0f;stroke:#ff0000;stroke-width:0"
       transform="matrix(0.75288777,0.65814892,-0.67080182,0.74163665,0,0)"
       d="m -46.627045,-76.632011 h 9.008827 v 0.509353 h -9.008827 z" />
    <g
       aria-label="5€"
       id="text188141-9-4-4-0"
       style="font-size:14.9504px;line-height:1.25;font-family:'Barlow Condensed';-inkscape-font-specification:'Barlow Condensed, ';display:inline;stroke-width:0.374">
      <path
         d="m 18.777768,-76.061069 q 0.06553,0.338573 0.06553,0.808206 0,0.44779 -0.04369,0.764519 -0.05461,0.808206 -0.567928,1.245074 -0.51332,0.436868 -1.365213,0.436868 -0.808206,0 -1.310604,-0.415025 -0.502398,-0.415025 -0.611615,-1.245074 l -0.03276,-0.305807 q 0,-0.131061 0.13106,-0.131061 h 1.004797 q 0.13106,0 0.141982,0.131061 0,0.06553 0.02184,0.19659 0.131061,0.677146 0.655302,0.677146 0.273043,0 0.436868,-0.174747 0.174747,-0.174748 0.229356,-0.491477 0.04369,-0.273042 0.04369,-0.698989 0,-0.404103 -0.06553,-0.698989 -0.05461,-0.283964 -0.229355,-0.436867 -0.163826,-0.163826 -0.415025,-0.163826 -0.524241,0 -0.677145,0.502398 -0.03277,0.120139 -0.141982,0.120139 h -1.015718 q -0.05461,0 -0.0983,-0.03277 -0.03277,-0.04369 -0.03277,-0.0983 v -4.335914 q 0,-0.05461 0.03277,-0.08737 0.04369,-0.04369 0.0983,-0.04369 h 3.560474 q 0.05461,0 0.08737,0.04369 0.04369,0.03276 0.04369,0.08737 v 0.830049 q 0,0.05461 -0.04369,0.09829 -0.03277,0.03276 -0.08737,0.03276 H 16.22209 q -0.05461,0 -0.05461,0.05461 v 2.129731 q 0,0.03276 0.02184,0.04369 0.02184,0 0.04369,-0.02184 0.185668,-0.196591 0.447789,-0.305808 0.273043,-0.120139 0.567929,-0.120139 0.655302,0 1.048483,0.425947 0.404103,0.415024 0.480555,1.179543 z"
         style="font-weight:600;font-stretch:condensed;font-size:10.9217px;-inkscape-font-specification:'Barlow Condensed,  Semi-Bold Condensed';fill:#e74f0f"
         id="path296720" />
      <path
         d="m 22.239941,-73.898572 q 0.262121,0 0.425946,-0.174747 0.174747,-0.185669 0.207512,-0.502399 0.02184,-0.13106 0.141982,-0.120138 l 0.993875,0.13106 q 0.06553,0.01092 0.08737,0.05461 0.03276,0.03276 0.02184,0.0983 -0.120139,0.753597 -0.622537,1.179543 -0.502398,0.425947 -1.255995,0.425947 -0.862814,0 -1.387056,-0.557007 -0.51332,-0.567928 -0.51332,-1.496273 v -0.830049 q 0,-0.05461 -0.05461,-0.05461 h -0.546085 q -0.05461,0 -0.0983,-0.03277 -0.03276,-0.04369 -0.03276,-0.09829 v -0.425946 q 0,-0.05461 0.03276,-0.08737 0.04369,-0.04369 0.0983,-0.04369 h 0.546085 q 0.05461,0 0.05461,-0.05461 v -0.436868 q 0,-0.05461 -0.05461,-0.05461 h -0.546085 q -0.05461,0 -0.0983,-0.03276 -0.03276,-0.04369 -0.03276,-0.09829 v -0.415025 q 0,-0.05461 0.03276,-0.08737 0.04369,-0.04369 0.0983,-0.04369 h 0.546085 q 0.05461,0 0.05461,-0.05461 v -0.873736 q 0,-0.939267 0.51332,-1.485352 0.524242,-0.557006 1.387056,-0.557006 0.77544,0 1.277839,0.447789 0.51332,0.436868 0.622537,1.201387 v 0.02184 q 0,0.0983 -0.120139,0.120139 l -1.004797,0.120138 h -0.02184 q -0.0983,0 -0.120139,-0.120138 -0.02184,-0.31673 -0.19659,-0.502399 -0.163826,-0.19659 -0.436868,-0.19659 -0.283964,0 -0.458712,0.240277 -0.174747,0.240278 -0.174747,0.622537 v 0.96111 q 0,0.05461 0.05461,0.05461 h 1.638255 q 0.06553,0 0.0983,0.04369 0.03277,0.03276 0.01092,0.109217 l -0.141982,0.415024 q -0.03277,0.109217 -0.141983,0.109217 h -1.463507 q -0.05461,0 -0.05461,0.05461 v 0.436868 q 0,0.05461 0.05461,0.05461 h 1.299682 q 0.06553,0 0.08737,0.04369 0.03277,0.03277 0.01092,0.109217 l -0.141982,0.425946 q -0.03277,0.109217 -0.141982,0.109217 h -1.114013 q -0.05461,0 -0.05461,0.05461 v 0.928344 q 0,0.38226 0.174747,0.622537 0.174748,0.240278 0.458712,0.240278 z"
         style="font-weight:600;font-stretch:condensed;font-size:10.9217px;-inkscape-font-specification:'Barlow Condensed,  Semi-Bold Condensed';fill:#e74f0f"
         id="path296722" />
    </g>
    <g
       aria-label="1,5L"
       id="text188141-3-8-2-0"
       style="font-size:6.39091px;line-height:1.25;font-family:'Barlow Condensed';-inkscape-font-specification:'Barlow Condensed, ';display:inline;fill:#ffffff;fill-opacity:1;stroke-width:0.159773">
      <path
         d="m -20.568521,-32.749398 q 0.03835,-0.01917 0.08308,-0.01917 h 0.345109 q 0.06391,0 0.06391,0.06391 v 4.345819 q 0,0.06391 -0.06391,0.06391 h -0.325936 q -0.06391,0 -0.06391,-0.06391 v -3.872892 q 0,-0.01278 -0.01278,-0.01917 -0.0064,-0.0064 -0.01917,0 l -0.600746,0.198119 -0.01917,0.0064 q -0.04474,0 -0.05752,-0.05752 l -0.03195,-0.236463 v -0.01278 q 0,-0.03195 0.04474,-0.06391 z"
         id="path296725"
         style="fill:#ffffff;fill-opacity:1" />
      <path
         d="m -19.392602,-27.790051 q -0.02556,0 -0.04474,-0.01917 -0.01917,-0.01917 -0.01278,-0.05113 l 0.198118,-1.367655 q 0.0064,-0.05752 0.06391,-0.05752 h 0.287591 q 0.0703,0 0.05752,0.0703 l -0.287591,1.367654 q -0.0064,0.05752 -0.0703,0.05752 z"
         id="path296727"
         style="fill:#ffffff;fill-opacity:1" />
      <path
         d="m -16.254677,-30.269725 q 0.06391,0.236464 0.06391,0.613528 0,0.287591 -0.03835,0.530445 -0.06391,0.428191 -0.319545,0.658264 -0.249246,0.223682 -0.664655,0.223682 -0.415409,0 -0.671045,-0.223682 -0.249246,-0.223682 -0.319546,-0.671045 l -0.01917,-0.191728 v -0.01278 q 0,-0.05113 0.05752,-0.05113 h 0.325936 q 0.06391,0 0.0703,0.06391 l 0.01917,0.153382 q 0.102254,0.536837 0.536836,0.536837 0.204509,0 0.338718,-0.127819 0.13421,-0.134209 0.185337,-0.383454 0.04474,-0.204509 0.04474,-0.511273 0,-0.319546 -0.05752,-0.549618 -0.115036,-0.447364 -0.511273,-0.447364 -0.440973,0 -0.549618,0.440973 -0.01917,0.05752 -0.0703,0.05752 h -0.332327 q -0.06391,0 -0.06391,-0.06391 v -2.479673 q 0,-0.06391 0.06391,-0.06391 h 1.808627 q 0.06391,0 0.06391,0.06391 v 0.268418 q 0,0.06391 -0.06391,0.06391 h -1.393218 q -0.02556,0 -0.02556,0.02556 l -0.0064,1.584945 q 0,0.01278 0.0064,0.01917 0.01278,0.0064 0.02556,-0.0064 0.102254,-0.153382 0.268418,-0.230073 0.172555,-0.08308 0.383455,-0.08308 0.338718,0 0.556009,0.204509 0.217291,0.204509 0.287591,0.587963 z"
         id="path296729"
         style="fill:#ffffff;fill-opacity:1" />
      <path
         d="m -15.43026,-28.294933 q -0.06391,0 -0.06391,-0.06391 v -4.345819 q 0,-0.06391 0.06391,-0.06391 h 0.325937 q 0.06391,0 0.06391,0.06391 v 3.987928 q 0,0.02556 0.02556,0.02556 h 1.463518 q 0.06391,0 0.06391,0.06391 v 0.268419 q 0,0.06391 -0.06391,0.06391 z"
         id="path296731"
         style="fill:#ffffff;fill-opacity:1" />
    </g>
    <g
       aria-label="22€"
       id="text188141-8-8-4"
       style="font-size:7.32291px;line-height:1.25;font-family:'Barlow Condensed';-inkscape-font-specification:'Barlow Condensed, ';display:inline;fill:#ffffff;fill-opacity:1;stroke-width:0.183071">
      <path
         d="m -20.494647,-44.841503 q -0.01251,0.01251 -0.0063,0.02502 0.0063,0.01251 0.02502,0.01251 h 1.369928 q 0.03128,0 0.05004,0.02502 0.02502,0.01877 0.02502,0.05004 v 0.475409 q 0,0.03128 -0.02502,0.0563 -0.01877,0.01877 -0.05004,0.01877 h -2.183127 q -0.03128,0 -0.0563,-0.01877 -0.01877,-0.02502 -0.01877,-0.0563 v -0.50043 q 0,-0.0563 0.03128,-0.09383 l 0.24396,-0.331535 q 0.24396,-0.32528 0.475409,-0.663071 0.237704,-0.33779 0.400344,-0.606771 0.362812,-0.600517 0.362812,-0.994606 0,-0.250215 -0.112597,-0.394089 -0.106341,-0.143874 -0.287747,-0.143874 -0.181406,0 -0.287748,0.143874 -0.106341,0.137619 -0.100086,0.369068 v 0.243959 q 0,0.03128 -0.02502,0.0563 -0.01877,0.01877 -0.05004,0.01877 h -0.588006 q -0.03128,0 -0.0563,-0.01877 -0.01877,-0.02502 -0.01877,-0.0563 v -0.268981 q 0.02502,-0.50043 0.337791,-0.806944 0.319024,-0.306514 0.819455,-0.306514 0.494175,0 0.794433,0.32528 0.306514,0.319025 0.306514,0.844476 0,0.312769 -0.106342,0.619283 -0.106341,0.306514 -0.33779,0.656815 -0.156385,0.250215 -0.375323,0.550473 -0.212683,0.300259 -0.281492,0.394089 -0.187662,0.250216 -0.275237,0.375323 z"
         style="font-size:6.25538px;fill:#ffffff;fill-opacity:1"
         id="path296734" />
      <path
         d="m -17.836115,-44.841503 q -0.01251,0.01251 -0.0063,0.02502 0.0063,0.01251 0.02502,0.01251 h 1.369928 q 0.03128,0 0.05004,0.02502 0.02502,0.01877 0.02502,0.05004 v 0.475409 q 0,0.03128 -0.02502,0.0563 -0.01877,0.01877 -0.05004,0.01877 h -2.183127 q -0.03128,0 -0.0563,-0.01877 -0.01877,-0.02502 -0.01877,-0.0563 v -0.50043 q 0,-0.0563 0.03128,-0.09383 l 0.24396,-0.331535 q 0.24396,-0.32528 0.475409,-0.663071 0.237704,-0.33779 0.400344,-0.606771 0.362812,-0.600517 0.362812,-0.994606 0,-0.250215 -0.112597,-0.394089 -0.106341,-0.143874 -0.287747,-0.143874 -0.181406,0 -0.287748,0.143874 -0.106341,0.137619 -0.100086,0.369068 v 0.243959 q 0,0.03128 -0.02502,0.0563 -0.01877,0.01877 -0.05004,0.01877 h -0.588006 q -0.03128,0 -0.0563,-0.01877 -0.01877,-0.02502 -0.01877,-0.0563 v -0.268981 q 0.02502,-0.50043 0.337791,-0.806944 0.319024,-0.306514 0.819455,-0.306514 0.494175,0 0.794433,0.32528 0.306514,0.319025 0.306514,0.844476 0,0.312769 -0.106342,0.619283 -0.106341,0.306514 -0.33779,0.656815 -0.156385,0.250215 -0.375323,0.550473 -0.212683,0.300259 -0.281492,0.394089 -0.187662,0.250216 -0.275237,0.375323 z"
         style="font-size:6.25538px;fill:#ffffff;fill-opacity:1"
         id="path296736" />
      <path
         d="m -14.470725,-44.753927 q 0.150129,0 0.24396,-0.100087 0.100086,-0.106341 0.118852,-0.287747 0.01251,-0.07506 0.08132,-0.06881 l 0.569239,0.07506 q 0.03753,0.0063 0.05004,0.03128 0.01877,0.01877 0.01251,0.0563 -0.06881,0.431621 -0.356556,0.675581 -0.287748,0.24396 -0.719369,0.24396 -0.494175,0 -0.794433,-0.319025 -0.294003,-0.32528 -0.294003,-0.856987 v -0.475409 q 0,-0.03128 -0.03128,-0.03128 h -0.312769 q -0.03128,0 -0.0563,-0.01877 -0.01877,-0.02502 -0.01877,-0.0563 v -0.24396 q 0,-0.03128 0.01877,-0.05004 0.02502,-0.02502 0.0563,-0.02502 h 0.312769 q 0.03128,0 0.03128,-0.03128 v -0.250215 q 0,-0.03128 -0.03128,-0.03128 h -0.312769 q -0.03128,0 -0.0563,-0.01877 -0.01877,-0.02502 -0.01877,-0.0563 v -0.237705 q 0,-0.03128 0.01877,-0.05004 0.02502,-0.02502 0.0563,-0.02502 h 0.312769 q 0.03128,0 0.03128,-0.03128 v -0.500431 q 0,-0.537962 0.294003,-0.850731 0.300258,-0.319025 0.794433,-0.319025 0.444132,0 0.731879,0.256471 0.294003,0.250215 0.356557,0.688092 v 0.01251 q 0,0.0563 -0.06881,0.06881 l -0.575495,0.06881 h -0.01251 q -0.0563,0 -0.06881,-0.06881 -0.01251,-0.181406 -0.112597,-0.287748 -0.09383,-0.112597 -0.250215,-0.112597 -0.16264,0 -0.262726,0.137619 -0.100086,0.137618 -0.100086,0.356556 v 0.550474 q 0,0.03128 0.03128,0.03128 h 0.938307 q 0.03753,0 0.0563,0.02502 0.01877,0.01877 0.0063,0.06255 l -0.08132,0.237705 q -0.01877,0.06255 -0.08132,0.06255 h -0.838221 q -0.03128,0 -0.03128,0.03128 v 0.250215 q 0,0.03128 0.03128,0.03128 h 0.74439 q 0.03753,0 0.05004,0.02502 0.01877,0.01877 0.0063,0.06255 l -0.08132,0.24396 q -0.01877,0.06255 -0.08132,0.06255 h -0.638048 q -0.03128,0 -0.03128,0.03128 v 0.531708 q 0,0.218938 0.100086,0.356556 0.100086,0.137619 0.262726,0.137619 z"
         style="font-size:6.25538px;fill:#ffffff;fill-opacity:1"
         id="path296738" />
    </g>
    <path
       id="rect246691-0-7"
       style="display:inline;fill:#e74f0f;stroke:#ff0000;stroke-width:0"
       transform="matrix(0.7207992,-0.69314394,0.68084064,0.73243159,0,0)"
       d="m 14.422491,-45.81889 h 9.008826 v 0.509354 h -9.008826 z" />
    <path
       id="rect246691-1-7-4"
       style="display:inline;fill:#e74f0f;stroke:#ff0000;stroke-width:0"
       transform="matrix(0.75288777,0.65814892,-0.67080182,0.74163665,0,0)"
       d="m -48.586735,-23.822844 h 9.008826 v 0.509354 h -9.008826 z" />
    <g
       aria-label="15€"
       id="text188141-9-4-4-0-4"
       style="font-size:14.9504px;line-height:1.25;font-family:'Barlow Condensed';-inkscape-font-specification:'Barlow Condensed, ';display:inline;stroke-width:0.374">
      <path
         d="m -22.594571,-42.630754 q 0.07645,-0.03276 0.163825,-0.03276 h 1.048483 q 0.05461,0 0.08737,0.04369 0.04369,0.03277 0.04369,0.08737 v 7.383069 q 0,0.05461 -0.04369,0.0983 -0.03276,0.03276 -0.08737,0.03276 h -1.004796 q -0.05461,0 -0.0983,-0.03276 -0.03276,-0.04369 -0.03276,-0.0983 v -6.159839 q 0,-0.02184 -0.02184,-0.04369 -0.01092,-0.02184 -0.03277,-0.01092 l -0.895579,0.174747 h -0.03277 q -0.120139,0 -0.120139,-0.120139 l -0.03277,-0.731753 q 0,-0.109217 0.08737,-0.152904 z"
         style="font-weight:600;font-stretch:condensed;font-size:10.9217px;-inkscape-font-specification:'Barlow Condensed,  Semi-Bold Condensed';fill:#e74f0f"
         id="path296743" />
      <path
         d="m -16.467517,-38.185622 q 0.06553,0.338572 0.06553,0.808205 0,0.44779 -0.04369,0.764519 -0.05461,0.808206 -0.567929,1.245074 -0.51332,0.436868 -1.365212,0.436868 -0.808206,0 -1.310604,-0.415025 -0.502398,-0.415024 -0.611615,-1.245073 l -0.03277,-0.305808 q 0,-0.13106 0.13106,-0.13106 h 1.004796 q 0.131061,0 0.141982,0.13106 0,0.06553 0.02184,0.196591 0.13106,0.677145 0.655302,0.677145 0.273042,0 0.436868,-0.174747 0.174747,-0.174747 0.229356,-0.491477 0.04369,-0.273042 0.04369,-0.698988 0,-0.404103 -0.06553,-0.698989 -0.05461,-0.283964 -0.229356,-0.436868 -0.163825,-0.163826 -0.415024,-0.163826 -0.524242,0 -0.677146,0.502399 -0.03277,0.120138 -0.141982,0.120138 h -1.015718 q -0.05461,0 -0.0983,-0.03277 -0.03276,-0.04369 -0.03276,-0.0983 v -4.335915 q 0,-0.05461 0.03276,-0.08737 0.04369,-0.04369 0.0983,-0.04369 h 3.560474 q 0.05461,0 0.08737,0.04369 0.04369,0.03277 0.04369,0.08737 v 0.830049 q 0,0.05461 -0.04369,0.0983 -0.03276,0.03277 -0.08737,0.03277 h -2.370008 q -0.05461,0 -0.05461,0.05461 v 2.129732 q 0,0.03276 0.02184,0.04369 0.02184,0 0.04369,-0.02184 0.185669,-0.196591 0.44779,-0.305808 0.273042,-0.120138 0.567928,-0.120138 0.655302,0 1.048483,0.425946 0.404103,0.415025 0.480555,1.179544 z"
         style="font-weight:600;font-stretch:condensed;font-size:10.9217px;-inkscape-font-specification:'Barlow Condensed,  Semi-Bold Condensed';fill:#e74f0f"
         id="path296745" />
      <path
         d="m -13.005344,-36.023126 q 0.262121,0 0.425947,-0.174747 0.174747,-0.185669 0.207512,-0.502398 0.02184,-0.131061 0.141982,-0.120139 l 0.993875,0.13106 q 0.06553,0.01092 0.08737,0.05461 0.03276,0.03276 0.02184,0.0983 -0.120139,0.753597 -0.622537,1.179544 -0.502398,0.425946 -1.255996,0.425946 -0.862814,0 -1.387056,-0.557007 -0.513319,-0.567928 -0.513319,-1.496273 v -0.830049 q 0,-0.05461 -0.05461,-0.05461 h -0.546085 q -0.05461,0 -0.0983,-0.03276 -0.03276,-0.04369 -0.03276,-0.0983 V -38.4259 q 0,-0.05461 0.03276,-0.08737 0.04369,-0.04369 0.0983,-0.04369 h 0.546085 q 0.05461,0 0.05461,-0.05461 v -0.436868 q 0,-0.05461 -0.05461,-0.05461 h -0.546085 q -0.05461,0 -0.0983,-0.03276 -0.03276,-0.04369 -0.03276,-0.0983 v -0.415024 q 0,-0.05461 0.03276,-0.08737 0.04369,-0.04369 0.0983,-0.04369 h 0.546085 q 0.05461,0 0.05461,-0.05461 v -0.873736 q 0,-0.939266 0.513319,-1.485351 0.524242,-0.557007 1.387056,-0.557007 0.775441,0 1.277839,0.44779 0.51332,0.436868 0.622537,1.201387 v 0.02184 q 0,0.0983 -0.120139,0.120139 l -1.004796,0.120139 h -0.02184 q -0.0983,0 -0.120139,-0.120139 -0.02184,-0.316729 -0.196591,-0.502398 -0.163825,-0.196591 -0.436868,-0.196591 -0.283964,0 -0.458711,0.240277 -0.174747,0.240278 -0.174747,0.622537 v 0.96111 q 0,0.05461 0.05461,0.05461 h 1.638255 q 0.06553,0 0.09829,0.04369 0.03277,0.03276 0.01092,0.109217 l -0.141982,0.415025 q -0.03276,0.109217 -0.141982,0.109217 h -1.463508 q -0.05461,0 -0.05461,0.05461 v 0.436868 q 0,0.05461 0.05461,0.05461 h 1.299682 q 0.06553,0 0.08737,0.04369 0.03277,0.03276 0.01092,0.109217 l -0.141982,0.425946 q -0.03276,0.109217 -0.141982,0.109217 h -1.114014 q -0.05461,0 -0.05461,0.05461 v 0.928345 q 0,0.382259 0.174747,0.622537 0.174747,0.240277 0.458711,0.240277 z"
         style="font-weight:600;font-stretch:condensed;font-size:10.9217px;-inkscape-font-specification:'Barlow Condensed,  Semi-Bold Condensed';fill:#e74f0f"
         id="path296747" />
    </g>
    <g
       aria-label="3L"
       id="text188141-3-8-2-6"
       style="font-size:6.39091px;line-height:1.25;font-family:'Barlow Condensed';-inkscape-font-specification:'Barlow Condensed, ';display:inline;fill:#ffffff;fill-opacity:1;stroke-width:0.159773">
      <path
         d="m 18.715577,-31.462141 q 0.102254,0.325937 0.102254,0.728564 0,0.338718 -0.0703,0.619918 -0.178945,0.786082 -0.945854,0.786082 -0.402628,0 -0.664655,-0.223682 -0.255636,-0.223682 -0.319545,-0.619918 -0.03835,-0.223682 -0.03835,-0.4921 0,-0.06391 0.06391,-0.06391 h 0.325937 q 0.06391,0 0.06391,0.06391 0,0.230073 0.03834,0.415409 0.108646,0.524055 0.530446,0.524055 0.198118,0 0.332327,-0.121428 0.134209,-0.121427 0.191727,-0.3515 0.05113,-0.268418 0.05113,-0.575181 0,-0.402628 -0.07669,-0.671046 -0.06391,-0.204509 -0.191728,-0.306764 -0.127818,-0.108645 -0.306763,-0.108645 -0.05752,0 -0.146991,0.03834 -0.05752,0.03195 -0.08947,-0.0064 l -0.166164,-0.172554 q -0.03195,-0.04474 -0.0064,-0.08947 l 0.849991,-1.3357 q 0.0064,-0.0064 0,-0.01917 -0.0064,-0.01278 -0.01917,-0.01278 h -1.348482 q -0.06391,0 -0.06391,-0.06391 v -0.268418 q 0,-0.06391 0.06391,-0.06391 h 1.866145 q 0.06391,0 0.06391,0.06391 v 0.287591 q 0,0.03195 -0.02556,0.08308 l -0.792473,1.239836 q -0.0064,0.01278 -0.0064,0.02556 0.0064,0.0064 0.01917,0.0064 0.255636,0.02556 0.440973,0.2109 0.191727,0.178945 0.274809,0.472927 z"
         id="path296750"
         style="fill:#ffffff;fill-opacity:1" />
      <path
         d="m 19.674207,-29.378704 q -0.06391,0 -0.06391,-0.06391 v -4.345819 q 0,-0.06391 0.06391,-0.06391 h 0.325937 q 0.06391,0 0.06391,0.06391 v 3.987928 q 0,0.02556 0.02556,0.02556 h 1.463519 q 0.06391,0 0.06391,0.06391 v 0.268418 q 0,0.06391 -0.06391,0.06391 z"
         id="path296752"
         style="fill:#ffffff;fill-opacity:1" />
    </g>
    <g
       aria-label="42€"
       id="text188141-8-8-6"
       style="font-size:7.32291px;line-height:1.25;font-family:'Barlow Condensed';-inkscape-font-specification:'Barlow Condensed, ';display:inline;fill:#ffffff;fill-opacity:1;stroke-width:0.183071">
      <path
         d="m 17.646756,-47.057497 q 0.03128,0 0.05004,0.02502 0.02502,0.01877 0.02502,0.05004 v 0.506686 q 0,0.03128 -0.02502,0.0563 -0.01877,0.01877 -0.05004,0.01877 h -0.187661 q -0.03128,0 -0.03128,0.03128 v 1.032138 q 0,0.03128 -0.02502,0.0563 -0.01877,0.01877 -0.05004,0.01877 H 16.77726 q -0.03128,0 -0.0563,-0.01877 -0.01877,-0.02502 -0.01877,-0.0563 v -1.032138 q 0,-0.03128 -0.03128,-0.03128 h -1.538824 q -0.03128,0 -0.0563,-0.01877 -0.01877,-0.02502 -0.01877,-0.0563 v -0.4066 q 0,-0.0563 0.01251,-0.09383 l 0.869497,-2.602239 q 0.01877,-0.06255 0.08132,-0.06255 h 0.625538 q 0.03753,0 0.0563,0.02502 0.01877,0.01877 0.0063,0.06255 l -0.800688,2.458364 q -0.0063,0.03753 0.02502,0.03753 h 0.738135 q 0.03128,0 0.03128,-0.03128 v -0.750646 q 0,-0.03128 0.01877,-0.05004 0.02502,-0.02502 0.0563,-0.02502 h 0.575495 q 0.03128,0 0.05004,0.02502 0.02502,0.01877 0.02502,0.05004 v 0.750646 q 0,0.03128 0.03128,0.03128 z"
         style="font-size:6.25538px;fill:#ffffff;fill-opacity:1"
         id="path296755" />
      <path
         d="m 18.885319,-45.925274 q -0.01251,0.01251 -0.0063,0.02502 0.0063,0.01251 0.02502,0.01251 h 1.369929 q 0.03128,0 0.05004,0.02502 0.02502,0.01877 0.02502,0.05004 v 0.475409 q 0,0.03128 -0.02502,0.0563 -0.01877,0.01877 -0.05004,0.01877 H 18.09084 q -0.03128,0 -0.0563,-0.01877 -0.01877,-0.02502 -0.01877,-0.0563 v -0.50043 q 0,-0.0563 0.03128,-0.09383 l 0.24396,-0.331535 q 0.24396,-0.32528 0.475409,-0.66307 0.237705,-0.337791 0.400344,-0.606772 0.362812,-0.600517 0.362812,-0.994606 0,-0.250215 -0.112596,-0.394089 -0.106342,-0.143873 -0.287748,-0.143873 -0.181406,0 -0.287747,0.143873 -0.106342,0.137619 -0.100086,0.369068 v 0.24396 q 0,0.03128 -0.02502,0.0563 -0.01877,0.01877 -0.05004,0.01877 h -0.588006 q -0.03128,0 -0.0563,-0.01877 -0.01877,-0.02502 -0.01877,-0.0563 v -0.268982 q 0.02502,-0.50043 0.33779,-0.806944 0.319025,-0.306513 0.819455,-0.306513 0.494175,0 0.794433,0.325279 0.306514,0.319025 0.306514,0.844477 0,0.312769 -0.106342,0.619282 -0.106341,0.306514 -0.33779,0.656815 -0.156385,0.250215 -0.375323,0.550474 -0.212683,0.300258 -0.281492,0.394089 -0.187661,0.250215 -0.275237,0.375322 z"
         style="font-size:6.25538px;fill:#ffffff;fill-opacity:1"
         id="path296757" />
      <path
         d="m 22.250709,-45.837698 q 0.150129,0 0.24396,-0.100086 0.100086,-0.106342 0.118852,-0.287748 0.01251,-0.07506 0.08132,-0.06881 l 0.569239,0.07507 q 0.03753,0.0063 0.05004,0.03128 0.01877,0.01877 0.01251,0.0563 -0.06881,0.431621 -0.356556,0.675581 -0.287748,0.24396 -0.719369,0.24396 -0.494175,0 -0.794433,-0.319025 -0.294003,-0.325279 -0.294003,-0.856987 v -0.475409 q 0,-0.03128 -0.03128,-0.03128 H 20.81822 q -0.03128,0 -0.0563,-0.01877 -0.01877,-0.02502 -0.01877,-0.0563 v -0.24396 q 0,-0.03128 0.01877,-0.05004 0.02502,-0.02502 0.0563,-0.02502 h 0.312769 q 0.03128,0 0.03128,-0.03128 v -0.250215 q 0,-0.03128 -0.03128,-0.03128 H 20.81822 q -0.03128,0 -0.0563,-0.01877 -0.01877,-0.02502 -0.01877,-0.0563 v -0.237704 q 0,-0.03128 0.01877,-0.05004 0.02502,-0.02502 0.0563,-0.02502 h 0.312769 q 0.03128,0 0.03128,-0.03128 v -0.50043 q 0,-0.537963 0.294003,-0.850732 0.300258,-0.319024 0.794433,-0.319024 0.444132,0 0.731879,0.25647 0.294003,0.250215 0.356557,0.688092 v 0.01251 q 0,0.0563 -0.06881,0.06881 l -0.575495,0.06881 h -0.01251 q -0.0563,0 -0.06881,-0.06881 -0.01251,-0.181406 -0.112597,-0.287748 -0.09383,-0.112596 -0.250215,-0.112596 -0.16264,0 -0.262726,0.137618 -0.100086,0.137618 -0.100086,0.356557 v 0.550473 q 0,0.03128 0.03128,0.03128 h 0.938307 q 0.03753,0 0.0563,0.02502 0.01877,0.01877 0.0063,0.06255 l -0.08132,0.237705 q -0.01877,0.06255 -0.08132,0.06255 h -0.838221 q -0.03128,0 -0.03128,0.03128 v 0.250215 q 0,0.03128 0.03128,0.03128 h 0.74439 q 0.03753,0 0.05004,0.02502 0.01877,0.01877 0.0063,0.06255 l -0.08132,0.24396 q -0.01877,0.06255 -0.08132,0.06255 h -0.638049 q -0.03128,0 -0.03128,0.03128 v 0.531708 q 0,0.218938 0.100086,0.356556 0.100086,0.137619 0.262726,0.137619 z"
         style="font-size:6.25538px;fill:#ffffff;fill-opacity:1"
         id="path296759" />
    </g>
    <path
       id="rect246691-0-8"
       style="display:inline;fill:#e74f0f;stroke:#ff0000;stroke-width:0"
       transform="matrix(0.7207992,-0.69314394,0.68084064,0.73243159,0,0)"
       d="m 41.954872,-21.243036 h 9.008826 v 0.509353 h -9.008826 z" />
    <path
       id="rect246691-1-7-7"
       style="display:inline;fill:#e74f0f;stroke:#ff0000;stroke-width:0"
       transform="matrix(0.75288777,0.65814892,-0.67080182,0.74163665,0,0)"
       d="m -22.182688,-48.715851 h 9.008826 v 0.509354 h -9.008826 z" />
    <g
       aria-label="30€"
       id="text188141-9-4-4-0-5"
       style="font-size:14.9504px;line-height:1.25;font-family:'Barlow Condensed';-inkscape-font-specification:'Barlow Condensed, ';display:inline;stroke-width:0.374">
      <path
         d="m 15.894286,-39.455062 q 0.0983,0.436868 0.0983,0.972031 0,0.535163 -0.07645,0.917423 -0.13106,0.742675 -0.600693,1.146778 -0.458712,0.404103 -1.255996,0.404103 -0.830049,0 -1.35429,-0.436868 -0.524242,-0.447789 -0.589772,-1.212308 -0.02184,-0.240278 -0.04369,-0.698989 0,-0.131061 0.13106,-0.131061 h 1.004797 q 0.13106,0 0.13106,0.131061 0.02184,0.371338 0.04369,0.557007 0.05461,0.338572 0.229356,0.524241 0.174747,0.174747 0.447789,0.174747 0.262121,0 0.436868,-0.163825 0.174748,-0.174747 0.229356,-0.491477 0.05461,-0.327651 0.05461,-0.851892 0,-0.557007 -0.07645,-0.928345 -0.06553,-0.283964 -0.229356,-0.436868 -0.163826,-0.152903 -0.415025,-0.152903 -0.163825,0 -0.294886,0.0983 -0.06553,0.04369 -0.0983,0.04369 -0.02184,0 -0.08737,-0.04369 l -0.51332,-0.524242 q -0.04369,-0.04369 -0.04369,-0.0983 0,-0.04369 0.03276,-0.08737 l 1.365212,-1.856689 q 0.02184,-0.02184 0,-0.04369 -0.01092,-0.02184 -0.04369,-0.02184 h -2.075123 q -0.05461,0 -0.0983,-0.03277 -0.03276,-0.04369 -0.03276,-0.0983 v -0.819128 q 0,-0.05461 0.03276,-0.08737 0.04369,-0.04369 0.0983,-0.04369 h 3.53863 q 0.05461,0 0.08737,0.04369 0.04369,0.03276 0.04369,0.08737 v 0.862815 q 0,0.07645 -0.05461,0.163825 l -1.245073,1.703785 q -0.04369,0.06553 0.02184,0.07645 0.44779,0.05461 0.764519,0.425946 0.327651,0.371338 0.436868,0.928345 z"
         style="font-weight:600;font-stretch:condensed;font-size:10.9217px;-inkscape-font-specification:'Barlow Condensed,  Semi-Bold Condensed';fill:#e74f0f"
         id="path296764" />
      <path
         d="m 18.864974,-35.981962 q -0.917423,0 -1.474429,-0.57885 -0.557007,-0.589772 -0.557007,-1.539959 v -3.647848 q 0,-0.950188 0.557007,-1.529038 0.557006,-0.589772 1.474429,-0.589772 0.928344,0 1.485351,0.589772 0.567929,0.57885 0.567929,1.529038 v 3.647848 q 0,0.950187 -0.567929,1.539959 -0.557007,0.57885 -1.485351,0.57885 z m 0,-1.103091 q 0.360416,0 0.567928,-0.251199 0.218434,-0.262121 0.218434,-0.688067 v -3.800752 q 0,-0.425946 -0.218434,-0.677145 -0.207512,-0.262121 -0.567928,-0.262121 -0.349494,0 -0.557007,0.262121 -0.207512,0.251199 -0.207512,0.677145 v 3.800752 q 0,0.425946 0.207512,0.688067 0.207513,0.251199 0.557007,0.251199 z"
         style="font-weight:600;font-stretch:condensed;font-size:10.9217px;-inkscape-font-specification:'Barlow Condensed,  Semi-Bold Condensed';fill:#e74f0f"
         id="path296766" />
      <path
         d="m 24.424107,-37.106897 q 0.262121,0 0.425947,-0.174747 0.174747,-0.185669 0.207512,-0.502398 0.02184,-0.13106 0.141982,-0.120139 l 0.993875,0.131061 q 0.06553,0.01092 0.08737,0.05461 0.03277,0.03276 0.02184,0.0983 -0.120139,0.753598 -0.622537,1.179544 -0.502399,0.425946 -1.255996,0.425946 -0.862814,0 -1.387056,-0.557006 -0.513319,-0.567929 -0.513319,-1.496273 v -0.830049 q 0,-0.05461 -0.05461,-0.05461 H 21.92303 q -0.05461,0 -0.09829,-0.03277 -0.03277,-0.04369 -0.03277,-0.09829 v -0.425947 q 0,-0.05461 0.03277,-0.08737 0.04369,-0.04369 0.09829,-0.04369 h 0.546085 q 0.05461,0 0.05461,-0.05461 v -0.436867 q 0,-0.05461 -0.05461,-0.05461 H 21.92303 q -0.05461,0 -0.09829,-0.03276 -0.03277,-0.04369 -0.03277,-0.0983 v -0.415025 q 0,-0.05461 0.03277,-0.08737 0.04369,-0.04369 0.09829,-0.04369 h 0.546085 q 0.05461,0 0.05461,-0.05461 v -0.873736 q 0,-0.939266 0.513319,-1.485351 0.524242,-0.557007 1.387056,-0.557007 0.775441,0 1.277839,0.44779 0.51332,0.436868 0.622537,1.201387 v 0.02184 q 0,0.0983 -0.120139,0.120139 l -1.004796,0.120139 h -0.02184 q -0.0983,0 -0.120138,-0.120139 -0.02184,-0.316729 -0.196591,-0.502398 -0.163825,-0.196591 -0.436868,-0.196591 -0.283964,0 -0.458711,0.240278 -0.174747,0.240277 -0.174747,0.622537 v 0.961109 q 0,0.05461 0.05461,0.05461 h 1.638255 q 0.06553,0 0.0983,0.04369 0.03276,0.03277 0.01092,0.109217 l -0.141982,0.415025 q -0.03277,0.109217 -0.141982,0.109217 h -1.463508 q -0.05461,0 -0.05461,0.05461 v 0.436867 q 0,0.05461 0.05461,0.05461 h 1.299682 q 0.06553,0 0.08737,0.04369 0.03276,0.03276 0.01092,0.109217 l -0.141982,0.425946 q -0.03277,0.109217 -0.141982,0.109217 h -1.114014 q -0.05461,0 -0.05461,0.05461 v 0.928344 q 0,0.382259 0.174747,0.622537 0.174747,0.240277 0.458711,0.240277 z"
         style="font-weight:600;font-stretch:condensed;font-size:10.9217px;-inkscape-font-specification:'Barlow Condensed,  Semi-Bold Condensed';fill:#e74f0f"
         id="path296768" />
    </g>
  </g>
</svg>
