<svg xmlns="http://www.w3.org/2000/svg" xmlns:xlink="http://www.w3.org/1999/xlink" width="249.513" height="250.866" viewBox="0 0 66.017 66.375" xmlns:v="https://vecta.io/nano"><style><![CDATA[.B{fill:#e74f0f}.C{opacity:.638}.D{stroke:none}.E{stroke-miterlimit:4}.F{stroke-dasharray:none}.G{stroke-opacity:1}.H{stroke-width:3.774}]]></style><defs><clipPath id="A"><path d="M170.533 79.8h66.693v66.693h-66.693zm-19.262 26.169v13.908h103.391v-13.908z" fill="#000" class="C D E F G"/></clipPath><clipPath id="B"><path d="M170.533 79.8h66.693v66.693h-66.693zm-19.262 26.169v13.908h103.391v-13.908z" fill="#000" class="C D E F G"/></clipPath><clipPath id="C"><path d="M170.533 79.8h66.693v66.693h-66.693zm-19.262 26.169v13.908h103.391v-13.908z" fill="#000" class="C D E F G"/></clipPath><clipPath id="D"><path d="M170.533 79.8h66.693v66.693h-66.693zm-19.262 26.169v13.908h103.391v-13.908z" fill="#000" class="C D E F G"/></clipPath><path id="E" d="M-16.562-69.909q.064.236.064.614 0 .288-.038.53-.064.428-.32.658-.249.224-.665.224-.415 0-.671-.224-.249-.224-.32-.671l-.019-.192v-.013q0-.051.058-.051h.326q.064 0 .07.064l.019.153q.102.537.537.537.205 0 .339-.128.134-.134.185-.383.045-.205.045-.511 0-.32-.058-.55-.115-.447-.511-.447-.441 0-.55.441-.019.058-.07.058h-.332q-.064 0-.064-.064v-2.48q0-.064.064-.064h1.809q.064 0 .064.064v.268q0 .064-.064.064h-1.393q-.026 0-.026.026l-.006 1.585q0 .013.006.019.013.006.026-.006.102-.153.268-.23.173-.083.383-.083.339 0 .556.205.217.205.288.588z"/><path id="F" d="M-14.945-67.883q-.454 0-.729-.268-.268-.268-.268-.709v-1.38q0-.435.275-.703.275-.275.722-.275.3 0 .53.121.23.121.352.326.128.198.128.441v.064q0 .064-.064.064l-.326.013q-.064 0-.064-.064v-.045q0-.211-.16-.364-.153-.16-.396-.16-.243 0-.396.173-.147.166-.147.441v1.317q0 .275.147.447.153.166.396.166.243 0 .396-.153.16-.16.16-.371v-.045q0-.064.064-.064l.326.006q.064 0 .064.064v.07q0 .383-.281.639-.275.249-.729.249z"/><path id="G" d="M230.338 113.146c0 14.613-11.846 26.459-26.459 26.459a26.46 26.46 0 0 1-26.459-26.459 26.46 26.46 0 0 1 26.459-26.459 26.46 26.46 0 0 1 26.459 26.459z"/><path id="H" d="M21.1-82.629q.15 0 .244-.1.1-.106.119-.288.013-.075.081-.069l.569.075q.038.006.05.031.019.019.013.056-.069.432-.357.676-.288.244-.719.244-.494 0-.794-.319-.294-.325-.294-.857v-.475q0-.031-.031-.031h-.313q-.031 0-.056-.019-.019-.025-.019-.056v-.244q0-.031.019-.05.025-.025.056-.025h.313q.031 0 .031-.031v-.25q0-.031-.031-.031h-.313q-.031 0-.056-.019-.019-.025-.019-.056v-.238q0-.031.019-.05.025-.025.056-.025h.313q.031 0 .031-.031v-.5q0-.538.294-.851.3-.319.794-.319.444 0 .732.256.294.25.357.688v.013q0 .056-.069.069l-.575.069h-.013q-.056 0-.069-.069-.013-.181-.113-.288-.094-.113-.25-.113-.163 0-.263.138-.1.138-.1.357v.55q0 .031.031.031h.938q.038 0 .056.025.019.019.006.063l-.081.238q-.019.063-.081.063h-.838q-.031 0-.031.031v.25q0 .031.031.031h.744q.038 0 .05.025.019.019.006.063l-.081.244q-.019.063-.081.063h-.638q-.031 0-.031.031v.532q0 .219.1.357.1.138.263.138z"/><path id="I" d="M18.778-76.061q.066.339.066.808 0 .448-.044.765-.055.808-.568 1.245-.513.437-1.365.437-.808 0-1.311-.415-.502-.415-.612-1.245l-.033-.306q0-.131.131-.131h1.005q.131 0 .142.131 0 .066.022.197.131.677.655.677.273 0 .437-.175.175-.175.229-.491.044-.273.044-.699 0-.404-.066-.699-.055-.284-.229-.437-.164-.164-.415-.164-.524 0-.677.502-.033.12-.142.12h-1.016q-.055 0-.098-.033-.033-.044-.033-.098v-4.336q0-.055.033-.087.044-.044.098-.044h3.56q.055 0 .087.044.044.033.044.087v.83q0 .055-.044.098-.033.033-.087.033h-2.37q-.055 0-.055.055v2.13q0 .033.022.044.022 0 .044-.022.186-.197.448-.306.273-.12.568-.12.655 0 1.048.426.404.415.481 1.18z"/><path id="J" d="M22.24-73.899q.262 0 .426-.175.175-.186.208-.502.022-.131.142-.12l.994.131q.066.011.087.055.033.033.022.098-.12.754-.623 1.18-.502.426-1.256.426-.863 0-1.387-.557-.513-.568-.513-1.496v-.83q0-.055-.055-.055h-.546q-.055 0-.098-.033-.033-.044-.033-.098v-.426q0-.055.033-.087.044-.044.098-.044h.546q.055 0 .055-.055v-.437q0-.055-.055-.055h-.546q-.055 0-.098-.033-.033-.044-.033-.098v-.415q0-.055.033-.087.044-.044.098-.044h.546q.055 0 .055-.055v-.874q0-.939.513-1.485.524-.557 1.387-.557.775 0 1.278.448.513.437.623 1.201v.022q0 .098-.12.12l-1.005.12h-.022q-.098 0-.12-.12-.022-.317-.197-.502-.164-.197-.437-.197-.284 0-.459.24-.175.24-.175.623v.961q0 .055.055.055h1.638q.066 0 .098.044.033.033.011.109l-.142.415q-.033.109-.142.109h-1.464q-.055 0-.055.055v.437q0 .055.055.055h1.3q.066 0 .087.044.033.033.011.109l-.142.426q-.033.109-.142.109h-1.114q-.055 0-.055.055v.928q0 .382.175.623.175.24.459.24z"/><path id="K" d="M-20.495-44.842q-.013.013-.006.025.006.013.025.013h1.37q.031 0 .05.025.025.019.025.05v.475q0 .031-.025.056-.019.019-.05.019h-2.183q-.031 0-.056-.019-.019-.025-.019-.056v-.5q0-.056.031-.094l.244-.332q.244-.325.475-.663.238-.338.4-.607.363-.601.363-.995 0-.25-.113-.394-.106-.144-.288-.144-.181 0-.288.144-.106.138-.1.369v.244q0 .031-.025.056-.019.019-.05.019h-.588q-.031 0-.056-.019-.019-.025-.019-.056v-.269q.025-.5.338-.807.319-.307.819-.307.494 0 .794.325.307.319.307.844 0 .313-.106.619-.106.307-.338.657-.156.25-.375.55-.213.3-.281.394-.188.25-.275.375z"/></defs><g transform="translate(31.987 90.749)"><path d="M-17.09-78.263q.058 0 .093.046.046.035.046.093v.937q0 .058-.046.104-.035.035-.093.035h-.347q-.058 0-.058.058v1.908q0 .058-.046.104-.035.035-.093.035h-1.064q-.058 0-.104-.035-.035-.046-.035-.104v-1.908q0-.058-.058-.058h-2.845q-.058 0-.104-.035-.035-.046-.035-.104v-.752q0-.104.023-.173l1.607-4.81q.035-.116.15-.116h1.156q.069 0 .104.046.035.035.012.116l-1.48 4.544q-.012.069.046.069h1.364q.058 0 .058-.058v-1.388q0-.058.035-.093.046-.046.104-.046h1.064q.058 0 .093.046.046.035.046.093v1.388q0 .058.058.058zm3.12 2.41q.237 0 .385-.158.158-.168.188-.454.02-.119.128-.109l.899.119q.059.01.079.049.03.03.02.089-.109.682-.563 1.067-.454.385-1.136.385-.78 0-1.254-.504-.464-.514-.464-1.353v-.751q0-.049-.049-.049h-.494q-.049 0-.089-.03-.03-.04-.03-.089v-.385q0-.049.03-.079.04-.04.089-.04h.494q.049 0 .049-.049v-.395q0-.049-.049-.049h-.494q-.049 0-.089-.03-.03-.04-.03-.089v-.375q0-.049.03-.079.04-.04.089-.04h.494q.049 0 .049-.049v-.79q0-.849.464-1.343.474-.504 1.254-.504.701 0 1.156.405.464.395.563 1.087v.02q0 .089-.109.109l-.909.109h-.02q-.089 0-.109-.109-.02-.286-.178-.454-.148-.178-.395-.178-.257 0-.415.217-.158.217-.158.563v.869q0 .049.049.049h1.482q.059 0 .089.04.03.03.01.099l-.128.375q-.03.099-.128.099h-1.324q-.049 0-.049.049v.395q0 .049.049.049h1.175q.059 0 .079.04.03.03.01.099l-.128.385q-.03.099-.128.099h-1.008q-.049 0-.049.049v.84q0 .346.158.563.158.217.415.217zm-6.67 7.491q-.006.013 0 .026.006.006.019.006h1.502q.064 0 .064.064v.268q0 .064-.064.064h-2.007q-.064 0-.064-.064v-.288q0-.051.026-.083.198-.313.224-.358.562-.888.888-1.444.409-.703.409-1.163 0-.332-.153-.53-.153-.198-.403-.198-.243 0-.396.198-.147.192-.141.511v.243q0 .064-.064.064h-.332q-.064 0-.064-.064v-.256q.013-.492.288-.792.281-.3.729-.3.447 0 .722.313.275.307.275.812 0 .601-.454 1.355-.23.39-.645 1.048z"/><use xlink:href="#E"/><use xlink:href="#F"/><path d="M-13.277-67.934q-.064 0-.064-.064v-4.346q0-.064.064-.064h.326q.064 0 .064.064v4.346q0 .064-.064.064z"/><g stroke="#000" fill="none" class="H"><use xlink:href="#G" transform="matrix(.51187 0 0 .51187 -121.8365 -134.155)" clip-path="url(#A)"/><use xlink:href="#G" transform="matrix(.51187 0 0 .51187 -84.839198 -134.00913)" clip-path="url(#B)"/></g><use xlink:href="#E" x="33.814" y="1.764"/><path d="M18.964-66.106q-.486 0-.786-.313-.294-.32-.294-.831v-2.314q0-.511.294-.824.3-.32.786-.32.492 0 .792.32.3.313.3.824v2.314q0 .511-.3.831-.3.313-.792.313zm0-.396q.294 0 .467-.198.173-.198.173-.524v-2.365q0-.326-.173-.524-.173-.198-.467-.198-.281 0-.454.198-.173.198-.173.524v2.365q0 .326.173.524.173.198.454.198z"/><use xlink:href="#F" x="36.651" y="1.764"/><path d="M23.374-66.17q-.064 0-.064-.064v-4.346q0-.064.064-.064h.326q.064 0 .064.064v4.346q0 .064-.064.064z"/><g stroke="#000" fill="none" class="H"><use xlink:href="#G" transform="matrix(.51187 0 0 .51187 -121.73911 -96.798853)" clip-path="url(#C)"/><use xlink:href="#G" transform="matrix(.51187 0 0 .51187 -85.161551 -96.969151)" clip-path="url(#D)"/></g><path d="M18.648-84.375q-.038.025 0 .044.206.119.313.363.131.294.131.663 0 .332-.1.582-.125.338-.394.532-.263.188-.632.188-.363 0-.632-.188-.263-.188-.388-.525-.094-.263-.094-.588 0-.369.113-.632.094-.25.332-.388.025-.019 0-.038-.206-.131-.319-.363-.125-.269-.125-.601 0-.363.125-.607.125-.275.382-.425.263-.15.607-.15.338 0 .594.15.263.144.394.419.138.263.138.613 0 .325-.125.588-.113.231-.319.363zm-1.038-1.176q-.044.113-.044.288 0 .188.063.357.044.131.131.206.088.075.206.075.131 0 .219-.075.094-.081.138-.225.05-.15.05-.338 0-.213-.063-.344-.044-.131-.131-.2-.088-.075-.213-.075-.113 0-.2.069-.081.063-.125.175zm.732 2.54q.031-.169.031-.332 0-.238-.056-.407-.038-.15-.131-.231-.088-.088-.219-.088-.131 0-.225.088-.088.088-.125.25-.05.163-.05.375 0 .194.038.357.031.175.125.275.1.094.238.094.144 0 .244-.1.1-.1.131-.281z"/><use xlink:href="#H"/><g class="B"><path d="M16.1-81.432l6.494-6.244.347.373-6.494 6.244z"/><path d="M16.3-87.521l6.783 5.929-.342.378-6.783-5.929z"/><use xlink:href="#I"/><use xlink:href="#J"/></g><path d="M-20.569-32.749q.038-.019.083-.019h.345q.064 0 .064.064v4.346q0 .064-.064.064h-.326q-.064 0-.064-.064v-3.873q0-.013-.013-.019-.006-.006-.019 0l-.601.198-.019.006q-.045 0-.058-.058l-.032-.236v-.013q0-.032.045-.064zm1.176 4.959q-.026 0-.045-.019-.019-.019-.013-.051l.198-1.368q.006-.058.064-.058h.288q.07 0 .058.07l-.288 1.368q-.006.058-.07.058z"/><use xlink:href="#E" x="0.307" y="39.639"/><path d="M-15.43-28.295q-.064 0-.064-.064v-4.346q0-.064.064-.064h.326q.064 0 .064.064v3.988q0 .026.026.026h1.464q.064 0 .064.064v.268q0 .064-.064.064z"/><use xlink:href="#K"/><use xlink:href="#K" x="2.659"/><use xlink:href="#H" x="-35.571" y="37.875"/><g class="B"><path d="M-20.8-43.556l6.494-6.244.347.373-6.494 6.244z"/><path d="M-20.6-49.645l6.783 5.929-.342.378-6.783-5.929z"/><path d="M-22.595-42.631q.076-.033.164-.033h1.048q.055 0 .087.044.044.033.044.087v7.383q0 .055-.044.098-.033.033-.087.033h-1.005q-.055 0-.098-.033-.033-.044-.033-.098v-6.16q0-.022-.022-.044-.011-.022-.033-.011l-.896.175h-.033q-.12 0-.12-.12l-.033-.732q0-.109.087-.153z"/><use xlink:href="#I" x="-35.246" y="37.875"/><use xlink:href="#J" x="-35.245" y="37.876"/></g><path d="M18.716-31.462q.102.326.102.729 0 .339-.07.62-.179.786-.946.786-.403 0-.665-.224-.256-.224-.32-.62-.038-.224-.038-.492 0-.064.064-.064h.326q.064 0 .064.064 0 .23.038.415.109.524.53.524.198 0 .332-.121.134-.121.192-.352.051-.268.051-.575 0-.403-.077-.671-.064-.205-.192-.307-.128-.109-.307-.109-.058 0-.147.038-.058.032-.089-.006L17.398-32q-.032-.045-.006-.089l.85-1.336q.006-.006 0-.019-.006-.013-.019-.013h-1.348q-.064 0-.064-.064v-.268q0-.064.064-.064h1.866q.064 0 .064.064v.288q0 .032-.026.083l-.792 1.24q-.006.013-.006.026.006.006.019.006.256.026.441.211.192.179.275.473zm.958 2.083q-.064 0-.064-.064v-4.346q0-.064.064-.064H20q.064 0 .064.064v3.988q0 .026.026.026h1.464q.064 0 .064.064v.268q0 .064-.064.064zm-2.027-17.678q.031 0 .05.025.025.019.025.05v.507q0 .031-.025.056-.019.019-.05.019h-.188q-.031 0-.031.031v1.032q0 .031-.025.056-.019.019-.05.019h-.575q-.031 0-.056-.019-.019-.025-.019-.056v-1.032q0-.031-.031-.031h-1.539q-.031 0-.056-.019-.019-.025-.019-.056v-.407q0-.056.013-.094l.869-2.602q.019-.063.081-.063h.626q.038 0 .056.025.019.019.006.063l-.801 2.458q-.006.038.025.038h.738q.031 0 .031-.031v-.751q0-.031.019-.05.025-.025.056-.025h.575q.031 0 .05.025.025.019.025.05v.751q0 .031.031.031z"/><use xlink:href="#K" x="39.38" y="-1.083"/><use xlink:href="#H" x="1.151" y="36.791"/><g class="B"><path d="M15.778-44.64l6.494-6.244.347.373-6.494 6.244z"/><path d="M15.978-50.729L22.76-44.8l-.342.378-6.783-5.929z"/><path d="M15.894-39.455q.098.437.098.972 0 .535-.076.917-.131.743-.601 1.147-.459.404-1.256.404-.83 0-1.354-.437-.524-.448-.59-1.212-.022-.24-.044-.699 0-.131.131-.131h1.005q.131 0 .131.131.022.371.044.557.055.339.229.524.175.175.448.175.262 0 .437-.164.175-.175.229-.491.055-.328.055-.852 0-.557-.076-.928-.066-.284-.229-.437-.164-.153-.415-.153-.164 0-.295.098-.066.044-.098.044-.022 0-.087-.044l-.513-.524q-.044-.044-.044-.098 0-.044.033-.087l1.365-1.857q.022-.022 0-.044-.011-.022-.044-.022h-2.075q-.055 0-.098-.033-.033-.044-.033-.098v-.819q0-.055.033-.087.044-.044.098-.044h3.539q.055 0 .087.044.044.033.044.087v.863q0 .076-.055.164l-1.245 1.704q-.044.066.022.076.448.055.765.426.328.371.437.928zm2.971 3.473q-.917 0-1.474-.579-.557-.59-.557-1.54v-3.648q0-.95.557-1.529.557-.59 1.474-.59.928 0 1.485.59.568.579.568 1.529v3.648q0 .95-.568 1.54-.557.579-1.485.579zm0-1.103q.36 0 .568-.251.218-.262.218-.688v-3.801q0-.426-.218-.677-.208-.262-.568-.262-.349 0-.557.262-.208.251-.208.677v3.801q0 .426.208.688.208.251.557.251z"/><use xlink:href="#J" x="2.184" y="36.792"/></g></g></svg>