<svg xmlns="http://www.w3.org/2000/svg" xmlns:xlink="http://www.w3.org/1999/xlink" width="249.513" height="250.866" viewBox="0 0 66.017 66.375" xmlns:v="https://vecta.io/nano"><style><![CDATA[.B{opacity:.638}.C{stroke:none}.D{stroke-miterlimit:4}.E{stroke-dasharray:none}.F{stroke-opacity:1}.G{stroke:#000}.H{stroke-width:3.774}]]></style><defs><clipPath id="A"><path d="M170.533 79.8h66.693v66.693h-66.693zm-19.262 26.169v13.908h103.391v-13.908z" fill="#000" class="B C D E F"/></clipPath><clipPath id="B"><path d="M170.533 79.8h66.693v66.693h-66.693zm-19.262 26.169v13.908h103.391v-13.908z" fill="#000" class="B C D E F"/></clipPath><clipPath id="C"><path d="M170.533 79.8h66.693v66.693h-66.693zm-19.262 26.169v13.908h103.391v-13.908z" fill="#000" class="B C D E F"/></clipPath><clipPath id="D"><path d="M170.533 79.8h66.693v66.693h-66.693zm-19.262 26.169v13.908h103.391v-13.908z" fill="#000" class="B C D E F"/></clipPath><path id="E" d="M230.338 113.146c0 14.613-11.846 26.459-26.459 26.459a26.46 26.46 0 0 1-26.459-26.459 26.46 26.46 0 0 1 26.459-26.459 26.46 26.46 0 0 1 26.459 26.459z"/><path id="F" d="M40.06 27.214q.237 0 .385-.158.158-.168.188-.454.02-.119.128-.109l.899.119q.059.01.079.049.03.03.02.089-.109.682-.563 1.067-.454.385-1.136.385-.78 0-1.254-.504-.464-.514-.464-1.353v-.751q0-.049-.049-.049h-.494q-.049 0-.089-.03-.03-.04-.03-.089v-.385q0-.049.03-.079.04-.04.089-.04h.494q.049 0 .049-.049v-.395q0-.049-.049-.049h-.494q-.049 0-.089-.03-.03-.04-.03-.089v-.375q0-.049.03-.079.04-.04.089-.04h.494q.049 0 .049-.049v-.79q0-.849.464-1.343.474-.504 1.254-.504.701 0 1.156.405.464.395.563 1.087v.02q0 .089-.109.109l-.909.109h-.02q-.089 0-.109-.109-.02-.286-.178-.454-.148-.178-.395-.178-.257 0-.415.217-.158.217-.158.563v.869q0 .049.049.049h1.482q.059 0 .089.04.03.03.01.099l-.128.375q-.03.099-.128.099h-1.324q-.049 0-.049.049v.395q0 .049.049.049h1.175q.059 0 .079.04.03.03.01.099l-.128.385q-.03.099-.128.099h-1.008q-.049 0-.049.049v.84q0 .346.158.563.158.217.415.217z"/><path id="G" d="M37.468 33.158q.064.236.064.614 0 .288-.038.53-.064.428-.32.658-.249.224-.665.224-.415 0-.671-.224-.249-.224-.32-.671l-.019-.192v-.013q0-.051.058-.051h.326q.064 0 .07.064l.019.153q.102.537.537.537.205 0 .339-.128.134-.134.185-.383.045-.205.045-.511 0-.32-.058-.55-.115-.447-.511-.447-.441 0-.55.441-.019.058-.07.058h-.332q-.064 0-.064-.064v-2.48q0-.064.064-.064h1.809q.064 0 .064.064v.268q0 .064-.064.064h-1.393q-.026 0-.026.026l-.006 1.585q0 .013.006.019.013.006.026-.006.102-.153.268-.23.173-.083.383-.083.339 0 .556.205.217.205.288.588z"/><path id="H" d="M39.085 35.184q-.454 0-.729-.268-.268-.268-.268-.709v-1.38q0-.435.275-.703.275-.275.722-.275.3 0 .53.121.23.121.352.326.128.198.128.441v.064q0 .064-.064.064l-.326.013q-.064 0-.064-.064v-.045q0-.211-.16-.364-.153-.16-.396-.16-.243 0-.396.173-.147.166-.147.441v1.317q0 .275.147.447.153.166.396.166.243 0 .396-.153.16-.16.16-.371v-.045q0-.064.064-.064l.326.006q.064 0 .064.064v.07q0 .383-.281.639-.275.249-.729.249z"/></defs><g transform="translate(-22.044 -12.318)"><use xlink:href="#E" transform="matrix(.51187 0 0 .51187 -67.806376 -31.088153)" clip-path="url(#A)" fill="none" class="G H"/><path d="M36.94 24.804q.058 0 .093.046.046.035.046.093v.937q0 .058-.046.104-.035.035-.093.035h-.347q-.058 0-.058.058v1.908q0 .058-.046.104-.035.035-.093.035h-1.064q-.058 0-.104-.035-.035-.046-.035-.104v-1.908q0-.058-.058-.058h-2.845q-.058 0-.104-.035-.035-.046-.035-.104v-.752q0-.104.023-.173l1.607-4.81q.035-.116.15-.116h1.156q.069 0 .104.046.035.035.012.116l-1.48 4.544q-.012.069.046.069h1.364q.058 0 .058-.058v-1.388q0-.058.035-.093.046-.046.104-.046h1.064q.058 0 .093.046.046.035.046.093v1.388q0 .058.058.058z"/><use xlink:href="#F"/><path d="M33.39 34.705q-.006.013 0 .026.006.006.019.006h1.502q.064 0 .064.064v.268q0 .064-.064.064h-2.007q-.064 0-.064-.064v-.288q0-.051.026-.083.198-.313.224-.358.562-.888.888-1.444.409-.703.409-1.163 0-.332-.153-.53-.153-.198-.403-.198-.243 0-.396.198-.147.192-.141.511v.243q0 .064-.064.064h-.332q-.064 0-.064-.064v-.256q.013-.492.288-.792.281-.3.729-.3.447 0 .722.313.275.307.275.812 0 .601-.454 1.355-.23.39-.645 1.048z"/><use xlink:href="#G"/><use xlink:href="#H"/><path d="M40.753 35.133q-.064 0-.064-.064v-4.346q0-.064.064-.064h.326q.064 0 .064.064v4.346q0 .064-.064.064z"/><use xlink:href="#E" transform="matrix(.51187 0 0 .51187 -30.809074 -30.942291)" clip-path="url(#B)" fill="none" class="G H"/><path d="M72.644 23.97q-.069.046 0 .081.381.219.578.67.243.543.243 1.224 0 .612-.185 1.074-.231.624-.728.982-.485.347-1.167.347-.67 0-1.167-.347-.485-.347-.716-.97-.173-.485-.173-1.086 0-.681.208-1.167.173-.462.612-.716.046-.035 0-.069-.381-.243-.589-.67-.231-.497-.231-1.109 0-.67.231-1.12.231-.508.705-.785.485-.277 1.12-.277.624 0 1.097.277.485.266.728.774.254.485.254 1.132 0 .601-.231 1.086-.208.427-.589.67zm-1.917-2.171q-.081.208-.081.531 0 .347.116.658.081.243.243.381.162.139.381.139.243 0 .404-.139.173-.15.254-.416.092-.277.092-.624 0-.393-.116-.635-.081-.243-.243-.37-.162-.139-.393-.139-.208 0-.37.127-.15.116-.231.323zm1.351 4.689q.058-.312.058-.612 0-.439-.104-.751-.069-.277-.243-.427-.162-.162-.404-.162-.243 0-.416.162-.162.162-.231.462-.092.3-.092.693 0 .358.069.658.058.323.231.508.185.173.439.173.266 0 .45-.185.185-.185.243-.52z"/><use xlink:href="#F" x="36.638" y="0.132"/><use xlink:href="#G" x="34.173" y="-0.11"/><path d="M73.353 35.087q-.486 0-.786-.313-.294-.32-.294-.831V31.63q0-.511.294-.824.3-.32.786-.32.492 0 .792.32.3.313.3.824v2.314q0 .511-.3.831-.3.313-.792.313zm0-.396q.294 0 .467-.198.173-.198.173-.524v-2.365q0-.326-.173-.524-.173-.198-.467-.198-.281 0-.454.198-.173.198-.173.524v2.365q0 .326.173.524.173.198.454.198z"/><use xlink:href="#H" x="37.01" y="-0.11"/><path d="M77.763 35.023q-.064 0-.064-.064v-4.346q0-.064.064-.064h.326q.064 0 .064.064v4.346q0 .064-.064.064z"/><use xlink:href="#E" transform="matrix(.51187 0 0 .51187 -67.708988 6.267991)" clip-path="url(#C)" fill="none" class="G H"/><path d="M31.469 64.19q-.024.024-.012.048.012.024.048.024h2.637q.06 0 .096.048.048.036.048.096v.915q0 .06-.048.108-.036.036-.096.036H29.94q-.06 0-.108-.036-.036-.048-.036-.108v-.963q0-.108.06-.181l.47-.638q.47-.626.915-1.277.458-.65.771-1.168.699-1.156.699-1.915 0-.482-.217-.759-.205-.277-.554-.277-.349 0-.554.277-.205.265-.193.711v.47q0 .06-.048.108-.036.036-.096.036h-1.132q-.06 0-.108-.036-.036-.048-.036-.108v-.518q.048-.963.65-1.554.614-.59 1.578-.59.951 0 1.529.626.59.614.59 1.626 0 .602-.205 1.192-.205.59-.65 1.265-.301.482-.723 1.06-.409.578-.542.759-.361.482-.53.723zm5.118 0q-.024.024-.012.048.012.024.048.024h2.637q.06 0 .096.048.048.036.048.096v.915q0 .06-.048.108-.036.036-.096.036h-4.203q-.06 0-.108-.036-.036-.048-.036-.108v-.963q0-.108.06-.181l.47-.638q.47-.626.915-1.277.458-.65.771-1.168.699-1.156.699-1.915 0-.482-.217-.759-.205-.277-.554-.277-.349 0-.554.277-.205.265-.193.711v.47q0 .06-.048.108-.036.036-.096.036h-1.132q-.06 0-.108-.036-.036-.048-.036-.108v-.518q.048-.963.65-1.554.614-.59 1.578-.59.951 0 1.529.626.59.614.59 1.626 0 .602-.205 1.192-.205.59-.65 1.265-.301.482-.723 1.06-.409.578-.542.759-.361.482-.53.723zm5.867.368q.237 0 .385-.158.158-.168.188-.454.02-.119.128-.109l.899.119q.059.01.079.049.03.03.02.089-.109.682-.563 1.067-.454.385-1.136.385-.78 0-1.254-.504-.464-.514-.464-1.353v-.751q0-.049-.049-.049h-.494q-.049 0-.089-.03-.03-.04-.03-.089v-.385q0-.049.03-.079.04-.04.089-.04h.494q.049 0 .049-.049v-.395q0-.049-.049-.049h-.494q-.049 0-.089-.03-.03-.04-.03-.089v-.375q0-.049.03-.079.04-.04.089-.04h.494q.049 0 .049-.049v-.79q0-.849.464-1.343.474-.504 1.254-.504.701 0 1.156.405.464.395.563 1.087v.02q0 .089-.109.109l-.909.109h-.02q-.089 0-.109-.109-.02-.286-.178-.454-.148-.178-.395-.178-.257 0-.415.217-.158.217-.158.563v.869q0 .049.049.049h1.482q.059 0 .089.04.03.03.01.099l-.128.375q-.03.099-.128.099H41.93q-.049 0-.049.049v.395q0 .049.049.049h1.175q.059 0 .079.04.03.03.01.099l-.128.385q-.03.099-.128.099H41.93q-.049 0-.049.049v.84q0 .346.158.563.158.217.415.217zm-8.762 3.41q.04-.02.086-.02h.357q.066 0 .066.066v4.494q0 .066-.066.066h-.337q-.066 0-.066-.066v-4.005q0-.013-.013-.02-.007-.007-.02 0l-.621.205-.02.007q-.046 0-.059-.059l-.033-.245v-.013q0-.033.046-.066zm1.217 5.129q-.026 0-.046-.02-.02-.02-.013-.053l.205-1.414q.007-.059.066-.059h.297q.073 0 .059.073l-.297 1.414q-.007.059-.073.059zm3.245-2.564q.066.245.066.635 0 .297-.04.549-.066.443-.33.681-.258.231-.687.231-.43 0-.694-.231-.258-.231-.33-.694l-.02-.198v-.013q0-.053.059-.053h.337q.066 0 .073.066l.02.159q.106.555.555.555.212 0 .35-.132.139-.139.192-.397.046-.212.046-.529 0-.33-.059-.568-.119-.463-.529-.463-.456 0-.568.456-.02.059-.073.059h-.344q-.066 0-.066-.066v-2.564q0-.066.066-.066h1.87q.066 0 .066.066v.278q0 .066-.066.066h-1.441q-.026 0-.026.026l-.007 1.639q0 .013.007.02.013.007.026-.007.106-.159.278-.238.178-.086.397-.086.35 0 .575.212.225.212.297.608zm.852 2.042q-.066 0-.066-.066v-4.494q0-.066.066-.066h.337q.066 0 .066.066v4.124q0 .026.026.026h1.514q.066 0 .066.066v.278q0 .066-.066.066z"/><use xlink:href="#E" transform="matrix(.51187 0 0 .51187 -31.131427 6.097693)" clip-path="url(#D)" fill="none" class="G H"/><path d="M71.241 62.058q.06 0 .096.048.048.036.048.096v.973q0 .06-.048.108-.036.036-.096.036h-.36q-.06 0-.06.06v1.982q0 .06-.048.108-.036.036-.096.036h-1.105q-.06 0-.108-.036-.036-.048-.036-.108V63.38q0-.06-.06-.06h-2.956q-.06 0-.108-.036-.036-.048-.036-.108v-.781q0-.108.024-.18l1.67-4.998q.036-.12.156-.12h1.202q.072 0 .108.048.036.036.012.12l-1.538 4.722q-.012.072.048.072h1.418q.06 0 .06-.06v-1.442q0-.06.036-.096.048-.048.108-.048h1.105q.06 0 .096.048.048.036.048.096v1.442q0 .06.06.06zm2.379 2.175q-.024.024-.012.048.012.024.048.024h2.631q.06 0 .096.048.048.036.048.096v.913q0 .06-.048.108-.036.036-.096.036h-4.193q-.06 0-.108-.036-.036-.048-.036-.108v-.961q0-.108.06-.18l.469-.637q.469-.625.913-1.274.457-.649.769-1.165.697-1.153.697-1.91 0-.481-.216-.757-.204-.276-.553-.276-.348 0-.553.276-.204.264-.192.709v.469q0 .06-.048.108-.036.036-.096.036h-1.129q-.06 0-.108-.036-.036-.048-.036-.108v-.517q.048-.961.649-1.55Q73.189 57 74.15 57q.949 0 1.526.625.589.613.589 1.622 0 .601-.204 1.189-.204.589-.649 1.262-.3.481-.721 1.057-.409.577-.541.757-.36.481-.529.721z"/><use xlink:href="#F" x="39.42" y="37.383"/><path d="M73.306 70.168q.102.326.102.729 0 .339-.07.62-.179.786-.946.786-.403 0-.665-.224-.256-.224-.32-.62-.038-.224-.038-.492 0-.064.064-.064h.326q.064 0 .064.064 0 .23.038.415.109.524.53.524.198 0 .332-.121.134-.121.192-.352.051-.268.051-.575 0-.403-.077-.671-.064-.205-.192-.307-.128-.109-.307-.109-.058 0-.147.038-.058.032-.089-.006l-.166-.173q-.032-.045-.006-.089l.85-1.336q.006-.006 0-.019-.006-.013-.019-.013h-1.348q-.064 0-.064-.064v-.268q0-.064.064-.064h1.866q.064 0 .064.064v.288q0 .032-.026.083l-.792 1.24q-.006.013-.006.026.006.006.019.006.256.026.441.211.192.179.275.473zm.959 2.084q-.064 0-.064-.064v-4.346q0-.064.064-.064h.326q.064 0 .064.064v3.988q0 .026.026.026h1.464q.064 0 .064.064v.268q0 .064-.064.064z"/></g></svg>