<?xml version="1.0" encoding="UTF-8" standalone="no"?>
<!-- Created with Inkscape (http://www.inkscape.org/) -->

<svg
   width="51.0317mm"
   height="55.803112mm"
   viewBox="0 0 51.0317 55.803112"
   version="1.1"
   id="svg1706"
   inkscape:version="1.1.1 (3bf5ae0d25, 2021-09-20)"
   sodipodi:docname="roue1.svg"
   xmlns:inkscape="http://www.inkscape.org/namespaces/inkscape"
   xmlns:sodipodi="http://sodipodi.sourceforge.net/DTD/sodipodi-0.dtd"
   xmlns="http://www.w3.org/2000/svg"
   xmlns:svg="http://www.w3.org/2000/svg">
  <sodipodi:namedview
     id="namedview1708"
     pagecolor="#505050"
     bordercolor="#eeeeee"
     borderopacity="1"
     inkscape:pageshadow="0"
     inkscape:pageopacity="0"
     inkscape:pagecheckerboard="0"
     inkscape:document-units="mm"
     showgrid="false"
     fit-margin-top="0"
     fit-margin-left="0"
     fit-margin-right="0"
     fit-margin-bottom="0"
     inkscape:zoom="0.79998597"
     inkscape:cx="60.626063"
     inkscape:cy="380.63167"
     inkscape:window-width="1920"
     inkscape:window-height="1057"
     inkscape:window-x="3832"
     inkscape:window-y="-8"
     inkscape:window-maximized="1"
     inkscape:current-layer="layer1" />
  <defs
     id="defs1703" />
  <g
     inkscape:label="Calque 1"
     inkscape:groupmode="layer"
     id="layer1"
     transform="translate(-88.918446,-47.83675)">
    <path
       d="m 110.02933,97.158631 c -5.76071,0.01217 -7.79094,-1.387131 -14.770128,-10.180743 -1.73242,-2.182812 -3.538209,-4.409863 -4.01285,-4.949005 -3.91685,-4.449127 -2.89604,-10.971634 3.10107,-19.814433 1.225981,-1.807712 4.68173,-5.519896 6.421678,-6.898216 0.55696,-0.44122 18.2299,-13.250043 26.89796,-4.327234 3.8122,3.92422 4.23857,4.756361 6.76436,8.349774 4.33075,6.161352 5.65244,7.635081 5.50827,12.373636 -0.57206,18.801634 -27.64315,25.441353 -29.91036,25.446221 z m 26.10403,6.359019 c 0,0.40119 0,-0.34358 0,0 z M 113.85337,93.039439 c 7.86475,-1.622425 15.36088,-6.643978 19.88504,-13.320686 2.08183,-3.072315 3.10273,-5.776064 1.22109,-3.233896 -1.39317,1.882166 -5.3821,6.12738 -5.75752,6.12738 -0.13413,0 0.22652,-0.565574 0.80144,-1.256771 1.18075,-1.419622 3.44243,-4.76893 4.13837,-6.128491 0.69294,-1.353713 1.46242,-3.719908 1.46219,-4.496275 -1.6e-4,-0.527473 -0.17427,-0.319008 -0.75283,0.90133 -1.00593,2.121799 -4.86239,6.863025 -6.77907,8.334373 -0.40326,0.309563 -0.37376,0.203042 0.13412,-0.484187 3.51876,-4.761468 5.35943,-8.213988 5.67917,-10.652388 l 0.15296,-1.166548 -0.73843,1.460156 c -0.40613,0.803089 -1.21697,2.1336 -1.80187,2.956692 -1.22021,1.717093 -5.16145,6.115181 -5.32944,5.947197 -0.0618,-0.06181 0.52877,-0.964406 1.31227,-2.005912 2.6566,-3.531366 4.38254,-7.032809 4.77202,-9.68105 0.14742,-1.002427 0.10293,-0.958718 -0.84198,0.827061 -0.54869,1.036981 -1.52804,2.599161 -2.1763,3.471545 -1.33442,1.795701 -4.45637,5.204247 -4.61834,5.042269 -0.0587,-0.05871 0.53698,-0.962475 1.32377,-2.008292 2.54627,-3.384709 4.63708,-7.802271 4.63708,-9.797415 0,-0.464344 -0.262,-0.13081 -0.921,1.172501 -0.50655,1.001818 -1.42929,2.487957 -2.05052,3.302529 -1.43959,1.887591 -3.98726,4.745276 -4.11584,4.616688 -0.0541,-0.05411 0.58481,-1.091035 1.41981,-2.304309 2.39497,-3.479906 4.0667,-7.377139 4.06729,-9.481952 1.4e-4,-0.46908 -0.17608,-0.232966 -0.6059,0.811795 -0.76698,1.864333 -2.88009,4.905269 -4.95156,7.125705 -1.77195,1.899391 -1.76257,1.811681 0.10873,-1.016556 1.61341,-2.438479 3.20001,-5.832501 3.58153,-7.661566 0.4504,-2.159291 0.33304,-2.732564 -0.23574,-1.151493 -0.69038,1.919102 -1.89248,4.024736 -3.61512,6.332352 -1.66871,2.235412 -4.79178,5.61393 -5.18942,5.61393 -0.15005,0 0.3767,-0.68461 1.17055,-1.521355 1.97442,-2.081106 3.42228,-4.062703 4.68797,-6.416145 2.77522,-5.160249 3.37329,-9.213851 1.65483,-11.216138 -0.61612,-0.717894 -2.92641,-1.742837 -3.9353,-1.745853 l -0.85989,-0.0029 1.01057,1.01055 c 2.99891,2.998919 1.70695,8.531145 -3.33377,14.275381 -0.80114,0.912972 -1.499,1.617531 -1.5508,1.565752 -0.0518,-0.05181 0.61204,-1.155938 1.47522,-2.453693 2.7221,-4.092416 3.97223,-8.199041 3.20429,-10.525866 -0.18337,-0.555625 -0.72402,-1.276112 -1.26988,-1.692222 -0.87261,-0.665268 -1.13665,-0.722868 -3.21966,-0.702363 -1.87224,0.01852 -2.67005,0.171794 -4.56159,0.876724 -3.88507,1.447958 -8.14608,4.323847 -11.78362,7.953189 -2.600448,2.59461 -4.183738,4.713711 -5.476966,7.330493 -1.888892,3.821986 -1.879571,6.498324 0.0277,7.953506 0.840989,0.641667 1.24287,0.746442 3.177889,0.828331 2.605987,0.110331 5.439867,-0.64344 8.912627,-2.370561 1.14957,-0.57171 2.14534,-0.984249 2.21283,-0.91678 0.1897,0.189733 -3.47785,2.488458 -5.17136,3.241277 -4.441817,1.974612 -7.862975,2.13532 -10.396575,0.488421 -0.520422,-0.338296 -1.142791,-1.014016 -1.383051,-1.501616 l -0.436801,-0.886593 -0.006,1.531911 c -0.007,1.842188 0.6594,3.311208 1.90622,4.200499 0.782579,0.558191 1.13316,0.615024 3.644008,0.590762 2.545889,-0.02461 3.021419,-0.115412 5.688539,-1.086724 2.85336,-1.039098 6.30171,-2.684145 9.06198,-4.32308 2.32979,-1.383294 1.54853,-0.608647 -1.19063,1.180545 -4.53386,2.961508 -10.04824,5.446739 -12.085548,5.446739 -0.464839,0 -0.647229,0.10451 -0.525669,0.301149 0.452929,0.732869 6.290727,-0.25572 9.842617,-1.666823 2.5371,-1.00793 1.75221,-0.282257 -1.30538,1.206924 -1.65199,0.804518 -3.83705,1.69672 -4.8557,1.982629 l -1.85208,0.519747 1.40022,0.01879 c 1.78326,0.02381 4.6125,-0.560361 7.59492,-1.568476 1.28735,-0.43516 2.39629,-0.735542 2.4643,-0.667544 0.23057,0.230585 -5.43072,2.826438 -7.5251,3.450484 l -2.08226,0.620448 1.22755,0.01799 c 1.76524,0.02593 5.19754,-0.677069 7.81222,-1.599935 1.24254,-0.438547 2.31296,-0.743585 2.37871,-0.677836 0.24574,0.245745 -5.41742,2.833184 -7.58202,3.464136 -2.19054,0.638519 -2.21721,0.655902 -1.02684,0.669634 1.89383,0.0217 5.48603,-0.687493 8.03128,-1.585859 1.27056,-0.448469 2.36951,-0.755968 2.44211,-0.683366 0.33619,0.336179 -4.74955,2.556536 -7.99134,3.488875 -1.96378,0.564806 -2.03683,0.610129 -1.01133,0.627645 2.06879,0.03529 5.23851,-0.543269 7.99519,-1.459416 1.51278,-0.502734 2.80474,-0.859843 2.87102,-0.793564 0.0663,0.0663 -0.99286,0.649393 -2.35365,1.295823 -2.20545,1.047697 -3.7916,1.629145 -6.83977,2.507297 l -0.92604,0.26678 1.05833,0.0254 c 1.73385,0.0417 5.95359,-0.695669 7.9375,-1.387052 1.01865,-0.354965 2.09021,-0.727181 2.38125,-0.827114 l 0.52917,-0.181716 -0.52917,0.442145 c -0.71319,0.595895 -3.48593,1.864995 -5.78964,2.649988 -2.20656,0.751866 -1.97771,0.81579 0.83986,0.234526 z M 100.08724,72.424615 c -0.911617,-0.514879 -1.165257,-1.494419 -0.769837,-2.972858 0.28526,-1.066535 1.067777,-2.567517 1.245767,-2.389531 0.0423,0.04228 -0.15597,0.766577 -0.44055,1.609539 -0.441796,1.308656 -0.467628,1.636978 -0.176768,2.246472 0.294088,0.616267 0.521158,0.723635 1.661468,0.785601 1.22588,0.06659 1.27328,0.0472 0.65937,-0.270669 -0.83189,-0.430689 -1.01683,-1.909551 -0.39031,-3.121105 0.41418,-0.80092 0.40622,-0.889661 -0.17847,-1.991809 -0.55403,-1.04439 -0.57846,-1.235763 -0.25804,-2.02192 0.19465,-0.477599 0.528,-1.344612 0.74075,-1.926696 0.21277,-0.582083 0.76565,-1.455711 1.22864,-1.941406 0.96556,-1.012905 2.71689,-1.993609 3.21727,-1.801601 0.18687,0.0717 0.79247,-0.02514 1.34576,-0.21545 1.21978,-0.419338 2.27163,-0.128297 2.87735,0.796157 0.35353,0.539539 0.51718,0.596001 1.09302,0.377085 1.03759,-0.394494 2.53109,-0.306732 3.06934,0.180392 0.46029,0.41656 0.48386,0.391213 0.48386,-0.519853 0,-0.676116 -0.15051,-1.038278 -0.51178,-1.231635 -0.64492,-0.345149 -2.00078,-0.35105 -3.17661,-0.01376 -1.25988,0.361315 -1.36364,0.09851 -0.15972,-0.404548 1.20876,-0.505036 3.41133,-0.592375 3.937,-0.156104 0.21084,0.174969 0.52614,0.662861 0.70066,1.08421 0.46403,1.120272 -0.22716,3.224715 -1.8619,5.668857 -3.5306,5.278649 -11.48119,9.84324 -14.33627,8.230711 z m 6.37799,-4.241456 c 0.0542,-0.05421 -0.28603,-0.5842 -0.75611,-1.177713 -0.67726,-0.855133 -0.97226,-1.043252 -1.42096,-0.906251 -1.28394,0.39206 -1.3098,0.513345 -0.33074,1.551464 0.79967,0.84791 1.05349,0.971365 1.67582,0.815155 0.40337,-0.10123 0.77777,-0.228415 0.83199,-0.282655 z m 3.92837,-2.690362 c 0.3545,-0.537528 0.31739,-0.666486 -0.47591,-1.653646 -0.47322,-0.588857 -0.91611,-1.070637 -0.98421,-1.070637 -0.0681,0 -0.37654,0.267891 -0.68542,0.595313 -0.30888,0.327422 -1.00569,0.9525 -1.54846,1.389062 l -0.98686,0.79375 0.94511,1.124903 0.9451,1.124902 1.20308,-0.860319 c 0.6617,-0.473181 1.37611,-1.12268 1.58757,-1.443328 z m -4.12515,-2.265151 c 0.62287,-0.47506 1.34839,-1.233435 1.61228,-1.685264 0.46327,-0.793247 0.46328,-0.841904 1.5e-4,-1.413854 l -0.47963,-0.592322 -0.64905,0.965279 c -0.68065,1.012269 -2.7099,2.531613 -3.38125,2.531613 -0.31818,0 -0.30183,0.100224 0.0864,0.529166 0.6834,0.755148 1.51162,0.656564 2.81113,-0.334618 z m 5.78783,-0.376899 c 0,-0.600948 -1.17516,-2.463483 -1.55432,-2.463483 -0.0927,0 -0.3283,0.360813 -0.52349,0.801794 -0.37864,0.855398 -0.35046,0.931651 0.8515,2.303753 0.61836,0.705909 1.22631,0.387615 1.22631,-0.642064 z"
       style="fill:#000000;stroke-width:0.0700042"
       id="path1701" />
  </g>
</svg>
