<svg xmlns="http://www.w3.org/2000/svg" xmlns:xlink="http://www.w3.org/1999/xlink" width="1372.112" height="1033.255" viewBox="0 0 363.038 273.382" xmlns:v="https://vecta.io/nano"><style><![CDATA[.B{text-anchor:middle}.C{opacity:.638}.D{stroke-miterlimit:4}.E{stroke-dasharray:none}.F{stroke-opacity:1}.G{stroke:#e74f0f}.H{stroke-width:3.774}.I{fill:#e74f0f}]]></style><defs><clipPath id="A"><path d="M170.533 79.8h66.693v66.693h-66.693zm-19.262 26.169v13.908h103.391v-13.908z" fill="#000" stroke="none" class="C D E F"/></clipPath><clipPath id="B"><path d="M170.533 79.8h66.693v66.693h-66.693zm-19.262 26.169v13.908h103.391v-13.908z" fill="#000" stroke="none" class="C D E F"/></clipPath><clipPath id="C"><path d="M170.533 79.8h66.693v66.693h-66.693zm-19.262 26.169v13.908h103.391v-13.908z" fill="#000" stroke="none" class="C D E F"/></clipPath><path id="D" d="M-65.687 234.861q-.453 0-.718-.234-.258-.242-.258-.624 0-.086.008-.133l.008-.047q.016-.078.086-.078h.234q.078 0 .062.078v.047l-.008.086q0 .25.172.414.172.156.461.156.304 0 .507-.187.211-.195.25-.5l.008-.094q0-.195-.094-.32-.094-.133-.234-.211-.133-.078-.382-.195-.39-.172-.601-.367-.211-.203-.211-.593 0-.539.336-.866.336-.336.851-.336.445 0 .695.242.25.242.25.648 0 .094-.008.148l-.008.023q0 .031-.023.055-.023.023-.055.023h-.234q-.031 0-.055-.023-.016-.023-.008-.055l.008-.039q.031-.289-.14-.484-.164-.195-.461-.195-.328 0-.546.226-.211.219-.211.554 0 .258.156.398.164.133.507.297.273.125.445.234.172.101.297.289.125.187.125.461 0 .539-.336.874-.336.328-.874.328z"/><path id="E" d="M-60.294 234.884q-.461 0-.734-.265-.265-.273-.265-.718 0-.062.016-.187l.211-1.717q.062-.515.414-.843.351-.328.851-.328.468 0 .734.273.273.265.273.71 0 .062-.016.187l-.211 1.717q-.062.523-.414.851-.343.32-.859.32zm.039-.367q.328 0 .562-.226.234-.234.273-.593l.211-1.678q.008-.047.008-.125 0-.32-.18-.507-.172-.195-.461-.195-.32 0-.554.234-.226.226-.273.593l-.203 1.678q-.008.047-.008.141 0 .304.164.492.172.187.461.187z"/><path id="F" d="M-56.579 230.857q.187 0 .32.078.047.039.023.101l-.094.265q-.031.07-.101.039-.109-.047-.289-.039-.304.008-.531.312-.226.304-.281.749l-.297 2.381q-.016.078-.086.078h-.25q-.078 0-.062-.078l.461-3.778q.016-.078.086-.078h.25q.07 0 .07.078l-.062.484q0 .055.039 0 .14-.281.343-.437.203-.156.461-.156z"/><path id="G" d="M-54.393 231.138q-.016.078-.086.078h-.609q-.031 0-.031.031l-.312 2.513q-.016.156-.016.203 0 .273.109.382.117.109.359.109h.078q.078 0 .062.078l-.023.211q-.016.078-.086.078h-.148q-.375 0-.57-.148-.187-.156-.187-.562 0-.062.016-.25l.32-2.615q.008-.008 0-.016-.008-.016-.023-.016h-.312q-.078 0-.062-.078l.016-.172q.016-.078.086-.078h.312q.031 0 .031-.031l.109-.874q.016-.078.086-.078h.242q.07 0 .07.078l-.109.874q0 .031.023.031h.609q.078 0 .062.078z"/><path id="H" d="M-53.261 230.1q-.148 0-.242-.094-.094-.094-.094-.25 0-.187.125-.312.125-.125.304-.125.148 0 .242.094.094.086.094.234 0 .195-.125.328-.125.125-.304.125zm-.702 4.722q-.078 0-.062-.078l.461-3.778q.016-.078.086-.078h.25q.078 0 .062.078l-.461 3.778q-.016.078-.086.078z"/><path id="I" d="M-45.308 232.925q-.016.078-.086.078h-1.741q-.023 0-.039.031l-.078.663q-.008.047-.008.141 0 .304.164.492.172.187.461.187.265 0 .476-.164.211-.164.304-.429.039-.07.094-.07l.234.016q.031 0 .047.016.023.016.016.047 0 .023-.008.031-.125.429-.445.679-.32.242-.757.242-.461 0-.734-.265-.265-.265-.265-.71 0-.062.016-.187l.211-1.725q.062-.515.414-.843.351-.328.851-.328.461 0 .726.273.273.265.273.71 0 .062-.016.187zm-.913-1.733q-.32 0-.554.234-.226.226-.273.593l-.07.593q0 .016.008.023.008.008.016.008h1.389q.031 0 .031-.031l.078-.593q.008-.047.008-.133 0-.32-.172-.507-.172-.187-.461-.187z"/><path id="J" d="M-42.943 230.833q.398 0 .609.25.219.25.219.702 0 .078-.016.265l-.328 2.693q-.016.078-.086.078h-.25q-.078 0-.062-.078l.32-2.654q.016-.14.016-.203 0-.328-.156-.507-.148-.18-.437-.18-.328 0-.554.25-.219.25-.273.687l-.32 2.607q-.016.078-.086.078h-.25q-.078 0-.062-.078l.461-3.778q.016-.078.086-.078h.25q.07 0 .07.078l-.039.297q-.008.023.008.023.016 0 .031-.016.312-.437.851-.437z"/><path id="K" d="M-35.613 229.436q.008-.031.031-.055.023-.023.055-.023h.25q.039 0 .055.023.023.023.016.055l-.656 5.308q0 .031-.023.055-.023.023-.062.023h-.25q-.031 0-.055-.023-.016-.023-.008-.055l.023-.219q.008-.016-.008-.016-.008-.008-.023.008-.156.18-.367.273-.211.094-.437.094-.421 0-.663-.265-.242-.273-.242-.71 0-.125.008-.187l.211-1.725q.062-.523.39-.843.328-.328.796-.328.226 0 .406.094.187.094.304.273.008.016.023.016.016-.008.016-.023zm-1.327 5.081q.312 0 .539-.226.226-.226.265-.593l.211-1.678q.008-.047.008-.148 0-.304-.164-.492-.164-.187-.445-.187-.328 0-.562.234-.234.226-.281.593l-.203 1.678q-.008.047-.008.141 0 .304.172.492.18.187.468.187z"/><path id="L" d="M-22.329 230.966q.016-.078.086-.078h.25q.07 0 .07.078l-.656 5.308q0 .031-.023.055-.023.023-.062.023h-.25q-.031 0-.055-.023-.016-.023-.008-.055l.211-1.748q.008-.016-.008-.016-.008-.008-.023.008-.156.18-.367.273-.211.094-.437.094-.421 0-.671-.265-.242-.265-.242-.702 0-.062.016-.203l.211-1.717q.062-.523.39-.843.328-.328.796-.328.226 0 .406.094.187.094.304.273.008.016.023.016.016-.008.016-.023zm-1.14 3.551q.312 0 .539-.226.226-.226.265-.593l.211-1.686q.008-.047.008-.141 0-.304-.164-.492-.164-.187-.445-.187-.328 0-.562.234-.234.226-.273.585l-.211 1.686q-.008.047-.008.141 0 .304.172.492.18.187.468.187z"/><path id="M" d="M-19.12 230.966q.016-.078.086-.078h.25q.07 0 .07.078l-.468 3.778q0 .031-.023.055-.023.023-.062.023h-.25q-.031 0-.055-.023-.016-.023-.008-.055l.031-.281q.008-.023-.008-.023-.008-.008-.023.008-.297.429-.827.429-.406 0-.632-.226-.226-.226-.226-.671 0-.07.016-.242l.336-2.771q.008-.031.031-.055.023-.023.055-.023h.25q.039 0 .055.023.023.023.016.055l-.328 2.677q-.016.141-.016.203 0 .328.148.5.156.164.437.164.336 0 .554-.25.219-.25.273-.687z"/><path id="N" d="M-16.599 234.822q-.031 0-.055-.023-.016-.023-.008-.055l.648-5.308q.008-.031.031-.055.023-.023.055-.023h.25q.039 0 .055.023.023.023.016.055l-.656 5.308q0 .031-.023.055-.023.023-.062.023z"/><path id="O" d="M-13.095 230.966q.016-.078.086-.078h.25q.07 0 .07.078l-.468 3.778q0 .031-.023.055-.023.023-.062.023h-.25q-.031 0-.055-.023-.016-.023-.008-.055l.039-.304q0-.023-.016-.023-.016-.008-.023.016-.148.219-.367.336-.219.117-.468.117-.421 0-.656-.258-.234-.258-.234-.695 0-.062.016-.219l.211-1.717q.062-.523.375-.843.32-.328.788-.328.25 0 .437.117.187.117.289.336.008.023.016.023.016-.008.023-.031zm-1.14 3.551q.312 0 .539-.226.226-.226.265-.593l.211-1.678q.008-.047.008-.148 0-.304-.164-.492-.164-.187-.445-.187-.328 0-.562.234-.226.226-.273.593l-.203 1.678q-.008.047-.008.141 0 .304.172.492.172.187.461.187z"/><path id="P" d="M-50.056 271.928q-.461 0-.734-.265-.265-.273-.265-.718 0-.062.016-.187l.211-1.717q.062-.515.414-.843.351-.328.851-.328.468 0 .734.273.273.265.273.71 0 .062-.016.187l-.211 1.717q-.062.523-.414.851-.343.32-.859.32zm.039-.367q.328 0 .562-.226.234-.234.273-.593l.211-1.678q.008-.047.008-.125 0-.32-.18-.507-.172-.195-.461-.195-.32 0-.554.234-.226.226-.273.593l-.203 1.678q-.008.047-.008.14 0 .304.164.492.172.187.461.187z"/><path id="Q" d="M-38.871 267.877q.375 0 .578.273.211.265.211.734 0 .086-.016.273l-.328 2.63q0 .031-.023.055-.023.023-.055.023h-.258q-.031 0-.055-.023-.016-.023-.008-.055l.32-2.591q.016-.14.016-.211 0-.351-.148-.546-.148-.195-.406-.195-.32 0-.539.25-.211.25-.265.687l-.32 2.607q0 .031-.023.055-.023.023-.062.023h-.25q-.031 0-.055-.023-.016-.023-.008-.055l.32-2.591q.016-.14.016-.203 0-.351-.148-.546-.148-.203-.406-.203-.32 0-.539.25-.219.25-.273.687l-.32 2.607q0 .031-.023.055-.023.023-.062.023h-.242q-.078 0-.062-.078l.461-3.778q.016-.078.086-.078h.242q.07 0 .07.078l-.039.289q0 .023.008.031.016 0 .031-.023.164-.211.382-.32.219-.109.453-.109.281 0 .468.156.195.156.281.445 0 .039.039-.016.164-.289.414-.437.258-.148.539-.148z"/><path id="R" d="M-35.069 269.969q-.016.078-.086.078h-1.741q-.023 0-.039.031l-.078.663q-.008.047-.008.14 0 .304.164.492.172.187.461.187.265 0 .476-.164.211-.164.304-.429.039-.07.094-.07l.234.016q.031 0 .047.016.023.016.016.047 0 .023-.008.031-.125.429-.445.679-.32.242-.757.242-.461 0-.734-.265-.265-.265-.265-.71 0-.062.016-.187l.211-1.725q.062-.515.414-.843.351-.328.851-.328.461 0 .726.273.273.265.273.71 0 .062-.016.187zm-.913-1.733q-.32 0-.554.234-.226.226-.273.593l-.07.593q0 .016.008.023.008.008.016.008h1.389q.031 0 .031-.031l.078-.593q.008-.047.008-.133 0-.32-.172-.507-.172-.187-.461-.187z"/><path id="S" d="M-25.375 266.48q.008-.031.031-.055.023-.023.055-.023h.25q.039 0 .055.023.023.023.016.055l-.656 5.308q0 .031-.023.055-.023.023-.062.023h-.25q-.031 0-.055-.023-.016-.023-.008-.055l.023-.219q.008-.016-.008-.016-.008-.008-.023.008-.156.18-.367.273-.211.094-.437.094-.421 0-.663-.265-.242-.273-.242-.71 0-.125.008-.187l.211-1.725q.062-.523.39-.843.328-.328.796-.328.226 0 .406.094.187.094.304.273.008.016.023.016.016-.008.016-.023zm-1.327 5.081q.312 0 .539-.226.226-.226.265-.593l.211-1.678q.008-.047.008-.148 0-.304-.164-.492-.164-.187-.445-.187-.328 0-.562.234-.234.226-.281.593l-.203 1.678q-.008.047-.008.14 0 .304.172.492.18.187.468.187z"/><path id="T" d="M-12.16 267.869q.421 0 .663.265.242.265.242.702 0 .062-.016.203l-.211 1.717q-.062.523-.39.851-.328.32-.788.32-.226 0-.414-.094-.187-.094-.304-.273-.023-.039-.039.008l-.211 1.748q-.016.078-.086.078h-.25q-.078 0-.062-.078l.648-5.308q.016-.078.086-.078h.25q.078 0 .062.078l-.023.219q0 .016.008.023.016 0 .031-.016.156-.18.359-.273.211-.094.445-.094zm.492 1.186q.008-.047.008-.14 0-.304-.18-.492-.172-.187-.461-.187-.312 0-.539.226-.219.226-.265.593l-.203 1.686q-.008.047-.008.148 0 .304.164.492.164.18.445.18.32 0 .554-.226.234-.234.281-.593z"/><path id="U" d="M-6.798 271.928q-.461 0-.734-.265-.265-.273-.265-.718 0-.062.016-.187l.211-1.717q.062-.515.414-.843.351-.328.851-.328.461 0 .734.265.273.258.273.648 0 .086-.008.133v.047q-.016.078-.086.078l-.25.016q-.039 0-.062-.023-.016-.023-.008-.055l.008-.047q.031-.281-.148-.484-.18-.211-.492-.211-.32 0-.554.234-.226.226-.273.593l-.203 1.678q-.008.047-.008.14 0 .304.164.492.172.187.461.187.32 0 .546-.203.234-.211.265-.492l.008-.039q.016-.078.086-.078h.25q.078 0 .062.078l-.008.062q-.031.281-.203.523-.164.234-.445.375-.273.14-.601.14z"/><path id="V" d="M-2.63 268.01q.016-.078.086-.078h.25q.07 0 .07.078l-.468 3.778q0 .031-.023.055-.023.023-.062.023h-.25q-.031 0-.055-.023-.016-.023-.008-.055l.039-.304q0-.023-.016-.023-.016-.008-.023.016-.148.219-.367.336-.219.117-.468.117-.421 0-.656-.258-.234-.258-.234-.695 0-.062.016-.219l.211-1.717q.062-.523.375-.843.32-.328.788-.328.25 0 .437.117.187.117.289.336.008.023.016.023.016-.008.023-.031zm-1.14 3.551q.312 0 .539-.226.226-.226.265-.593l.211-1.678q.008-.047.008-.148 0-.304-.164-.492-.164-.187-.445-.187-.328 0-.562.234-.226.226-.273.593l-.203 1.678q-.008.047-.008.14 0 .304.172.492.172.187.461.187z"/><path id="W" d="M-47.62 276.249q-.32 0-.468.226-.148.219-.211.695l-.031.281q0 .031.023.031h.624q.078 0 .062.078l-.016.172q-.008.031-.031.055-.023.023-.055.023h-.624q-.031 0-.031.031l-.429 3.497q-.016.078-.086.078h-.25q-.07 0-.07-.078l.429-3.497q.008-.008 0-.016-.008-.016-.023-.016h-.32q-.078 0-.062-.078l.016-.172q.016-.078.086-.078h.32q.031 0 .031-.031l.039-.289q.078-.656.336-.96.258-.312.781-.312h.117q.078 0 .062.078l-.031.203q-.008.078-.086.078z"/><path id="X" d="M-45.091 277.56q.016-.078.086-.078h.25q.07 0 .07.078l-.468 3.778q0 .031-.023.055-.023.023-.062.023h-.25q-.031 0-.055-.023-.016-.023-.008-.055l.031-.281q.008-.023-.008-.023-.008-.008-.023.008-.297.429-.827.429-.406 0-.632-.226-.226-.226-.226-.671 0-.07.016-.242l.336-2.771q.008-.031.031-.055.023-.023.055-.023h.25q.039 0 .055.023.023.023.016.055l-.328 2.677q-.016.14-.016.203 0 .328.148.5.156.164.437.164.336 0 .554-.25.219-.25.273-.687z"/><path id="Y" d="M-26.742 313.413q.031-.055.094-.055h.258q.078 0 .062.078l-.648 5.308q-.016.078-.086.078h-.25q-.07 0-.07-.078l.546-4.426q0-.023-.016-.023-.008 0-.023.016l-1.062 1.905q-.031.063-.086.063-.07 0-.078-.055l-.609-1.897q-.008-.016-.023-.016-.008 0-.016.023l-.539 4.41q-.016.078-.086.078h-.25q-.07 0-.07-.078l.656-5.308q.016-.078.086-.078h.258q.055 0 .078.055l.671 2.045q0 .016.016.016.023 0 .031-.016z"/><path id="Z" d="M-19.624 314.833q.398 0 .609.25.219.25.219.702 0 .078-.016.265l-.328 2.693q-.016.078-.086.078h-.25q-.078 0-.062-.078l.32-2.654q.016-.14.016-.203 0-.328-.156-.507-.148-.18-.437-.18-.328 0-.554.25-.219.25-.273.687l-.32 2.607q-.016.078-.086.078h-.25q-.078 0-.062-.078l.648-5.308q.016-.078.086-.078h.25q.07 0 .07.078l-.226 1.826q-.008.023.008.023.016 0 .031-.016.312-.437.851-.437z"/><path id="a" d="M-12.138 319.399q-.031 0-.055-.023-.016-.023 0-.062l.453-1.624q.023-.07.086-.07h.211q.039 0 .055.023.016.023 0 .062l-.515 1.624q-.008.07-.094.07z"/><path id="b" d="M.077 318.822q-.078 0-.062-.078l.648-5.308q.016-.078.086-.078h.25q.07 0 .07.078l-.406 3.278q0 .016.016.023.016 0 .023-.016l1.467-1.787q.039-.047.094-.047h.265q.047 0 .055.031.016.023-.016.062l-.866 1.062q-.016.016-.016.039l.562 2.654v.016q0 .07-.07.07h-.265q-.062 0-.086-.062l-.429-2.318q-.008-.047-.047-.008l-.749.905q-.016.016-.016.039l-.172 1.366q-.016.078-.086.078z"/><path id="c" d="M-29.79 324.516q.016-.078.086-.078h.258q.07 0 .07.078l-.468 3.809q-.101.804-.507 1.225-.406.421-1.194.39-.078 0-.062-.078l.023-.211q.008-.078.109-.078.578 0 .859-.32.289-.32.367-.96l.039-.297q0-.023-.016-.023-.016-.008-.023.016-.156.211-.375.32-.211.101-.453.101-.414 0-.656-.258-.234-.265-.234-.702 0-.07.016-.211l.203-1.694q.062-.523.382-.843.32-.328.788-.328.242 0 .429.109.195.109.289.312.016.016.023.016.016 0 .016-.023zm-1.132 3.528q.312 0 .531-.226.226-.226.273-.593l.203-1.655q.008-.047.008-.148 0-.304-.164-.492-.164-.187-.445-.187-.32 0-.554.234-.234.226-.281.593l-.203 1.655q-.008.047-.008.125 0 .312.172.507.18.187.468.187z"/><path id="d" d="M76.539 271.933q-.461 0-.734-.265-.265-.273-.265-.718 0-.062.016-.187l.211-1.717q.062-.515.414-.843.351-.328.851-.328.468 0 .734.273.273.265.273.71 0 .063-.016.187l-.211 1.717q-.062.523-.414.851-.343.32-.859.32zm.039-.367q.328 0 .562-.226.234-.234.273-.593l.211-1.678q.008-.047.008-.125 0-.32-.18-.507-.172-.195-.461-.195-.32 0-.554.234-.226.226-.273.593l-.203 1.678q-.008.047-.008.14 0 .304.164.492.172.187.461.187z"/><path id="e" d="M92.47 269.974q-.016.078-.086.078h-1.741q-.023 0-.039.031l-.078.663q-.008.047-.008.14 0 .304.164.492.172.187.461.187.265 0 .476-.164.211-.164.304-.429.039-.07.094-.07l.234.016q.031 0 .047.016.023.016.016.047 0 .023-.008.031-.125.429-.445.679-.32.242-.757.242-.461 0-.734-.265-.265-.265-.265-.71 0-.062.016-.187l.211-1.725q.062-.515.414-.843.351-.328.851-.328.461 0 .726.273.273.265.273.71 0 .063-.016.187zm-.913-1.733q-.32 0-.554.234-.226.226-.273.593l-.07.593q0 .016.008.023.008.008.016.008h1.389q.031 0 .031-.031l.078-.593q.008-.047.008-.133 0-.32-.172-.507-.172-.187-.461-.187z"/><path id="f" d="M71.474 281.421q-.078 0-.078-.07l-.484-3.778v-.016q0-.031.023-.047.023-.023.055-.023h.289q.062 0 .078.07l.328 3.161q.008.023.016.023.008 0 .016-.023l1.108-3.161q.023-.07.094-.07l.289.008q.039 0 .055.023.016.023 0 .063l-1.397 3.77q-.008.07-.086.07z"/><path id="g" d="M112.062 281.46q-.453 0-.718-.234-.258-.242-.258-.624 0-.086.008-.133l.008-.047q.016-.078.086-.078h.234q.078 0 .062.078v.047l-.008.086q0 .25.172.414.172.156.461.156.304 0 .507-.187.211-.195.25-.5l.008-.094q0-.195-.094-.32-.094-.133-.234-.211-.133-.078-.382-.195-.39-.172-.601-.367-.211-.203-.211-.593 0-.539.336-.866.336-.336.851-.336.445 0 .695.242.25.242.25.648 0 .094-.008.148l-.008.023q0 .031-.023.055-.023.023-.055.023h-.234q-.031 0-.055-.023-.016-.023-.008-.055l.008-.039q.031-.289-.141-.484-.164-.195-.461-.195-.328 0-.546.226-.211.219-.211.554 0 .258.156.398.164.133.507.297.273.125.445.234.172.101.297.289.125.187.125.461 0 .539-.336.874-.336.328-.874.328z"/><path id="h" d="M120.172 277.425q.421 0 .663.265.242.265.242.702 0 .063-.016.203l-.211 1.717q-.062.523-.39.851-.328.32-.788.32-.226 0-.414-.094-.187-.094-.304-.273-.023-.039-.039.008l-.211 1.748q-.016.078-.086.078h-.25q-.078 0-.062-.078l.648-5.308q.016-.078.086-.078h.25q.078 0 .062.078l-.023.219q0 .016.008.023.016 0 .031-.016.156-.18.359-.273.211-.094.445-.094zm.492 1.186q.008-.047.008-.14 0-.304-.18-.492-.172-.187-.461-.187-.312 0-.539.226-.219.226-.265.593l-.203 1.686q-.008.047-.008.148 0 .304.164.492.164.18.445.18.32 0 .554-.226.234-.234.281-.593z"/><path id="i" d="M127.93 277.456q.187 0 .32.078.047.039.023.101l-.094.265q-.031.07-.101.039-.109-.047-.289-.039-.304.008-.531.312-.226.304-.281.749l-.297 2.381q-.016.078-.086.078h-.25q-.078 0-.062-.078l.461-3.778q.016-.078.086-.078h.25q.07 0 .07.078l-.062.484q0 .055.039 0 .141-.281.343-.437.203-.156.461-.156z"/><path id="j" d="M77.839 290.972q-.07 0-.07-.07l-.336-3.778q0-.086.078-.086h.242q.078 0 .078.07l.219 3.185q0 .023.008.023.008 0 .016-.023l1.007-3.185q.023-.07.094-.07h.219q.07 0 .078.07l.226 3.185q0 .023.008.023.016 0 .023-.023l1.015-3.185q.016-.07.086-.07l.234.008q.078 0 .062.086l-1.272 3.77q-.023.07-.094.07h-.25q-.078 0-.078-.07l-.234-3.068q-.008-.023-.016-.023-.008 0-.016.023l-.976 3.068q-.023.07-.094.07z"/><path id="k" d="M59.015 225.379q-.078 0-.078-.07l-.453-5.308q0-.086.078-.086h.281q.07 0 .078.07l.328 4.59q0 .023.008.023.016 0 .023-.023l1.436-4.59q.023-.07.094-.07h.265q.078 0 .062.086l-1.756 5.308q-.008.07-.086.07z"/><path id="l" d="M88.254 221.391q.375 0 .578.273.211.265.211.734 0 .086-.016.273l-.328 2.63q0 .031-.023.055-.023.023-.055.023h-.258q-.031 0-.055-.023-.016-.023-.008-.055l.32-2.591q.016-.141.016-.211 0-.351-.148-.546-.148-.195-.406-.195-.32 0-.539.25-.211.25-.265.687l-.32 2.607q0 .031-.023.055-.023.023-.062.023h-.25q-.031 0-.055-.023-.016-.023-.008-.055l.32-2.591q.016-.141.016-.203 0-.351-.148-.546-.148-.203-.406-.203-.32 0-.539.25-.219.25-.273.687l-.32 2.607q0 .031-.023.055-.023.023-.062.023h-.242q-.078 0-.062-.078l.461-3.778q.016-.078.086-.078h.242q.07 0 .07.078l-.039.289q0 .023.008.031.016 0 .031-.023.164-.211.382-.32.219-.109.453-.109.281 0 .468.156.195.156.281.445 0 .039.039-.016.164-.289.414-.437.258-.148.539-.148z"/><path id="m" d="M94.42 221.391q.398 0 .609.25.219.25.219.702 0 .078-.016.265l-.328 2.693q-.016.078-.086.078h-.25q-.078 0-.062-.078l.32-2.654q.016-.141.016-.203 0-.328-.156-.507-.148-.18-.437-.18-.328 0-.554.25-.219.25-.273.687l-.32 2.607q-.016.078-.086.078h-.25q-.078 0-.062-.078l.461-3.778q.016-.078.086-.078h.25q.07 0 .07.078l-.039.297q-.008.023.008.023.016 0 .031-.016.312-.437.851-.437z"/><path id="n" d="M99.564 221.391q.398 0 .609.25.219.25.219.702 0 .078-.016.265l-.328 2.693q-.016.078-.086.078h-.25q-.078 0-.062-.078l.32-2.654q.016-.141.016-.203 0-.328-.156-.507-.148-.18-.437-.18-.328 0-.554.25-.219.25-.273.687l-.32 2.607q-.016.078-.086.078h-.25q-.078 0-.062-.078l.648-5.308q.016-.078.086-.078h.25q.07 0 .07.078l-.226 1.826q-.008.023.008.023.016 0 .031-.016.312-.437.851-.437z"/><path id="o" d="M74.864 234.992q-.461 0-.734-.265-.265-.273-.265-.718 0-.062.016-.187l.211-1.717q.062-.515.414-.843.351-.328.851-.328.468 0 .734.273.273.265.273.71 0 .063-.016.187l-.211 1.717q-.062.523-.414.851-.343.32-.859.32zm.039-.367q.328 0 .562-.226.234-.234.273-.593l.211-1.678q.008-.047.008-.125 0-.32-.18-.507-.172-.195-.461-.195-.32 0-.554.234-.226.226-.273.593l-.203 1.678q-.008.047-.008.141 0 .304.164.492.172.187.461.187z"/><path id="p" d="M83.622 233.033q-.016.078-.086.078h-1.741q-.023 0-.039.031l-.078.663q-.008.047-.008.141 0 .304.164.492.172.187.461.187.265 0 .476-.164.211-.164.304-.429.039-.07.094-.07l.234.016q.031 0 .047.016.023.016.016.047 0 .023-.008.031-.125.429-.445.679-.32.242-.757.242-.461 0-.734-.265-.265-.265-.265-.71 0-.062.016-.187l.211-1.725q.062-.515.414-.843.351-.328.851-.328.461 0 .726.273.273.265.273.71 0 .063-.016.187zm-.913-1.733q-.32 0-.554.234-.226.226-.273.593l-.07.593q0 .016.008.023.008.008.016.008h1.389q.031 0 .031-.031l.078-.593q.008-.047.008-.133 0-.32-.172-.507-.172-.187-.461-.187z"/><path id="q" d="M88.016 234.992q-.461 0-.734-.265-.265-.273-.265-.718 0-.062.016-.187l.211-1.717q.062-.515.414-.843.351-.328.851-.328.461 0 .734.265.273.258.273.648 0 .086-.008.133v.047q-.016.078-.086.078l-.25.016q-.039 0-.062-.023-.016-.023-.008-.055l.008-.047q.031-.281-.148-.484-.18-.211-.492-.211-.32 0-.554.234-.226.226-.273.593l-.203 1.678q-.008.047-.008.141 0 .304.164.492.172.187.461.187.32 0 .546-.203.234-.211.265-.492l.008-.039q.016-.078.086-.078h.25q.078 0 .062.078l-.008.062q-.031.281-.203.523-.164.234-.445.375-.273.14-.601.14z"/><path id="r" d="M54.81 178.718q-.07 0-.07-.078l.656-5.308q.016-.078.086-.078h.25q.078 0 .062.078l-.609 4.988q0 .031.023.031h1.772q.07 0 .07.078l-.031.211q0 .031-.023.055-.023.023-.055.023z"/><path id="s" d="M94.868 178.78q-.461 0-.734-.265-.265-.273-.265-.718 0-.062.016-.187l.211-1.717q.062-.515.414-.843.351-.328.851-.328.461 0 .734.265.273.258.273.648 0 .086-.008.133v.047q-.016.078-.086.078l-.25.016q-.039 0-.062-.023-.016-.023-.008-.055l.008-.047q.031-.281-.148-.484-.18-.211-.492-.211-.32 0-.554.234-.226.226-.273.593l-.203 1.678q-.008.047-.008.141 0 .304.164.492.172.187.461.187.32 0 .546-.203.234-.211.265-.492l.008-.039q.016-.078.086-.078h.25q.078 0 .062.078l-.008.063q-.031.281-.203.523-.164.234-.445.375-.273.141-.601.141z"/><path id="t" d="M187.453 178.641q-.078 0-.078-.07l-.078-1.023q0-.016-.016-.023-.008-.008-.023-.008h-1.483q-.016 0-.031.008-.008.008-.008.023l-.328 1.023q-.023.07-.094.07h-.25q-.039 0-.055-.023-.016-.023 0-.062l1.803-5.308q.016-.07.086-.07h.304q.07 0 .078.07l.507 5.308q0 .039-.023.062-.023.023-.055.023zm-1.584-1.499q0 .031.023.031h1.335q.016 0 .031-.031l-.273-3.302q0-.023-.008-.023-.008 0-.023.023z"/><path id="u" d="M209.667 176.744q-.016.078-.086.078h-1.741q-.023 0-.039.031l-.078.663q-.008.047-.008.141 0 .304.164.492.172.187.461.187.265 0 .476-.164.211-.164.304-.429.039-.07.094-.07l.234.016q.031 0 .047.016.023.016.016.047 0 .023-.008.031-.125.429-.445.679-.32.242-.757.242-.461 0-.734-.265-.265-.265-.265-.71 0-.062.016-.187l.211-1.725q.063-.515.414-.843.351-.328.851-.328.461 0 .726.273.273.265.273.71 0 .062-.016.187zm-.913-1.733q-.32 0-.554.234-.226.226-.273.593l-.07.593q0 .016.008.023.008.008.016.008h1.389q.031 0 .031-.031l.078-.593q.008-.047.008-.133 0-.32-.172-.507-.172-.187-.461-.187z"/><path id="v" d="M199.044 188.254q-.461 0-.734-.265-.265-.273-.265-.718 0-.062.016-.187l.211-1.717q.062-.515.414-.843.351-.328.851-.328.461 0 .734.265.273.258.273.648 0 .086-.008.133v.047q-.016.078-.086.078l-.25.016q-.039 0-.062-.023-.016-.023-.008-.055l.008-.047q.031-.281-.148-.484-.18-.211-.492-.211-.32 0-.554.234-.226.226-.273.593l-.203 1.678q-.008.047-.008.141 0 .304.164.492.172.187.461.187.32 0 .546-.203.234-.211.265-.492l.008-.039q.016-.078.086-.078h.25q.078 0 .062.078l-.008.062q-.031.281-.203.523-.164.234-.445.375-.273.141-.601.141z"/><path id="w" d="M221.796 184.195q.414 0 .656.265.25.265.25.702 0 .062-.016.203l-.211 1.725q-.062.515-.39.843-.32.32-.788.32-.226 0-.414-.094-.187-.094-.297-.273-.016-.016-.031-.008-.008 0-.008.016l-.031.219q-.016.078-.086.078h-.25q-.078 0-.062-.078l.648-5.308q.016-.078.086-.078h.25q.07 0 .07.078l-.219 1.748q0 .016.016.023.016 0 .023-.016.156-.18.367-.273.211-.094.437-.094zm.492 1.194q.008-.047.008-.141 0-.312-.18-.5-.172-.187-.461-.187-.312 0-.539.234-.219.226-.265.593l-.203 1.678q-.008.047-.008.141 0 .304.164.492.164.187.445.187.32 0 .554-.226.234-.234.281-.593z"/><path id="x" d="M203.757 229.697q-.148 0-.242-.094-.094-.094-.094-.25 0-.187.125-.312.125-.125.304-.125.148 0 .242.094.094.086.094.234 0 .195-.125.328-.125.125-.304.125zm-.702 4.722q-.078 0-.062-.078l.461-3.778q.016-.078.086-.078h.25q.078 0 .063.078l-.461 3.778q-.016.078-.086.078z"/><path id="y" d="M188.007 271.349q-.5 0-.796-.297-.289-.297-.289-.796 0-.07.016-.211l.367-2.997q.078-.585.453-.937.382-.351.937-.351.5 0 .796.297.297.289.297.788 0 .062-.016.203l-.023.148q0 .031-.023.062-.023.023-.062.023l-.25.016q-.078 0-.062-.078l.023-.195q.008-.047.008-.14 0-.343-.203-.546-.195-.211-.531-.211-.375 0-.632.25-.25.242-.304.648l-.375 3.052q-.008.047-.008.148 0 .343.195.554.195.203.531.203.375 0 .632-.25.258-.25.312-.656l.016-.18q.008-.031.031-.055.023-.023.055-.023l.25.016q.07 0 .07.078l-.016.133q-.078.593-.461.952-.382.351-.937.351z"/><path id="z" d="M47.904 262.501q-.055 0-.099-.033-.033-.044-.033-.099v-7.422q0-.055.033-.088.044-.044.099-.044h1.285q.055 0 .088.044.044.033.044.088v6.171q0 .055.055.055h2.306q.055 0 .088.044.044.033.044.088v1.065q0 .055-.044.099-.033.033-.088.033z"/><path id="AA" d="M56.479 256.012q0 .055-.044.099-.033.033-.088.033h-2.295q-.055 0-.055.055v1.735q0 .055.055.055h1.318q.055 0 .088.044.044.033.044.088v1.065q0 .055-.044.099-.033.033-.088.033h-1.318q-.055 0-.055.055v1.746q0 .055.055.055h2.295q.055 0 .088.044.044.033.044.088v1.065q0 .055-.044.099-.033.033-.088.033h-3.766q-.055 0-.099-.033-.033-.044-.033-.099v-7.422q0-.055.033-.088.044-.044.099-.044h3.766q.055 0 .088.044.044.033.044.088z"/><path id="AB" d="M63.868 260.382q0 1.021-.615 1.57-.615.549-1.592.549h-2.075q-.055 0-.099-.033-.033-.044-.033-.099v-7.422q0-.055.033-.088.044-.044.099-.044h1.834q1.098 0 1.713.527.626.527.626 1.57 0 1.087-.747 1.581-.044.033-.011.066.867.615.867 1.823zm-2.811-4.238q-.055 0-.055.055v1.724q0 .055.055.055h.395q.373 0 .582-.231.209-.242.209-.67 0-.45-.209-.692-.198-.242-.582-.242zm.483 5.018q.362 0 .571-.264.209-.264.209-.747 0-.483-.209-.769-.209-.285-.56-.285h-.494q-.055 0-.055.055v1.954q0 .055.055.055z"/><path id="AC" d="M67.623 262.501q-.132 0-.143-.121l-.176-1.054q0-.055-.066-.055h-1.394q-.066 0-.066.055l-.176 1.054q-.011.121-.143.121h-1.285q-.143 0-.11-.143l1.614-7.422q.022-.121.143-.121h1.482q.121 0 .143.121l1.603 7.422.011.044q0 .099-.121.099zm-1.625-2.481q0 .055.044.055h.988q.055 0 .044-.055l-.516-2.997q-.011-.033-.033-.033-.022 0-.033.033z"/><path id="AD" d="M71.554 262.589q-.988 0-1.592-.582-.593-.593-.593-1.581v-3.557q0-.977.593-1.559.604-.582 1.592-.582.999 0 1.592.582.604.582.604 1.559v.121q0 .055-.044.099-.033.033-.088.033l-1.285.055q-.132 0-.132-.121v-.285q0-.318-.176-.516-.176-.198-.472-.198-.285 0-.461.198-.176.198-.176.516v3.788q0 .318.176.516.176.187.461.187.296 0 .472-.187.176-.198.176-.516v-.296q0-.055.033-.088.044-.044.099-.044l1.285.055q.055 0 .088.044.044.033.044.088v.11q0 .988-.604 1.581-.604.582-1.592.582z"/><path id="AE" d="M74.705 262.501q-.055 0-.099-.033-.033-.044-.033-.099v-7.422q0-.055.033-.088.044-.044.099-.044h1.285q.055 0 .088.044.044.033.044.088v2.767q0 .044.022.055.033 0 .044-.044l1.416-2.811q.055-.099.154-.099h1.361q.077 0 .099.044.033.033 0 .11l-1.625 3.162q-.011.044-.011.066l1.724 4.15q.011.022.011.066 0 .088-.11.088h-1.372q-.121 0-.154-.099l-1.142-2.877q-.011-.033-.033-.022-.022 0-.044.022l-.318.571q-.022.044-.022.066v2.207q0 .055-.044.099-.033.033-.088.033z"/><path id="AF" d="M81.699 262.589q-.637 0-1.12-.253-.483-.253-.747-.703-.264-.461-.264-1.054v-.318q0-.055.033-.088.044-.044.099-.044h1.263q.055 0 .088.044.044.033.044.088v.242q0 .34.176.549.176.209.439.209.264 0 .439-.198.176-.198.176-.516 0-.329-.22-.56-.22-.242-.856-.703-.549-.395-.889-.703-.34-.307-.582-.758-.242-.45-.242-1.043 0-.933.582-1.493.582-.56 1.537-.56.966 0 1.548.582.593.582.593 1.526v.264q0 .055-.044.099-.033.033-.088.033h-1.263q-.055 0-.099-.033-.033-.044-.033-.099v-.296q0-.34-.176-.538-.165-.209-.439-.209-.264 0-.428.198-.165.187-.165.527 0 .329.209.582.209.253.823.703.681.505 1.021.823.351.307.538.692.198.373.198.9 0 .966-.593 1.537-.593.571-1.559.571z"/><path id="AG" d="M84.73 262.501q-.055 0-.099-.033-.033-.044-.033-.099v-7.422q0-.055.033-.088.044-.044.099-.044h1.285q.055 0 .088.044.044.033.044.088v7.422q0 .055-.044.099-.033.033-.088.033z"/><path id="AH" d="M87.255 262.501q-.055 0-.099-.033-.033-.044-.033-.099v-7.422q0-.055.033-.088.044-.044.099-.044h1.987q.999 0 1.603.582.604.582.604 1.548v3.426q0 .966-.604 1.548-.604.582-1.603.582zm1.416-1.383q0 .055.055.055l.494-.011q.296-.011.483-.253.187-.242.198-.637v-3.228q0-.417-.187-.659-.187-.242-.505-.242h-.483q-.055 0-.055.055z"/><path id="AI" d="M107.644 262.501q-.121 0-.154-.11l-.845-3.03q-.022-.044-.055-.044h-.373q-.055 0-.055.055v2.997q0 .055-.044.099-.033.033-.088.033h-1.285q-.055 0-.099-.033-.033-.044-.033-.099v-7.422q0-.055.033-.088.044-.044.099-.044h2.218q.604 0 1.076.296.472.285.725.813.264.527.264 1.208 0 .648-.253 1.142-.242.494-.681.769-.022.011-.033.033-.011.011 0 .033l1.01 3.239.011.044q0 .11-.121.11zm-1.427-6.357q-.055 0-.055.055v1.878q0 .055.055.055h.494q.34 0 .549-.264.22-.274.22-.725 0-.461-.22-.725-.209-.274-.549-.274z"/><path id="AJ" d="M128.023 262.589q-.988 0-1.592-.56-.593-.571-.593-1.515v-3.711q0-.944.593-1.504.604-.571 1.592-.571.988 0 1.592.571.604.571.604 1.515v.417q0 .055-.044.099-.033.033-.088.033h-1.285q-.055 0-.099-.033-.033-.044-.033-.099v-.439q0-.329-.176-.527-.176-.209-.472-.209-.285 0-.461.209-.176.198-.176.527v3.733q0 .329.176.538.176.198.461.198.296 0 .472-.198.176-.209.176-.538v-.878q0-.055-.055-.055h-.483q-.055 0-.099-.033-.033-.044-.033-.099v-.977q0-.055.033-.088.044-.044.099-.044h1.954q.055 0 .088.044.044.033.044.088v2.031q0 .944-.604 1.515-.604.56-1.592.56z"/><path id="AK" d="M178.063 254.057q0-.055.033-.088.044-.044.099-.044h1.285q.055 0 .088.044.044.033.044.088v7.422q0 .055-.044.099-.033.033-.088.033h-1.285q-.055 0-.099-.033-.033-.044-.033-.099v-2.997q0-.055-.055-.055h-1.098q-.055 0-.055.055v2.997q0 .055-.044.099-.033.033-.088.033h-1.285q-.055 0-.099-.033-.033-.044-.033-.099v-7.422q0-.055.033-.088.044-.044.099-.044h1.285q.055 0 .088.044.044.033.044.088v2.986q0 .055.055.055h1.098q.055 0 .055-.055z"/><path id="AL" d="M202.482 255.122q0 .055-.044.099-.033.033-.088.033h-2.284q-.055 0-.055.055v1.735q0 .055.055.055h1.307q.055 0 .088.044.044.033.044.088v1.065q0 .055-.044.099-.033.033-.088.033h-1.307q-.055 0-.055.055v2.997q0 .055-.044.099-.033.033-.088.033h-1.285q-.055 0-.099-.033-.033-.044-.033-.099v-7.422q0-.055.033-.088.044-.044.099-.044h3.755q.055 0 .088.044.044.033.044.088z"/><path id="AM" d="M212.627 253.914q.604 0 1.076.296.472.296.725.834.264.527.264 1.208 0 1.021-.549 1.636-.549.615-1.438.615h-.823q-.055 0-.055.055v2.921q0 .055-.044.099-.033.033-.088.033h-1.285q-.055 0-.099-.033-.033-.044-.033-.099v-7.433q0-.055.033-.088.044-.044.099-.044zm-.264 3.382q.351 0 .56-.264.22-.274.22-.747 0-.483-.22-.758-.209-.274-.56-.274h-.483q-.055 0-.055.055v1.932q0 .055.055.055z"/><path id="AN" d="M238.176 254.013q.044-.088.165-.088h1.274q.055 0 .088.044.044.033.044.088v7.422q0 .055-.044.099-.033.033-.088.033h-1.285q-.055 0-.099-.033-.033-.044-.033-.099v-4.93q0-.044-.022-.044-.022 0-.044.033l-.856 1.515q-.055.088-.088.088-.033 0-.088-.088l-.856-1.515q-.022-.033-.044-.033-.022 0-.022.044v4.93q0 .055-.044.099-.033.033-.088.033h-1.285q-.055 0-.099-.033-.033-.044-.033-.099v-7.422q0-.055.033-.088.044-.044.099-.044h1.263q.11 0 .165.088l.977 1.746q.033.044.066 0z"/><path id="AO" d="M242.788 261.699q-1.01 0-1.614-.593-.604-.593-.604-1.581v-3.514q0-.988.604-1.581.604-.593 1.614-.593 1.01 0 1.614.593.615.593.615 1.581v3.514q0 .988-.615 1.581-.604.593-1.614.593zm0-1.329q.307 0 .494-.209.187-.22.187-.571v-3.645q0-.351-.187-.56-.187-.22-.494-.22-.307 0-.494.22-.176.209-.176.56v3.645q0 .351.176.571.187.209.494.209z"/><path id="AP" d="M251.539 254.057q0-.055.033-.088.044-.044.099-.044h1.274q.055 0 .088.044.044.033.044.088v7.422q0 .055-.044.099-.033.033-.088.033h-1.449q-.11 0-.143-.11l-1.361-4.249q-.011-.033-.044-.022-.022 0-.022.033l.011 4.216q0 .055-.044.099-.033.033-.088.033h-1.274q-.055 0-.099-.033-.033-.044-.033-.099v-7.422q0-.055.033-.088.044-.044.099-.044h1.438q.11 0 .143.11l1.372 4.249q.011.033.033.033.033-.011.033-.044z"/><path id="AQ" d="M-42.345 308.924q-.121 0-.143-.121l-1.57-7.422-.011-.044q0-.099.121-.099h1.416q.132 0 .143.121l.758 4.831q.011.044.033.044.022 0 .033-.044l.736-4.831q.011-.121.143-.121h1.372q.143 0 .11.143l-1.581 7.422q-.022.121-.143.121z"/><path id="AR" d="M-54.004 262.348q-1.01 0-1.614-.593-.604-.593-.604-1.581v-3.514q0-.988.604-1.581.604-.593 1.614-.593 1.01 0 1.614.593.615.593.615 1.581v3.513q0 .988-.615 1.581-.604.593-1.614.593zm0-1.329q.307 0 .494-.209.187-.22.187-.571v-3.645q0-.351-.187-.56-.187-.22-.494-.22-.307 0-.494.22-.176.209-.176.56v3.645q0 .351.176.571.187.209.494.209z"/><path id="AS" d="M-62.524 225.183q-.988 0-1.592-.615-.593-.626-.593-1.658v-5.369q0-.055.033-.088.044-.044.099-.044h1.285q.055 0 .088.044.044.033.044.088v5.523q0 .351.176.571.176.22.461.22.285 0 .45-.22.176-.22.176-.571v-5.523q0-.055.033-.088.044-.044.099-.044h1.285q.055 0 .088.044.044.033.044.088v5.369q0 1.032-.604 1.658-.593.615-1.57.615z"/><path id="AT" d="M-20.922 217.409q.055 0 .088.044.044.033.044.088v1.065q0 .055-.044.099-.033.033-.088.033h-1.372q-.055 0-.055.055v6.171q0 .055-.044.099-.033.033-.088.033h-1.285q-.055 0-.099-.033-.033-.044-.033-.099v-6.171q0-.055-.055-.055h-1.318q-.055 0-.099-.033-.033-.044-.033-.099v-1.065q0-.055.033-.088.044-.044.099-.044z"/><path id="AU" d="M230.338 113.146c0 14.613-11.846 26.459-26.459 26.459a26.46 26.46 0 0 1-26.459-26.459 26.46 26.46 0 0 1 26.459-26.459 26.46 26.46 0 0 1 26.459 26.459z"/><path id="AV" d="M-16.655 124.874q.356 0 .573-.257.237-.257.296-.691.02-.257.257-.217l2.252.316q.119.02.158.099.059.059.04.178-.257 1.383-1.205 2.173-.948.79-2.371.79-1.659 0-2.667-1.047-.988-1.067-.988-2.845v-1.225q0-.099-.099-.099h-.968q-.099 0-.178-.059-.059-.079-.059-.178v-.988q0-.099.059-.158.079-.079.178-.079h.968q.099 0 .099-.099v-.553q0-.099-.099-.099h-.968q-.099 0-.178-.059-.059-.079-.059-.178v-.988q0-.099.059-.158.079-.079.178-.079h.968q.099 0 .099-.099v-1.304q0-1.778.988-2.805 1.008-1.047 2.667-1.047 1.482 0 2.43.81.968.81 1.185 2.272v.059q0 .158-.198.198l-2.292.277h-.04q-.178 0-.217-.237-.04-.454-.277-.711-.237-.277-.593-.277-.395 0-.632.356-.237.356-.237.929v1.482q0 .099.099.099h2.786q.119 0 .178.079.059.079.02.198l-.296.988q-.059.198-.257.198h-2.43q-.099 0-.099.099v.553q0 .099.099.099h2.173q.119 0 .178.079.059.079.02.198l-.316.988q-.059.198-.257.198h-1.798q-.099 0-.099.099v1.462q0 .573.237.929.237.336.632.336z"/><path id="AW" d="M216.08 127.354q-2.714 0-4.349-1.693-1.634-1.693-1.634-4.465v-8.814q0-2.773 1.634-4.465 1.634-1.693 4.349-1.693 2.714 0 4.349 1.693 1.634 1.693 1.634 4.465v8.814q0 2.773-1.634 4.465-1.634 1.693-4.349 1.693zm0-4.174q.525 0 .817-.467.321-.467.321-1.226v-9.398q0-.759-.321-1.226-.292-.467-.817-.467-.525 0-.846.467-.292.467-.292 1.226v9.398q0 .759.292 1.226.321.467.846.467z"/><path id="AX" d="M81.186 72.705q-1.426 0-2.278-.837-.852-.837-.852-2.232v-4.96q0-1.395.852-2.232.852-.837 2.278-.837 1.426 0 2.278.837.868.837.868 2.232v4.96q0 1.395-.868 2.232-.852.837-2.278.837zm0-1.875q.434 0 .697-.294.263-.31.263-.806v-5.146q0-.496-.263-.79-.263-.31-.697-.31-.434 0-.697.31-.248.294-.248.79v5.146q0 .496.248.806.263.294.697.294z"/></defs><g transform="translate(90.055 -57.329)"><g fill="#fff"><path d="M28.302 178.597h.876v59.605h-.876z"/><g class="B"><path d="M-67.522 234.822q-.078 0-.078-.07l-.078-1.023q0-.016-.016-.023-.008-.008-.023-.008H-69.2q-.016 0-.031.008-.008.008-.008.023l-.328 1.023q-.023.07-.094.07h-.25q-.039 0-.055-.023-.016-.023 0-.062l1.803-5.308q.016-.07.086-.07h.304q.07 0 .078.07l.507 5.308q0 .039-.023.062-.023.023-.055.023zm-1.585-1.499q0 .031.023.031h1.335q.016 0 .031-.031l-.273-3.302q0-.023-.008-.023-.008 0-.023.023z"/><use xlink:href="#D"/><use xlink:href="#D" x="2.536"/><use xlink:href="#E"/><use xlink:href="#F"/><use xlink:href="#G"/><use xlink:href="#H"/><path d="M-49.109 230.833q.375 0 .578.273.211.265.211.734 0 .086-.016.273l-.328 2.63q0 .031-.023.055-.023.023-.055.023H-49q-.031 0-.055-.023-.016-.023-.008-.055l.32-2.591q.016-.141.016-.211 0-.351-.148-.546-.148-.195-.406-.195-.32 0-.539.25-.211.25-.265.687l-.32 2.607q0 .031-.023.055-.023.023-.062.023h-.25q-.031 0-.055-.023-.016-.023-.008-.055l.32-2.591q.016-.141.016-.203 0-.351-.148-.546-.148-.203-.406-.203-.32 0-.539.25-.219.25-.273.687l-.32 2.607q0 .031-.023.055-.023.023-.062.023h-.242q-.078 0-.062-.078l.461-3.778q.016-.078.086-.078h.242q.07 0 .07.078l-.039.289q0 .023.008.031.016 0 .031-.023.164-.211.382-.32.219-.109.453-.109.281 0 .468.156.195.156.281.445 0 .039.039-.016.164-.289.414-.437.258-.148.539-.148z"/><use xlink:href="#I"/><use xlink:href="#J"/><use xlink:href="#G" x="14.58"/><use xlink:href="#K"/><use xlink:href="#I" x="12.84"/><path d="M-27.386 229.358q.031 0 .047.023.023.023.016.055l-.023.211q-.016.078-.086.078h-1.007q-.023 0-.039.031l-.609 4.988q-.016.078-.086.078h-.25q-.078 0-.062-.078l.609-4.988q0-.031-.023-.031h-.952q-.031 0-.055-.023-.016-.023-.008-.055l.023-.211q.016-.078.086-.078z"/><use xlink:href="#I" x="20.131"/><use xlink:href="#L"/><use xlink:href="#M"/><use xlink:href="#H" x="35.928"/><use xlink:href="#N"/><use xlink:href="#O"/><path d="M-9.465 234.884q-.5 0-.796-.297-.289-.297-.289-.796 0-.07.016-.211l.367-2.997q.078-.585.453-.937.382-.351.937-.351.5 0 .796.297.297.289.297.788 0 .063-.016.203l-.023.148q0 .031-.023.062-.023.023-.062.023l-.25.016q-.078 0-.062-.078l.023-.195q.008-.047.008-.141 0-.343-.203-.546-.195-.211-.531-.211-.375 0-.632.25-.25.242-.304.648l-.375 3.052q-.008.047-.008.148 0 .343.195.554.195.203.531.203.375 0 .632-.25.258-.25.312-.656l.016-.18q.008-.031.031-.055.023-.023.055-.023l.25.016q.07 0 .07.078l-.016.133q-.078.593-.461.952-.382.351-.937.351z"/><use xlink:href="#O" x="8.009"/><path d="M-.7 230.833q.375 0 .578.273.211.265.211.734 0 .086-.016.273l-.328 2.63q0 .031-.023.055-.023.023-.055.023H-.59q-.031 0-.055-.023-.016-.023-.008-.055l.32-2.591q.016-.141.016-.211 0-.351-.148-.546-.148-.195-.406-.195-.32 0-.539.25-.211.25-.265.687l-.32 2.607q0 .031-.023.055-.023.023-.062.023h-.25q-.031 0-.055-.023-.016-.023-.008-.055l.32-2.591q.016-.141.016-.203 0-.351-.148-.546-.148-.203-.406-.203-.32 0-.539.25-.219.25-.273.687l-.32 2.607q0 .031-.023.055-.023.023-.062.023h-.242q-.078 0-.062-.078l.461-3.778q.016-.078.086-.078h.242q.07 0 .07.078l-.039.289q0 .023.008.031.016 0 .031-.023.164-.211.382-.32.219-.109.453-.109.281 0 .468.156.195.156.281.445 0 .039.039-.016.164-.289.414-.437.258-.148.539-.148z"/><use xlink:href="#H" x="54.817"/><use xlink:href="#J" x="46.934"/><use xlink:href="#E" x="66.752"/><path d="M-57.283 271.866q-.078 0-.078-.07l-.078-1.023q0-.016-.016-.023-.008-.008-.023-.008h-1.483q-.016 0-.031.008-.008.008-.008.023l-.328 1.023q-.023.07-.094.07h-.25q-.039 0-.055-.023-.016-.023 0-.062l1.803-5.308q.016-.07.086-.07h.304q.07 0 .078.07l.507 5.308q0 .039-.023.063-.023.023-.055.023zm-1.585-1.499q0 .031.023.031h1.335q.016 0 .031-.031l-.273-3.302q0-.023-.008-.023-.008 0-.023.023z"/><use xlink:href="#D" x="10.238" y="37.044"/><use xlink:href="#D" x="12.775" y="37.044"/><use xlink:href="#P"/><use xlink:href="#F" x="10.239" y="37.044"/><use xlink:href="#G" x="10.238" y="37.044"/><use xlink:href="#H" x="10.238" y="37.044"/><use xlink:href="#Q"/><use xlink:href="#R"/><use xlink:href="#J" x="10.239" y="37.044"/><use xlink:href="#G" x="24.819" y="37.044"/><use xlink:href="#S"/><use xlink:href="#R" x="12.84"/><path d="M-19.053 271.928q-.476 0-.765-.304-.281-.312-.281-.827 0-.078.016-.234l.016-.164q.016-.078.086-.078h.242q.039 0 .055.023.023.023.016.055l-.023.148q-.008.063-.008.18 0 .39.187.617.187.226.5.226.258 0 .476-.14.219-.148.343-.414.133-.265.133-.593 0-.234-.094-.414-.094-.187-.234-.32-.14-.14-.461-.421-.32-.273-.5-.453-.172-.18-.289-.414-.109-.242-.109-.546 0-.07.016-.226.078-.601.445-.944.367-.343.882-.343.492 0 .773.312.289.304.289.835 0 .07-.016.242l-.023.195q-.016.078-.086.078h-.25q-.07 0-.07-.078l.023-.195q.016-.14.016-.203 0-.375-.187-.601-.187-.226-.515-.226-.336 0-.585.25-.25.242-.304.687-.008.055-.008.156 0 .312.164.539.164.219.601.585.367.312.546.507.187.187.289.398.101.211.101.492 0 .063-.016.219-.078.64-.461 1.023-.382.375-.929.375z"/><use xlink:href="#P" x="34.102"/><use xlink:href="#T"/><use xlink:href="#N" x="5.929" y="37.044"/><use xlink:href="#H" x="44.73" y="37.044"/><use xlink:href="#U"/><use xlink:href="#V"/><path d="M-53.958 281.416q-.07 0-.07-.078l.656-5.308q.016-.078.086-.078h.25q.078 0 .062.078l-.648 5.308q-.016.078-.086.078z"/><use xlink:href="#J" x="-7.862" y="46.595"/><use xlink:href="#W"/><use xlink:href="#X"/><use xlink:href="#D" x="22.461" y="46.594"/><path d="M-39.003 279.52q-.016.078-.086.078h-1.741q-.023 0-.039.031l-.078.663q-.008.047-.008.14 0 .304.164.492.172.187.461.187.265 0 .476-.164.211-.164.304-.429.039-.07.094-.07l.234.016q.031 0 .047.016.023.016.016.047 0 .023-.008.031-.125.429-.445.679-.32.242-.757.242-.461 0-.734-.265-.265-.265-.265-.71 0-.062.016-.187l.211-1.725q.062-.515.414-.843.351-.328.851-.328.461 0 .726.273.273.265.273.71 0 .062-.016.187zm-.913-1.733q-.32 0-.554.234-.226.226-.273.593l-.07.593q0 .016.008.023.008.008.016.008h1.389q.031 0 .031-.031l.078-.593q.008-.047.008-.133 0-.32-.172-.507-.172-.187-.461-.187zm-.14-.827q-.047 0-.062-.023-.008-.031.023-.07l.578-.859q.039-.055.094-.055h.203q.047 0 .055.031.016.023-.008.062l-.632.859q-.039.055-.094.055z"/><use xlink:href="#R" x="-0.906" y="9.551"/><use xlink:href="#D" x="31.258" y="46.594"/><use xlink:href="#V" x="-26.242" y="9.55"/><use xlink:href="#X" x="19.38"/><path d="M-25.039 281.416q-.039 0-.055-.023-.008-.031.008-.07l1.171-1.85q.016-.023 0-.047l-.71-1.85-.008-.023q0-.07.078-.07h.281q.078 0 .086.055l.539 1.514q.008.016.023.016.016 0 .023-.016l.913-1.514q.031-.055.101-.055h.281q.039 0 .047.031.016.023-.008.062l-1.155 1.85q-.023.023-.008.047l.702 1.85.008.031q0 .062-.07.062h-.281q-.078 0-.086-.055l-.539-1.514q-.008-.016-.023-.016-.016 0-.023.016l-.913 1.514q-.031.055-.094.055z"/><use xlink:href="#W" x="28.825"/><use xlink:href="#F" x="39.751" y="46.594"/><use xlink:href="#X" x="30.979"/><use xlink:href="#H" x="40.937" y="46.594"/><use xlink:href="#G" x="44.465" y="46.594"/><use xlink:href="#D" x="56.969" y="46.594"/><path d="M-66.987 318.822q-.078 0-.078-.07l-.078-1.023q0-.016-.016-.023-.008-.008-.023-.008h-1.483q-.016 0-.031.008-.008.008-.008.023l-.328 1.023q-.023.07-.094.07h-.25q-.039 0-.055-.023-.016-.023 0-.062l1.803-5.308q.016-.07.086-.07h.304q.07 0 .078.07l.507 5.308q0 .039-.023.062-.023.023-.055.023zm-1.585-1.499q0 .031.023.031h1.335q.016 0 .031-.031l-.273-3.302q0-.023-.008-.023-.008 0-.023.023z"/><use xlink:href="#D" x="0.534" y="84"/><use xlink:href="#D" x="3.071" y="84"/><use xlink:href="#P" x="-9.703" y="46.956"/><use xlink:href="#F" x="0.535" y="84"/><use xlink:href="#G" x="0.535" y="84"/><use xlink:href="#H" x="0.535" y="83.999"/><use xlink:href="#Q" x="-9.703" y="46.956"/><use xlink:href="#R" x="-9.704" y="46.956"/><use xlink:href="#J" x="0.535" y="84"/><use xlink:href="#G" x="15.115" y="84"/><use xlink:href="#S" x="-9.703" y="46.956"/><use xlink:href="#R" x="3.136" y="46.956"/><use xlink:href="#Y"/><use xlink:href="#H" x="28.22" y="83.999"/><use xlink:href="#U" x="-16.51" y="46.956"/><use xlink:href="#Z"/><use xlink:href="#P" x="32.899" y="46.956"/><use xlink:href="#X" x="32.211" y="37.406"/><use xlink:href="#a"/><use xlink:href="#U" x="-1.321" y="46.956"/><use xlink:href="#P" x="44.919" y="46.956"/><use xlink:href="#P" x="48.002" y="46.956"/><use xlink:href="#b"/><use xlink:href="#H" x="57.093" y="83.999"/><path d="M6.93 316.925q-.016.078-.086.078H5.104q-.023 0-.039.031l-.078.663q-.008.047-.008.14 0 .304.164.492.172.187.461.187.265 0 .476-.164.211-.164.304-.429.039-.07.094-.07l.234.016q.031 0 .047.016.023.016.016.047 0 .023-.008.031-.125.429-.445.679-.32.242-.757.242-.461 0-.734-.265-.265-.265-.265-.71 0-.062.016-.187l.211-1.725q.062-.515.414-.843.351-.328.851-.328.461 0 .726.273.273.265.273.71 0 .062-.016.187zm-.913-1.733q-.32 0-.554.234-.226.226-.273.593l-.07.593q0 .016.008.023.008.008.016.008h1.389q.031 0 .031-.031l.078-.593q.008-.047.008-.133 0-.32-.172-.507-.172-.187-.461-.187z"/><use xlink:href="#b" x="-59.473" y="9.55"/><use xlink:href="#F" x="1.749" y="93.55"/><use xlink:href="#V" x="-49.515" y="56.506"/><use xlink:href="#J" x="-6.532" y="93.551"/><path d="M-46.345 324.376q.414 0 .656.265.25.265.25.702 0 .062-.016.203l-.211 1.725q-.062.515-.39.843-.32.32-.788.32-.226 0-.414-.094-.187-.094-.297-.273-.016-.016-.031-.008-.008 0-.008.016l-.031.219q-.016.078-.086.078h-.25q-.078 0-.062-.078l.648-5.308q.016-.078.086-.078h.25q.07 0 .07.078l-.219 1.748q0 .016.016.023.016 0 .023-.016.156-.18.367-.273.211-.094.437-.094zm.492 1.194q.008-.047.008-.14 0-.312-.18-.5-.172-.187-.461-.187-.312 0-.539.234-.219.226-.265.593l-.203 1.678q-.008.047-.008.14 0 .304.164.492.164.187.445.187.32 0 .554-.226.234-.234.281-.593z"/><use xlink:href="#R" x="-7.421" y="56.507"/><use xlink:href="#F" x="16.384" y="93.55"/><use xlink:href="#F" x="18.539" y="93.55"/><path d="M-37.783 329.933q-.016 0-.031-.023-.016-.023-.008-.055l.023-.203q.016-.078.086-.078h.008q.226-.008.359-.101.14-.094.258-.336.117-.234.281-.742.008-.016 0-.023 0-.016 0-.023l-.492-3.825v-.023q0-.062.078-.062h.265q.031 0 .047.023.023.016.023.047l.351 3.255q0 .023.008.023.016 0 .023-.023l1.14-3.255q.023-.07.094-.07l.273.008q.039 0 .047.031.016.023 0 .055l-1.585 4.238q-.195.507-.351.749-.148.242-.343.328-.187.086-.515.086z"/><use xlink:href="#a" x="-22.858" y="9.551"/><use xlink:href="#c"/><use xlink:href="#F" x="29.31" y="93.55"/><use xlink:href="#R" x="10.665" y="56.507"/><use xlink:href="#R" x="13.693" y="56.507"/><use xlink:href="#J" x="23.932" y="93.551"/><use xlink:href="#D" x="50.555" y="93.55"/><use xlink:href="#Z" x="8.052" y="9.551"/><use xlink:href="#P" x="40.95" y="56.507"/><use xlink:href="#P" x="44.033" y="56.507"/><use xlink:href="#G" x="52.117" y="93.55"/><path d="M57.58 271.871q-.07 0-.07-.078l.656-5.308q.016-.078.086-.078h1.108q.5 0 .773.312.281.304.281.843 0 .187-.016.281l-.32 2.591q-.078.663-.453 1.054-.375.382-.929.382zm.375-.398q0 .031.023.031h.757q.375-.008.624-.297.258-.289.312-.781l.312-2.568q.016-.172.016-.25 0-.398-.18-.617-.18-.219-.507-.219h-.749q-.023 0-.039.031z"/><use xlink:href="#V" x="65.76" y="0.005"/><use xlink:href="#H" x="118.178" y="37.049"/><path d="M67.836 268.015q.016-.078.086-.078h.25q.07 0 .07.078l-.656 5.308q0 .031-.023.055-.023.023-.062.023h-.25q-.031 0-.055-.023-.016-.023-.008-.055l.211-1.748q.008-.016-.008-.016-.008-.008-.023.008-.156.18-.367.273-.211.094-.437.094-.421 0-.671-.265-.242-.265-.242-.702 0-.062.016-.203l.211-1.717q.062-.523.39-.843.328-.328.796-.328.226 0 .406.094.187.094.304.273.008.016.023.016.016-.008.016-.023zm-1.14 3.551q.312 0 .539-.226.226-.226.265-.593l.211-1.686q.008-.047.008-.14 0-.304-.164-.492-.164-.187-.445-.187-.328 0-.562.234-.234.226-.273.585l-.211 1.686q-.008.047-.008.14 0 .304.172.492.18.187.468.187z"/><use xlink:href="#X" x="116.135" y="-9.545"/><use xlink:href="#H" x="126.093" y="37.049"/><use xlink:href="#G" x="129.621" y="37.049"/><use xlink:href="#d"/><use xlink:href="#T" x="94.007" y="0.005"/><use xlink:href="#d" x="7.798"/><use xlink:href="#H" x="140.501" y="37.049"/><use xlink:href="#F" x="146.185" y="37.049"/><use xlink:href="#e"/><use xlink:href="#Q" x="136.938" y="0.005"/><use xlink:href="#V" x="104.318" y="0.005"/><use xlink:href="#U" x="110.453" y="0.005"/><use xlink:href="#V" x="110.453" y="0.005"/><use xlink:href="#S" x="136.539" y="0.005"/><use xlink:href="#V" x="116.76" y="0.005"/><use xlink:href="#Q" x="157.388" y="0.005"/><use xlink:href="#H" x="174.034" y="37.049"/><use xlink:href="#V" x="126.322" y="0.005"/><use xlink:href="#a" x="136.571" y="-46.951"/><use xlink:href="#V" x="55.519" y="9.555"/><use xlink:href="#J" x="98.501" y="46.6"/><use xlink:href="#V" x="61.841" y="9.555"/><use xlink:href="#J" x="104.824" y="46.6"/><use xlink:href="#V" x="68.164" y="9.555"/><use xlink:href="#D" x="133.086" y="46.599"/><use xlink:href="#f"/><use xlink:href="#H" x="127.607" y="46.599"/><use xlink:href="#U" x="82.877" y="9.556"/><use xlink:href="#G" x="134.101" y="46.599"/><use xlink:href="#d" x="4.481" y="9.551"/><use xlink:href="#F" x="141.314" y="46.599"/><use xlink:href="#V" x="90.05" y="9.555"/><use xlink:href="#a" x="100.3" y="-37.4"/><use xlink:href="#W" x="140.519" y="0.005"/><use xlink:href="#F" x="151.445" y="46.599"/><use xlink:href="#V" x="100.181" y="9.555"/><use xlink:href="#Q" x="140.809" y="9.556"/><path d="M105.037 277.425q.414 0 .656.265.25.265.25.702 0 .063-.016.203l-.211 1.725q-.062.515-.39.843-.32.32-.788.32-.226 0-.414-.094-.187-.094-.297-.273-.016-.016-.031-.008-.008 0-.008.016l-.031.219q-.016.078-.086.078h-.25q-.078 0-.062-.078l.648-5.308q.016-.078.086-.078h.25q.07 0 .07.078l-.219 1.748q0 .016.016.023.016 0 .023-.016.156-.18.367-.273.211-.094.437-.094zm.492 1.194q.008-.047.008-.14 0-.312-.18-.5-.172-.187-.461-.187-.312 0-.539.234-.219.226-.265.593l-.203 1.678q-.008.047-.008.14 0 .304.164.492.164.187.445.187.32 0 .554-.226.234-.234.281-.593z"/><use xlink:href="#d" x="30.988" y="9.551"/><use xlink:href="#H" x="163.691" y="46.599"/><use xlink:href="#g"/><use xlink:href="#e" x="23.814" y="9.551"/><use xlink:href="#h"/><use xlink:href="#d" x="46.122" y="9.551"/><use xlink:href="#H" x="178.826" y="46.599"/><use xlink:href="#i"/><use xlink:href="#e" x="38.325" y="9.551"/><use xlink:href="#a" x="143.307" y="-37.4"/><use xlink:href="#W" x="105.914" y="9.556"/><use xlink:href="#F" x="116.84" y="56.15"/><use xlink:href="#V" x="65.576" y="19.106"/><use xlink:href="#H" x="117.995" y="56.15"/><use xlink:href="#D" x="132.052" y="56.15"/><use xlink:href="#R" x="105.657" y="19.106"/><use xlink:href="#b" x="72.735" y="-27.85"/><use xlink:href="#H" x="129.828" y="56.15"/><use xlink:href="#j"/><use xlink:href="#H" x="135.463" y="56.15"/><use xlink:href="#a" x="94.847" y="-27.85"/><use xlink:href="#h" x="-32.732" y="9.55"/><use xlink:href="#P" x="139.985" y="19.106"/><use xlink:href="#Q" x="134.303" y="19.106"/><use xlink:href="#Q" x="139.158" y="19.106"/><use xlink:href="#R" x="139.158" y="19.106"/><use xlink:href="#J" x="150.911" y="56.15"/><use xlink:href="#P" x="160.49" y="19.106"/><use xlink:href="#H" x="166.599" y="56.15"/><use xlink:href="#D" x="180.656" y="56.15"/><use xlink:href="#R" x="154.261" y="19.106"/><use xlink:href="#G" x="175.88" y="56.15"/><use xlink:href="#G" x="177.854" y="56.15"/><use xlink:href="#R" x="161.208" y="19.106"/><use xlink:href="#P" x="121.05" y="28.657"/><use xlink:href="#X" x="120.362" y="19.106"/><use xlink:href="#U" x="85.55" y="28.657"/><use xlink:href="#H" x="134.815" y="65.7"/><use xlink:href="#G" x="138.344" y="65.7"/><use xlink:href="#F" x="142.473" y="65.7"/><use xlink:href="#P" x="137.449" y="28.657"/><use xlink:href="#J" x="134.121" y="65.701"/><use xlink:href="#Q" x="136.45" y="28.657"/><use xlink:href="#R" x="136.449" y="28.657"/><use xlink:href="#J" x="146.688" y="65.701"/><use xlink:href="#G" x="161.268" y="65.7"/><use xlink:href="#Z" x="128.513" y="-18.299"/><use xlink:href="#R" x="147.79" y="28.657"/><use xlink:href="#k"/><use xlink:href="#R" x="98.463" y="-46.486"/><use xlink:href="#F" x="122.268" y="-9.443"/><use xlink:href="#G" x="122.267" y="-9.443"/><use xlink:href="#M" x="89.5" y="-9.442"/><use xlink:href="#R" x="108.782" y="-46.486"/><use xlink:href="#M" x="95.689" y="-9.442"/><use xlink:href="#D" x="144.122" y="-9.443"/><use xlink:href="#R" x="117.727" y="-46.486"/><use xlink:href="#l"/><use xlink:href="#R" x="127.124" y="-46.486"/><use xlink:href="#m"/><use xlink:href="#G" x="151.943" y="-9.443"/><use xlink:href="#n"/><use xlink:href="#R" x="138.466" y="-46.486"/><use xlink:href="#a" x="115.909" y="-93.442"/><use xlink:href="#m" x="14.074"/><use xlink:href="#V" x="114.776" y="-46.486"/><use xlink:href="#G" x="169.17" y="-9.443"/><use xlink:href="#M" x="136.402" y="-9.442"/><use xlink:href="#i" x="-8.048" y="-56.042"/><use xlink:href="#R" x="157.815" y="-46.486"/><use xlink:href="#a" x="135.259" y="-93.442"/><use xlink:href="#W" x="107.857" y="-46.486"/><use xlink:href="#F" x="118.783" y="0.108"/><use xlink:href="#O" x="77.984" y="0.108"/><use xlink:href="#Q" x="108.146" y="-36.936"/><path d="M72.374 230.934q.414 0 .656.265.25.265.25.702 0 .063-.016.203l-.211 1.725q-.062.515-.39.843-.32.32-.788.32-.226 0-.414-.094-.187-.094-.297-.273-.016-.016-.031-.008-.008 0-.008.016l-.031.219q-.016.078-.086.078h-.25q-.078 0-.062-.078l.648-5.308q.016-.078.086-.078h.25q.07 0 .07.078l-.219 1.748q0 .016.016.023.016 0 .023-.016.156-.18.367-.273.211-.094.437-.094zm.492 1.194q.008-.047.008-.141 0-.312-.18-.5-.172-.187-.461-.187-.312 0-.539.234-.219.226-.265.593l-.203 1.678q-.008.047-.008.141 0 .304.164.492.164.187.445.187.32 0 .554-.226.234-.234.281-.593z"/><use xlink:href="#o"/><use xlink:href="#H" x="131.029" y="0.108"/><use xlink:href="#D" x="145.086" y="0.108"/><use xlink:href="#p"/><use xlink:href="#a" x="96.134" y="-83.891"/><use xlink:href="#q"/><use xlink:href="#H" x="144.079" y="0.108"/><use xlink:href="#G" x="147.608" y="0.108"/><use xlink:href="#F" x="151.737" y="0.108"/><use xlink:href="#o" x="21.793"/><use xlink:href="#m" x="6.022" y="9.55"/><use xlink:href="#o" x="29.559"/><use xlink:href="#M" x="127.82" y="0.108"/><path d="M112.892 230.934q.421 0 .663.265.242.265.242.702 0 .063-.016.203l-.211 1.717q-.062.523-.39.851-.328.32-.788.32-.226 0-.414-.094-.187-.094-.304-.273-.023-.039-.039.008l-.211 1.748q-.016.078-.086.078h-.25q-.078 0-.062-.078l.648-5.308q.016-.078.086-.078h.25q.078 0 .062.078l-.023.219q0 .016.008.023.016 0 .031-.016.156-.18.359-.273.211-.094.445-.094zm.492 1.186q.008-.047.008-.141 0-.304-.18-.492-.172-.187-.461-.187-.312 0-.539.226-.219.226-.265.593l-.203 1.686q-.008.047-.008.148 0 .304.164.492.164.18.445.18.32 0 .554-.226.234-.234.281-.593z"/><use xlink:href="#o" x="40.518"/><use xlink:href="#H" x="171.546" y="0.108"/><use xlink:href="#i" x="-7.28" y="-46.491"/><use xlink:href="#p" x="39.893"/><use xlink:href="#r"/><use xlink:href="#H" x="111.693" y="-56.105"/><use xlink:href="#L" x="83.68" y="-56.104"/><use xlink:href="#X" x="109.65" y="-102.698"/><use xlink:href="#I" x="113.2" y="-56.104"/><use xlink:href="#X" x="115.84" y="-102.698"/><use xlink:href="#F" x="129.927" y="-56.104"/><use xlink:href="#Y" x="105.14" y="-140.104"/><use xlink:href="#E" x="140.574" y="-56.104"/><path d="M82.184 178.718q-.078 0-.062-.078l.031-.25q0-.023.031-.101l2.022-3.083q.023-.039-.008-.039h-1.553q-.07 0-.07-.078l.031-.226q.016-.078.086-.078h1.983q.07 0 .07.078l-.031.25q-.016.078-.039.101l-2.029 3.083q-.008.016-.008.031.008.008.023.008h1.577q.07 0 .07.078l-.031.226q-.016.078-.086.078z"/><use xlink:href="#O" x="100.353" y="-56.104"/><use xlink:href="#F" x="146.436" y="-56.104"/><use xlink:href="#G" x="146.435" y="-56.104"/><use xlink:href="#s"/><use xlink:href="#n" x="-1.012" y="-46.662"/><use xlink:href="#E" x="161.312" y="-56.104"/><use xlink:href="#s" x="9.234"/><use xlink:href="#E" x="167.377" y="-56.104"/><use xlink:href="#N" x="125.766" y="-56.104"/><use xlink:href="#O" x="125.767" y="-56.104"/><use xlink:href="#G" x="169.695" y="-56.104"/><use xlink:href="#m" x="24.41" y="-46.662"/><use xlink:href="#E" x="181.591" y="-56.104"/><use xlink:href="#H" x="177.462" y="-56.105"/><use xlink:href="#i" x="-1.364" y="-102.703"/><use xlink:href="#a" x="139" y="-140.104"/><path d="M74.195 184.272q.414 0 .656.265.25.265.25.702 0 .062-.016.203l-.211 1.725q-.062.515-.39.843-.32.32-.788.32-.226 0-.414-.094-.187-.094-.297-.273-.016-.016-.031-.008-.008 0-.008.016l-.031.219q-.016.078-.086.078h-.25q-.078 0-.062-.078l.648-5.308q.016-.078.086-.078h.25q.07 0 .07.078l-.219 1.748q0 .016.016.023.016 0 .023-.016.156-.18.367-.273.211-.094.437-.094zm.492 1.194q.008-.047.008-.141 0-.312-.18-.5-.172-.187-.461-.187-.312 0-.539.234-.219.226-.265.593l-.203 1.678q-.008.047-.008.14 0 .304.164.492.164.187.445.187.32 0 .554-.226.234-.234.281-.593z"/><use xlink:href="#N" x="92.285" y="-46.554"/><use xlink:href="#V" x="81.821" y="-83.598"/><use xlink:href="#m" x="-12.56" y="-37.111"/><path d="M84.327 188.331q-.461 0-.734-.265-.265-.273-.265-.718 0-.062.016-.187l.211-1.717q.062-.515.414-.843.351-.328.851-.328.461 0 .734.265.273.258.273.648 0 .086-.008.133v.047q-.016.078-.086.078l-.25.016q-.039 0-.062-.023-.016-.023-.008-.055l.008-.047q.031-.281-.148-.484-.18-.211-.492-.211-.32 0-.554.234-.226.226-.273.593l-.203 1.678q-.008.047-.008.14 0 .304.164.492.172.187.461.187.32 0 .546-.203.234-.211.265-.492l.008-.039q.016-.078.086-.078h.25q.078 0 .062.078l-.008.062q-.031.281-.203.523-.164.234-.445.375-.273.141-.601.141z"/><use xlink:href="#R" x="125.258" y="-83.597"/><use xlink:href="#G" x="146.876" y="-46.554"/><use xlink:href="#f" x="23.538" y="-93.153"/><use xlink:href="#V" x="101.779" y="-83.598"/><use xlink:href="#m" x="7.399" y="-37.111"/><use xlink:href="#H" x="157.367" y="-46.554"/><use xlink:href="#N" x="121.438" y="-46.554"/><use xlink:href="#N" x="122.757" y="-46.554"/><use xlink:href="#R" x="144.911" y="-83.597"/><use xlink:href="#t"/><use xlink:href="#g" x="77.225" y="-102.78"/><use xlink:href="#g" x="79.762" y="-102.78"/><use xlink:href="#E" x="254.974" y="-56.181"/><use xlink:href="#i" x="70.466" y="-102.78"/><use xlink:href="#G" x="254.974" y="-56.181"/><use xlink:href="#H" x="254.974" y="-56.182"/><use xlink:href="#Q" x="244.736" y="-93.225"/><use xlink:href="#u"/><use xlink:href="#m" x="117.612" y="-46.739"/><use xlink:href="#G" x="269.555" y="-56.181"/><use xlink:href="#K" x="254.974" y="-56.181"/><use xlink:href="#I" x="267.815" y="-56.181"/><use xlink:href="#j" x="147.384" y="-112.331"/><use xlink:href="#n" x="130.904" y="-46.739"/><use xlink:href="#H" x="286.016" y="-56.182"/><use xlink:href="#D" x="300.073" y="-56.181"/><use xlink:href="#b" x="236.214" y="-140.181"/><path d="M238.843 180.202q-.016 0-.031-.023-.016-.023-.008-.055l.023-.203q.016-.078.086-.078h.008q.226-.008.359-.101.141-.094.258-.336.117-.234.281-.742.008-.016 0-.023 0-.016 0-.023l-.492-3.825v-.023q0-.062.078-.062h.265q.031 0 .047.023.023.016.023.047l.351 3.255q0 .023.008.023.016 0 .023-.023l1.14-3.255q.023-.07.094-.07l.273.008q.039 0 .047.031.016.023 0 .055l-1.584 4.238q-.195.507-.351.749-.148.242-.343.328-.187.086-.515.086zm-50.274 8.052q-.476 0-.765-.304-.281-.312-.281-.827 0-.078.016-.234l.016-.164q.016-.078.086-.078h.242q.039 0 .055.023.023.023.016.055l-.023.148q-.008.062-.008.18 0 .39.187.617.187.226.5.226.258 0 .476-.141.219-.148.343-.414.133-.265.133-.593 0-.234-.094-.414-.094-.187-.234-.32-.141-.141-.461-.422-.32-.273-.5-.453-.172-.18-.289-.414-.109-.242-.109-.546 0-.07.016-.226.078-.601.445-.944.367-.343.882-.343.492 0 .773.312.289.304.289.835 0 .07-.016.242l-.023.195q-.016.078-.086.078h-.25q-.07 0-.07-.078l.023-.195q.016-.14.016-.203 0-.375-.187-.601-.187-.226-.515-.226-.336 0-.585.25-.25.242-.304.687-.008.055-.008.156 0 .312.164.539.164.219.601.585.367.312.546.507.187.187.289.398.101.211.101.492 0 .062-.016.219-.078.64-.461 1.023-.382.375-.929.375zm4.464-1.96q-.016.078-.086.078h-1.741q-.023 0-.039.031l-.078.663q-.008.047-.008.141 0 .304.164.492.172.187.461.187.265 0 .476-.164.211-.164.304-.429.039-.07.094-.07l.234.016q.031 0 .047.016.023.016.016.047 0 .023-.008.031-.125.429-.445.679-.32.242-.757.242-.461 0-.734-.265-.265-.265-.265-.71 0-.062.016-.187l.211-1.725q.062-.515.414-.843.351-.328.851-.328.461 0 .726.273.273.265.273.71 0 .062-.016.187zm-.913-1.733q-.32 0-.554.234-.226.226-.273.593l-.07.593q0 .016.008.023.008.008.016.008h1.389q.031 0 .031-.031l.078-.593q.008-.047.008-.133 0-.32-.172-.507-.172-.187-.461-.187zm-.141-.827q-.047 0-.062-.023-.008-.031.023-.07l.578-.859q.039-.055.094-.055h.203q.047 0 .055.031.016.023-.008.062l-.632.859q-.039.055-.094.055z"/><use xlink:href="#N" x="210.296" y="-46.631"/><use xlink:href="#u" x="-12.286" y="9.55"/><use xlink:href="#v"/><use xlink:href="#G" x="257.066" y="-46.631"/><use xlink:href="#H" x="257.066" y="-46.631"/><use xlink:href="#E" x="265.832" y="-46.63"/><use xlink:href="#m" x="114.903" y="-37.188"/><use xlink:href="#K" x="250.291" y="-46.631"/><use xlink:href="#M" x="236.772" y="-46.631"/><use xlink:href="#w"/><use xlink:href="#O" x="238.568" y="-46.631"/><use xlink:href="#i" x="100.142" y="-93.23"/><use xlink:href="#Q" x="270.885" y="-83.674"/><use xlink:href="#O" x="248.73" y="-46.631"/><use xlink:href="#m" x="143.885" y="-37.188"/><use xlink:href="#t" x="1.318" y="46.228"/><use xlink:href="#g" x="78.543" y="-56.552"/><use xlink:href="#g" x="81.08" y="-56.552"/><use xlink:href="#d" x="119.459" y="-47.002"/><use xlink:href="#i" x="71.784" y="-56.553"/><use xlink:href="#G" x="256.292" y="-9.954"/><use xlink:href="#H" x="256.292" y="-9.954"/><use xlink:href="#l" x="118.93" y="-0.511"/><path d="M210.985 222.972q-.016.078-.086.078h-1.741q-.023 0-.039.031l-.078.663q-.008.047-.008.14 0 .304.164.492.172.187.461.187.265 0 .476-.164.211-.164.304-.429.039-.07.094-.07l.234.016q.031 0 .047.016.023.016.016.047 0 .023-.008.031-.125.429-.445.679-.32.242-.757.242-.461 0-.734-.265-.265-.265-.265-.71 0-.062.016-.187l.211-1.725q.063-.515.414-.843.351-.328.851-.328.461 0 .726.273.273.265.273.71 0 .063-.016.187zm-.913-1.733q-.32 0-.554.234-.226.226-.273.593l-.07.593q0 .016.008.023.008.008.016.008h1.389q.031 0 .031-.031l.078-.593q.008-.047.008-.133 0-.32-.172-.507-.172-.187-.461-.187z"/><use xlink:href="#m" x="118.93" y="-0.511"/><use xlink:href="#G" x="270.873" y="-9.954"/><path d="M220.679 219.483q.008-.031.031-.055.023-.023.055-.023h.25q.039 0 .055.023.023.023.016.055l-.656 5.308q0 .031-.023.055-.023.023-.062.023h-.25q-.031 0-.055-.023-.016-.023-.008-.055l.023-.219q.008-.016-.008-.016-.008-.008-.023.008-.156.18-.367.273-.211.094-.437.094-.422 0-.663-.265-.242-.273-.242-.71 0-.125.008-.187l.211-1.725q.062-.523.39-.843.328-.328.796-.328.226 0 .406.094.187.094.304.273.008.016.023.016.016-.008.016-.023zm-1.327 5.081q.312 0 .539-.226.226-.226.265-.593l.211-1.678q.008-.047.008-.148 0-.304-.164-.492-.164-.187-.445-.187-.328 0-.562.234-.234.226-.281.593l-.203 1.678q-.008.047-.008.14 0 .304.172.492.18.187.468.187z"/><use xlink:href="#e" x="131.355" y="-47.002"/><path d="M228.204 224.869q-.031 0-.055-.016-.023-.016-.031-.047l-.531-2.474q0-.023-.023-.023h-.749q-.023 0-.039.031l-.297 2.451q-.016.078-.086.078h-.25q-.07 0-.07-.078l.656-5.308q.016-.078.086-.078h1.171q.468 0 .742.328.273.32.273.859 0 .187-.016.281-.062.523-.328.89-.265.367-.656.5-.031.008-.031.039l.554 2.482v.016q0 .07-.07.07zm-1.077-5.097q-.023 0-.039.031l-.258 2.131q0 .031.023.031h.773q.273 0 .492-.164.226-.164.351-.461.133-.304.133-.687 0-.406-.187-.64-.187-.242-.515-.242z"/><use xlink:href="#n" x="131.442" y="-0.511"/><use xlink:href="#M" x="253.786" y="-9.953"/><use xlink:href="#l" x="150.799" y="-0.511"/><path d="M188.521 234.481q-.476 0-.765-.304-.281-.312-.281-.827 0-.078.016-.234l.016-.164q.016-.078.086-.078h.242q.039 0 .055.023.023.023.016.055l-.023.148q-.008.063-.008.18 0 .39.187.617.187.226.5.226.258 0 .476-.14.219-.148.343-.414.133-.265.133-.593 0-.234-.094-.414-.094-.187-.234-.32-.141-.141-.461-.422-.32-.273-.5-.453-.172-.18-.289-.414-.109-.242-.109-.546 0-.07.016-.226.078-.601.445-.944.367-.343.882-.343.492 0 .773.312.289.304.289.835 0 .07-.016.242l-.023.195q-.016.078-.086.078h-.25q-.07 0-.07-.078l.023-.195q.016-.14.016-.203 0-.375-.187-.601-.187-.226-.515-.226-.336 0-.585.25-.25.242-.304.687-.008.055-.008.156 0 .312.164.539.164.219.601.585.367.312.546.507.187.187.289.398.101.211.101.492 0 .062-.016.219-.078.64-.461 1.023-.382.375-.929.375zm4.465-1.959q-.016.078-.086.078h-1.741q-.023 0-.039.031l-.078.663q-.008.047-.008.141 0 .304.164.492.172.187.461.187.265 0 .476-.164.211-.164.304-.429.039-.07.094-.07l.234.016q.031 0 .047.016.023.016.016.047 0 .023-.008.031-.125.429-.445.679-.32.242-.757.242-.461 0-.734-.265-.265-.265-.265-.71 0-.062.016-.187l.211-1.725q.063-.515.414-.843.351-.328.851-.328.461 0 .726.273.273.265.273.71 0 .063-.016.187zm-.913-1.733q-.32 0-.554.234-.226.226-.273.593l-.07.593q0 .016.008.023.008.008.016.008h1.389q.031 0 .031-.031l.078-.593q.008-.047.008-.133 0-.32-.172-.507-.172-.187-.461-.187zm-.141-.827q-.047 0-.062-.023-.008-.031.023-.07l.578-.859q.039-.055.094-.055h.203q.047 0 .055.031.016.023-.008.063l-.632.859q-.039.055-.094.055z"/><use xlink:href="#N" x="210.248" y="-0.403"/><use xlink:href="#p" x="113.711" y="-0.511"/><use xlink:href="#q" x="110.98" y="-0.511"/><use xlink:href="#G" x="257.018" y="-0.403"/><use xlink:href="#x"/><use xlink:href="#o" x="130.626" y="-0.511"/><use xlink:href="#m" x="114.855" y="9.039"/><path d="M214.63 229.033q.008-.031.031-.055.023-.023.055-.023h.25q.039 0 .055.023.023.023.016.055l-.656 5.308q0 .031-.023.055-.023.023-.062.023h-.25q-.031 0-.055-.023-.016-.023-.008-.055l.023-.219q.008-.016-.008-.016-.008-.008-.023.008-.156.18-.367.273-.211.094-.437.094-.422 0-.663-.265-.242-.273-.242-.71 0-.125.008-.187l.211-1.725q.062-.523.39-.843.328-.328.796-.328.226 0 .406.094.187.094.304.273.008.016.023.016.016-.008.016-.023zm-1.327 5.081q.312 0 .539-.226.226-.226.265-.593l.211-1.678q.008-.047.008-.148 0-.304-.164-.492-.164-.187-.445-.187-.328 0-.562.234-.234.226-.281.593l-.203 1.678q-.008.047-.008.141 0 .304.172.492.18.187.468.187z"/><use xlink:href="#M" x="236.724" y="-0.403"/><use xlink:href="#w" x="-0.048" y="46.228"/><path d="M225.425 230.563q.016-.078.086-.078h.25q.07 0 .07.078l-.468 3.778q0 .031-.023.055-.023.023-.062.023h-.25q-.031 0-.055-.023-.016-.023-.008-.055l.039-.304q0-.023-.016-.023-.016-.008-.023.016-.148.219-.367.336-.219.117-.468.117-.422 0-.656-.258-.234-.258-.234-.695 0-.062.016-.219l.211-1.717q.062-.523.375-.843.32-.328.788-.328.25 0 .437.117.187.117.289.336.008.023.016.023.016-.008.023-.031zm-1.14 3.551q.312 0 .539-.226.226-.226.265-.593l.211-1.678q.008-.047.008-.148 0-.304-.164-.492-.164-.187-.445-.187-.328 0-.562.234-.226.226-.273.593l-.203 1.678q-.008.047-.008.141 0 .304.172.492.172.187.461.187z"/><use xlink:href="#i" x="100.094" y="-47.002"/><use xlink:href="#Q" x="270.837" y="-37.447"/><use xlink:href="#O" x="248.682" y="-0.403"/><use xlink:href="#m" x="143.837" y="9.039"/><use xlink:href="#y"/><use xlink:href="#Z" x="211.526" y="-47.535"/><use xlink:href="#V" x="198.185" y="-0.579"/><use xlink:href="#i" x="70.224" y="-10.135"/><use xlink:href="#G" x="254.733" y="36.464"/><use xlink:href="#i" x="74.353" y="-10.135"/><use xlink:href="#R" x="240.217" y="-0.579"/><use xlink:href="#X" x="253.095" y="-10.129"/><use xlink:href="#g" x="97.808" y="-10.135"/><use xlink:href="#R" x="249.162" y="-0.579"/><use xlink:href="#k" x="158.2" y="45.907"/><path d="M220.446 271.349q-.476 0-.765-.304-.281-.312-.281-.827 0-.078.016-.234l.016-.164q.016-.078.086-.078h.242q.039 0 .055.023.023.023.016.055l-.023.148q-.008.062-.008.18 0 .39.187.617.187.226.5.226.258 0 .476-.14.219-.148.343-.414.133-.265.133-.593 0-.234-.094-.414-.094-.187-.234-.32-.14-.14-.461-.421-.32-.273-.5-.453-.172-.18-.289-.414-.109-.242-.109-.546 0-.07.016-.226.078-.601.445-.944.367-.343.882-.343.492 0 .773.312.289.304.289.835 0 .07-.016.242l-.023.195q-.016.078-.086.078h-.25q-.07 0-.07-.078l.023-.195q.016-.14.016-.203 0-.375-.187-.601-.187-.226-.515-.226-.336 0-.585.25-.25.242-.304.687-.008.055-.008.156 0 .312.164.539.164.219.601.585.367.312.546.507.187.187.289.398.101.211.101.492 0 .062-.016.219-.078.64-.461 1.023-.382.375-.929.375z"/><use xlink:href="#y" x="37.201"/><use xlink:href="#P" x="278.347" y="-0.579"/><use xlink:href="#x" x="27.437" y="36.867"/><use xlink:href="#i" x="105.629" y="-10.135"/><use xlink:href="#P" x="285.114" y="-0.579"/><use xlink:href="#J" x="281.787" y="36.465"/></g><use xlink:href="#z"/><use xlink:href="#AA"/><use xlink:href="#AB"/><use xlink:href="#AC"/><use xlink:href="#AD"/><use xlink:href="#AE"/><use xlink:href="#AF"/><use xlink:href="#AG"/><use xlink:href="#AH"/><path d="M96.346 256.012q0 .055-.044.099-.033.033-.088.033H93.92q-.055 0-.055.055v1.735q0 .055.055.055h1.318q.055 0 .088.044.044.033.044.088v1.065q0 .055-.044.099-.033.033-.088.033H93.92q-.055 0-.055.055v1.746q0 .055.055.055h2.295q.055 0 .088.044.044.033.044.088v1.065q0 .055-.044.099-.033.033-.088.033h-3.766q-.055 0-.099-.033-.033-.044-.033-.099v-7.422q0-.055.033-.088.044-.044.099-.044h3.766q.055 0 .088.044.044.033.044.088z"/><use xlink:href="#AC" x="34.927"/><use xlink:href="#AI"/><use xlink:href="#AI" x="5.172"/><use xlink:href="#AC" x="50.617"/><path d="M123.444 254.947q0-.055.033-.088.044-.044.099-.044h1.274q.055 0 .088.044.044.033.044.088v7.422q0 .055-.044.099-.033.033-.088.033H123.4q-.11 0-.143-.11l-1.361-4.249q-.011-.033-.044-.022-.022 0-.022.033l.011 4.216q0 .055-.044.099-.033.033-.088.033h-1.274q-.055 0-.099-.033-.033-.044-.033-.099v-7.422q0-.055.033-.088.044-.044.099-.044h1.438q.11 0 .143.11l1.372 4.249q.011.033.033.033.033-.011.033-.044z"/><use xlink:href="#AJ"/><use xlink:href="#AA" x="78.625"/><use xlink:href="#z" x="115.852" y="-0.89"/><use xlink:href="#AA" x="115.852" y="-0.89"/><use xlink:href="#AK"/><use xlink:href="#AC" x="116.182" y="-0.89"/><use xlink:href="#AI" x="81.256" y="-0.89"/><use xlink:href="#AH" x="103.917" y="-0.89"/><use xlink:href="#AL"/><use xlink:href="#z" x="155.313" y="-0.89"/><use xlink:href="#AG" x="123.164" y="-0.89"/><use xlink:href="#AM"/><use xlink:href="#AH" x="130.466" y="-0.89"/><use xlink:href="#AA" x="170.333" y="-0.89"/><use xlink:href="#AF" x="147.869" y="-0.89"/><use xlink:href="#AN"/><use xlink:href="#AO"/><use xlink:href="#AG" x="161.275" y="-0.89"/><use xlink:href="#AP"/><use xlink:href="#AA" x="201.593" y="-0.89"/><use xlink:href="#AF" x="179.129" y="-0.89"/><use xlink:href="#z" x="-128.831" y="46.423"/><use xlink:href="#AA" x="-128.831" y="46.423"/><use xlink:href="#AD" x="-138.855" y="46.423"/><use xlink:href="#AC" x="-128.787" y="46.423"/><use xlink:href="#AI" x="-163.713" y="46.423"/><use xlink:href="#AP" x="-302.327" y="47.313"/><use xlink:href="#AC" x="-112.679" y="46.423"/><use xlink:href="#AQ"/><use xlink:href="#AC" x="-103.687" y="46.423"/><use xlink:href="#z" x="-81.772" y="46.423"/><use xlink:href="#AH" x="-114.25" y="46.423"/><use xlink:href="#AA" x="-74.383" y="46.423"/><use xlink:href="#AF" x="-94.651" y="46.423"/><path d="M-7.297 301.37q0-.055.033-.088.044-.044.099-.044h1.285q.055 0 .088.044.044.033.044.088v7.422q0 .055-.044.099-.033.033-.088.033h-1.285q-.055 0-.099-.033-.033-.044-.033-.099v-2.997q0-.055-.055-.055H-8.45q-.055 0-.055.055v2.997q0 .055-.044.099-.033.033-.088.033h-1.285q-.055 0-.099-.033-.033-.044-.033-.099v-7.422q0-.055.033-.088.044-.044.099-.044h1.285q.055 0 .088.044.044.033.044.088v2.986q0 .055.055.055h1.098q.055 0 .055-.055z"/><use xlink:href="#AO" x="-245.463" y="47.313"/><use xlink:href="#AO" x="-240.27" y="47.313"/><path d="M9.864 301.238q.055 0 .088.044.044.033.044.088v1.065q0 .055-.044.099-.033.033-.088.033H8.491q-.055 0-.055.055v6.171q0 .055-.044.099-.033.033-.088.033H7.02q-.055 0-.099-.033-.033-.044-.033-.099v-6.171q0-.055-.055-.055H5.516q-.055 0-.099-.033-.033-.044-.033-.099v-1.065q0-.055.033-.088.044-.044.099-.044z"/><use xlink:href="#AA" x="-41.707" y="46.423"/><use xlink:href="#AI" x="-89.062" y="46.423"/><use xlink:href="#z" x="-115.567" y="-0.241"/><use xlink:href="#AA" x="-115.567" y="-0.241"/><use xlink:href="#AR"/><use xlink:href="#z" x="-98.691" y="-0.241"/><use xlink:href="#z" x="-94.014" y="-0.241"/><use xlink:href="#AG" x="-126.163" y="-0.241"/><use xlink:href="#AA" x="-91.488" y="-0.241"/><use xlink:href="#AM" x="-242.322" y="0.649"/><use xlink:href="#AR" x="29.184"/><use xlink:href="#z" x="-69.507" y="-0.241"/><use xlink:href="#AR" x="39.01"/><use xlink:href="#AP" x="-260.307" y="0.649"/><use xlink:href="#AC" x="-70.66" y="-0.241"/><path d="M-.841 262.26q-.055 0-.099-.033-.033-.044-.033-.099v-7.422q0-.055.033-.088.044-.044.099-.044H.444q.055 0 .088.044.044.033.044.088v7.422q0 .055-.044.099-.033.033-.088.033zm4.37.088q-.637 0-1.12-.253-.483-.253-.747-.703-.264-.461-.264-1.054v-.318q0-.055.033-.088.044-.044.099-.044h1.263q.055 0 .088.044.044.033.044.088v.242q0 .34.176.549.176.209.439.209.264 0 .439-.198.176-.198.176-.516 0-.329-.22-.56-.22-.242-.856-.703-.549-.395-.889-.703-.34-.307-.582-.758-.242-.45-.242-1.043 0-.933.582-1.493.582-.56 1.537-.56.966 0 1.548.582.593.582.593 1.526v.264q0 .055-.044.099-.033.033-.088.033H4.232q-.055 0-.099-.033-.033-.044-.033-.099v-.296q0-.34-.176-.538-.165-.209-.439-.209-.264 0-.428.198-.165.187-.165.527 0 .329.209.582.209.253.823.703.681.505 1.021.823.351.307.538.692.198.373.198.9 0 .966-.593 1.537-.593.571-1.559.571z"/><use xlink:href="#AS"/><use xlink:href="#AP" x="-307.881" y="-36.516"/><use xlink:href="#AA" x="-106.289" y="-37.406"/><use xlink:href="#AM" x="-257.122" y="-36.516"/><use xlink:href="#AC" x="-106.497" y="-37.406"/><use xlink:href="#AL" x="-235.273" y="-36.516"/><use xlink:href="#AA" x="-82.441" y="-37.406"/><use xlink:href="#AT"/><use xlink:href="#AO" x="-258.528" y="-36.516"/><use xlink:href="#z" x="-60.427" y="-37.406"/><use xlink:href="#z" x="-55.749" y="-37.406"/><use xlink:href="#AG" x="-87.898" y="-37.406"/><path d="M3.255 218.606q0 .055-.044.099-.033.033-.088.033H.829q-.055 0-.055.055v1.735q0 .055.055.055h1.318q.055 0 .088.044.044.033.044.088v1.065q0 .055-.044.099-.033.033-.088.033H.829q-.055 0-.055.055v1.746q0 .055.055.055h2.295q.055 0 .088.044.044.033.044.088v1.065q0 .055-.044.099-.033.033-.088.033H-.643q-.055 0-.099-.033-.033-.044-.033-.099v-7.422q0-.055.033-.088.044-.044.099-.044h3.766q.055 0 .088.044.044.033.044.088z"/><use xlink:href="#z" x="-121.124" y="-93.436"/><use xlink:href="#AA" x="-121.124" y="-93.436"/><use xlink:href="#AO" x="-302.349" y="-92.546"/><use xlink:href="#z" x="-104.248" y="-93.436"/><use xlink:href="#z" x="-99.571" y="-93.436"/><use xlink:href="#AG" x="-131.719" y="-93.436"/><use xlink:href="#AA" x="-97.045" y="-93.436"/><path d="M-35.384 167.736q.022.044.022.066 0 .088-.11.088h-1.065q-.099 0-.154-.099l-.889-1.724q-.022-.066-.022-.088 0-.044.022-.088l.889-1.724q.055-.099.154-.099h1.065q.077 0 .099.044.022.044-.011.11l-.9 1.724q-.011.033 0 .066zm1.779 0q.022.044.022.066 0 .088-.11.088h-1.065q-.099 0-.154-.099l-.889-1.724q-.022-.066-.022-.088 0-.044.022-.088l.889-1.724q.055-.099.154-.099h1.065q.077 0 .099.044.022.044-.011.11l-.911 1.724q-.011.033 0 .066z"/><use xlink:href="#AC" x="-96.946" y="-93.436"/><use xlink:href="#z" x="-75.031" y="-93.436"/><use xlink:href="#z" x="-70.354" y="-93.436"/><use xlink:href="#AI" x="-120.322" y="-93.436"/><use xlink:href="#AC" x="-74.877" y="-93.436"/><use xlink:href="#AG" x="-89.788" y="-93.436"/><use xlink:href="#AH" x="-89.788" y="-93.436"/><path d="M6.558 162.576q0 .055-.044.099-.033.033-.088.033H4.132q-.055 0-.055.055v1.735q0 .055.055.055H5.45q.055 0 .088.044.044.033.044.088v1.065q0 .055-.044.099-.033.033-.088.033H4.132q-.055 0-.055.055v1.746q0 .055.055.055h2.295q.055 0 .088.044.044.033.044.088v1.065q0 .055-.044.099-.033.033-.088.033H2.661q-.055 0-.099-.033-.033-.044-.033-.099v-7.422q0-.055.033-.088.044-.044.099-.044h3.766q.055 0 .088.044.044.033.044.088zm.956 5.314q-.077 0-.099-.044-.022-.044.011-.11l.911-1.724q.011-.033 0-.066l-.911-1.724q-.022-.044-.022-.066 0-.088.11-.088h1.065q.11 0 .154.099l.889 1.724q.022.022.022.088 0 .055-.022.088l-.889 1.724q-.044.099-.154.099zm1.779 0q-.077 0-.099-.044-.022-.044.011-.11l.911-1.724q.011-.033 0-.066l-.911-1.724q-.022-.044-.022-.066 0-.088.11-.088h1.065q.11 0 .154.099l.889 1.724q.022.022.022.088 0 .055-.022.088l-.889 1.724q-.044.099-.154.099z"/><use xlink:href="#AI" x="88.734" y="-47.298"/><use xlink:href="#AK" x="23.212" y="-46.408"/><use xlink:href="#AS" x="268.466" y="-9.892"/><use xlink:href="#AN" x="-25.614" y="-46.408"/><use xlink:href="#AL" x="18.798" y="-46.408"/><use xlink:href="#z" x="174.112" y="-47.298"/><use xlink:href="#AG" x="141.963" y="-47.298"/><use xlink:href="#AM" x="18.798" y="-46.408"/><use xlink:href="#AK" x="-4.485" y="-92.509"/><use xlink:href="#AC" x="111.698" y="-93.399"/><use xlink:href="#AI" x="76.771" y="-93.399"/><use xlink:href="#AH" x="99.433" y="-93.399"/><use xlink:href="#AL" x="-4.485" y="-92.509"/><use xlink:href="#z" x="150.829" y="-93.399"/><use xlink:href="#AG" x="118.68" y="-93.399"/><use xlink:href="#AM" x="-4.485" y="-92.509"/><use xlink:href="#AG" x="128.507" y="-93.399"/><use xlink:href="#AP" x="-32.768" y="-92.509"/><path d="M227.73 161.416q.055 0 .088.044.044.033.044.088v1.065q0 .055-.044.099-.033.033-.088.033h-1.372q-.055 0-.055.055v6.171q0 .055-.044.099-.033.033-.088.033h-1.285q-.055 0-.099-.033-.033-.044-.033-.099V162.8q0-.055-.055-.055h-1.318q-.055 0-.099-.033-.033-.044-.033-.099v-1.065q0-.055.033-.088.044-.044.099-.044z"/><use xlink:href="#AK" x="53.301" y="-92.509"/><use xlink:href="#AA" x="181.396" y="-93.399"/><use xlink:href="#AF" x="161.128" y="-93.399"/><use xlink:href="#AE" x="171.152" y="-93.399"/><path d="M252.588 169.091q-.055 0-.099-.033-.033-.044-.033-.099v-2.855l-.011-.066-1.537-4.469q-.011-.022-.011-.055 0-.099.121-.099h1.351q.121 0 .154.11l.681 2.624q.011.033.033.033.022 0 .033-.033l.681-2.624q.033-.11.154-.11h1.351q.066 0 .099.044.033.033.011.11l-1.548 4.469-.011.066v2.855q0 .055-.044.099-.033.033-.088.033z"/></g><use xlink:href="#AU" transform="translate(-235.244 4.335)" clip-path="url(#C)" fill="none" class="G H"/><g class="I"><path d="M-42.074 122.787q-.058.058-.029.117.029.058.117.058h5.837q.146 0 .233.117.117.088.117.233v3.444q0 .146-.117.263-.088.088-.233.088H-47.59q-.146 0-.263-.088-.088-.117-.088-.263v-3.561q0-.204.146-.438-.088.117 1.518-1.78 1.109-1.313 2.16-2.598 1.051-1.313 1.722-2.306 1.459-2.247 1.459-3.853 0-.817-.321-1.226-.292-.409-.788-.409-.496 0-.817.409-.292.409-.263 1.051v1.255q0 .146-.117.263-.088.088-.233.088h-4.203q-.146 0-.263-.088-.088-.117-.088-.263v-1.459q.146-2.422 1.868-3.911 1.722-1.488 4.349-1.488 1.693 0 3.006.73 1.313.73 2.043 2.043.73 1.313.73 3.035 0 1.547-.496 2.889-.467 1.313-1.547 2.831-.876 1.255-2.831 3.444zm19.176-3.532q.058.438.058 1.43 0 1.109-.029 1.664-.029 2.335-1.634 3.677-1.605 1.313-4.29 1.313-2.481 0-4.028-1.197-1.518-1.226-1.81-3.648l-.058-.817q0-.35.35-.35h4.144q.321 0 .35.263v.175l.058.321q.146 1.109.992 1.109.467 0 .73-.292.292-.321.35-.905.029-.409.029-1.313 0-.817-.058-1.138-.058-.525-.35-.846-.263-.321-.7-.321-.379 0-.671.204-.263.175-.35.496-.088.321-.379.321h-4.174q-.146 0-.263-.088-.088-.117-.088-.263v-12.025q0-.146.088-.233.117-.117.263-.117h11.061q.146 0 .233.117.117.088.117.233v3.444q0 .146-.117.263-.088.088-.233.088h-6.421q-.146 0-.146.146v4.115q0 .088.058.117.058 0 .117-.058 1.022-.934 2.452-.934 1.985 0 3.152 1.343 1.167 1.343 1.197 3.707z"/><use xlink:href="#AV"/></g><use xlink:href="#AU" clip-path="url(#A)" transform="translate(8.996 4.233)" fill="none" class="G H"/><g class="I"><path d="M208.784 117.606q.146 0 .233.117.117.088.117.233v3.677q0 .146-.117.263-.088.088-.233.088h-.963q-.146 0-.146.146v4.524q0 .146-.117.263-.088.088-.233.088h-4.144q-.146 0-.263-.088-.088-.117-.088-.263v-4.524q0-.146-.146-.146h-7.413q-.146 0-.263-.088-.088-.117-.088-.263v-2.919q0-.233.058-.409l3.736-11.441q.088-.292.379-.292h4.436q.175 0 .263.117.088.117.029.292l-3.24 10.449q-.029.175.117.175h1.985q.146 0 .146-.146v-2.51q0-.146.088-.233.117-.117.263-.117h4.144q.146 0 .233.117.117.088.117.233v2.51q0 .146.146.146z"/><use xlink:href="#AW"/><use xlink:href="#AV" x="245.02" y="-0.102"/></g><use xlink:href="#AU" transform="translate(-113.239 4.04)" clip-path="url(#B)" fill="none" class="G H"/><g class="I"><path d="M85.652 118.464q.088.876.088 1.78 0 .671-.058 1.897-.117 2.218-1.664 3.561-1.547 1.343-4.057 1.343-1.722 0-3.065-.613-1.343-.642-2.101-1.78-.759-1.138-.788-2.598-.058-.992-.058-1.547 0-.35.35-.35h4.144q.35 0 .35.35 0 .409.058 1.051.058.613.35.963.292.35.759.35.467 0 .759-.321.321-.35.379-.934.029-.642.029-1.897 0-1.284-.058-1.868-.029-.555-.35-.876-.292-.35-.759-.35-.467 0-.992.467-.117.117-.233.117-.088 0-.263-.117l-2.131-2.218q-.117-.175-.117-.263 0-.117.117-.233l3.444-3.707q.117-.175-.058-.175h-5.02q-.146 0-.263-.088-.088-.117-.088-.263v-3.415q0-.146.088-.233.117-.117.263-.117H85.36q.146 0 .233.117.117.088.117.233v3.532q0 .233-.175.409l-3.152 3.648q-.117.175.058.175 1.313.088 2.218 1.226.905 1.138.992 2.743z"/><use xlink:href="#AW" x="-122.986" y="-0.193"/><use xlink:href="#AV" x="122.034" y="-0.295"/></g><g fill="#fff"><use xlink:href="#z" x="-3.435" y="-93.423"/><use xlink:href="#AA" x="-3.435" y="-93.423"/><use xlink:href="#AJ" x="-69.929" y="-93.423"/><path d="M63.255 169.166q-1.01 0-1.614-.593-.604-.593-.604-1.581v-3.513q0-.988.604-1.581.604-.593 1.614-.593 1.01 0 1.614.593.615.593.615 1.581v3.513q0 .988-.615 1.581-.604.593-1.614.593zm0-1.329q.307 0 .494-.209.187-.22.187-.571v-3.645q0-.351-.187-.56-.187-.22-.494-.22-.307 0-.494.22-.176.209-.176.56v3.645q0 .351.176.571.187.209.494.209z"/><use xlink:href="#AS" x="131.016" y="-56.017"/><path d="M74.63 169.078q-.121 0-.154-.11l-.845-3.03q-.022-.044-.055-.044h-.373q-.055 0-.055.055v2.997q0 .055-.044.099-.033.033-.088.033h-1.285q-.055 0-.099-.033-.033-.044-.033-.099v-7.422q0-.055.033-.088.044-.044.099-.044h2.218q.604 0 1.076.296.472.285.725.812.264.527.264 1.208 0 .648-.253 1.142-.242.494-.681.769-.022.011-.033.033-.011.011 0 .033l1.01 3.239.011.044q0 .11-.121.11zm-1.427-6.357q-.055 0-.055.055v1.878q0 .055.055.055h.494q.34 0 .549-.264.22-.274.22-.725 0-.461-.22-.725-.209-.274-.549-.274zm7.081-1.241q.044-.088.165-.088h1.274q.055 0 .088.044.044.033.044.088v7.422q0 .055-.044.099-.033.033-.088.033h-1.285q-.055 0-.099-.033-.033-.044-.033-.099v-4.93q0-.044-.022-.044-.022 0-.044.033l-.856 1.515q-.055.088-.088.088-.033 0-.088-.088l-.856-1.515q-.022-.033-.044-.033-.022 0-.022.044v4.93q0 .055-.044.099-.033.033-.088.033H76.87q-.055 0-.099-.033-.033-.044-.033-.099v-7.422q0-.055.033-.088.044-.044.099-.044h1.263q.11 0 .165.088l.977 1.746q.033.044.066 0z"/><use xlink:href="#AC" x="18.393" y="-93.423"/><use xlink:href="#AP" x="-160.319" y="-92.533"/><use xlink:href="#AH" x="6.6" y="-93.423"/><use xlink:href="#AB" x="41.692" y="-93.423"/><use xlink:href="#AC" x="41.692" y="-93.423"/><use xlink:href="#AD" x="41.691" y="-93.423"/><use xlink:href="#AE" x="41.691" y="-93.423"/><use xlink:href="#AF" x="41.692" y="-93.423"/><use xlink:href="#AG" x="41.691" y="-93.423"/><use xlink:href="#AH" x="41.691" y="-93.423"/><use xlink:href="#AA" x="81.558" y="-93.423"/><use xlink:href="#z" x="-2.778" y="-46.582"/><use xlink:href="#AA" x="-2.778" y="-46.582"/><use xlink:href="#AQ" x="100.504" y="-93.005"/><use xlink:href="#AA" x="9.585" y="-46.582"/><use xlink:href="#AI" x="-37.77" y="-46.582"/><use xlink:href="#AT" x="97.197" y="-9.176"/><use xlink:href="#AS" x="141.829" y="-9.176"/><path d="M86.376 209.43q0 .055-.044.099-.033.033-.088.033H83.95q-.055 0-.055.055v1.735q0 .055.055.055h1.318q.055 0 .088.044.044.033.044.088v1.065q0 .055-.044.099-.033.033-.088.033H83.95q-.055 0-.055.055v1.746q0 .055.055.055h2.295q.055 0 .088.044.044.033.044.088v1.065q0 .055-.044.099-.033.033-.088.033h-3.766q-.055 0-.099-.033-.033-.044-.033-.099v-7.422q0-.055.033-.088.044-.044.099-.044h3.766q.055 0 .088.044.044.033.044.088z"/><use xlink:href="#AS" x="151.832" y="-9.176"/><path d="M92.316 215.919q-.077 0-.099-.044-.022-.044 0-.11l1.493-3.656q.011-.033 0-.066l-1.493-3.656q-.011-.022-.011-.066 0-.088.11-.088h1.318q.11 0 .143.11l.736 2.108q.011.033.033.033.022 0 .033-.033l.736-2.108q.033-.11.143-.11h1.307q.077 0 .099.044.022.044 0 .11l-1.493 3.656q-.011.033 0 .066l1.493 3.656q.011.022.011.066 0 .088-.11.088h-1.307q-.11 0-.143-.11l-.736-2.097q-.011-.033-.033-.033-.022 0-.033.033l-.747 2.097q-.033.11-.143.11z"/><use xlink:href="#AB" x="40.372" y="-46.582"/><use xlink:href="#AC" x="40.372" y="-46.582"/><use xlink:href="#AD" x="40.372" y="-46.582"/><use xlink:href="#AE" x="40.372" y="-46.582"/><use xlink:href="#AF" x="40.372" y="-46.582"/><use xlink:href="#AG" x="40.372" y="-46.582"/><use xlink:href="#AH" x="40.372" y="-46.582"/><use xlink:href="#AA" x="80.239" y="-46.582"/><g class="B"><use xlink:href="#r" x="-112.651" y="-0.291"/><use xlink:href="#H" x="-0.958" y="-56.396"/><path d="M-51.3 174.571q.016-.078.086-.078h.25q.07 0 .07.078l-.656 5.308q0 .031-.023.055-.023.023-.062.023h-.25q-.031 0-.055-.023-.016-.023-.008-.055l.211-1.748q.008-.016-.008-.016-.008-.008-.023.008-.156.18-.367.273-.211.094-.437.094-.421 0-.671-.265-.242-.265-.242-.702 0-.062.016-.203l.211-1.717q.062-.523.39-.843.328-.328.796-.328.226 0 .406.094.187.094.304.273.008.016.023.016.016-.008.016-.023zm-1.14 3.551q.312 0 .539-.226.226-.226.265-.593l.211-1.686q.008-.047.008-.14 0-.304-.164-.492-.164-.187-.445-.187-.328 0-.562.234-.234.226-.273.585l-.211 1.686q-.008.047-.008.141 0 .304.172.492.18.187.468.187z"/><use xlink:href="#M" x="-28.972" y="-56.395"/><use xlink:href="#p" x="-128.381" y="-56.503"/><use xlink:href="#M" x="-22.782" y="-56.395"/><use xlink:href="#F" x="17.276" y="-56.396"/><use xlink:href="#v" x="-235.311" y="-9.765"/><use xlink:href="#H" x="19.796" y="-56.396"/><use xlink:href="#G" x="23.325" y="-56.396"/><use xlink:href="#F" x="27.454" y="-56.396"/><use xlink:href="#o" x="-102.49" y="-56.503"/><use xlink:href="#m" x="-118.261" y="-46.953"/><use xlink:href="#v" x="-218.904" y="-9.765"/><use xlink:href="#p" x="-99.134" y="-56.503"/><use xlink:href="#K" x="23.137" y="-56.395"/><use xlink:href="#F" x="46.515" y="-56.396"/><use xlink:href="#O" x="5.716" y="-56.395"/><use xlink:href="#G" x="49.644" y="-56.396"/><use xlink:href="#a" x="7.475" y="-140.395"/><use xlink:href="#N" x="-42.787" y="-46.845"/><use xlink:href="#H" x="-3.987" y="-46.845"/><use xlink:href="#L" x="-31.999" y="-46.845"/><use xlink:href="#M" x="-32" y="-46.845"/><use xlink:href="#I" x="-2.48" y="-46.845"/><use xlink:href="#M" x="-25.811" y="-46.845"/><use xlink:href="#F" x="14.247" y="-46.845"/><use xlink:href="#Q" x="1.995" y="-83.888"/><use xlink:href="#I" x="12.234" y="-46.845"/><use xlink:href="#m" x="-125.129" y="-37.402"/><use xlink:href="#G" x="26.814" y="-46.845"/><use xlink:href="#n" x="-125.13" y="-37.402"/><use xlink:href="#I" x="23.575" y="-46.845"/><use xlink:href="#c" x="12.42" y="-140.395"/><use xlink:href="#N" x="0.119" y="-46.845"/><use xlink:href="#O" x="0.12" y="-46.845"/><use xlink:href="#q" x="-99.024" y="-46.952"/><path d="M-6.661 186.08q-.016.078-.086.078h-1.741q-.023 0-.039.031l-.078.663q-.008.047-.008.141 0 .304.164.492.172.187.461.187.265 0 .476-.164.211-.164.304-.429.039-.07.094-.07l.234.016q.031 0 .047.016.023.016.016.047 0 .023-.008.031-.125.429-.445.679-.32.242-.757.242-.461 0-.734-.265-.265-.265-.265-.71 0-.062.016-.187l.211-1.725q.062-.515.414-.843.351-.328.851-.328.461 0 .726.273.273.265.273.71 0 .062-.016.187zm-.913-1.733q-.32 0-.554.234-.226.226-.273.593l-.07.593q0 .016.008.023.008.008.016.008h1.389q.031 0 .031-.031l.078-.593q.008-.047.008-.133 0-.32-.172-.507-.172-.187-.461-.187zm-.14-.827q-.047 0-.062-.023-.008-.031.023-.07l.578-.859q.039-.055.094-.055h.203q.047 0 .055.031.016.023-.008.062l-.632.859q-.039.055-.094.055z"/><use xlink:href="#I" x="41.676" y="-46.845"/><use xlink:href="#a" x="8.88" y="-130.844"/><use xlink:href="#I" x="-11.881" y="-37.294"/><use xlink:href="#G" x="-0.501" y="-37.295"/><use xlink:href="#N" x="-36.469" y="-37.294"/><use xlink:href="#H" x="2.332" y="-37.295"/><use xlink:href="#L" x="-25.681" y="-37.294"/><use xlink:href="#M" x="-25.682" y="-37.294"/><use xlink:href="#I" x="3.839" y="-37.294"/><use xlink:href="#M" x="-19.492" y="-37.294"/><use xlink:href="#F" x="20.566" y="-37.295"/><use xlink:href="#v" x="-232.021" y="9.336"/><use xlink:href="#O" x="-15.714" y="-37.294"/><use xlink:href="#F" x="30.37" y="-37.295"/><use xlink:href="#O" x="-10.429" y="-37.294"/><use xlink:href="#l" x="-107.392" y="-27.852"/><use xlink:href="#I" x="29.971" y="-37.294"/><use xlink:href="#N" x="1.926" y="-37.294"/><use xlink:href="#D" x="54.745" y="-37.294"/><use xlink:href="#O" x="6.196" y="-37.294"/><use xlink:href="#N" x="10.668" y="-37.294"/><path d="M-2.247 195.631q-.016.078-.086.078h-1.741q-.023 0-.039.031l-.078.663q-.008.047-.008.141 0 .304.164.492.172.187.461.187.265 0 .476-.164.211-.164.304-.429.039-.07.094-.07l.234.016q.031 0 .047.016.023.016.016.047 0 .023-.008.031-.125.429-.445.679-.32.242-.757.242-.461 0-.734-.265-.265-.265-.265-.71 0-.062.016-.187l.211-1.725q.062-.515.414-.843.351-.328.851-.328.461 0 .726.273.273.265.273.71 0 .062-.016.187zm-.913-1.733q-.32 0-.554.234-.226.226-.273.593l-.07.593q0 .016.008.023.008.008.016.008h1.389q.031 0 .031-.031l.078-.593q.008-.047.008-.133 0-.32-.172-.507-.172-.187-.461-.187zm-.14-.827q-.047 0-.062-.023-.008-.031.023-.07l.578-.859q.039-.055.094-.055h.203q.047 0 .055.031.016.023-.008.063l-.632.859q-.039.055-.094.055z"/></g><path d="M150.325 178.637h.876v59.605h-.876zM50.235 61.779q.124-.047.232-.047h1.875q.077 0 .124.062.062.047.062.124v10.477q0 .077-.062.139-.047.046-.124.046H50.53q-.077 0-.139-.046-.047-.062-.047-.139v-8.462q0-.062-.077-.062l-1.193.139h-.031q-.17 0-.17-.17l-.046-1.333q0-.155.139-.217zm6.355 10.973q-1.364 0-2.201-.852-.837-.868-.837-2.278v-4.929q0-1.41.837-2.263.837-.868 2.201-.868.899 0 1.596.387.697.387 1.069 1.1.387.713.387 1.643v4.929q0 .93-.387 1.643-.372.713-1.069 1.1-.697.387-1.596.387zm0-1.875q.387 0 .62-.31.248-.31.248-.821v-5.177q0-.511-.248-.821-.232-.31-.62-.31-.387 0-.62.31-.232.31-.232.821v5.177q0 .511.232.821.232.31.62.31zm10.09 1.828q-.899 0-1.581-.356-.682-.356-1.054-.992-.372-.651-.372-1.488v-.449q0-.077.047-.124.062-.062.139-.062h1.782q.077 0 .124.062.062.046.062.124v.341q0 .48.248.775.248.294.62.294.372 0 .62-.279.248-.279.248-.728 0-.465-.31-.79-.31-.341-1.209-.992-.775-.558-1.255-.992-.48-.434-.821-1.069-.341-.635-.341-1.472 0-1.317.821-2.108.821-.79 2.17-.79 1.364 0 2.185.821.837.821.837 2.154v.372q0 .077-.062.139-.047.047-.124.047h-1.782q-.077 0-.139-.047-.046-.062-.046-.139v-.418q0-.48-.248-.759-.232-.294-.62-.294-.372 0-.604.279-.232.263-.232.744 0 .465.294.821.294.356 1.162.992.961.713 1.441 1.162.496.434.759.976.279.527.279 1.271 0 1.364-.837 2.17-.837.806-2.201.806zm7.981-10.787q0-.077.046-.124.062-.062.139-.062h1.813q.077 0 .124.062.062.047.062.124v10.477q0 .077-.062.139-.046.046-.124.046h-1.813q-.077 0-.139-.046-.046-.062-.046-.139v-4.231q0-.077-.077-.077h-1.55q-.077 0-.077.077v4.231q0 .077-.062.139-.046.046-.124.046h-1.813q-.077 0-.139-.046-.047-.062-.047-.139V61.918q0-.077.047-.124.062-.062.139-.062h1.813q.077 0 .124.062.062.047.062.124v4.216q0 .077.077.077h1.55q.077 0 .077-.077z"/><use xlink:href="#AX"/><use xlink:href="#AX" x="7.331"/><path d="M98.886 61.732q.077 0 .124.062.062.047.062.124v1.503q0 .077-.062.139-.046.047-.124.047h-1.937q-.077 0-.077.077v8.71q0 .077-.062.139-.046.046-.124.046h-1.813q-.077 0-.139-.046-.046-.062-.046-.139v-8.71q0-.077-.077-.077h-1.86q-.077 0-.139-.047-.046-.062-.046-.139v-1.503q0-.077.046-.124.062-.062.139-.062zm6.928 1.69q0 .077-.062.139-.046.047-.124.047h-3.239q-.077 0-.077.077v2.449q0 .077.077.077h1.86q.077 0 .124.062.062.046.062.124V67.9q0 .077-.062.139-.046.047-.124.047h-1.86q-.077 0-.077.077v2.464q0 .077.077.077h3.239q.077 0 .124.062.062.046.062.124v1.503q0 .077-.062.139-.046.046-.124.046h-5.316q-.077 0-.139-.046-.046-.062-.046-.139V61.918q0-.077.046-.124.062-.062.139-.062h5.316q.077 0 .124.062.062.047.062.124zm5.378 9.159q-.17 0-.217-.155l-1.193-4.278q-.031-.062-.078-.062h-.527q-.078 0-.078.077v4.231q0 .077-.062.139-.046.046-.124.046H107.1q-.077 0-.139-.046-.046-.062-.046-.139V61.918q0-.077.046-.124.062-.062.139-.062h3.131q.852 0 1.519.418.666.403 1.023 1.147.372.744.372 1.705 0 .914-.356 1.612-.341.697-.961 1.085-.031.016-.046.046-.016.016 0 .047l1.426 4.572.016.062q0 .155-.17.155zm-2.015-8.974q-.078 0-.078.077v2.65q0 .077.078.077h.697q.48 0 .775-.372.31-.387.31-1.023 0-.651-.31-1.023-.294-.387-.775-.387zm10.508 7.006q-.031.031-.016.062.016.031.062.031h3.239q.078 0 .124.062.062.046.062.124v1.503q0 .077-.062.139-.046.046-.124.046h-5.735q-.078 0-.139-.046-.046-.062-.046-.139V70.83q0-.139.078-.232.62-.821.868-1.116 1.364-1.751 1.937-2.65.837-1.333.837-2.247 0-.527-.217-.806-.201-.294-.558-.294-.356 0-.573.294-.217.279-.201.728v.635q0 .077-.062.139-.046.047-.124.047h-1.844q-.078 0-.139-.047-.046-.062-.046-.139v-.728q.062-1.271.914-2.03.852-.775 2.17-.775 1.302 0 2.092.821.806.821.806 2.17 0 .806-.263 1.534-.248.728-.821 1.565-.434.635-1.488 1.984zm7.145 2.092q-1.364 0-2.154-.697-.775-.697-.775-1.906v-3.007q0-1.178.775-1.891.79-.713 2.154-.713 1.364 0 2.139.697.79.697.79 1.813v.279q0 .077-.062.139-.047.046-.124.046l-1.813.077q-.186 0-.186-.186v-.186q0-.341-.217-.573-.201-.232-.527-.232-.341 0-.542.248-.201.248-.201.651v2.666q0 .403.201.651.201.248.542.248.325 0 .527-.232.217-.248.217-.573v-.201q0-.077.046-.124.062-.062.139-.062l1.813.016q.077 0 .124.062.062.046.062.124v.356q0 1.147-.79 1.829-.775.682-2.139.682zm4.03-.124q-.077 0-.139-.046-.046-.062-.046-.139V61.918q0-.077.046-.124.062-.062.139-.062h1.813q.077 0 .124.062.062.047.062.124v10.477q0 .077-.062.139-.046.046-.124.046z"/></g></g></svg>