<svg xmlns="http://www.w3.org/2000/svg" width="292.748" height="277.46" viewBox="0 0 77.456 73.411" xmlns:v="https://vecta.io/nano"><path d="M7.279 61.887c.051-.116 1.389-.567 2.974-1.002l4.373-1.33c.821-.296 1.518-.473 1.549-.392.107.277-7.972 3.2-8.481 3.067-.28-.073-.467-.227-.415-.343zm23.143 9.823c-1.6-1.375-2.887-4.602-2.334-5.853.269-.608.786-.514 2.277.412.624.388 2.028 1.109 3.119 1.602 3.816 1.727 8.194 1.513 12.781-.623 2.1-.978 2.764-1.165 3.296-.93 2.297 1.015.122 4.321-3.909 5.944-2.588 1.042-4.775 1.31-8.716 1.068-3.78-.232-5.355-.624-6.513-1.619zM5.824 60.598c.235-.532 8.171-2.412 8.334-1.974.119.319-2.203 1.053-5.567 1.759-2.76.579-2.934.593-2.767.215zm-.957-1.108c.144-.325 1.058-.972 2.248-1.591 1.49-.774 4.223-1.402 6.22-1.428 1.618-.022 4.3.306 4.208.514-.027.062-.797.111-1.712.109-2.578-.005-7.542.954-9.385 1.812-.916.427-1.627.689-1.58.583zm9.975 4.265c.049-.11.487-.339.975-.51s1.495-.659 2.24-1.086c1.36-.78 2.074-.894 1.442-.231-.187.196-1.231.776-2.32 1.289-1.836.865-2.553 1.029-2.336.537zm-2.523-1.382c.088-.08 1.54-.643 3.225-1.25s2.9-.982 2.699-.832c-.811.604-5.434 2.516-5.749 2.378-.185-.082-.265-.215-.176-.295zm6.298 2.659c.084-.189.357-.44.608-.558s.069-.094-.404.053-.934.234-1.026.193c-.365-.161.377-1.222.998-1.428.63-.208.674-.189.897.388s.281.586 1.161.184c.509-.233 1.312-.63 1.784-.883 1.607-.861.976-.175-.914.994-1.981 1.225-3.392 1.705-3.105 1.057zM3.031 57.754c.031-.071.608-.304 1.283-.518 2.051-.652 3.402-.343 1.927.441-.963.511-3.428.571-3.21.077zm.876-1.947c1.753-.723 4.525-1.183 7.593-1.26 4.087-.102 4.703.215.854.44-3.447.201-7.729.848-8.647 1.305-.274.136-.615.196-.758.133s.289-.341.959-.618zM.532 54.245c.05-.112.414-.31.809-.438s1.764-.813 3.042-1.521 3.185-1.709 4.238-2.225l1.914-.938.481 1.288.481 1.288-.942.325c-1.158.4-9.833 2.549-9.996 2.477-.065-.029-.077-.144-.028-.257zm1.587.697c2.085-.689 3.17-.988 3.112-.857-.112.254-2.906 1.197-3.183 1.074-.157-.069-.13-.151.071-.217zM.697 52.32c1.252-1.209 7.518-6.395 8.106-6.71.515-.276.563-.256.994.41.249.385.345.808.212.941s-1.855 1.143-3.827 2.244-4.102 2.457-4.733 3.014C.145 53.37-.478 53.454.697 52.32zm24.23 9.8c-.84-.989-1.769-2.318-2.064-2.954-.574-1.238-.584-3.255-.027-5.258.325-1.168.317-1.189-.844-2.21-2.302-2.025-5.179-5.876-6.267-8.39-.868-2.006-1.035-2.78-1.077-4.998-.054-2.868.229-6.725.677-9.246.367-2.064.969-4.058 1.192-3.948.282.139.783 2.674.866 4.373.104 2.151.639 5.338 1.289 7.687.375 1.356.892 2.392 1.686 3.38 1.448 1.803 1.664 2.167 2.633 4.424.561 1.309.99 1.936 1.467 2.147 1.665.735 4.346-1.677 6.041-5.435 1.238-2.746 1.352-4.276.42-5.635l-.6-.875-2.061-.264c-3.024-.388-4.754-1.343-5.951-3.289-1.031-1.676-1.651-2.046-3.104-1.854l-1.022.135.406-.481c1.759-2.081 3.59-2.831 6.598-2.705 3.404.144 5.263 1.688 6.729 5.589.734 1.954 1.419 2.689 1.766 1.895.102-.233.379-1.686.616-3.228.371-2.411.357-2.999-.097-4.195-.679-1.79-2.13-3.77-3.058-4.175-1.412-.616-6.843-.293-10.71.637-.791.19-1.414.291-1.385.223.12-.272 3.587-1.915 4.354-2.063 1.453-.28 5.777-.426 8.577-.289 3.417.167 4.441-.198 5.38-1.922.371-.681.745-1.715.831-2.299s.212-1.082.279-1.108.196 1.178.287 2.676c.125 2.055.034 3.162-.371 4.512-.295.984-.517 2.192-.494 2.684.053 1.132-.883 3.256-2.104 4.775-.886 1.102-.992 1.385-1.722 4.59-1.415 6.213-2.249 11.866-1.911 12.957.4 1.289 1.345 1.771 3.775 1.924 1.244.078 3.477.082 4.963.009 2.443-.121 2.698-.19 2.658-.72-.098-1.296-1.574-9.403-2.258-12.401-.401-1.757-.763-3.839-.805-4.628-.069-1.295-.03-1.432.398-1.411.478.024 1.262 1.865 1.703 3.998l.195.944.929-1.255c.967-1.306 1.223-1.36.866-.183-.531 1.753-.578 4.489-.137 7.919.221 1.713.12 3.757-.313 6.376l-.196 1.185.704-.273c.426-.165.867-.615 1.117-1.139.227-.477.476-.839.553-.805.268.118-.131 4.99-.509 6.223l-.381 1.24-2.235.736-2.235.736.1 1.379c.07.958-.071 1.765-.46 2.646l-.56 1.268 1.006.638c2.762 1.751 6.068 1.542 8.737-.55.775-.608 1.44-1.175 1.477-1.259s-.299-.132-.749-.104c-1.197.073-5.654-.502-5.747-.741-.043-.112-.018-.22.057-.24s1.227-.238 2.56-.485c2.854-.529 5.576-1.616 5.904-2.359.128-.289.169-.986.091-1.547l-.141-1.021-3.907 1.584c-3.857 1.564-5.406 1.947-3.23.799 2.485-1.311 6.106-4.57 6.784-6.105l.311-.703.765 1.296c.928 1.572 1.705 3.931 1.791 5.436.104 1.842-.406 3.084-2.084 5.07-1.26 1.492-1.394 1.72-.824 1.402.585-.326.823-.296 1.687.215 1.334.789 3.449 2.594 3.337 2.848-.049.111-.263.08-.476-.068s-1.216-.71-2.231-1.247l-1.844-.976.277 1.153c.152.634.201 1.182.109 1.218s-.762-.38-1.487-.924l-1.319-.989-.992.413c-1.782.743-5.795.843-7.289.183-.307-.136-1.076-.084-1.708.114-1.44.453-2.951.431-4.057-.058-.588-.26-1.331-.277-2.383-.057a23.16 23.16 0 0 1-3.418.37c-2.732.071-4.116-.595-6.106-2.936zm8.035 1.5c1.227-.043 3.427-.742 4.48-1.424.56-.362.559-.472-.023-1.912-.405-1.003-.55-1.889-.424-2.578.213-1.159.263-1.121-3.167-2.385-1.432-.528-1.631-.899-1.94-3.624-.216-1.901-.264-2.001-1.04-2.174-2.737-.611-5.082-.339-5.309.617-.059.249.275.913.743 1.475 1.031 1.238 5.115 4.64 6.187 5.154.734.352.738.367.083.297-.38-.04-2.247-.748-4.15-1.573-2.49-1.079-3.495-1.419-3.586-1.213-.279.633-.013 2.819.387 3.172.666.589 3.35 1.353 5.413 1.542 1.032.094 1.844.245 1.805.335-.164.371-2.508 1.115-3.808 1.208-.769.055-1.427.167-1.463.248-.113.257 1.718 1.525 3.197 2.215.974.454 1.8.65 2.618.622zm6.519-3.91c.26-.588.258-1.015-.005-1.451-.343-.567-.401-.588-.713-.259-.403.425-.477.98-.235 1.778.265.877.545.857.954-.068zm1.223-5.309c.515-.223 1.493-.594 2.172-.824 1.199-.406 1.944-1.262 1.572-1.805-.191-.279-5.888-.554-8.252-.399-3.185.209-3.106 1.108.201 2.29 1.353.483 2.277.939 2.494 1.229.261.348.41.394.611.188.146-.15.687-.456 1.202-.679zM26.882 32.762c1.167.018 2.056-.383 2.787-1.26.506-.607.529-.802.196-1.663a4.06 4.06 0 0 0-3.194-2.574c-1.693-.261-2.525.141-2.889 1.395-.337 1.161-.104 2.122.737 3.046.753.826 1.227 1.038 2.363 1.056zm-1.764-1.875c-.577-.699-.507-1.906.147-2.569 1.08-1.093 3.058-.485 3.406 1.047.451 1.987-2.224 3.132-3.553 1.521zM1.133 49.62c6.136-4.627 7.275-5.339 7.522-4.702.174.449-5.753 4.764-7.726 5.624-1.316.574-1.223.153.204-.922zm-.741-1.195c1.245-1.627 2.786-3.035 3.214-2.936.284.065.393.255.286.498-.171.387-3.649 3.168-3.851 3.079-.057-.025.101-.313.351-.64zm15.346 6.289c-1.97-1.724-2.97-3.778-4.315-8.863-.679-2.567-1.442-7.015-1.489-8.685-.017-.604-.136-1.145-.264-1.201s-.866.073-1.641.287c-2.053.569-2.239.24-.484-.856.941-.587 1.323-1.342.523-1.032-.522.202-.796.042-.618-.361.082-.185.016-.469-.146-.63-.259-.258-.207-.377.436-.986.996-.945 1.123-1.289.408-1.107-.313.08-.093-.124.489-.452 1.371-.774 1.528-1.129.571-1.293l-.739-.127.896-.392.896-.392-.853-.198c-.469-.109-.83-.249-.802-.312s.648-.356 1.377-.651 1.622-.779 1.984-1.076c1.196-.982 2.138-1.476 2.505-1.314.255.112.251.286-.01.583-1.381 1.564-1.974 5.119-2.109 12.657-.05 2.798.057 3.589.707 5.231.422 1.064 1.452 3.009 2.291 4.324 1.546 2.424 2.904 3.752 4.606 4.504 1.327.586 1.889 2.078 1.291 3.431-.318.719-.585.99-1.011 1.022-.797.06-3.435-1.176-4.501-2.109zM.219 45.133c.196-.443 3.576-1.922 3.694-1.617.129.334-.596 1.011-1.566 1.464-.735.343-2.261.453-2.128.153zM.07 43.505c.271-.614 1.432-1.417 2.108-1.459 1.496-.092 1.451.184-.143.886-1.458.641-2.074.821-1.964.573zM.479 40.3c-.058-.418 1.237-1.411 1.907-1.461 1.086-.082.813.982-.42 1.637-.803.427-1.414.355-1.487-.176zm58.108 23.63c-.363-.258-.864-.743-1.115-1.076l-.455-.607.621.17c.912.249 2.479 1.298 2.819 1.888.272.472.236.496-.458.304-.414-.115-1.05-.42-1.413-.679zM1.338 37.362c.085-.192.293-.368.462-.391s.354-.148.411-.276-.248-.175-.677-.104c-1.04.172-.829-.189.598-1.021 1.314-.766 1.926-.731 1.299.073-.231.297-.309.608-.181.724.307.279-1.33 1.669-1.748 1.485-.175-.077-.249-.298-.164-.489zm56.667 23.264c-.286-.557-.261-.561.454-.089.416.275 1.559.854 2.54 1.288 1.029.454 1.74.891 1.678 1.031-.187.424-4.323-1.55-4.672-2.23zM2.048 33.891c.405-.579 2.008-.887 2.189-.42.103.267-.112.424-.749.547-1.592.306-1.734.294-1.44-.127zm57.519 25.274c.54-.209 4.546 1.502 4.752 2.03.137.35-.355.205-2.467-.728-1.776-.785-2.523-1.21-2.286-1.302zm-2.637-2.286c.051-.116.314-.274.585-.35.424-.121.434-.276.067-1.134-.565-1.324-.155-2.181 1.734-3.631 2.489-1.909 5.72-7.161 6.197-10.072.281-1.715.157-5.83-.329-10.889-.248-2.583-.432-3.272-1.172-4.391-1.03-1.557-.713-1.923.822-.95.659.418 1.142.973 1.38 1.586.559 1.443 1.733 7.151 1.816 8.833.137 2.763-.879 8.369-2.457 13.565l-.442 1.456 1.669-.085c3.498-.179 8.826 1.022 9.666 2.178.301.414.252.431-.423.141-1.003-.431-6.603-1.38-9.15-1.55-1.784-.119-2.06-.06-2.478.535-.754 1.071-.731 1.103.743 1.032 2.861-.138 4.94.199 7.654 1.241 1.818.698 2.638 1.115 2.672 1.357.032.235-.225.229-.786-.019-1.409-.622-5.058-1.393-8.247-1.741l-3.035-.331-1.209.917-1.209.917.889-.193c2.383-.517 6.532.318 9.106 1.831 1.719 1.011 1.633 1.445-.131.665-3.046-1.346-9.199-1.878-12.486-1.079-.847.206-1.497.279-1.446.163zm4.81 1.224c.317.003.957.174 1.423.38.686.303.738.373.271.368-.317-.003-.957-.174-1.423-.38-.686-.303-.738-.373-.271-.368zM2.901 31.862c.175-.397 1.424-.641 1.729-.337.17.169.211.528.092.799-.177.401-.374.422-1.064.117-.466-.206-.806-.466-.757-.579zm61.851 27.283c1.249.21 2.867.925 2.299 1.016-.257.041-1.061-.202-1.787-.539-1.103-.512-1.187-.591-.512-.477zM20.26 38.071c-.789-1.163-1.71-3.87-1.391-4.089.438-.301.81-.028 2.108 1.545 1.058 1.281 1.441 1.564 3.088 2.278l1.881.816-1.119.204c-1.076.197-2.332.228-3.493.087-.321-.039-.768-.388-1.075-.84zm42.963 19.296c.387-.164 4.738.731 7.093 1.458 2.305.712 1.557.979-1.235.442-3-.578-6.387-1.676-5.858-1.9zM3.792 30.282c-.162-.419.042-.558.828-.567.638-.007.81.084.978.519.182.47.121.523-.57.486-.905-.048-1.114-.122-1.236-.438zm1.359-2.608c.445-.938.652-1.128 1.272-1.163l.741-.042-.479-.39c-.601-.49-.481-.786.343-.849 1.672-.126 2.971.465 1.77.806-.271.077-.655.508-.854.957s-.47.769-.603.71-.427.311-.652.822c-.392.887-.447.914-1.24.599l-.83-.33.532-1.121zm49.772 22.138c-.676-1.809-.642-2.603.212-5.022.497-1.407.958-2.248 1.795-3.275.619-.76 1.377-1.82 1.684-2.355 1.097-1.913 2.011-7.616 1.944-12.12-.058-3.885.303-4.133 1.395-.955.841 2.447 1.399 6.838 1.423 11.191.016 2.826-.075 3.436-.793 5.353-.816 2.175-1.979 4.079-3.589 5.872-1.605 1.787-2.986 3.02-3.252 2.902-.147-.065-.516-.781-.818-1.591zM9.172 24.496c.125-.086.016-.336-.243-.557l-.47-.401.662-.025c.975-.037.954-.356-.064-1.015-.951-.616-1.197-1.047-.641-1.124.216-.03.235-.214.054-.526-.26-.451-.233-.509.431-.939.825-.534 1.097-.484 1.035.192a4.72 4.72 0 0 0 .026.952 4.27 4.27 0 0 1 .015.947c-.031.265.178.585.465.712.439.194.448.267.052.464s-.392.237.01.257.406.12.005.646c-.638.837-.777.922-1.201.735-.2-.088-.261-.231-.136-.316zm58.478 23.496c.72-.321.719-.681-.008-2.24-.451-.967-.417-.96.919.191.593.512 2.514 1.629 4.432 2.579 1.862.921 3.344 1.691 3.294 1.71s-1.261-.262-2.692-.624-3.345-.743-4.254-.846c-2.193-.249-2.522-.398-1.69-.769zM45.631 35.985l-.374-2.086 1.02-2.297c1.633-3.676 3.487-4.988 7.049-4.99 2.008-.001 3.63.575 4.954 1.76 1.451 1.298 1.551 1.585.463 1.329-1.125-.264-2.301.133-2.635.89-.142.321-.627 1.093-1.078 1.715-1.033 1.425-2.47 2.09-5.565 2.577-1.281.201-2.459.498-2.62.659s-.367.78-.458 1.375-.215 1.098-.274 1.118-.276-.902-.481-2.05zm5.511-3.26c1.132-.069 2.418-.957 2.873-1.984.424-.957-.035-2.389-.886-2.764-.887-.392-1.114-.135-.478.539 1.33 1.408-.306 3.504-2.22 2.844-.979-.337-1.632-1.252-1.35-1.89.214-.484-.304-.606-.566-.133-1.031 1.858.267 3.532 2.626 3.388zm-19.58-3.442c-1.641-2.412-3.802-3.574-6.901-3.711-2.116-.093-1.781-.417.494-.476 3.682-.096 6.25 1.556 7.397 4.755.481 1.343.2 1.181-.99-.568zm22.188 8.543c1.768-.711 2.204-1.057 3.846-3.047.77-.933 1.105-1.169 1.384-.976.305.211.216.633-.511 2.435-.795 1.972-.955 2.212-1.674 2.517-.654.277-3.781.163-4.523-.165-.11-.049.555-.393 1.478-.764zm19.19 9.332c-1.226-.826-2.632-1.83-3.124-2.232-1.12-.914-1.295-1.574-.232-.876l4.222 2.751c1.909 1.242 3.532 2.415 3.606 2.607.209.54-1.924-.533-4.472-2.25zM17.913 22.468c.915-1.059 5.135-4.742 6.752-5.893 2.282-1.625 3.87-2.068 6.609-1.846 1.228.1 2.437.08 2.687-.045.544-.271 2.562-.41 3.019-.208s-.204 3.189-.809 3.661c-.248.194-1.418.328-2.602.298l-4.266-.106c-3.803-.095-5.529.508-9.615 3.358-1.992 1.389-2.492 1.609-1.775.779zm-8.402-4.086c-1.495-1.207-2.894-2.953-3.558-4.44-1.302-2.916-.384-8.722 1.779-11.254C9.17 1.006 12.89-.051 15.939.357c1.447.194 1.611.274 3.669 1.799 2.976 2.206 5.229 4.501 5.838 5.946l.505 1.2-.921 1.697c-1.085 1.998-1.584 2.242-3.461 1.694-2.304-.673-4.479-3.109-6.321-7.08-.986-2.126-1.39-2.47-2.933-2.502-1.396-.028-2.498.655-3.042 1.885-.408.924-.34 1.709.644 7.381.917 5.286 1.132 7.244.762 6.949l-1.17-.944zm4.169-.532c-2.722-7.226-3.155-10.684-1.299-10.365.785.135 2.249 1.487 2.865 2.645.387.728.374.797-.215 1.179-1.714 1.11-1.127 2.083 2.051 3.4 1.254.52 2.345 1.04 2.425 1.155s-.596.893-1.501 1.727-1.919 1.948-2.254 2.476-.681.929-.768.89-.674-1.437-1.303-3.107zm63.221 29.754c-.034-.087-1.285-1.018-2.78-2.068-3.354-2.355-3.888-3.19-1.131-1.767 1.44.743 2.192 1.319 3.188 2.441.717.808 1.277 1.528 1.245 1.6-.07.159-.437.015-.523-.206zM42.088 29.875c-1.4-1.988-1.743-2.825-1.753-4.279a7.42 7.42 0 0 0-.493-2.365c-.267-.633-.479-1.744-.471-2.468.02-1.974.217-5.133.316-5.089.048.021.234.736.413 1.589.323 1.54 1.488 3.301 2.471 3.735.256.113 2.379.149 4.719.08 5.788-.171 7.233-.006 9.784 1.122 2.162.955 2.441 1.443.53.925-1.887-.511-8.022-1.059-9.453-.844-1.015.153-1.54.413-2.062 1.024-1.88 2.202-2.991 5.212-2.61 7.068.337 1.641.038 1.534-1.393-.497zm31.628 13.072c-.206-.164-.306-.453-.222-.643.116-.262.486-.191 1.533.294.759.352 1.617.842 1.905 1.09l.524.451-.803-.025c-.792-.025-2.207-.587-2.937-1.167zm-4.943-3.359c.393-1.651.329-4.548-.175-8.006-.265-1.813-.451-3.363-.415-3.445.17-.385 1.195 1.363 1.86 3.171 1.255 3.413 1.727 5.732 1.345 6.597-.51 1.154-2.145 2.975-2.522 2.809-.186-.082-.226-.566-.093-1.126zm5.284 1.441c.106-.239 1.42-.287 1.911-.07s1.341 1.221 1.235 1.46c-.049.112-.798-.11-1.663-.492s-1.533-.787-1.483-.898zM46.241 26.735c.723-1.637 5.049-2.702 8.323-2.049 1.273.254 2.024.521 2.228.792.237.315.037.324-.876.037-2.381-.747-6.813-.156-8.8 1.174l-1.212.811zm28.128 11.651c-.207-.728.294-.895 1.323-.441.939.415 1.42 1.219.93 1.555-.402.276-2.096-.562-2.253-1.115zm.136-2.458c-.307-.295-.507-.652-.445-.793s-.016-.48-.173-.755c-.272-.475-.262-.498.214-.476.673.031 2.599 1.271 2.297 1.479-.132.09-.484.071-.782-.044-.485-.187-.485-.151.008.349.608.617.506 1.307-.145.983-.228-.113-.666-.448-.973-.743zM24.473 13.152c.241-.546 2.675-2.495 3.42-2.739.506-.166 7.223-.627 12.934-.888.568-.026 2.598.094 4.51.267 3.026.273 3.739.432 5.496 1.223 2.026.911 3.503 1.977 3.319 2.395-.054.123-.476.057-.937-.147-1.49-.659-4.583-.632-9.877.084-1.012.137-2.325.164-2.919.06s-2.92-.422-5.171-.708c-4.2-.532-7.46-.38-9.87.46-.784.273-1.03.271-.907-.007zm48.562 19.06c.151-.343.843-.275 1.881.183.626.277.769.428.499.533-.519.201-2.519-.401-2.38-.716zM41.616 17.61l-.465-1.643c-.195-.678-.225-1.323-.065-1.432.391-.268 2.077-.218 2.762.082.304.134 1.734.18 3.178.103 2.33-.124 2.806-.06 4.231.572 1.809.803 4.273 2.603 6.882 5.031 2.979 2.773 3.006 3.082.096 1.107-4.476-3.037-5.277-3.257-11.171-3.073-4.304.135-5.246.005-5.447-.747zM72.54 31.153c-.245-.632.319-1.054 1.117-.837 1.105.3 1.125.435.126.858-.873.37-1.094.366-1.243-.02zm-.834-2.08c.031-.628-.001-.61.97-.532 1.099.089 1.079.078.901.481-.082.184-.494.392-.917.462-.948.157-.982.142-.954-.412zM26.909 8.948c.156-.353 2.932-1.261 4.957-1.621 5.479-.975 15.027-.291 17.899 1.283.857.47.783.475-.921.067-2.276-.544-5.509-.587-8.355-.109-1.545.259-2.511.251-3.449-.028-2.403-.717-5.692-.65-8.656.177-.862.24-1.526.344-1.476.231zm43.676 18.376c-.214-.393-.549-.722-.744-.732s-.396-.307-.446-.661c-.057-.4-.345-.755-.76-.938-.367-.162-.621-.401-.563-.532.156-.352 1.423-.5 2.41-.281.83.184.845.209.327.561-.614.417-.562.961.068.717.638-.247 1.258.15 1.191.763-.033.304.089.618.272.699.625.276.434.847-.347 1.037-.953.233-.931.243-1.408-.632zm-3.834-4.456l-.456-.606 1.107.019c1.241.022 1.508.261.732.657-.458.234-.461.269-.026.294.272.016.452.122.402.237-.088.199-.813.252-1.146.084-.087-.044-.363-.353-.613-.686zm-5.314-3.966c-.825-.988-1.832-2.023-2.237-2.301s-.686-.621-.624-.762 1.136-.673 2.386-1.182 2.474-1.185 2.72-1.501c.583-.748.369-1.47-.559-1.88-.725-.32-.725-.326-.091-1.453.8-1.425 2.258-2.623 2.957-2.43.727.2 1.02 1.546.687 3.153-.563 2.712-3.226 10.432-3.539 10.261-.11-.06-.875-.917-1.7-1.905zm5.293 2.704c.047-.106.282-.271.523-.365.35-.138.374-.257.12-.598-.175-.234-.229-.627-.121-.872s.076-.567-.073-.714c-.294-.292.098-3.321 1.158-8.947.734-3.893.651-5.14-.414-6.256-.771-.808-2.44-1.082-3.676-.604-.731.283-.929.545-1.665 2.207-1.877 4.236-4.043 6.591-6.634 7.213-1.737.417-2.2.129-3.262-2.026l-.749-1.521.752-1.423c.879-1.663 2.618-3.413 5.72-5.756C60.164.617 60.913.226 62.014.061c1.741-.262 4.99.357 6.383 1.216 2.092 1.289 3.283 4.707 3.5 10.044.111 2.734-.834 5.264-2.457 6.579-1.044.846-1.075.899-.63 1.096.357.158.381.305.1.623-.261.295-.257.465.012.584.494.218.443.301-.705 1.148-.857.633-1.719.781-1.487.256z" fill="#fff"/></svg>