<?xml version="1.0" encoding="UTF-8" standalone="no"?>
<!-- Created with Inkscape (http://www.inkscape.org/) -->

<svg
   width="292.74765"
   height="277.45987"
   viewBox="0 0 77.456146 73.411255"
   version="1.1"
   id="svg39"
   inkscape:version="1.1.1 (3bf5ae0d25, 2021-09-20)"
   sodipodi:docname="tigre-light.svg"
   xmlns:inkscape="http://www.inkscape.org/namespaces/inkscape"
   xmlns:sodipodi="http://sodipodi.sourceforge.net/DTD/sodipodi-0.dtd"
   xmlns="http://www.w3.org/2000/svg"
   xmlns:svg="http://www.w3.org/2000/svg">
  <sodipodi:namedview
     id="namedview41"
     pagecolor="#505050"
     bordercolor="#eeeeee"
     borderopacity="1"
     inkscape:pageshadow="0"
     inkscape:pageopacity="0"
     inkscape:pagecheckerboard="0"
     inkscape:document-units="px"
     showgrid="false"
     inkscape:zoom="0.90509668"
     inkscape:cx="-55.795144"
     inkscape:cy="158.5466"
     inkscape:window-width="1920"
     inkscape:window-height="1057"
     inkscape:window-x="3832"
     inkscape:window-y="-8"
     inkscape:window-maximized="1"
     inkscape:current-layer="layer1"
     fit-margin-top="0"
     fit-margin-left="0"
     fit-margin-right="0"
     fit-margin-bottom="0"
     units="px" />
  <defs
     id="defs36" />
  <g
     inkscape:label="Calque 1"
     inkscape:groupmode="layer"
     id="layer1"
     transform="translate(-64.955863,-13.252955)">
    <path
       d="m 72.235467,75.139695 c 0.0513,-0.11611 1.38948,-0.56698 2.97372,-1.00194 1.58424,-0.43496 3.5521,-1.03339 4.37304,-1.32986 0.82094,-0.29645 1.518189,-0.47291 1.549459,-0.39216 0.10737,0.27737 -7.972329,3.1996 -8.480899,3.06734 -0.27973,-0.0728 -0.46662,-0.22727 -0.41532,-0.34338 z m 23.142659,9.822519 c -1.59958,-1.37465 -2.88688,-4.60249 -2.33431,-5.853139 0.2685,-0.60767 0.78642,-0.51401 2.27682,0.411659 0.62418,0.38767 2.02755,1.10876 3.11859,1.60245 3.815834,1.72664 8.194054,1.51314 12.781034,-0.62313 2.09981,-0.97794 2.76369,-1.165299 3.2959,-0.93016 2.29677,1.0148 0.12227,4.32088 -3.90937,5.94374 -2.58833,1.04192 -4.77484,1.30973 -8.71556,1.06758 -3.779594,-0.23224 -5.355224,-0.62392 -6.513104,-1.619 z M 70.779857,73.851405 c 0.23506,-0.532 8.17099,-2.41205 8.33411,-1.97442 0.11904,0.31944 -2.2031,1.05331 -5.56668,1.75929 -2.76014,0.57931 -2.93431,0.59284 -2.76743,0.21513 z m -0.956703,-1.10808 c 0.143774,-0.3254 1.058003,-0.97226 2.248123,-1.59061 1.48978,-0.77406 4.22304,-1.40156 6.22048,-1.42813 1.61786,-0.0215 4.300189,0.30634 4.208289,0.51435 -0.0273,0.0618 -0.79749,0.11097 -1.7115,0.1092 -2.577859,-0.005 -7.542479,0.9537 -9.385329,1.8124 -0.916,0.42683 -1.627029,0.68909 -1.580063,0.58279 z m 9.975253,4.26487 c 0.0486,-0.1099 0.48711,-0.33917 0.974559,-0.5095 0.48744,-0.17033 1.49536,-0.65883 2.23983,-1.0856 1.36028,-0.77975 2.07398,-0.89404 1.44158,-0.23083 -0.18679,0.19588 -1.23095,0.77586 -2.32038,1.28884 -1.836269,0.86464 -2.553149,1.02949 -2.335589,0.53709 z m -2.52297,-1.38211 c 0.0885,-0.0802 1.53995,-0.64295 3.2255,-1.25049 1.685549,-0.60755 2.900159,-0.98207 2.699129,-0.83225 -0.8105,0.60406 -5.434239,2.51636 -5.748509,2.37751 -0.18535,-0.0819 -0.2646,-0.21454 -0.17612,-0.29477 z m 6.297769,2.65878 c 0.0836,-0.18928 0.35724,-0.44029 0.60801,-0.55777 0.25079,-0.11751 0.0691,-0.0936 -0.40365,0.0531 -0.47279,0.14667 -0.93429,0.2337 -1.02554,0.19338 -0.36479,-0.16117 0.37708,-1.22206 0.9983,-1.42761 0.62954,-0.2083 0.67447,-0.18889 0.89747,0.38778 0.22314,0.57639 0.28126,0.58557 1.16092,0.18361 0.50931,-0.23271 1.31208,-0.62992 1.78391,-0.88262 1.60677,-0.86058 0.97596,-0.17498 -0.91444,0.99387 -1.98129,1.22502 -3.39155,1.70489 -3.1051,1.05659 z m -15.586263,-7.27779 c 0.0312,-0.0706 0.608459,-0.3037 1.282781,-0.51795 2.051303,-0.65172 3.402413,-0.34281 1.927253,0.44069 -0.96289,0.51141 -3.428074,0.57074 -3.210034,0.0773 z m 0.875912,-1.94731 c 1.753032,-0.72318 4.525132,-1.18327 7.592602,-1.26013 4.08724,-0.10241 4.702909,0.21466 0.85365,0.43959 -3.44669,0.20143 -7.729152,0.84768 -8.647393,1.30495 -0.273983,0.13644 -0.615093,0.1964 -0.758014,0.13325 -0.142921,-0.0632 0.288714,-0.34113 0.959175,-0.61771 z m -3.375074,-1.56196 c 0.0497,-0.11248 0.413847,-0.30955 0.809202,-0.43792 0.395377,-0.1284 1.764388,-0.8128 3.042255,-1.52094 1.277859,-0.70812 3.184809,-1.70941 4.237639,-2.22505 l 1.91425,-0.93759 0.48109,1.28806 0.48108,1.28807 -0.94212,0.32511 c -1.15786,0.39955 -9.832549,2.54901 -9.995896,2.47684 -0.06485,-0.0286 -0.07719,-0.14411 -0.0275,-0.25658 z m 1.586811,0.69673 c 2.085103,-0.68914 3.170025,-0.98795 3.112225,-0.85715 -0.11205,0.25361 -2.906109,1.19675 -3.182987,1.07442 -0.156971,-0.0694 -0.13045,-0.15078 0.07074,-0.21727 z m -1.421795,-2.62142 c 1.25243,-1.20885 7.51794,-6.39504 8.10596,-6.70958 0.51515,-0.27556 0.563,-0.25586 0.994,0.40967 0.24904,0.38454 0.34452,0.80808 0.21217,0.94121 -0.13238,0.13309 -1.8545,1.14275 -3.827,2.24359 -1.97252,1.10086 -4.102331,2.45698 -4.732925,3.01359 -1.304022,1.15106 -1.926612,1.23509 -0.752213,0.10154 z m 24.230229,9.79965 c -0.84031,-0.98893 -1.76909,-2.31834 -2.06397,-2.95419 -0.57415,-1.23808 -0.58437,-3.25476 -0.0266,-5.25768 0.32524,-1.16798 0.31713,-1.18919 -0.84375,-2.21028 -2.30186,-2.02462 -5.17887,-5.87623 -6.26731,-8.39036 -0.868479,-2.00609 -1.035109,-2.77971 -1.076549,-4.99841 -0.0536,-2.867959 0.22889,-6.725399 0.67707,-9.246379 0.366999,-2.064324 0.968809,-4.058004 1.191749,-3.948014 0.28162,0.13887 0.78346,2.673564 0.86589,4.373114 0.10432,2.15102 0.63888,5.33804 1.28937,7.68715 0.3754,1.355629 0.89238,2.392299 1.68583,3.380429 1.44803,1.80336 1.66444,2.16703 2.63274,4.42433 0.56144,1.30881 0.99022,1.93645 1.46678,2.14701 1.66463,0.73549 4.34602,-1.6769 6.04132,-5.43526 1.23845,-2.74556 1.35246,-4.275719 0.41989,-5.635399 l -0.6,-0.8748 -2.06107,-0.26415 c -3.02418,-0.38757 -4.75397,-1.34349 -5.95087,-3.28853 -1.03131,-1.67593 -1.65147,-2.04646 -3.10381,-1.85442 l -1.0223,0.13515 0.40629,-0.48072 c 1.75867,-2.08091 3.58971,-2.831464 6.59801,-2.704544 3.40378,0.14358 5.26291,1.687754 6.72869,5.588764 0.73436,1.95441 1.4195,2.68948 1.7659,1.8946 0.102,-0.23335 0.37903,-1.68619 0.61621,-3.22828 0.37084,-2.41119 0.35732,-2.99858 -0.0966,-4.194574 -0.67938,-1.78999 -2.12968,-3.76989 -3.05813,-4.1748 -1.41195,-0.6162 -6.84348,-0.29306 -10.71029,0.63652 -0.79133,0.19023 -1.41436,0.29062 -1.38451,0.22307 0.12039,-0.27248 3.58708,-1.91533 4.35386,-2.06327 1.45271,-0.28031 5.77666,-0.42583 8.57673,-0.28869 3.416904,0.16738 4.440734,-0.1984 5.379524,-1.92183 0.37082,-0.68066 0.74466,-1.71507 0.83086,-2.29868 0.0862,-0.583614 0.2116,-1.082345 0.27864,-1.108292 0.067,-0.02603 0.19639,1.178326 0.28743,2.676172 0.12489,2.05497 0.034,3.16248 -0.37055,4.5124 -0.29484,0.98396 -0.51725,2.19187 -0.49424,2.68423 0.0529,1.13233 -0.88293,3.255884 -2.10447,4.775394 -0.885564,1.10153 -0.991754,1.38462 -1.722004,4.59044 -1.41521,6.212829 -2.249,11.866249 -1.91094,12.956879 0.39953,1.28893 1.34526,1.7708 3.775234,1.92359 1.24355,0.0782 3.47685,0.0821 4.96288,0.009 2.44291,-0.12077 2.69765,-0.18982 2.65757,-0.72046 -0.0978,-1.29557 -1.57381,-9.40289 -2.25772,-12.401029 -0.40069,-1.75654 -0.76274,-3.83918 -0.80456,-4.6281 -0.0687,-1.29456 -0.0298,-1.43208 0.39826,-1.41081 0.47776,0.0237 1.26245,1.86544 1.70337,3.99797 l 0.19515,0.94393 0.92868,-1.2547 c 0.96651,-1.30586 1.22255,-1.36001 0.86597,-0.18318 -0.53111,1.7529 -0.57827,4.489029 -0.13655,7.919399 0.22058,1.71303 0.1203,3.75656 -0.3129,6.37586 l -0.19592,1.18463 0.70411,-0.27256 c 0.42623,-0.16501 0.86702,-0.61469 1.11683,-1.13935 0.22693,-0.47672 0.47581,-0.83885 0.55304,-0.80473 0.26818,0.11849 -0.13052,4.99039 -0.50924,6.22269 l -0.38096,1.23964 -2.23459,0.73599 -2.23458,0.73597 0.10032,1.37851 c 0.0697,0.95774 -0.0706,1.7653 -0.45973,2.64601 l -0.56005,1.26755 1.00623,0.63772 c 2.76219,1.75063 6.06835,1.54247 8.73662,-0.5501 0.77515,-0.60791 1.43994,-1.17452 1.47733,-1.25915 0.0374,-0.0846 -0.29949,-0.13232 -0.74935,-0.10437 -1.19691,0.0725 -5.65421,-0.50202 -5.74659,-0.74066 -0.0435,-0.11237 -0.0178,-0.22022 0.0572,-0.23973 0.0749,-0.0195 1.22692,-0.2376 2.56001,-0.48461 2.85384,-0.52881 5.57562,-1.61632 5.9037,-2.35887 0.12791,-0.28949 0.16897,-0.98564 0.0913,-1.547 l -0.14125,-1.0207 -3.907,1.58426 c -3.85708,1.56402 -5.40628,1.9471 -3.22992,0.7987 2.48467,-1.31113 6.10576,-4.5698 6.78415,-6.10518 l 0.31069,-0.70319 0.76547,1.29629 c 0.92832,1.572 1.70538,3.93097 1.79079,5.43641 0.10449,1.84164 -0.40612,3.08402 -2.08354,5.06966 -1.26045,1.49206 -1.39419,1.71956 -0.82403,1.40173 0.58466,-0.32586 0.8225,-0.29552 1.68666,0.21515 1.33442,0.78864 3.44919,2.59368 3.33678,2.84811 -0.0491,0.11121 -0.26334,0.0804 -0.476,-0.0684 -0.21264,-0.14883 -1.21646,-0.70993 -2.2307,-1.24694 l -1.84406,-0.97635 0.2767,1.15282 c 0.15218,0.63404 0.20102,1.18211 0.10855,1.2179 -0.0924,0.0358 -0.76181,-0.37978 -1.4874,-0.92351 l -1.31929,-0.98859 -0.99202,0.41333 c -1.78208,0.7425 -5.79453,0.84313 -7.28907,0.18279 -0.30729,-0.13577 -1.07576,-0.0844 -1.70769,0.11421 -1.43994,0.45253 -2.95057,0.43093 -4.05713,-0.058 -0.58772,-0.25967 -1.33111,-0.27732 -2.382504,-0.0566 -0.84052,0.17645 -2.3787,0.34283 -3.41816,0.36969 -2.73189,0.0706 -4.11642,-0.59527 -6.1057,-2.93643 z m 8.03479,1.50007 c 1.22698,-0.043 3.426994,-0.74245 4.479924,-1.42422 0.55982,-0.36248 0.55852,-0.47193 -0.0229,-1.91233 -0.40478,-1.00288 -0.55033,-1.88851 -0.42366,-2.57755 0.21301,-1.15861 0.26293,-1.12102 -3.166894,-2.38463 -1.43193,-0.5275 -1.6308,-0.89899 -1.94045,-3.62421 -0.21598,-1.90077 -0.26373,-2.00051 -1.04047,-2.17391 -2.73726,-0.61111 -5.08189,-0.33876 -5.30905,0.61669 -0.0593,0.2495 0.27484,0.91319 0.74256,1.47492 1.03125,1.23848 5.11483,4.64041 6.18666,5.15395 0.73371,0.35162 0.73798,0.36674 0.0827,0.29696 -0.37985,-0.0404 -2.24735,-0.74839 -4.14998,-1.57319 -2.48964,-1.07923 -3.49485,-1.41927 -3.58599,-1.213 -0.27949,0.63257 -0.0127,2.81866 0.38701,3.17165 0.66644,0.58851 3.35016,1.35293 5.41273,1.54177 1.03213,0.0945 1.84421,0.24508 1.80464,0.33463 -0.16392,0.371 -2.50835,1.1147 -3.80844,1.20809 -0.76881,0.0552 -1.42716,0.16679 -1.46301,0.24794 -0.11334,0.25653 1.7179,1.52524 3.1967,2.21472 0.97436,0.45423 1.80015,0.6504 2.61788,0.62172 z m 6.519184,-3.90965 c 0.25983,-0.58806 0.25832,-1.01507 -0.005,-1.45091 -0.34293,-0.56726 -0.40104,-0.5884 -0.71324,-0.25916 -0.40345,0.42542 -0.47689,0.97988 -0.23543,1.7785 0.26511,0.87698 0.54498,0.85691 0.9538,-0.0684 z m 1.22318,-5.30925 c 0.51524,-0.22317 1.49254,-0.59381 2.17178,-0.82366 1.19919,-0.40581 1.94433,-1.26168 1.57159,-1.80513 -0.19115,-0.2787 -5.88785,-0.55428 -8.25156,-0.39917 -3.185134,0.20898 -3.106164,1.10803 0.20119,2.29029 1.35264,0.48349 2.27684,0.93896 2.49417,1.22907 0.26093,0.34834 0.41008,0.39417 0.61066,0.1876 0.14599,-0.1503 0.68693,-0.45588 1.20218,-0.67903 z M 91.838266,46.015046 c 1.16733,0.0183 2.0557,-0.38338 2.78729,-1.26022 0.50607,-0.60655 0.52906,-0.80188 0.19577,-1.66282 -0.53556,-1.38342 -1.73292,-2.34829 -3.19378,-2.57356 -1.69305,-0.261094 -2.52513,0.14062 -2.8895,1.39496 -0.33718,1.16071 -0.10443,2.12241 0.73715,3.04583 0.75287,0.82607 1.22725,1.03804 2.36312,1.0557 z m -1.76361,-1.87495 c -0.57674,-0.69859 -0.50749,-1.9059 0.14733,-2.56868 1.07995,-1.09304 3.05834,-0.48469 3.40593,1.04732 0.4508,1.98706 -2.22355,3.13208 -3.55327,1.52137 z M 66.089189,62.873295 c 6.136138,-4.62708 7.275468,-5.33926 7.522148,-4.70209 0.17382,0.44899 -5.752761,4.76353 -7.725926,5.62445 -1.315828,0.57413 -1.22287,0.15342 0.203778,-0.92236 z m -0.741264,-1.19529 c 1.245104,-1.62672 2.786078,-3.03452 3.214001,-2.93621 0.28421,0.0653 0.392853,0.25458 0.285504,0.49755 -0.170864,0.38671 -3.649289,3.16795 -3.850751,3.07894 -0.05708,-0.0252 0.101042,-0.31331 0.351228,-0.64029 z m 15.346291,6.28855 c -1.970399,-1.72447 -2.970359,-3.77844 -4.314829,-8.86286 -0.67891,-2.56746 -1.44162,-7.01484 -1.48944,-8.684999 -0.0173,-0.60425 -0.13619,-1.14489 -0.26421,-1.20146 -0.12802,-0.0566 -0.86636,0.0728 -1.64073,0.28747 -2.05318,0.56919 -2.23927,0.23979 -0.48355,-0.85583 0.9405,-0.5869 1.32301,-1.34185 0.52294,-1.03214 -0.52238,0.20221 -0.79592,0.0422 -0.61763,-0.36133 0.0819,-0.18544 0.0162,-0.46906 -0.14595,-0.63031 -0.25922,-0.25769 -0.2065,-0.37702 0.43573,-0.98619 0.99621,-0.94489 1.12292,-1.28886 0.40761,-1.10663 -0.31343,0.0799 -0.0933,-0.12368 0.48912,-0.45233 1.37085,-0.77351 1.52774,-1.12893 0.57092,-1.29347 l -0.7393,-0.12712 0.89647,-0.39228 0.89646,-0.39225 -0.85275,-0.1977 c -0.46901,-0.10872 -0.82993,-0.24931 -0.80206,-0.31239 0.0278,-0.063 0.64771,-0.35615 1.37744,-0.6513 0.72973,-0.29514 1.62242,-0.779494 1.98376,-1.076324 1.1959,-0.98246 2.13772,-1.4764 2.50538,-1.31395 0.25462,0.1125 0.25149,0.28643 -0.0105,0.58312 -1.38138,1.564344 -1.97378,5.118994 -2.10938,12.657463 -0.0503,2.79776 0.0567,3.58938 0.70731,5.23062 0.42162,1.06367 1.45238,3.00944 2.29059,4.32393 1.545709,2.42408 2.903729,3.75198 4.606469,4.50431 1.32737,0.58648 1.88898,2.07841 1.29146,3.43078 -0.31785,0.71938 -0.58531,0.98971 -1.01099,1.02184 -0.79681,0.0602 -3.43451,-1.17573 -4.5005,-2.10869 z m -15.519465,-9.58039 c 0.195513,-0.44251 3.576008,-1.92226 3.694155,-1.61707 0.129123,0.33355 -0.595772,1.01115 -1.565695,1.46358 -0.735387,0.343 -2.260796,0.453 -2.12846,0.15349 z m -0.148445,-1.62806 c 0.271322,-0.61408 1.432039,-1.41739 2.107843,-1.45882 1.495962,-0.0917 1.451348,0.18379 -0.143421,0.88552 -1.457794,0.64145 -2.073985,0.82128 -1.964422,0.5733 z m 0.408765,-3.20464 c -0.05791,-0.41836 1.237094,-1.41067 1.907,-1.46125 1.086177,-0.082 0.813247,0.98192 -0.419927,1.63689 -0.803262,0.42663 -1.413694,0.35454 -1.487073,-0.17564 z m 58.107679,23.63026 c -0.36273,-0.25833 -0.86429,-0.74274 -1.11462,-1.07634 l -0.45516,-0.60653 0.62114,0.1697 c 0.91238,0.2493 2.47875,1.2983 2.81896,1.88785 0.27245,0.47212 0.23629,0.49613 -0.45751,0.30388 -0.41432,-0.11484 -1.05011,-0.42014 -1.4128,-0.67857 z M 66.29418,50.615146 c 0.08474,-0.1918 0.292737,-0.36792 0.462188,-0.39137 0.169439,-0.0234 0.354492,-0.14765 0.411185,-0.27597 0.05669,-0.12831 -0.24802,-0.17517 -0.677118,-0.10418 -1.040476,0.17217 -0.828965,-0.18921 0.597506,-1.02088 1.313625,-0.76586 1.926303,-0.73148 1.299487,0.0729 -0.231065,0.29656 -0.308893,0.60781 -0.180946,0.7241 0.307033,0.2791 -1.330047,1.669449 -1.748182,1.484699 -0.175018,-0.0773 -0.248873,-0.29751 -0.16412,-0.489329 z m 56.66743,23.264259 c -0.28557,-0.55654 -0.2613,-0.56127 0.45395,-0.0887 0.4156,0.27459 1.55883,0.85412 2.5405,1.28785 1.02856,0.45445 1.73954,0.89115 1.67792,1.03063 -0.18734,0.424 -4.32346,-1.5499 -4.67237,-2.22978 z M 67.004386,47.144466 c 0.404662,-0.57903 2.008156,-0.88654 2.188846,-0.41977 0.103447,0.26721 -0.111551,0.4242 -0.74853,0.54668 -1.59246,0.30615 -1.734239,0.29366 -1.440316,-0.12691 z m 57.519294,25.273939 c 0.54,-0.20903 4.54554,1.50217 4.75234,2.03022 0.13704,0.34997 -0.35513,0.20465 -2.46673,-0.72833 -1.77571,-0.78457 -2.52278,-1.21009 -2.28559,-1.30194 z m -2.63744,-2.28602 c 0.0512,-0.11593 0.3144,-0.27361 0.58483,-0.3504 0.42441,-0.12052 0.43362,-0.27572 0.0672,-1.13416 -0.56497,-1.32379 -0.15533,-2.18147 1.73436,-3.63133 2.48861,-1.90936 5.71993,-7.16133 6.1967,-10.07172 0.28087,-1.7146 0.15654,-5.830309 -0.32896,-10.889409 -0.2479,-2.58324 -0.43176,-3.27232 -1.17174,-4.391374 -1.02966,-1.55717 -0.71282,-1.92332 0.82236,-0.95035 0.65874,0.41751 1.14199,0.97298 1.37951,1.585694 0.55923,1.44272 1.73304,7.15099 1.81637,8.83317 0.13688,2.763019 -0.87856,8.369309 -2.45695,13.564779 l -0.44231,1.45593 1.66905,-0.0852 c 3.49811,-0.17859 8.82554,1.02171 9.66614,2.17787 0.30117,0.41425 0.25158,0.43071 -0.4228,0.14053 -1.00253,-0.43136 -6.60285,-1.38011 -9.15014,-1.55005 -1.78395,-0.11901 -2.05967,-0.0596 -2.47791,0.53451 -0.75409,1.07108 -0.7308,1.10347 0.74252,1.03248 2.8614,-0.13787 4.94023,0.19926 7.65424,1.2413 1.81758,0.6979 2.63819,1.11459 2.67172,1.35687 0.0325,0.23499 -0.22533,0.22873 -0.78622,-0.0191 -1.40876,-0.62244 -5.05797,-1.39291 -8.24672,-1.74115 l -3.03539,-0.33148 -1.20873,0.91706 -1.20875,0.91707 0.88869,-0.1927 c 2.38287,-0.51667 6.53198,0.31781 9.106,1.83145 1.71897,1.01084 1.63331,1.4448 -0.13131,0.66513 -3.04614,-1.34588 -9.19937,-1.87751 -12.48562,-1.07875 -0.84661,0.20579 -1.49739,0.27931 -1.44616,0.16336 z m 4.81041,1.22414 c 0.31676,0.003 0.95709,0.17429 1.42296,0.38013 0.68646,0.3033 0.73787,0.37313 0.27113,0.36838 -0.31676,-0.003 -0.95709,-0.1743 -1.42296,-0.38013 -0.68647,-0.30331 -0.73787,-0.37314 -0.27113,-0.36838 z M 67.856738,45.114616 c 0.175358,-0.39688 1.424255,-0.64054 1.729214,-0.33739 0.169901,0.16898 0.211201,0.52839 0.09174,0.79877 -0.176962,0.40051 -0.374199,0.42227 -1.064264,0.11737 -0.465872,-0.20584 -0.806379,-0.46629 -0.75669,-0.57875 z m 61.850992,27.283059 c 1.24888,0.21036 2.86738,0.92547 2.29913,1.01584 -0.25668,0.0408 -1.0607,-0.20166 -1.78674,-0.53883 -1.10283,-0.51219 -1.18715,-0.59066 -0.51239,-0.47701 z M 85.215806,51.323965 c -0.78932,-1.162919 -1.7101,-3.870249 -1.3908,-4.089249 0.43816,-0.30051 0.80999,-0.0281 2.10827,1.54465 1.05774,1.28136 1.44117,1.5642 3.08836,2.278459 l 1.88063,0.81562 -1.11854,0.20446 c -1.07576,0.19664 -2.33164,0.22779 -3.49301,0.0866 -0.32142,-0.039 -0.76813,-0.38836 -1.07496,-0.84041 z m 42.963144,19.29638 c 0.38655,-0.16371 4.73843,0.73098 7.09333,1.45832 2.30481,0.71187 1.55697,0.97932 -1.23494,0.44165 -3.00013,-0.57777 -6.38687,-1.67613 -5.85839,-1.89997 z M 68.747516,43.534976 c -0.162026,-0.4185 0.04177,-0.55815 0.827737,-0.56716 0.637904,-0.007 0.809794,0.0838 0.978044,0.5185 0.18214,0.47048 0.12071,0.52292 -0.569875,0.48649 -0.905001,-0.0478 -1.113542,-0.12164 -1.235942,-0.43774 z m 1.359151,-2.6077 c 0.44519,-0.938324 0.65242,-1.127774 1.27239,-1.163164 l 0.74056,-0.0423 -0.47858,-0.38984 c -0.60136,-0.48985 -0.48149,-0.78645 0.34296,-0.84872 1.67248,-0.12627 2.97074,0.46511 1.76973,0.80619 -0.27087,0.0769 -0.65502,0.5077 -0.85365,0.95726 -0.19864,0.449594 -0.47007,0.769304 -0.60318,0.710494 -0.13311,-0.0588 -0.4267,0.31106 -0.65241,0.82193 -0.39209,0.88741 -0.4474,0.91411 -1.24003,0.59893 l -0.829629,-0.32994 0.531769,-1.12091 z m 49.772423,22.138059 c -0.67567,-1.80894 -0.64211,-2.60335 0.2121,-5.02179 0.49691,-1.40685 0.95776,-2.24784 1.7948,-3.27543 0.61943,-0.76041 1.37712,-1.82027 1.68374,-2.35522 1.0965,-1.912989 2.01126,-7.616269 1.94394,-12.119999 -0.0581,-3.885124 0.30337,-4.132654 1.39476,-0.955234 0.84067,2.447474 1.39895,6.837824 1.4231,11.191484 0.0157,2.826389 -0.0746,3.435999 -0.79312,5.352609 -0.8155,2.17542 -1.97915,4.07927 -3.58928,5.87236 -1.60498,1.78738 -2.98585,3.01962 -3.25202,2.90201 -0.14745,-0.0651 -0.51556,-0.781 -0.81802,-1.59079 z M 74.127817,37.749412 c 0.12503,-0.0858 0.0157,-0.33648 -0.24294,-0.55719 l -0.47029,-0.40126 0.6619,-0.025 c 0.97459,-0.0369 0.95448,-0.35564 -0.0641,-1.01512 -0.95123,-0.61592 -1.19731,-1.04737 -0.64126,-1.12433 0.21551,-0.0298 0.23454,-0.21404 0.0543,-0.52627 -0.25999,-0.45053 -0.23322,-0.50887 0.43081,-0.93892 0.825,-0.5343 1.09741,-0.48372 1.035,0.19214 -0.0247,0.26749 -0.0129,0.69575 0.0263,0.9517 0.0391,0.25594 0.0459,0.68193 0.0149,0.94667 -0.0309,0.26475 0.1783,0.585 0.46499,0.71167 0.43938,0.19413 0.44763,0.26698 0.0525,0.46372 -0.39335,0.19587 -0.3917,0.23725 0.0103,0.2572 0.40528,0.0201 0.40599,0.11958 0.005,0.64625 -0.63795,0.83716 -0.77738,0.92248 -1.20142,0.73512 -0.19966,-0.0882 -0.26073,-0.23055 -0.13568,-0.31632 z m 58.477673,23.495933 c 0.72034,-0.32099 0.71901,-0.68055 -0.008,-2.24044 -0.45107,-0.96749 -0.41673,-0.96033 0.91852,0.19145 0.59333,0.51183 2.51411,1.62943 4.43191,2.57872 1.8616,0.92146 3.34399,1.69085 3.29419,1.70972 -0.0498,0.0189 -1.26122,-0.26207 -2.69212,-0.62426 -1.43088,-0.36222 -3.34536,-0.74286 -4.25439,-0.8459 -2.1929,-0.24853 -2.52213,-0.39842 -1.68987,-0.76916 z m -22.01876,-12.007499 -0.37404,-2.0861 1.0204,-2.2971 c 1.63291,-3.67595 3.48694,-4.988344 7.04864,-4.989884 2.00794,-8.8e-4 3.63035,0.575414 4.9537,1.759544 1.45095,1.29831 1.55064,1.58455 0.46292,1.32918 -1.12483,-0.26409 -2.30054,0.13313 -2.63505,0.89023 -0.14184,0.32103 -0.62711,1.09296 -1.07838,1.71541 -1.03285,1.42463 -2.47043,2.0903 -5.56456,2.57659 -1.28054,0.20128 -2.45944,0.49789 -2.61977,0.65918 -0.16036,0.16128 -0.36658,0.77995 -0.45832,1.37481 -0.0917,0.59485 -0.21511,1.097909 -0.27416,1.117869 -0.059,0.02 -0.27569,-0.902439 -0.48143,-2.049749 z m 5.51131,-3.26014 c 1.13219,-0.0694 2.41816,-0.95734 2.8731,-1.98384 0.42383,-0.95677 -0.0347,-2.38855 -0.88556,-2.7645 -0.88707,-0.39193 -1.11448,-0.1353 -0.47768,0.53909 1.32982,1.40834 -0.30594,3.5036 -2.2202,2.84386 -0.97854,-0.33724 -1.63164,-1.25161 -1.34971,-1.88969 0.21386,-0.48404 -0.30353,-0.60551 -0.56569,-0.13278 -1.03053,1.85832 0.26697,3.53241 2.62574,3.38786 z m -19.580014,-3.44238 c -1.64077,-2.412084 -3.80169,-3.574154 -6.90078,-3.711064 -2.11618,-0.0935 -1.78051,-0.41695 0.494,-0.47606 3.68174,-0.0957 6.25036,1.55564 7.39709,4.755454 0.4812,1.34271 0.19981,1.18121 -0.99031,-0.56833 z m 22.188264,8.542939 c 1.7676,-0.711149 2.20378,-1.056679 3.84584,-3.046689 0.7696,-0.93267 1.10487,-1.16913 1.38402,-0.97615 0.30453,0.21054 0.21598,0.63268 -0.51077,2.43505 -0.79525,1.972329 -0.95501,2.212429 -1.67389,2.516839 -0.65439,0.27713 -3.78073,0.16314 -4.52318,-0.1649 -0.11044,-0.0488 0.55465,-0.39266 1.47798,-0.76415 z m 19.19045,9.33205 c -1.22601,-0.82588 -2.63161,-1.83031 -3.12353,-2.23203 -1.11957,-0.91426 -1.29469,-1.57424 -0.23233,-0.87561 0.41276,0.27147 2.3125,1.50941 4.22163,2.75101 1.90912,1.24159 3.53202,2.41474 3.60644,2.60697 0.20889,0.53961 -1.92359,-0.53343 -4.47221,-2.25034 z M 82.869496,35.721422 c 0.91481,-1.05853 5.13528,-4.74231 6.7516,-5.893011 2.28209,-1.624691 3.86994,-2.068131 6.60887,-1.845652 1.22798,0.09977 2.4371,0.07958 2.68692,-0.04483 0.54366,-0.270719 2.561914,-0.409686 3.018754,-0.207841 0.45555,0.201276 -0.2044,3.189184 -0.80871,3.661454 -0.24763,0.19353 -1.418334,0.3278 -2.601554,0.2984 -1.18321,-0.0294 -3.10303,-0.0772 -4.26622,-0.10616 -3.8032,-0.0947 -5.52948,0.50822 -9.61495,3.35826 -1.99174,1.38945 -2.49166,1.60899 -1.77471,0.77938 z m -8.402169,-4.08597 c -1.49476,-1.20655 -2.89412,-2.95257 -3.55835,-4.439827 -1.302187,-2.915592 -0.38428,-8.722318 1.7789,-11.253642 1.43815,-1.682907 5.15827,-2.739833 8.207269,-2.331779 1.44736,0.193679 1.61093,0.273913 3.66934,1.799449 2.976,2.20558 5.22942,4.500601 5.83813,5.945897 l 0.50534,1.199819 -0.921,1.696737 c -1.08465,1.998234 -1.58351,2.242458 -3.46074,1.694185 -2.30406,-0.672924 -4.47893,-3.109222 -6.320699,-7.080399 -0.98619,-2.126455 -1.38955,-2.470497 -2.93302,-2.50178 -1.39561,-0.02826 -2.49813,0.655029 -3.04159,1.885057 -0.40823,0.923934 -0.33977,1.708598 0.64397,7.380618 0.91689,5.286435 1.13159,7.244125 0.7622,6.949385 -0.0292,-0.0239 -0.55579,-0.44814 -1.16975,-0.94372 z m 4.1694,-0.53216 c -2.72217,-7.226046 -3.15546,-10.684279 -1.2987,-10.365267 0.78539,0.13492 2.2494,1.486691 2.8646,2.64498 0.386899,0.728496 0.37436,0.797308 -0.21495,1.17897 -1.7137,1.109874 -1.12653,2.083372 2.050599,3.399782 1.25423,0.519616 2.34539,1.039555 2.4248,1.15543 0.0794,0.115783 -0.596,0.89279 -1.50093,1.726585 -0.90495,0.83382 -1.91942,1.94814 -2.25438,2.47628 -0.334919,0.52816 -0.680609,0.92864 -0.768099,0.88998 -0.0875,-0.0386 -0.67383,-1.43668 -1.30296,-3.10671 z m 63.221323,29.753963 c -0.0338,-0.0875 -1.28486,-1.01808 -2.77996,-2.06794 -3.35419,-2.35527 -3.88788,-3.18962 -1.13053,-1.76739 1.43985,0.74266 2.19215,1.31875 3.18794,2.44122 0.71685,0.80804 1.2773,1.52817 1.24543,1.60029 -0.0704,0.15932 -0.43741,0.0146 -0.5229,-0.20612 z M 107.04424,43.128126 c -1.40032,-1.98817 -1.74316,-2.82516 -1.75277,-4.279064 -0.004,-0.66796 -0.2261,-1.73239 -0.49265,-2.36538 -0.26656,-0.63297 -0.47853,-1.74372 -0.47105,-2.46827 0.0204,-1.97435 0.21666,-5.132674 0.31622,-5.088683 0.0481,0.02126 0.23392,0.73621 0.41292,1.588813 0.32333,1.54 1.48835,3.30084 2.47127,3.73513 0.25593,0.11308 2.37927,0.14893 4.71855,0.0797 5.78764,-0.17132 7.23325,-0.006 9.7844,1.12157 2.16185,0.95518 2.44118,1.44306 0.52976,0.92524 -1.88703,-0.51123 -8.02226,-1.05914 -9.45278,-0.84421 -1.01545,0.15257 -1.54007,0.41314 -2.06163,1.02397 -1.8799,2.20164 -2.99128,5.211684 -2.60969,7.068004 0.33731,1.64091 0.0379,1.5341 -1.39255,-0.4968 z m 31.62793,13.072139 c -0.20602,-0.16384 -0.30597,-0.45319 -0.22207,-0.64308 0.11567,-0.26179 0.48645,-0.19078 1.53347,0.29369 0.75947,0.35152 1.61661,0.84204 1.90469,1.09023 l 0.52375,0.45127 -0.80322,-0.0251 c -0.79239,-0.0247 -2.20661,-0.58674 -2.93662,-1.16704 z m -4.9431,-3.35862 c 0.39287,-1.65068 0.32946,-4.548099 -0.17517,-8.005619 -0.26456,-1.81264 -0.45132,-3.36288 -0.41505,-3.44498 0.17013,-0.38504 1.19526,1.36265 1.85999,3.17094 1.25455,3.41275 1.72728,5.73158 1.34493,6.596959 -0.50977,1.15377 -2.14491,2.97499 -2.52159,2.80856 -0.18644,-0.0824 -0.22641,-0.56577 -0.0931,-1.12586 z m 5.28414,1.44105 c 0.10551,-0.2388 1.4199,-0.28684 1.91104,-0.0698 0.49113,0.217 1.34064,1.22113 1.23513,1.45992 -0.0494,0.11174 -0.79765,-0.10959 -1.66285,-0.49186 -0.8652,-0.38228 -1.53267,-0.78652 -1.48332,-0.89822 z M 111.19668,39.987862 c 0.72348,-1.63746 5.0495,-2.70226 8.32266,-2.04855 1.27291,0.25424 2.02447,0.52137 2.22776,0.79184 0.23683,0.3151 0.037,0.32357 -0.87648,0.0372 -2.38141,-0.74659 -6.81279,-0.15558 -8.79982,1.17364 l -1.21213,0.810854 z m 28.1276,11.650563 c -0.20682,-0.7283 0.29406,-0.895149 1.32284,-0.44059 0.93888,0.41483 1.41986,1.21922 0.92994,1.55523 -0.40247,0.27606 -2.09579,-0.56178 -2.25278,-1.11464 z m 0.1356,-2.458399 c -0.30698,-0.29542 -0.5073,-0.65218 -0.44517,-0.7928 0.0621,-0.14061 -0.0156,-0.48023 -0.17275,-0.7547 -0.27193,-0.47497 -0.26162,-0.49792 0.2136,-0.47603 0.67263,0.0311 2.59881,1.27144 2.2965,1.47879 -0.13205,0.0905 -0.48377,0.0708 -0.78166,-0.0439 -0.48547,-0.18706 -0.48471,-0.15086 0.008,0.3485 0.60842,0.61696 0.50648,1.30722 -0.14526,0.98342 -0.22832,-0.11334 -0.66623,-0.44796 -0.9732,-0.74338 z M 89.429216,26.40498 c 0.24144,-0.546458 2.67463,-2.495046 3.42041,-2.739187 0.50582,-0.1656 7.222644,-0.626549 12.934264,-0.887647 0.56831,-0.02599 2.59789,0.09415 4.51018,0.266976 3.02632,0.273497 3.73861,0.431953 5.49642,1.222751 2.02554,0.911132 3.50298,1.977321 3.31857,2.394696 -0.0543,0.12278 -0.47572,0.05663 -0.93661,-0.147003 -1.49048,-0.658549 -4.5832,-0.632325 -9.87687,0.08378 -1.01185,0.136882 -2.3254,0.163786 -2.919,0.0598 -0.5936,-0.103991 -2.92044,-0.422381 -5.17075,-0.707524 -4.199914,-0.532191 -7.459564,-0.380135 -9.869924,0.460471 -0.78363,0.27326 -1.02972,0.271351 -0.90669,-0.0071 z m 48.562364,19.060456 c 0.15134,-0.34253 0.84305,-0.27508 1.88067,0.18338 0.62647,0.27679 0.76853,0.42834 0.49917,0.53263 -0.51891,0.20089 -2.51906,-0.40091 -2.37984,-0.71601 z M 106.57195,30.863282 c -0.0602,-0.22547 -0.2694,-0.964857 -0.46487,-1.643074 -0.19547,-0.678225 -0.22476,-1.32273 -0.0651,-1.432238 0.3911,-0.268264 2.07695,-0.218042 2.76172,0.08225 0.30377,0.134217 1.73444,0.179582 3.17844,0.102689 2.33011,-0.1241 2.80609,-0.05979 4.23097,0.571565 1.80947,0.802767 4.27289,2.602592 6.8817,5.030932 2.97941,2.77335 3.00607,3.08161 0.0957,1.10712 -4.47575,-3.03658 -5.27687,-3.25693 -11.17127,-3.07263 -4.30447,0.13458 -5.24649,0.005 -5.44734,-0.74661 z m 30.9236,13.542574 c -0.24463,-0.63193 0.31852,-1.054 1.11721,-0.83735 1.10497,0.29977 1.12486,0.43468 0.12624,0.85758 -0.87263,0.36952 -1.09398,0.36594 -1.24345,-0.0202 z m -0.83402,-2.0795 c 0.0312,-0.62805 -0.001,-0.61022 0.9703,-0.53174 1.09881,0.0888 1.07926,0.0783 0.90122,0.48128 -0.0815,0.18435 -0.49424,0.39247 -0.9173,0.46248 -0.94786,0.15686 -0.98176,0.14223 -0.95431,-0.41181 z M 91.865196,22.201012 c 0.15586,-0.352761 2.93213,-1.26072 4.95735,-1.621292 5.479144,-0.975483 15.026844,-0.291085 17.898924,1.283034 0.85692,0.469688 0.78324,0.475079 -0.92092,0.06746 -2.27626,-0.544473 -5.50929,-0.586518 -8.35496,-0.108722 -1.54473,0.259365 -2.51119,0.251462 -3.44862,-0.02822 -2.403014,-0.716972 -5.692204,-0.649819 -8.655714,0.176714 -0.8619,0.240365 -1.52614,0.344357 -1.47606,0.231017 z m 43.676014,18.375904 c -0.21435,-0.392854 -0.54904,-0.722214 -0.74378,-0.731894 -0.19476,-0.01 -0.39553,-0.30712 -0.4462,-0.661 -0.0572,-0.39951 -0.34529,-0.75528 -0.75994,-0.93849 -0.36731,-0.16229 -0.62081,-0.40146 -0.56336,-0.5315 0.15573,-0.35246 1.4235,-0.50045 2.40975,-0.28128 0.83034,0.18449 0.84462,0.20903 0.32657,0.56078 -0.61355,0.41663 -0.56192,0.96054 0.0681,0.71665 0.63758,-0.24682 1.25812,0.1504 1.1913,0.7626 -0.0331,0.30356 0.0893,0.618 0.27219,0.69879 0.62456,0.275954 0.43378,0.846564 -0.34673,1.037104 -0.95305,0.23264 -0.93081,0.24262 -1.40781,-0.63186 z m -3.83399,-4.456464 -0.45555,-0.60567 1.1075,0.0192 c 1.24135,0.0216 1.5083,0.26138 0.73186,0.6575 -0.45803,0.23365 -0.46116,0.26865 -0.0263,0.29367 0.2715,0.0157 0.45218,0.12227 0.40154,0.23689 -0.0881,0.1993 -0.81308,0.25247 -1.14551,0.084 -0.0869,-0.0439 -0.36291,-0.3526 -0.61348,-0.68567 z m -5.31426,-3.96574 c -0.82522,-0.9875 -1.83203,-2.023093 -2.23738,-2.301284 -0.40531,-0.278241 -0.68602,-0.621099 -0.62377,-0.761999 0.0623,-0.140927 1.13574,-0.672895 2.38551,-1.182171 1.24977,-0.509267 2.47384,-1.184583 2.72016,-1.500679 0.58314,-0.748357 0.36866,-1.469996 -0.55867,-1.879725 -0.72451,-0.32011 -0.72476,-0.325686 -0.0913,-1.453283 0.80036,-1.424703 2.25798,-2.62259 2.95743,-2.430432 0.72732,0.199772 1.02042,1.54602 0.6866,3.153361 -0.56319,2.711615 -3.22591,10.432282 -3.53881,10.260912 -0.10968,-0.0601 -0.87457,-0.91718 -1.69978,-1.9047 z m 5.29337,2.70367 c 0.047,-0.10648 0.28241,-0.27093 0.52303,-0.36545 0.35041,-0.13761 0.37421,-0.25663 0.11955,-0.59792 -0.17487,-0.23432 -0.22924,-0.62684 -0.12083,-0.87219 0.1084,-0.24535 0.0756,-0.56685 -0.0728,-0.71443 -0.29403,-0.29232 0.0981,-3.321493 1.1582,-8.946622 0.73367,-3.893057 0.6512,-5.140334 -0.4137,-6.256119 -0.7714,-0.808296 -2.44004,-1.082464 -3.67614,-0.603884 -0.73115,0.283045 -0.92895,0.545211 -1.6651,2.206986 -1.87687,4.235526 -4.04259,6.590806 -6.63433,7.21283 -1.73666,0.41683 -2.20014,0.128927 -3.26164,-2.025974 l -0.74927,-1.521034 0.75223,-1.423154 c 0.87883,-1.662712 2.61829,-3.413194 5.71983,-5.756117 1.75448,-1.325353 2.50346,-1.716364 3.60458,-1.881796 1.7406,-0.261515 4.99024,0.357351 6.38304,1.215638 2.09238,1.289348 3.28316,4.707138 3.49951,10.044363 0.11084,2.734315 -0.83361,5.263645 -2.45663,6.579093 -1.04401,0.84617 -1.07451,0.89923 -0.62972,1.09576 0.35729,0.15786 0.38084,0.30455 0.0999,0.62266 -0.26079,0.29532 -0.2574,0.46479 0.0118,0.58375 0.49368,0.21813 0.44311,0.30052 -0.70457,1.14779 -0.85724,0.63282 -1.7191,0.78111 -1.48701,0.25582 z"
       style="fill:#ffffff;stroke-width:0.0700042;fill-opacity:1"
       id="path864" />
  </g>
</svg>
